<?xml version="1.0" encoding="utf-8"?>
<!-- Generator: Adobe Illustrator 26.1.0, SVG Export Plug-In . SVG Version: 6.00 Build 0)  -->
<svg version="1.1" id="Layer_1" xmlns="http://www.w3.org/2000/svg" xmlns:xlink="http://www.w3.org/1999/xlink" x="0px" y="0px"
	 viewBox="0 0 187.7 190.5" style="enable-background:new 0 0 187.7 190.5;" xml:space="preserve">
<style type="text/css">
	.st0{fill:#5E91BF;}
	.st1{fill:#1C3054;}
</style>
<g id="d">
	<g>
		<path class="st0" d="M147,11.9H51.6c-22.7,0-41.1,18.4-41.1,41.1v95.4c0,22.7,18.4,41.1,41.1,41.1H147c22.7,0,41.1-18.4,41.1-41.1
			V53C188.1,30.3,169.7,11.9,147,11.9z M105.5,135.2L105.5,135.2l-0.1,0.1c-2.5,5-6,9.4-10.6,13.1c-5,4-10.8,6.7-17.2,7.8
			c-1.1,0.2-2.2,0.3-3.3,0.5c-0.5,0.1-1,0.1-1.5,0.2l-3.8,0l-0.2,0c-0.3-0.1-0.5-0.1-0.8-0.2c-0.6-0.1-1.1-0.1-1.7-0.2
			c-1-0.1-2.1-0.2-3.1-0.5c-9.1-1.9-16.7-6.6-22.5-14c-4.3-5.5-6.9-11.8-7.8-18.7c-0.1-1.2-0.3-2.4-0.4-3.7l0-0.3l0-1.7
			c0.1-0.5,0.1-1,0.2-1.5c0.1-1,0.2-2,0.3-3c0.6-4.4,1.9-8.6,3.9-12.3c2.4-4.6,5.7-8.6,9.6-11.9c4.7-3.9,10.1-6.6,16-7.9
			c1.1-0.2,2.2-0.4,3.3-0.6c0.6-0.1,1.2-0.2,1.7-0.3l6.9,0c0.3,0,0.6,0.1,0.9,0.1s0.6,0.1,0.9,0.1c9.7,1.5,17.8,5.9,24,13.1
			c5.3,6.2,8.4,13.4,9.2,21.5C109.9,122,108.6,128.8,105.5,135.2z"/>
		<path class="st0" d="M85,125.5c0.1-0.4,0.2-0.6,0.2-0.6c0,0-0.8-0.3-1.8-1C83.9,124.5,84.5,125,85,125.5z"/>
		<path class="st0" d="M83.4,123.8C83.4,123.8,83.4,123.8,83.4,123.8C83.4,123.8,83.4,123.8,83.4,123.8L83.4,123.8z"/>
		<path class="st0" d="M76.7,104.7c-3.2-0.3-6.2,1.9-7.8,1.9s-4.1-1.8-6.8-1.8c-3.5,0-6.7,2-8.5,5.1c-3.6,6.3-0.9,15.5,2.6,20.6
			c1,1.5,2.2,3.1,3.6,4.2c-0.6-0.7-1.1-1.4-1.6-2.2c-3.5-5.1-6.2-14.4-2.6-20.6c1.8-3.1,5-5.1,8.5-5.1c2.6-0.1,5.1,1.8,6.8,1.8
			s4.6-2.2,7.8-1.9c1,0,3.2,0.3,5.3,1.8C81.6,105.3,78,104.8,76.7,104.7z"/>
		<path class="st0" d="M69.5,104.2c0.1-2,1.1-4,2.2-5.3h0c1.2-1.5,3.2-2.6,5-3c0-0.4,0-0.8,0-1.1c-2.1,0.1-4.5,1.4-6,3.1
			c-1.3,1.5-2.5,4-2.2,6.3C68.8,104.3,69.2,104.3,69.5,104.2z"/>
	</g>
	<g>
		<path class="st1" d="M68.7,78c-21.1,0-38.2,17.1-38.2,38.2c0,21.1,17.1,38.2,38.2,38.2c21.1,0,38.2-17.1,38.2-38.2
			C106.9,95.1,89.8,78,68.7,78z M70.7,97.9c1.5-1.7,4-3,6-3.1c0.3,2.4-0.7,4.8-2.1,6.5s-3.8,3.1-6.1,2.9
			C68.2,101.9,69.4,99.5,70.7,97.9z M82.4,130.7c-1.7,2.5-3.5,5-6.3,5c-2.7,0-3.6-1.6-6.8-1.6s-4.1,1.6-6.7,1.7
			c-2.7,0.1-4.7-2.7-6.5-5.2c-3.5-5.1-6.2-14.4-2.6-20.6c1.8-3.1,5-5.1,8.5-5.1c2.6-0.1,5.1,1.8,6.8,1.8s4.6-2.2,7.8-1.9
			c1.3,0,5.1,0.5,7.5,4c-0.2,0.1-4.5,2.6-4.4,7.8c0.1,6.2,5.4,8.2,5.5,8.3C85.2,125,84.4,127.8,82.4,130.7z"/>
		<path class="st1" d="M139,1H43.6c-24.3,0-44,19.7-44,44v95.4c0,24.3,19.7,44,44,44H139c24.3,0,44-19.7,44-44V45
			C183,20.7,163.3,1,139,1z M156.2,174.3l-48.5-32.1c-0.7-0.5-1.6-0.3-2.1,0.4c-0.5,0.7-0.3,1.6,0.4,2.1l46.9,31.1
			c-4.3,1.7-9,2.7-14,2.7H97.9v-27.1c0-0.8-0.7-1.5-1.5-1.5s-1.5,0.7-1.5,1.5v27.1H43.6c-0.3,0-0.6,0-0.9,0v-25
			c0-0.8-0.7-1.5-1.5-1.5s-1.5,0.7-1.5,1.5v24.9c-19.1-2-34.1-18.2-34.1-37.8v-62L26.9,95c0.3,0.2,0.6,0.3,0.9,0.3
			c0.4,0,0.9-0.2,1.2-0.6c0.5-0.7,0.4-1.6-0.3-2.1L5.6,74.6V45c0-19.6,15-35.8,34.1-37.8v30.9c0,0.8-0.3,3.3-1.6,4.1
			c-1.1,0.7-2.8,0-4-0.6L14.4,28.8c-0.7-0.4-1.6-0.3-2.1,0.4c-0.5,0.7-0.3,1.6,0.4,2.1l19.7,12.8c0,0,0.1,0,0.1,0.1
			c1.6,0.8,3.1,1.3,4.4,1.3c1,0,1.9-0.2,2.7-0.7c3-1.8,3.1-6.2,3.1-6.7V7c0.3,0,0.6,0,0.9,0h4.9v66.8c0,0.2,0.1,0.4,0.3,0.4
			c0.1,0,0.2,0.1,0.2,0.1c0.1,0,0.2,0,0.3-0.1c0.1-0.1,14-9.1,37.8-0.9c0.2,0.1,0.3,0,0.5-0.1c0.1-0.1,0.2-0.2,0.2-0.4V7h6.6v70
			c0,0.8,0.7,1.5,1.5,1.5s1.5-0.7,1.5-1.5V7h16.6c1.2,30.9,24.3,57.7,55.2,63.2c0,0,0,0,0,0c0,0,0,0,0,0c0,0,0,0,0,0c0,0,0,0,0,0
			c0.6,0.1,1.2,0.2,1.9,0.3c0.1,0,0.1,0,0.2,0c0.7,0,1.4-0.5,1.5-1.3c0.1-0.8-0.4-1.6-1.3-1.7c-0.6-0.1-1.2-0.2-1.8-0.3c0,0,0,0,0,0
			c0,0,0,0,0,0C140.2,62,118.1,36.5,116.9,7H139c20.7,0,37.5,16.6,38,37.1c-18.3-2.5-32.3-15.7-35.7-34c-0.2-0.8-0.9-1.3-1.8-1.2
			c-0.8,0.2-1.3,0.9-1.2,1.8c3.7,19.7,18.8,33.9,38.7,36.4v88.7l-63.9-38.1c-0.7-0.4-1.6-0.2-2.1,0.5c-0.4,0.7-0.2,1.6,0.5,2.1
			l65.4,39v1C177,155.2,168.5,168,156.2,174.3z"/>
	</g>
</g>
</svg>
