<?xml version="1.0" encoding="UTF-8"?><svg xmlns="http://www.w3.org/2000/svg" viewBox="0 0 1559.69 1855.65"><g id="a"/><g id="b"><g id="c"><path d="M1557.22,343.41c.18-45.37-30.74-73.27-75.84-75.37-69.16-3.21-138.74-7.49-206.97-18.56-131.18-21.3-250.73-72.94-356.85-153.62-40.55-30.83-79.45-63.84-119.1-95.85h-36.27c-17.32,13.55-34.83,26.86-51.89,40.73-12.65,10.28-24.46,21.6-37.07,31.92-135.15,110.65-290.92,171.08-463.8,188.51-45.59,4.6-91.57,5.4-137.38,7.71-39.4,1.99-67.26,27.24-67.73,63.66-2.42,187.81-11.42,375.68,7.02,563.27,10.41,105.89,28.59,210.11,62.38,311.22,57.4,171.75,153.41,317.41,293.23,433.48,116.2,96.46,248.68,163.05,390.56,211.83,14.64,5.03,34.16,4.02,49.04-1.09,101.81-34.93,198.88-80.13,289.41-138.9,197.25-128.07,329.44-305,398.66-529.43,44.47-144.17,61.66-292.65,64.37-442.56,2.39-132.27-2.33-264.65-1.79-396.97ZM264.12,562.62l463.65-228.78c18-8.88,39.79-1.49,48.67,16.51,8.88,18,1.49,39.79-16.51,48.67l-463.65,228.78c-5.17,2.55-10.65,3.76-16.05,3.76-13.4,0-26.29-7.44-32.62-20.27-8.88-18-1.49-39.79,16.51-48.67Zm-67.83,345.02c-9.86-20.13-1.54-44.43,18.59-54.29l926.14-453.65c20.12-9.86,44.43-1.54,54.29,18.59,9.86,20.12,1.54,44.43-18.59,54.29L250.58,926.23c-5.74,2.81-11.83,4.15-17.82,4.15-15,0-29.43-8.35-36.47-22.74Zm111.39,291.53c-7.24,3.55-14.92,5.23-22.48,5.23-18.93,0-37.12-10.54-46.01-28.69-12.44-25.39-1.94-56.06,23.46-68.49l1030.77-504.9c25.39-12.44,56.05-1.94,68.49,23.45,12.44,25.39,1.94,56.06-23.46,68.49L307.68,1199.17Zm924.8,104.73l-562.33,275.44c-5.14,2.52-10.59,3.71-15.96,3.71-13.44,0-26.35-7.48-32.66-20.36-8.83-18.02-1.38-39.79,16.65-48.62l562.33-275.44c18.03-8.83,39.79-1.38,48.62,16.65,8.83,18.02,1.37,39.79-16.65,48.62Zm151.92-334.37l-933.36,457.18c-5.74,2.81-11.83,4.15-17.82,4.15-15,0-29.43-8.35-36.47-22.74-9.86-20.12-1.54-44.43,18.59-54.29l933.36-457.18c20.12-9.86,44.43-1.54,54.29,18.59,9.86,20.13,1.54,44.43-18.59,54.29Z"/></g></g></svg>