<?xml version="1.0" encoding="UTF-8"?><svg xmlns="http://www.w3.org/2000/svg" viewBox="0 0 28.2 23.3"><g id="a"/><g id="b"><g id="c"><g><path d="M4.48,6.12c1.69,0,3.06-1.37,3.06-3.06S6.17,0,4.48,0,1.42,1.37,1.42,3.06s1.37,3.06,3.06,3.06Z"/><path d="M22.12,6.12c1.69,0,3.06-1.37,3.06-3.06s-1.37-3.06-3.06-3.06-3.06,1.37-3.06,3.06,1.37,3.06,3.06,3.06Z"/><path d="M7.77,6.95h-1.74c-.48,.19-1,.3-1.55,.3s-1.07-.11-1.55-.3H1.19c-.66,0-1.19,.54-1.19,1.19v7.09c0,.66,.54,1.19,1.19,1.19h.22v5.54c0,.73,.6,1.33,1.33,1.33h3.47c.73,0,1.33-.6,1.33-1.33v-5.54h.22c.66,0,1.19-.54,1.19-1.19v-7.09c0-.66-.54-1.19-1.19-1.19Z"/><path d="M26.59,8.14c0-.66-.54-1.19-1.19-1.19h-1.72c-.48,.19-1,.3-1.55,.3s-1.07-.11-1.55-.3h-1.75c-.66,0-1.19,.54-1.19,1.19l-1.59,8.66c0,.66,.54,1.19,1.19,1.19h1.83v3.98c0,.73,.6,1.33,1.33,1.33h3.47c.73,0,1.33-.6,1.33-1.33v-3.98h1.83c.66,0,1.19-.54,1.19-1.19l-1.62-8.66Z"/><rect x="11.63" width="3.06" height="23.28"/></g></g></g></svg>