<svg width="30" height="27" viewBox="0 0 30 27" fill="none" xmlns="http://www.w3.org/2000/svg">
<g clip-path="url(#clip0_103_144)">
<path fill-rule="evenodd" clip-rule="evenodd" d="M15.8726 2.125C8.15339 2.125 1.89868 7.25163 1.89868 13.5758C1.89868 16.7608 3.4875 19.6422 6.04898 21.7192L3.63559 26.4399L9.26318 23.6682C11.2323 24.5366 13.4811 25.0284 15.8744 25.0284C23.5918 25.0284 29.8483 19.9018 29.8483 13.5758C29.8483 7.2498 23.5899 2.125 15.8726 2.125Z" fill="white"/>
<path fill-rule="evenodd" clip-rule="evenodd" d="M14.6861 0.938477C6.96869 0.938477 0.712158 6.0651 0.712158 12.3911C0.712158 15.5761 2.30097 18.4575 4.86246 20.5345L2.44907 25.2552L8.07666 22.4835C10.0458 23.3519 12.2946 23.8438 14.6879 23.8438C22.4053 23.8438 28.6618 18.7171 28.6618 12.3911C28.6618 6.0651 22.4034 0.938477 14.6861 0.938477Z" stroke="#303B48" stroke-width="1.097" stroke-linecap="round" stroke-linejoin="round"/>
</g>
<defs>
<clipPath id="clip0_103_144">
<rect width="29.6829" height="26.05" fill="white" transform="translate(0.163574 0.390015)"/>
</clipPath>
</defs>
</svg>
