<?xml version="1.0" encoding="UTF-8"?><svg xmlns="http://www.w3.org/2000/svg" viewBox="0 0 2475.39 2475.39"><defs><style>.d{fill:#f0f1f4;}.e{fill:#1e3056;}</style></defs><g id="a"/><g id="b"><g id="c"><g><rect class="e" width="2475.39" height="2475.39"/><path class="d" d="M1237.7,404.98c-440.84,0-798.21,372.82-798.21,832.72s357.37,832.72,798.21,832.72,798.21-372.82,798.21-832.72-357.37-832.72-798.21-832.72Zm395.97,1266.4c-12.62,12.69-29.2,19.02-45.78,19.02s-33-6.29-45.61-18.84l-301.58-300.44c-102.24,119.38-187.84,204.38-195.39,211.85-12.59,12.41-28.99,18.63-45.39,18.63s-33.34-6.4-45.99-19.21c-25.07-25.4-24.82-66.29,.56-91.38,1.84-1.82,90.26-89.66,194.19-211.57l-306.79-305.64c-25.29-25.18-25.36-66.1-.17-91.39,25.18-25.25,66.1-25.37,91.39-.17l297.95,296.83c89.31-113.36,176.65-241.08,220.94-353.19,13.1-33.19,50.61-49.46,83.84-36.36,33.19,13.11,49.47,50.64,36.36,83.84-51.22,129.65-150.27,273.51-248.84,397.66l310.14,308.98c25.29,25.2,25.36,66.11,.17,91.38Z"/></g></g></g></svg>