<?xml version="1.0" encoding="UTF-8"?><svg xmlns="http://www.w3.org/2000/svg" viewBox="0 0 385.15 385.15"><defs><style>.d{fill:#fec101;}.e{fill:#1e3056;}</style></defs><g id="a"/><g id="b"><g id="c"><g><rect class="d" width="385.15" height="385.15"/><path class="e" d="M192.57,63.01c-68.59,0-124.19,58.01-124.19,129.56s55.6,129.56,124.19,129.56,124.19-58.01,124.19-129.56S261.16,63.01,192.57,63.01Zm61.61,197.04c-1.96,1.97-4.54,2.96-7.12,2.96s-5.13-.98-7.1-2.93l-46.92-46.75c-15.91,18.57-29.23,31.8-30.4,32.96-1.96,1.93-4.51,2.9-7.06,2.9s-5.19-1-7.16-2.99c-3.9-3.95-3.86-10.31,.09-14.22,.29-.28,14.04-13.95,30.21-32.92l-47.73-47.55c-3.93-3.92-3.95-10.28-.03-14.22,3.92-3.93,10.28-3.95,14.22-.03l46.36,46.18c13.9-17.64,27.48-37.51,34.38-54.95,2.04-5.16,7.87-7.7,13.04-5.66,5.16,2.04,7.7,7.88,5.66,13.04-7.97,20.17-23.38,42.56-38.72,61.87l48.26,48.07c3.93,3.92,3.95,10.29,.03,14.22Z"/></g></g></g></svg>