<?xml version="1.0" encoding="UTF-8"?><svg xmlns="http://www.w3.org/2000/svg" viewBox="0 0 428.5 425.62"><defs><style>.d{fill:#fdef7f;}.e{fill:#c3c7c9;}.f{fill:#9f9fa0;}.g{fill:#0e6866;}.h{fill:#852655;}.i{fill:#013b7c;}.j{fill:#303b48;}</style></defs><g id="a"/><g id="b"><g id="c"><g><rect class="i" x="131.27" width="2.24" height="260.3"/><rect class="i" x="292.25" width="2.24" height="300.29"/><g><path class="e" d="M294.28,277.95l-166.95-19.49c-7.13-.83-13.59,4.28-14.43,11.41l-12.46,106.75c-.83,7.13,4.28,13.59,11.41,14.43l166.95,19.49c7.13,.83,13.59-4.28,14.43-11.41l12.46-106.75c.83-7.13-4.28-13.59-11.41-14.43Z"/><path class="j" d="M304.45,302.94l1.23-10.57c.83-7.13-4.28-13.59-11.41-14.43l-166.95-19.49c-7.13-.83-13.59,4.28-14.43,11.41l-1.23,10.57,192.78,22.5Z"/><g><path class="h" d="M131.35,273.21c-.22,1.92-1.96,3.29-3.88,3.07-1.92-.22-3.29-1.96-3.07-3.88,.22-1.92,1.96-3.29,3.88-3.07s3.29,1.96,3.07,3.88Z"/><path class="d" d="M148.1,275.17c-.22,1.92-1.96,3.29-3.88,3.07-1.92-.22-3.29-1.96-3.07-3.88s1.96-3.29,3.88-3.07c1.92,.22,3.29,1.96,3.07,3.88Z"/><path class="g" d="M165.46,277.19c-.22,1.92-1.96,3.29-3.88,3.07s-3.29-1.96-3.07-3.88c.22-1.92,1.96-3.29,3.88-3.07,1.92,.22,3.29,1.96,3.07,3.88Z"/></g></g></g><g><path class="i" d="M140.66,365.73c-2.2-.27-4.5-.91-6.92-1.91-2.41-1-4.34-2.25-5.78-3.76-.69-.75-1.2-1.67-1.51-2.77-.32-1.1-.42-2.12-.3-3.07,.13-1.01,.68-1.91,1.65-2.69,.97-.78,2.26-1.08,3.87-.88,1.07,.13,2.34,.87,3.8,2.2,.88,.71,1.85,1.38,2.92,2,1.07,.62,2.2,1,3.39,1.15,2.85,.36,5.38,.15,7.6-.63,2.21-.78,3.99-2.02,5.35-3.72,1.36-1.7,2.2-3.8,2.51-6.3,.28-2.26,0-4.26-.84-5.99-.84-1.73-2.05-3.15-3.63-4.26-1.58-1.1-3.35-1.78-5.32-2.02-1.84-.23-3.48-.13-4.93,.29-1.44,.42-2.77,.88-3.97,1.36-1.21,.48-2.38,.65-3.5,.51-1.96-.25-3.37-.86-4.21-1.84-.84-.98-1.31-2.08-1.4-3.3-.09-1.22-.01-2.3,.22-3.23l5.47-21.32c.39-1.22,1.13-2.17,2.21-2.85,1.08-.68,2.3-.93,3.67-.76l25.77,3.22c1.43,.18,2.55,.8,3.39,1.87,.83,1.07,1.16,2.32,.98,3.75-.17,1.37-.79,2.45-1.86,3.25-1.07,.8-2.31,1.11-3.74,.94l-23-2.88,1.08-.68-4.67,17.8-.74-3.53c.43-.55,1.27-1.02,2.53-1.41,1.25-.39,2.68-.67,4.27-.87,1.59-.19,3.13-.2,4.62-.01,3.98,.5,7.44,1.85,10.36,4.06,2.92,2.21,5.1,4.98,6.52,8.33,1.42,3.35,1.89,6.98,1.4,10.91-.56,4.46-2.06,8.23-4.49,11.3-2.44,3.08-5.6,5.29-9.48,6.65-3.88,1.36-8.32,1.72-13.31,1.1Z"/><path class="i" d="M197.02,372.78c-5.11-.64-9.27-2.53-12.47-5.68-3.2-3.15-5.42-7.26-6.65-12.33-1.24-5.07-1.46-10.76-.67-17.06,.79-6.36,2.41-11.83,4.86-16.42,2.44-4.58,5.6-8.01,9.48-10.27,3.87-2.26,8.37-3.07,13.48-2.43,5.11,.64,9.27,2.53,12.47,5.68,3.2,3.15,5.42,7.25,6.66,12.29,1.24,5.04,1.46,10.75,.67,17.11-.79,6.3-2.41,11.76-4.86,16.37-2.45,4.62-5.61,8.05-9.48,10.32-3.88,2.26-8.37,3.07-13.48,2.43Zm1.34-10.7c2.5,.31,4.75-.21,6.76-1.55,2.01-1.35,3.72-3.55,5.13-6.6,1.41-3.05,2.41-6.96,3-11.71,.6-4.82,.59-8.86-.02-12.14-.62-3.28-1.73-5.82-3.35-7.62-1.62-1.8-3.67-2.86-6.17-3.17-2.44-.3-4.68,.22-6.72,1.56-2.04,1.35-3.76,3.53-5.17,6.56-1.41,3.02-2.41,6.94-3.01,11.76-.59,4.76-.59,8.79,.03,12.09,.61,3.31,1.74,5.86,3.39,7.67,1.65,1.81,3.69,2.86,6.13,3.17Z"/><path class="i" d="M250.87,379.51c-5.11-.64-9.27-2.53-12.47-5.68-3.2-3.15-5.42-7.26-6.65-12.33-1.24-5.07-1.46-10.76-.67-17.06,.8-6.36,2.42-11.83,4.86-16.42,2.44-4.58,5.6-8.01,9.48-10.27,3.87-2.26,8.37-3.07,13.48-2.44,5.11,.64,9.27,2.53,12.47,5.68,3.2,3.15,5.42,7.24,6.66,12.29,1.24,5.05,1.46,10.75,.67,17.11-.79,6.3-2.41,11.76-4.86,16.37-2.45,4.62-5.61,8.05-9.48,10.32-3.88,2.26-8.37,3.07-13.48,2.44Zm1.34-10.7c2.5,.31,4.75-.21,6.76-1.56,2.01-1.35,3.72-3.55,5.13-6.6,1.41-3.05,2.41-6.96,3-11.71,.6-4.82,.59-8.86-.02-12.14s-1.73-5.82-3.35-7.62c-1.62-1.8-3.67-2.86-6.17-3.17-2.44-.3-4.68,.22-6.71,1.56-2.04,1.35-3.76,3.53-5.17,6.55-1.41,3.02-2.41,6.94-3.01,11.76-.59,4.76-.59,8.79,.03,12.09,.61,3.31,1.74,5.86,3.39,7.67,1.65,1.81,3.69,2.86,6.12,3.17Z"/></g><g><path class="f" d="M116.45,421.62H20.45c-1.1,0-2,.9-2,2s.9,2,2,2H116.45c1.1,0,2-.9,2-2s-.9-2-2-2Z"/><path class="f" d="M54.45,414.62c0,1.1,.9,2,2,2h46c1.1,0,2-.9,2-2s-.9-2-2-2H56.45c-1.1,0-2,.9-2,2Z"/><path class="f" d="M426.5,226.9h-96c-1.1,0-2,.9-2,2s.9,2,2,2h96c1.1,0,2-.9,2-2s-.9-2-2-2Z"/><path class="f" d="M366.5,221.9h46c1.1,0,2-.9,2-2s-.9-2-2-2h-46c-1.1,0-2,.9-2,2s.9,2,2,2Z"/><path class="f" d="M27.9,238.21h41c-.52-7.26-6.56-13-13.95-13-2.58,0-4.99,.71-7.06,1.93-3.07-3.04-7.28-4.93-11.94-4.93-5.29,0-9.99,2.43-13.1,6.21-2.42-2-5.51-3.21-8.9-3.21-7.39,0-13.43,5.74-13.95,13H27.9Z"/><path class="f" d="M355,353.32c-2.55,0-4.94,.69-7,1.89-2.06-1.19-4.45-1.89-7-1.89s-4.98,.71-7.05,1.92c-3.07-3.04-7.29-4.92-11.95-4.92-5.28,0-10,2.41-13.11,6.18-2.42-1.99-5.51-3.18-8.89-3.18-7.73,0-14,6.27-14,14,0,.34,.03,.67,.05,1h82.9c.02-.33,.05-.66,.05-1,0-7.73-6.27-14-14-14Z"/></g><g><path class="i" d="M113.45,380.12c-.03,.24-.14,.43-.34,.57-.2,.14-.41,.2-.64,.17-.26-.03-.46-.14-.59-.32-.14-.18-.19-.39-.16-.63l1-8.03c.03-.24,.14-.43,.33-.57,.19-.14,.41-.2,.67-.16,.22,.03,.41,.13,.56,.32,.15,.18,.21,.4,.18,.64l-1,8.03Z"/><path class="i" d="M123.89,372.4c.22,.03,.39,.12,.51,.29,.12,.17,.17,.36,.14,.58l-1.01,8.1c-.03,.24-.14,.43-.32,.57-.18,.14-.39,.2-.63,.17-.12-.01-.24-.05-.36-.11-.12-.06-.21-.13-.26-.21l-4.59-7.61,.39-.18-.83,6.61c-.03,.22-.12,.4-.29,.53s-.36,.18-.59,.15c-.22-.03-.39-.12-.52-.29-.12-.17-.17-.36-.14-.58l1.01-8.1c.03-.24,.14-.43,.32-.57s.39-.2,.63-.17c.13,.02,.26,.06,.39,.13,.13,.07,.23,.16,.28,.27l4.45,7.41-.26,.14,.81-6.45c.03-.22,.12-.4,.28-.53,.16-.13,.35-.18,.58-.15Z"/><path class="i" d="M126.61,374.37c-.24-.03-.43-.13-.58-.3-.14-.17-.2-.37-.17-.61,.03-.24,.14-.42,.32-.55,.18-.12,.39-.17,.63-.14l6.17,.77c.24,.03,.43,.13,.58,.3,.14,.17,.2,.37,.17,.61-.03,.24-.14,.42-.31,.55-.18,.12-.39,.17-.63,.14l-6.17-.77Zm2.05,8.51c-.26-.03-.46-.14-.61-.32-.15-.18-.2-.39-.17-.63l1.01-8.06,1.81,.23-1.01,8.06c-.03,.24-.14,.43-.33,.57-.19,.14-.42,.19-.69,.16Z"/><path class="i" d="M135.99,373.92l4.65,.58c.24,.03,.43,.13,.58,.3s.2,.38,.17,.62c-.03,.23-.13,.41-.31,.53-.18,.12-.39,.17-.63,.14l-3.89-.49,.15-.22-.34,2.71-.1-.12,3.25,.41c.24,.03,.43,.13,.58,.3,.14,.17,.2,.38,.17,.62-.03,.23-.13,.41-.31,.53-.18,.12-.39,.17-.63,.14l-3.21-.4,.08-.1-.35,2.81-.09-.14,3.88,.48c.24,.03,.43,.14,.58,.32,.14,.18,.2,.38,.17,.59-.03,.23-.13,.41-.31,.54s-.39,.18-.63,.15l-4.65-.58c-.24-.03-.43-.14-.57-.32-.14-.18-.2-.39-.17-.63l1-8.03c.03-.24,.14-.43,.32-.57s.39-.2,.64-.17Z"/><path class="i" d="M142.73,384.64c-.26-.03-.48-.14-.66-.33-.18-.19-.26-.4-.23-.64l1-8.03c.03-.24,.14-.43,.32-.57,.18-.14,.39-.2,.63-.17l4,.5c.48,.06,.92,.24,1.31,.55,.39,.31,.69,.7,.89,1.18,.2,.48,.27,1.01,.2,1.6-.04,.35-.16,.68-.34,1-.19,.32-.42,.59-.7,.83-.28,.24-.58,.41-.9,.52l.05-.32c.24,.17,.44,.36,.59,.57,.15,.21,.26,.43,.33,.66,.07,.23,.1,.47,.09,.72,0,.24,0,.44,0,.62,0,.18,0,.33,.03,.45,.03,.13,.1,.23,.21,.31,.19,.15,.29,.34,.32,.57,.02,.23-.06,.43-.24,.58-.12,.11-.26,.17-.42,.18-.16,.01-.32,0-.47-.06-.15-.05-.28-.11-.37-.18-.15-.11-.29-.27-.42-.47-.13-.2-.23-.46-.29-.78-.06-.32-.06-.72,0-1.2,.02-.16,.01-.31-.03-.45-.04-.14-.1-.27-.19-.38-.09-.11-.21-.2-.36-.27-.15-.07-.33-.12-.55-.15l-2.81-.35,.25-.29-.38,3.01c-.03,.24-.12,.43-.27,.58-.15,.15-.34,.21-.57,.18Zm1.16-4.91l3.24,.41c.17,.02,.34-.04,.52-.17,.18-.13,.33-.33,.47-.58,.13-.25,.22-.53,.26-.85,.05-.41-.02-.76-.2-1.06-.18-.3-.4-.47-.65-.5l-3.21-.4,.22-.42-.49,3.93-.15-.36Z"/><path class="i" d="M159.73,376.89c.22,.03,.39,.12,.51,.29,.12,.17,.17,.36,.14,.58l-1.01,8.1c-.03,.24-.14,.43-.32,.57-.18,.14-.39,.2-.63,.17-.12-.01-.24-.05-.36-.11-.12-.06-.21-.13-.26-.21l-4.59-7.61,.39-.18-.83,6.61c-.03,.22-.12,.4-.28,.53-.16,.13-.36,.18-.59,.15-.22-.03-.39-.12-.51-.29-.12-.17-.17-.36-.14-.58l1.01-8.1c.03-.24,.14-.43,.32-.57,.18-.14,.39-.2,.64-.17,.13,.02,.26,.06,.39,.13,.13,.07,.22,.16,.28,.27l4.45,7.41-.26,.14,.8-6.45c.03-.22,.12-.4,.28-.53,.16-.13,.35-.18,.58-.15Z"/><path class="i" d="M165.72,379.85l-3.88,6.68c-.09,.17-.2,.29-.35,.37-.15,.08-.3,.11-.46,.09-.25-.03-.43-.12-.53-.28-.1-.15-.14-.33-.12-.54,.01-.08,.04-.17,.08-.26l4.5-7.88c.1-.17,.23-.3,.39-.39,.17-.08,.34-.1,.51-.06,.17,.02,.32,.09,.45,.21,.13,.11,.22,.26,.26,.45l2.4,8.57c.03,.13,.04,.24,.03,.34-.03,.25-.14,.44-.32,.57-.18,.13-.37,.18-.56,.16-.17-.02-.31-.09-.43-.21-.12-.12-.21-.27-.26-.46l-2.12-7.33,.41-.03Zm-3.24,5.04l.96-1.5,3.75,.47,.06,1.63-4.78-.6Z"/><path class="i" d="M175.51,387.08c.24,.03,.43,.13,.58,.3,.14,.17,.2,.38,.17,.62-.03,.23-.13,.41-.31,.55-.18,.13-.39,.18-.63,.15l-4.51-.56c-.24-.03-.43-.14-.57-.32-.14-.18-.2-.39-.17-.63l1-8.03c.03-.24,.14-.43,.33-.57,.19-.14,.41-.2,.67-.16,.22,.03,.41,.13,.56,.32,.15,.18,.21,.4,.18,.64l-.94,7.49-.27-.27,3.93,.49Z"/><path class="i" d="M184.47,390c-.65-.08-1.22-.23-1.72-.46-.5-.23-.96-.57-1.38-1.04-.11-.12-.19-.25-.23-.38-.05-.14-.07-.27-.05-.4,.03-.21,.12-.39,.3-.53,.17-.14,.38-.2,.61-.17,.18,.02,.33,.1,.45,.23,.32,.33,.64,.59,.97,.78,.33,.19,.75,.32,1.26,.38,.34,.04,.66,.03,.96-.04,.3-.07,.55-.18,.75-.34,.2-.16,.31-.35,.34-.58,.04-.28-.02-.52-.16-.74-.14-.21-.38-.41-.7-.59-.32-.18-.75-.33-1.27-.48-.49-.14-.92-.3-1.28-.5-.36-.2-.65-.43-.88-.7-.23-.27-.38-.57-.47-.91-.09-.33-.11-.7-.06-1.1,.07-.6,.29-1.1,.66-1.48,.36-.39,.82-.66,1.38-.81,.56-.16,1.15-.2,1.79-.12,.6,.08,1.15,.24,1.64,.48s.88,.53,1.17,.85c.24,.25,.34,.51,.31,.79-.03,.2-.13,.38-.31,.53-.18,.15-.37,.21-.59,.18-.14-.02-.26-.08-.36-.17-.13-.15-.32-.3-.55-.44-.24-.15-.49-.28-.75-.39-.27-.11-.52-.19-.76-.22-.4-.05-.74-.04-1.03,.03-.29,.07-.51,.18-.67,.34-.16,.16-.25,.35-.28,.58-.04,.28,.02,.52,.16,.72,.14,.2,.36,.37,.65,.52,.29,.15,.65,.29,1.06,.42,.54,.17,1.02,.35,1.42,.54,.4,.19,.73,.41,.98,.67,.25,.25,.42,.55,.52,.9,.1,.35,.12,.76,.06,1.23-.08,.6-.31,1.1-.7,1.49-.39,.39-.87,.67-1.44,.84s-1.17,.21-1.8,.13Z"/><path class="i" d="M191.58,380.87l4.65,.58c.24,.03,.43,.13,.58,.3s.2,.38,.17,.62c-.03,.23-.13,.41-.31,.53-.18,.12-.39,.17-.63,.14l-3.89-.49,.16-.22-.34,2.71-.1-.12,3.25,.41c.24,.03,.43,.13,.58,.3s.2,.38,.17,.62c-.03,.23-.13,.41-.31,.53-.18,.12-.39,.17-.63,.14l-3.21-.4,.08-.1-.35,2.81-.09-.14,3.88,.49c.24,.03,.43,.14,.57,.32,.14,.18,.2,.38,.17,.59-.03,.23-.13,.41-.31,.54-.18,.13-.39,.18-.63,.15l-4.65-.58c-.24-.03-.43-.14-.57-.32-.14-.18-.2-.39-.17-.63l1-8.03c.03-.24,.14-.43,.32-.57,.18-.14,.39-.2,.64-.17Z"/><path class="i" d="M198.33,391.59c-.26-.03-.48-.14-.66-.33-.18-.19-.26-.4-.23-.64l1-8.03c.03-.24,.14-.43,.32-.57,.18-.14,.39-.2,.63-.17l4,.5c.48,.06,.92,.24,1.31,.55,.39,.31,.69,.7,.89,1.18,.2,.48,.27,1.01,.2,1.6-.04,.35-.16,.68-.34,1-.19,.32-.42,.59-.7,.83-.28,.24-.58,.41-.9,.52l.05-.32c.24,.17,.44,.36,.59,.57,.15,.21,.25,.43,.33,.66,.07,.23,.1,.47,.09,.72,0,.24,0,.44,0,.62,0,.18,0,.33,.03,.46,.03,.13,.1,.23,.21,.31,.19,.15,.29,.34,.32,.57,.02,.23-.06,.43-.24,.58-.12,.11-.26,.17-.42,.18-.16,.01-.32,0-.47-.06-.15-.05-.28-.11-.37-.18-.15-.11-.29-.27-.42-.47-.13-.2-.23-.46-.29-.78-.06-.32-.06-.72,0-1.2,.02-.16,0-.31-.03-.45-.04-.14-.1-.27-.19-.38-.09-.11-.21-.2-.36-.27-.15-.07-.33-.12-.55-.15l-2.81-.35,.25-.29-.38,3.01c-.03,.24-.12,.43-.27,.58-.15,.15-.34,.21-.57,.18Zm1.16-4.91l3.24,.41c.17,.02,.34-.04,.52-.17,.18-.13,.33-.33,.47-.58,.13-.25,.22-.53,.26-.85,.05-.41-.02-.76-.2-1.06-.18-.3-.4-.46-.65-.5l-3.21-.4,.22-.42-.49,3.93-.15-.36Z"/><path class="i" d="M214.84,383.75c.23,.03,.42,.13,.58,.31,.15,.17,.21,.38,.19,.61-.02,.12-.06,.24-.13,.36l-4.44,7.6c-.11,.17-.24,.3-.41,.37-.16,.07-.33,.09-.48,.07-.15-.03-.29-.1-.41-.2-.13-.1-.22-.25-.27-.42l-2.42-8.49c-.02-.06-.03-.12-.04-.18,0-.06,0-.12,0-.18,.03-.27,.16-.46,.37-.58s.41-.17,.58-.15c.35,.04,.58,.25,.7,.64l2.15,7.53-.49-.05,3.69-6.82c.2-.33,.48-.48,.83-.43Z"/><path class="i" d="M217.86,384.15l4.65,.58c.24,.03,.43,.13,.58,.3s.2,.38,.17,.62c-.03,.23-.13,.41-.31,.53-.18,.12-.39,.17-.63,.14l-3.89-.49,.15-.22-.34,2.71-.1-.12,3.25,.41c.24,.03,.43,.13,.58,.3,.14,.17,.2,.38,.17,.62-.03,.23-.13,.41-.31,.53-.18,.12-.39,.17-.63,.14l-3.21-.4,.08-.1-.35,2.81-.09-.14,3.88,.48c.24,.03,.43,.14,.57,.32,.14,.18,.2,.38,.17,.59-.03,.23-.13,.41-.31,.54-.18,.13-.39,.18-.63,.15l-4.65-.58c-.24-.03-.43-.14-.57-.32-.14-.18-.2-.39-.17-.63l1-8.03c.03-.24,.14-.43,.32-.57s.39-.2,.63-.17Z"/><path class="i" d="M224.61,394.87c-.26-.03-.48-.14-.66-.33-.18-.19-.26-.4-.23-.64l1-8.03c.03-.24,.14-.43,.32-.57,.18-.14,.39-.2,.63-.17l4,.5c.48,.06,.92,.24,1.31,.55,.39,.31,.69,.7,.89,1.18,.2,.48,.27,1.01,.2,1.6-.04,.35-.16,.68-.34,1-.19,.32-.42,.59-.7,.83-.28,.24-.58,.41-.9,.52l.05-.32c.24,.17,.44,.36,.59,.57,.15,.21,.26,.43,.33,.66,.07,.23,.1,.47,.09,.72,0,.24,0,.44,0,.62,0,.18,0,.33,.03,.45,.03,.13,.1,.23,.21,.31,.19,.14,.29,.33,.32,.57,.02,.23-.06,.43-.23,.58-.12,.11-.26,.17-.42,.18-.16,.01-.32,0-.47-.06-.15-.05-.28-.11-.37-.18-.15-.11-.29-.27-.42-.47-.13-.2-.23-.46-.29-.78-.06-.32-.06-.72,0-1.2,.02-.16,0-.31-.03-.45-.04-.14-.1-.27-.19-.38-.09-.11-.21-.2-.36-.27-.15-.07-.33-.12-.54-.15l-2.81-.35,.25-.29-.38,3.01c-.03,.24-.12,.43-.27,.58-.15,.15-.34,.21-.57,.18Zm1.16-4.91l3.24,.41c.17,.02,.34-.04,.52-.17,.18-.13,.33-.33,.47-.58,.13-.25,.22-.53,.26-.85,.05-.41-.02-.76-.2-1.06-.18-.3-.4-.47-.65-.5l-3.21-.4,.22-.42-.49,3.93-.15-.36Z"/><path class="i" d="M238.83,386.77l4.65,.58c.24,.03,.43,.13,.58,.3,.14,.17,.2,.38,.17,.62-.03,.23-.13,.41-.31,.53-.18,.12-.39,.17-.63,.14l-3.89-.49,.15-.22-.34,2.71-.1-.12,3.25,.41c.24,.03,.43,.13,.58,.3,.14,.17,.2,.38,.17,.62-.03,.23-.13,.41-.31,.53-.18,.12-.39,.17-.63,.14l-3.21-.4,.08-.1-.35,2.81-.1-.14,3.88,.49c.24,.03,.43,.14,.57,.32,.14,.18,.2,.38,.17,.59-.03,.23-.13,.41-.31,.54-.18,.13-.39,.18-.63,.15l-4.65-.58c-.24-.03-.43-.14-.58-.32-.14-.18-.2-.39-.17-.63l1-8.03c.03-.24,.14-.43,.32-.57,.18-.14,.4-.2,.64-.17Z"/><path class="i" d="M245.57,397.49c-.26-.03-.48-.14-.66-.33-.18-.19-.26-.4-.23-.64l1-8.03c.03-.24,.14-.43,.32-.57,.18-.14,.39-.2,.63-.17l4,.5c.48,.06,.92,.24,1.31,.55,.39,.31,.69,.7,.89,1.18,.2,.48,.27,1.01,.19,1.6-.04,.35-.16,.69-.34,1-.19,.32-.42,.59-.7,.83-.28,.24-.58,.41-.9,.52l.05-.32c.24,.17,.44,.36,.59,.57,.15,.21,.26,.43,.33,.66,.07,.23,.1,.47,.09,.72,0,.24,0,.44,0,.62,0,.18,0,.33,.03,.45,.03,.13,.1,.23,.21,.31,.19,.15,.29,.34,.32,.57,.02,.23-.06,.43-.23,.58-.12,.11-.26,.17-.42,.18-.16,.01-.32,0-.47-.06-.15-.05-.28-.11-.37-.18-.15-.11-.29-.27-.42-.47-.13-.2-.23-.46-.29-.78-.06-.32-.06-.72,0-1.2,.02-.16,.01-.31-.03-.45-.04-.14-.1-.27-.19-.38-.09-.11-.21-.2-.36-.27-.15-.07-.33-.12-.54-.15l-2.81-.35,.25-.29-.38,3.01c-.03,.24-.12,.43-.27,.58-.15,.15-.34,.2-.57,.18Zm1.16-4.91l3.24,.41c.17,.02,.34-.04,.52-.17,.18-.13,.33-.33,.47-.58,.13-.25,.22-.53,.26-.85,.05-.41-.02-.76-.2-1.06-.18-.3-.4-.47-.65-.5l-3.21-.4,.22-.42-.49,3.93-.15-.36Z"/><path class="i" d="M254.98,398.67c-.26-.03-.48-.14-.66-.33-.18-.19-.26-.4-.23-.64l1-8.03c.03-.24,.14-.43,.32-.57,.18-.14,.39-.2,.63-.17l4,.5c.48,.06,.92,.24,1.31,.55,.39,.31,.69,.7,.89,1.18,.2,.48,.27,1.01,.19,1.6-.04,.35-.16,.69-.34,1-.19,.32-.42,.59-.7,.83-.28,.24-.58,.41-.9,.52l.05-.32c.24,.17,.44,.36,.59,.57,.15,.21,.26,.43,.33,.66,.07,.23,.1,.47,.09,.72,0,.24,0,.44,0,.62,0,.18,0,.33,.03,.45,.03,.13,.1,.23,.21,.31,.19,.15,.29,.34,.32,.57,.02,.23-.06,.43-.23,.58-.12,.11-.26,.17-.42,.18-.16,.01-.32,0-.47-.06-.15-.05-.28-.11-.37-.18-.15-.11-.29-.27-.42-.47-.13-.2-.23-.46-.29-.78-.06-.32-.06-.72,0-1.2,.02-.16,0-.31-.03-.45-.04-.14-.1-.27-.19-.38-.09-.11-.21-.2-.36-.27-.15-.07-.33-.12-.54-.15l-2.81-.35,.25-.29-.38,3.01c-.03,.24-.12,.43-.27,.58-.15,.15-.34,.2-.57,.18Zm1.16-4.91l3.24,.41c.17,.02,.34-.04,.52-.17,.18-.13,.33-.33,.47-.58,.13-.25,.22-.53,.26-.85,.05-.41-.02-.76-.2-1.06-.18-.3-.4-.47-.65-.5l-3.21-.4,.22-.42-.49,3.93-.15-.36Z"/><path class="i" d="M272.8,395.96c-.09,.69-.28,1.33-.59,1.9-.31,.57-.7,1.06-1.18,1.47-.48,.41-1.02,.7-1.63,.89-.61,.19-1.26,.24-1.95,.15s-1.3-.29-1.84-.62c-.54-.33-1-.75-1.36-1.26-.36-.51-.62-1.08-.78-1.71-.16-.63-.19-1.29-.1-1.99,.09-.69,.28-1.33,.59-1.9,.31-.57,.7-1.06,1.18-1.47,.48-.41,1.02-.7,1.63-.89,.61-.19,1.25-.24,1.94-.15s1.3,.29,1.85,.63c.55,.33,1,.75,1.37,1.26,.36,.51,.62,1.08,.78,1.71,.16,.63,.19,1.29,.11,1.99Zm-1.81-.23c.08-.62,.02-1.2-.16-1.73-.19-.54-.48-.98-.88-1.33-.4-.35-.88-.56-1.46-.63-.57-.07-1.1,.01-1.57,.26-.47,.24-.86,.6-1.17,1.07-.31,.47-.5,1.02-.58,1.65-.08,.62-.03,1.2,.16,1.73,.18,.54,.47,.98,.87,1.33,.4,.35,.88,.56,1.46,.63,.57,.07,1.1-.01,1.57-.25,.47-.24,.86-.6,1.18-1.07,.31-.47,.51-1.02,.59-1.64Z"/><path class="i" d="M274.65,401.13c-.26-.03-.48-.14-.66-.33-.19-.19-.26-.4-.23-.64l1-8.03c.03-.24,.14-.43,.32-.57,.18-.14,.39-.2,.64-.17l4,.5c.48,.06,.92,.24,1.31,.55,.39,.31,.69,.7,.89,1.18,.2,.48,.27,1.01,.2,1.6-.04,.35-.16,.69-.34,1-.19,.32-.42,.59-.7,.83-.28,.24-.58,.41-.9,.52l.05-.32c.24,.17,.44,.36,.58,.57,.15,.21,.26,.43,.33,.66,.07,.23,.1,.47,.09,.72,0,.24,0,.44,0,.62,0,.18,0,.33,.03,.46s.1,.23,.21,.31c.19,.15,.29,.33,.32,.57,.02,.23-.06,.43-.24,.58-.12,.11-.26,.17-.42,.18-.16,.01-.32,0-.47-.06-.15-.05-.28-.11-.37-.18-.15-.11-.29-.27-.42-.47-.13-.2-.23-.46-.29-.78-.06-.32-.06-.72,0-1.2,.02-.16,0-.31-.03-.45-.04-.14-.1-.27-.19-.38-.09-.11-.21-.2-.36-.27-.15-.07-.33-.12-.54-.15l-2.81-.35,.25-.29-.38,3.01c-.03,.24-.12,.43-.27,.58-.15,.15-.34,.2-.57,.17Zm1.16-4.9l3.24,.4c.17,.02,.34-.04,.51-.17,.18-.13,.33-.33,.47-.58s.22-.53,.26-.85c.05-.41-.02-.76-.2-1.06-.19-.3-.4-.47-.65-.5l-3.21-.4,.22-.42-.49,3.93-.15-.36Z"/></g></g></g></svg>