<?xml version="1.0" encoding="UTF-8"?><svg xmlns="http://www.w3.org/2000/svg" viewBox="0 0 117.02 195.84"><g id="a"/><g id="b"><g id="c"><g><path d="M48.43,0c-3.04,0-5.53,2.49-5.53,5.53v61.88c-1.01,1.39-2.64,2.29-4.47,2.29-2.78,0-5.09-2.08-5.47-4.76V5.53c0-3.04-2.49-5.53-5.53-5.53s-5.53,2.49-5.53,5.53v59.94c-.59,2.42-2.78,4.23-5.37,4.23-2.78,0-5.09-2.08-5.47-4.76V5.53C11.06,2.49,8.57,0,5.53,0S0,2.49,0,5.53V78.17s0,.02,0,.04c0,.02,0,.04,0,.06H0c0,11.87,7.77,22.01,18.48,25.59v82.71c0,5.1,4.17,9.27,9.27,9.27h0c5.1,0,9.27-4.17,9.27-9.27V103.29c9.9-4,16.94-13.73,16.94-25.02h0c0-.7-.04-1.39-.09-2.07,.06-.31,.09-.63,.09-.96V5.53c0-3.04-2.49-5.53-5.53-5.53Z"/><path d="M107.75,0c-5.1,0-9.27,4.17-9.27,9.27v-2.53c-13.36,23.03-22.19,55.59-22.19,76.96s8.73,39.34,22.19,50.84v52.03c0,5.1,4.17,9.27,9.27,9.27h0c5.1,0,9.27-4.17,9.27-9.27V9.27c0-5.1-4.17-9.27-9.27-9.27Z"/></g></g></g></svg>