<?xml version="1.0" encoding="utf-8"?>
<!-- Generator: Adobe Illustrator 26.1.0, SVG Export Plug-In . SVG Version: 6.00 Build 0)  -->
<svg version="1.1" id="Layer_1" xmlns="http://www.w3.org/2000/svg" xmlns:xlink="http://www.w3.org/1999/xlink" x="0px" y="0px"
	 viewBox="0 0 187.7 190.5" style="enable-background:new 0 0 187.7 190.5;" xml:space="preserve">
<style type="text/css">
	.st0{fill:#A0E0AD;}
	.st1{fill:#0E6866;}
</style>
<path class="st0" d="M181.5,43c0.2-1.4,0.3-2.8,0.3-4.3c0-19-15.4-34.5-34.5-34.5c-2,0-4,0.2-6,0.5c-2.3-0.3-4.7-0.5-7.1-0.5h-84
	C23.7,4.3,2.1,26,2.1,52.5v84c0,26.5,21.7,48.2,48.2,48.2h84c26.5,0,48.2-21.7,48.2-48.2v-84C182.4,49.2,182.1,46.1,181.5,43z"/>
<g>
	<path class="st1" d="M187.7,37.5c-0.2-0.9-0.4-1.7-0.6-2.6c-0.4-2-0.8-4.1-1.6-6.2c0-0.1-0.1-0.2-0.1-0.3
		c-5.6-14.8-17.2-24.1-34.5-27.7c-0.9-0.2-1.8-0.3-2.7-0.4c-0.4-0.1-0.8-0.1-1.2-0.2c-0.2,0-0.3,0-0.5,0h-5.3c-0.2,0-0.4,0-0.6,0.1
		c-1,0.2-2,0.4-3,0.6c-2.4,0.4-4.9,0.9-7.3,1.8c-0.7,0.3-1.4,0.5-2.1,0.8c-0.3-0.1-0.6-0.1-0.9-0.1H44c-24.3,0-44,19.7-44,44v95.4
		c0,24.3,19.7,44,44,44h95.4c24.3,0,44-19.7,44-44V60.5c0.1-0.3,0.3-0.5,0.4-0.8c2-4.1,3.3-8.8,3.7-14.3c0-0.1,0.1-0.3,0.1-0.5
		c0-0.2,0.1-0.3,0.1-0.5c0-0.2,0.1-0.4,0.1-0.6v-5.6C187.8,37.9,187.7,37.7,187.7,37.5z M138.7,6.6c1-0.2,2-0.4,2.9-0.6h4.7
		c0.3,0.1,0.7,0.1,1,0.2c0.8,0.1,1.6,0.2,2.3,0.4c15.4,3.2,25.3,11.1,30.2,24.2c0,0.1,0.1,0.2,0.1,0.3c0.5,1.6,0.9,3.3,1.3,5
		c0.2,0.8,0.3,1.6,0.5,2.4v4.9l0,0c-0.1,0.4-0.2,0.9-0.3,1.4c-0.4,4.7-1.4,8.7-3.1,12.1c-2.4,4.8-5,9.4-7.6,13.9
		c-1.2,2.2-2.6,4.4-3.9,6.5c-2.4,3.9-4.9,8-7,12.2c-5.5,11.1-10,23.4-13.4,36.3l-0.4,1.6c-0.5,2-1.1,4-1.6,6
		c-0.1-0.2-0.1-0.4-0.2-0.6l-0.1-0.3c-0.6-2-1.1-4-1.7-6c-1.3-4.5-2.6-9.2-4.1-13.8c-2.6-7.9-6.3-18.2-11.8-27.9
		c-2.5-4.4-5.1-8.7-7.7-12.9c-1.2-2.1-2.5-4.1-3.7-6.2c-3-5-6.2-11-7.3-17.7c-0.2-1.2-0.4-2.4-0.6-3.6l-0.2-1.1v-5
		c0.1-0.3,0.2-0.7,0.2-1.1c2.1-14.2,10.2-23.8,24.9-29.2C134.3,7.4,136.4,7,138.7,6.6z M177.4,142.5c0,10.7-4.4,20.4-11.6,27.3
		l-64.4-64.3c-1.2-1.2-3.1-1.2-4.2,0c-1.2,1.2-1.2,3.1,0,4.2l64,63.9c-6.2,4.3-13.7,6.9-21.8,6.9H44c-7.7,0-14.9-2.3-20.9-6.3
		l89.3-90c1.2-1.2,1.2-3.1,0-4.2c-1.2-1.2-3.1-1.2-4.2,0l-89.8,90.5c-7.6-7-12.4-16.9-12.4-28V47.1c0-21,17-38,38-38h73.6
		c-8.9,6.5-14.3,15.6-16,27.3c0,0.1-0.1,0.2-0.1,0.3c0,0.2-0.1,0.3-0.1,0.5c-0.1,0.2-0.1,0.5-0.1,0.7v5.6c0,0.1,0,0.3,0,0.4l0.2,1.3
		c0.2,1.3,0.4,2.5,0.6,3.8c1.3,7.7,4.8,14.3,8.1,19.8c1.2,2.1,2.5,4.1,3.7,6.2c2.5,4.2,5.1,8.5,7.6,12.8c5.2,9.2,8.8,19.1,11.3,26.8
		c1.5,4.5,2.7,9.1,4,13.6c0.6,2,1.1,4.1,1.7,6.1l0.1,0.3c0.2,0.6,0.4,1.3,0.6,1.9c0.8,2.5,2.8,3.9,5.6,4c0,0,0.1,0,0.1,0
		c2.4,0,4.4-1.5,5.1-4c0.7-2.5,1.4-5,2-7.4l0.4-1.5c3.3-12.5,7.7-24.4,13-35.2c2-4,4.4-7.9,6.7-11.7c1.3-2.2,2.7-4.4,4-6.6
		c0.5-0.8,0.9-1.6,1.4-2.4V142.5z"/>
	<path class="st1" d="M133.3,50.2c0.7-0.5,0.9-1.4,0.4-2.1c-1.3-2-2-4.4-2-6.8c0-6.8,5.5-12.3,12.3-12.3c6.8,0,12.3,5.5,12.3,12.3
		c0,5.8-4.1,10.9-9.8,12c-0.8,0.2-1.3,1-1.2,1.8c0.1,0.7,0.8,1.2,1.5,1.2c0.1,0,0.2,0,0.3,0c7.1-1.4,12.2-7.7,12.2-15
		c0-8.4-6.8-15.3-15.3-15.3c-8.4,0-15.3,6.8-15.3,15.3c0,3,0.9,5.9,2.6,8.5C131.7,50.5,132.7,50.7,133.3,50.2z"/>
	<path class="st1" d="M72.2,50.3c-8,0-16,0-24,0c-0.5,0-0.6,0.1-0.6,0.6c0,2.5,0,5,0,7.5c0,0.6,0.1,0.7,0.7,0.7c4.6,0,9.2,0,13.8,0
		c0.1,0,0.2,0,0.3,0c0.6,0,0.6,0.1,0.4,0.6c-1.9,5.8-6,9-12,9.9c-3.3,0.5-6.6,0.2-9.7-1.2c-1.7-0.7-3.2-1.7-4.6-3
		c-3.1-2.8-4.7-6.4-5.1-10.6c-0.3-2.9,0-5.7,1.1-8.4c2.4-5.7,6.7-9.1,12.8-10c3.1-0.5,6.2-0.2,9.2,1c1.8,0.7,3.3,1.8,4.7,3
		c0.3,0.3,0.6,0.6,0.9,0.8c0.2,0.2,0.3,0.2,0.5,0c0.5-0.5,1-0.9,1.5-1.4c1.5-1.4,2.9-2.9,4.4-4.3c0.2-0.2,0.5-0.5,0.7-0.7
		c0.3-0.2,0.3-0.4,0-0.7c-1.8-1.8-3.8-3.4-6-4.6c-3.3-1.9-6.9-2.9-10.7-3.2c-0.1,0-0.2,0-0.4-0.1h-4.6c-0.5,0.1-1.1,0.1-1.6,0.2
		c-5.3,0.7-10,2.8-14.1,6.2c-2.4,2-4.4,4.5-5.9,7.3c-1.8,3.2-2.8,6.7-3.1,10.4c0,0.1,0,0.2-0.1,0.3v4.4c0.1,0.8,0.2,1.5,0.3,2.3
		c0.7,4.9,2.8,9.1,6,12.8c2.2,2.7,5,4.8,8.1,6.4c3.2,1.6,6.5,2.6,10,2.9c0.1,0,0.3,0,0.4,0.1h4.7c0.8-0.1,1.6-0.2,2.4-0.3
		c4.8-0.7,9.1-2.5,12.8-5.7c3.3-2.9,5.5-6.5,6.7-10.7c0.5-1.8,0.8-3.5,0.9-5.3c0-0.1,0-0.2,0.1-0.3v-4.2l0,0
		c-0.1-0.7-0.2-1.5-0.4-2.2C72.8,50.4,72.7,50.3,72.2,50.3z"/>
</g>
</svg>
