<?xml version="1.0" encoding="UTF-8"?><svg id="a" xmlns="http://www.w3.org/2000/svg" viewBox="0 0 28 28"><defs><style>.b{fill:#fff;}.c{fill:none;stroke:#303b48;stroke-linecap:round;stroke-linejoin:round;stroke-width:1.15px;}.d{fill:#303b48;}</style></defs><path class="b" d="M21.27,2.52H8.86c-3.43,0-6.23,2.8-6.23,6.23v12.41c0,3.43,2.8,6.23,6.23,6.23h12.41c3.43,0,6.23-2.8,6.23-6.23V8.75c0-3.43-2.8-6.23-6.23-6.23Zm-6.96,17.97c-3.51,0-6.35-2.85-6.35-6.35s2.85-6.35,6.35-6.35,6.35,2.85,6.35,6.35-2.85,6.35-6.35,6.35Zm7.63-12.38c-.61,0-1.11-.5-1.11-1.11s.5-1.11,1.11-1.11,1.11,.5,1.11,1.11-.5,1.11-1.11,1.11Z"/><path class="b" d="M8.99,14.2c0-2.96,2.4-5.36,5.36-5.36,1.9,0,3.58,.99,4.53,2.49-.81-2.2-2.92-3.77-5.4-3.77-3.17,0-5.74,2.57-5.74,5.74,0,2.42,1.49,4.48,3.6,5.33-1.42-.96-2.35-2.59-2.35-4.43h0Z"/><path class="c" d="M20.56,.97H6.46C3.48,.97,1.08,3.37,1.08,6.35v14.11c0,2.97,2.41,5.38,5.38,5.38h14.11c2.97,0,5.38-2.41,5.38-5.38V6.35c0-2.97-2.41-5.38-5.38-5.38Z"/><path class="c" d="M13.48,19.05c3.17,0,5.74-2.57,5.74-5.74s-2.57-5.74-5.74-5.74-5.74,2.57-5.74,5.74,2.57,5.74,5.74,5.74Z"/><path class="d" d="M21.05,7.22c.61,0,1.11-.5,1.11-1.11s-.5-1.11-1.11-1.11-1.11,.5-1.11,1.11,.5,1.11,1.11,1.11Z"/></svg>