<?xml version="1.0" encoding="utf-8"?>
<!-- Generator: Adobe Illustrator 26.1.0, SVG Export Plug-In . SVG Version: 6.00 Build 0)  -->
<svg version="1.1" id="Layer_1" xmlns="http://www.w3.org/2000/svg" xmlns:xlink="http://www.w3.org/1999/xlink" x="0px" y="0px"
	 viewBox="0 0 31.1 23.4" style="enable-background:new 0 0 31.1 23.4;" xml:space="preserve">
<style type="text/css">
	.st0{fill:#2395D3;}
</style>
<g id="a">
</g>
<g>
	<path class="st0" d="M16.6,16c-0.5,0-0.9,0.4-0.9,0.8v1.4H8.5c-0.2,0-0.4,0.1-0.6,0.2l-2.6,2.2v-1.6c0-0.5-0.4-0.8-0.9-0.8H1.7v-11
		h9.4c0.5,0,0.9-0.4,0.9-0.9s-0.4-0.9-0.9-0.9H0.9C0.4,5.5,0,5.9,0,6.3v12.7c0,0.5,0.4,0.8,0.9,0.8h2.8v2.6c0,0.3,0.2,0.6,0.5,0.8
		c0.1,0.1,0.2,0.1,0.4,0.1c0.2,0,0.4-0.1,0.6-0.2l3.8-3.2h7.8c0.5,0,0.8-0.4,0.8-0.8v-2.3C17.5,16.3,17.1,16,16.6,16z"/>
	<path class="st0" d="M30.3,0H14.8c-0.5,0-0.9,0.4-0.9,0.9v12.7c0,0.5,0.4,0.8,0.9,0.8h7.6l3.9,3.2c0.2,0.1,0.3,0.2,0.5,0.2
		c0.1,0,0.2,0,0.4-0.1c0.3-0.1,0.5-0.4,0.5-0.8v-2.5h2.6c0.5,0,0.8-0.4,0.8-0.8V0.8C31.1,0.4,30.7,0,30.3,0z M29.4,12.7h-2.6
		c-0.5,0-0.8,0.4-0.8,0.8v1.6l-2.8-2.3c-0.2-0.1-0.3-0.2-0.5-0.2h-7v-11h13.8V12.7z"/>
	<path class="st0" d="M10,9.3C9.9,9.2,9.8,9.2,9.7,9.2H7.8c-0.1,0-0.2,0-0.3,0.1S7.4,9.4,7.4,9.5L5,16.1c0,0,0,0,0,0.1
		c0,0.1,0,0.1,0.1,0.2c0,0,0.1,0.1,0.2,0.1h1.6c0.1,0,0.2,0,0.3-0.1c0,0,0.1-0.1,0.1-0.1l0.3-0.9H10l0.3,0.9c0,0,0,0.1,0.1,0.1
		c0.1,0,0.1,0.1,0.3,0.1h1.6c0.1,0,0.1,0,0.2-0.1c0,0,0.1-0.1,0.1-0.2c0,0,0-0.1,0-0.1l-2.4-6.6C10.1,9.4,10.1,9.4,10,9.3z M8,13.5
		l0.8-2.3l0.8,2.3H8z"/>
	<path class="st0" d="M19.3,10.7h1.5c0.1,0,0.2,0,0.2-0.1c0.1-0.1,0.1-0.1,0.1-0.3V8.8c0-0.1,0-0.3,0-0.5c0-0.2,0.1-0.3,0.1-0.5
		c0.1-0.1,0.1-0.3,0.3-0.4l2.1,3c0,0,0.1,0.1,0.1,0.2c0.1,0.1,0.2,0.1,0.3,0.1H26c0.1,0,0.1,0,0.2-0.1c0.1-0.1,0.1-0.1,0.1-0.2v-0.1
		c0,0,0-0.1-0.1-0.1h0L24.6,8c0.3-0.2,0.6-0.5,0.9-0.7c0.2-0.3,0.4-0.6,0.5-1s0.1-0.7,0.1-1V3.8c0-0.1,0-0.2-0.1-0.2
		c-0.1-0.1-0.1-0.1-0.2-0.1h-1.6c-0.1,0-0.2,0-0.2,0.1c-0.1,0.1-0.1,0.2-0.1,0.3v1.5c0,0.1,0,0.3,0,0.4c0,0.2-0.1,0.3-0.2,0.5
		c0,0.1-0.1,0.2-0.2,0.2l-1.9-2.7c0,0-0.1-0.1-0.2-0.2c-0.1-0.1-0.2-0.1-0.3-0.1h-1.8c-0.1,0-0.1,0-0.2,0.1C19,3.5,19,3.6,19,3.7
		c0,0.1,0,0.1,0,0.2l1.3,2C20,6,19.7,6.3,19.5,6.6c-0.2,0.3-0.4,0.6-0.5,1c-0.1,0.4-0.1,0.8-0.1,1.3v1.5c0,0.1,0,0.2,0.1,0.2
		C19.1,10.7,19.2,10.7,19.3,10.7z"/>
</g>
</svg>
