<?xml version="1.0" encoding="UTF-8"?><svg xmlns="http://www.w3.org/2000/svg" viewBox="0 0 390.12 390.59"><g id="a"/><g id="b"><g id="c"><g><path d="M352.89,165.5H200.92c-20.53,0-37.22,16.7-37.22,37.22v150.64c0,20.53,16.7,37.22,37.22,37.22h151.98c20.53,0,37.22-16.7,37.22-37.22V202.73c0-20.53-16.7-37.22-37.22-37.22Zm9.22,187.87c0,5-4.22,9.22-9.22,9.22H200.92c-5,0-9.22-4.22-9.22-9.22V202.73c0-5,4.22-9.22,9.22-9.22h151.98c5,0,9.22,4.22,9.22,9.22v150.64Z"/><path d="M137.49,214.7c0-7.73-6.27-14-14-14H35.85c-4.25,0-7.85-3.78-7.85-8.25V36.25c0-4.47,3.59-8.25,7.85-8.25H190.58c4.25,0,7.85,3.78,7.85,8.25V125.49c0,7.73,6.27,14,14,14s14-6.27,14-14V36.25c0-19.99-16.08-36.25-35.85-36.25H35.85C16.08,0,0,16.26,0,36.25V192.45c0,19.99,16.08,36.25,35.85,36.25H123.49c7.73,0,14-6.27,14-14Z"/><path d="M267.96,109.6c2.64,3.63,6.75,5.55,10.92,5.55,2.76,0,5.54-.84,7.94-2.59,6.02-4.39,7.35-12.84,2.96-18.86l-7.26-9.96c17.97,.81,29.47,12.94,29.47,31.36v21.82c0,7.46,6.04,13.5,13.5,13.5s13.5-6.04,13.5-13.5v-21.82c0-33.44-23.99-57.8-57.2-58.38l8.46-12.14c4.26-6.12,2.76-14.53-3.36-18.79-6.12-4.26-14.53-2.76-18.79,3.36l-23.23,33.33c-3.29,4.72-3.23,11.02,.17,15.67l22.93,31.46Z"/><path d="M113.78,290.5c-4.39-6.02-12.84-7.35-18.86-2.96-6.02,4.39-7.35,12.84-2.96,18.86l7.26,9.96c-17.97-.81-29.47-12.94-29.47-31.36v-21.82c0-7.46-6.04-13.5-13.5-13.5s-13.5,6.04-13.5,13.5v21.82c0,33.44,23.99,57.8,57.2,58.38l-8.46,12.14c-4.26,6.12-2.76,14.53,3.36,18.79,2.35,1.64,5.04,2.43,7.71,2.43,4.27,0,8.46-2.02,11.09-5.78l23.23-33.33c3.29-4.72,3.23-11.02-.17-15.67l-22.93-31.46Z"/><path d="M296.01,222.38c-1.57-1.57-3.13-1.57-4.7-1.57h-29.76c-1.57,0-3.13,0-4.7,1.57q-1.57,1.57-1.57,3.13l-37.6,103.39v1.57q0,1.57,1.57,3.13s1.57,1.57,3.13,1.57h25.06c1.57,0,3.13,0,4.7-1.57l1.57-1.57,4.7-14.1h37.6l4.7,14.1s0,1.57,1.57,1.57,1.57,1.57,4.7,1.57h25.06q1.57,0,3.13-1.57s1.57-1.57,1.57-3.13v-1.57l-37.6-103.39q-1.57-1.57-3.13-3.13Zm-31.33,65.79l12.53-36.03,12.53,36.03h-25.06Z"/><path d="M63.64,105.99c-3.22,4.83-6.44,9.65-8.04,16.09-1.61,6.44-1.61,12.87-1.61,20.92v24.13c0,1.61,0,3.22,1.61,3.22,1.61,1.61,3.22,1.61,4.83,1.61h24.13c1.61,0,3.22,0,3.22-1.61q1.61-1.61,1.61-4.83v-32.18c0-3.22,1.61-4.83,1.61-8.04,1.61-1.61,1.61-4.83,4.83-6.44l33.79,48.27s1.61,1.61,1.61,3.22c1.61,1.61,3.22,1.61,4.83,1.61h32.18q1.61,0,3.22-1.61t1.61-3.22v-1.61s0-1.61-1.61-1.61l-25.74-35.39c4.83-3.22,9.65-8.04,14.48-11.26,3.22-4.83,6.44-9.65,8.04-16.09,1.61-6.44,1.61-11.26,1.61-16.09v-24.13c0-1.61,0-3.22-1.61-3.22q-1.61-1.61-3.22-1.61h-25.74c-1.61,0-3.22,0-3.22,1.61-1.61,1.61-1.61,3.22-1.61,4.83v30.57c0,3.22-1.61,4.83-3.22,8.04,0,1.61-1.61,3.22-3.22,3.22l-30.57-43.44-3.22-3.22c-1.61-1.61-3.22-1.61-4.83-1.61h-28.96q-1.61,0-3.22,1.61c-1.61-1.61-1.61,0-1.61,1.61v3.22l20.92,32.18c-4.83,1.61-9.65,6.44-12.87,11.26Z"/></g></g></g></svg>