<?xml version="1.0" encoding="UTF-8"?><svg xmlns="http://www.w3.org/2000/svg" viewBox="0 0 196.04 196.28"><g id="a"/><g id="b"><g id="c"><g><path d="M178.67,84.55H100.99c-9.58,0-17.37,7.79-17.37,17.37v77c0,9.58,7.79,17.37,17.37,17.37h77.68c9.58,0,17.37-7.79,17.37-17.37V101.92c0-9.58-7.79-17.37-17.37-17.37Zm6.37,94.37c0,3.51-2.86,6.37-6.37,6.37H100.99c-3.51,0-6.37-2.86-6.37-6.37V101.92c0-3.51,2.86-6.37,6.37-6.37h77.68c3.51,0,6.37,2.86,6.37,6.37v77Z"/><path d="M66.88,107.93c0-3.04-2.46-5.5-5.5-5.5H16.65c-3.12,0-5.65-2.63-5.65-5.86V16.86c0-3.23,2.54-5.86,5.65-5.86H95.62c3.12,0,5.65,2.63,5.65,5.86V62.4c0,3.04,2.46,5.5,5.5,5.5s5.5-2.46,5.5-5.5V16.86c0-9.29-7.47-16.86-16.65-16.86H16.65C7.47,0,0,7.56,0,16.86V96.58c0,9.29,7.47,16.86,16.65,16.86H61.38c3.04,0,5.5-2.46,5.5-5.5Z"/><path d="M62.46,142.21c-1.6-2.25-4.72-2.78-6.97-1.18-2.25,1.6-2.78,4.72-1.18,6.97l5.44,7.66-1.71-.12h-.35c-10.28-.01-17.19-6.92-17.19-17.21v-10.13c0-2.76-2.24-5-5-5s-5,2.24-5,5v10.13c0,15.7,11.35,27.11,27.01,27.19l2.53,.18-5.61,7.18c-1.7,2.18-1.31,5.32,.86,7.02,.91,.71,2,1.06,3.07,1.06,1.49,0,2.96-.66,3.94-1.92l11.48-14.7c1.36-1.74,1.42-4.17,.14-5.97l-11.48-16.16Z"/><path d="M136.41,57.42c.98,1.34,2.5,2.05,4.04,2.05,1.02,0,2.05-.31,2.94-.96,2.23-1.63,2.72-4.75,1.1-6.99l-5.54-7.6h2.34c10.28,0,17.19,6.91,17.19,17.19v10.78c0,2.76,2.24,5,5,5s5-2.24,5-5v-10.78c0-15.76-11.44-27.19-27.19-27.19h-2.6l6-8.61c1.58-2.27,1.02-5.38-1.24-6.96-2.27-1.58-5.38-1.02-6.96,1.24l-11.48,16.47c-1.22,1.75-1.19,4.08,.06,5.8l11.33,15.55Z"/><path d="M148.43,115.81c-.69-.69-1.38-.69-2.07-.69h-13.13c-.69,0-1.38,0-2.07,.69s-.69,.69-.69,1.38l-16.59,45.62v.69q0,.69,.69,1.38s.69,.69,1.38,.69h11.06c.69,0,1.38,0,2.07-.69l.69-.69,2.07-6.22h16.59l2.07,6.22s0,.69,.69,.69,.69,.69,2.07,.69h11.06q.69,0,1.38-.69s.69-.69,.69-1.38v-.69l-16.59-45.62q-.69-.69-1.38-1.38Zm-13.83,29.03l5.53-15.9,5.53,15.9h-11.06Z"/><path d="M81.32,77.83l-11.06-15.21c2.07-1.38,4.15-3.46,6.22-4.84,1.38-2.07,2.77-4.15,3.46-6.91,.69-2.77,.69-4.84,.69-6.91v-10.37c0-.69,0-1.38-.69-1.38q-.69-.69-1.38-.69h-11.06c-.69,0-1.38,0-1.38,.69-.69,.69-.69,1.38-.69,2.07v13.13c0,1.38-.69,2.07-1.38,3.46,0,.69-.69,1.38-1.38,1.38l-13.13-18.66-1.38-1.38c-.69-.69-1.38-.69-2.07-.69h-12.44q-.69,0-1.38,.69c-.69-.69-.69,0-.69,.69v1.38l8.99,13.83c-2.07,.69-4.15,2.77-5.53,4.84-1.38,2.07-2.77,4.15-3.46,6.91s-.69,5.53-.69,8.99v10.37c0,.69,0,1.38,.69,1.38,.69,.69,1.38,.69,2.07,.69h10.37c.69,0,1.38,0,1.38-.69q.69-.69,.69-2.07v-13.83c0-1.38,.69-2.07,.69-3.46,.69-.69,.69-2.07,2.07-2.77l14.52,20.74s.69,.69,.69,1.38c.69,.69,1.38,.69,2.07,.69h13.83q.69,0,1.38-.69t.69-1.38v-.69s0-.69-.69-.69Z"/></g></g></g></svg>