<?xml version="1.0" encoding="UTF-8"?><svg xmlns="http://www.w3.org/2000/svg" viewBox="0 0 364.5 364.97"><g id="a"/><g id="b"><g id="c"><g><path d="M336.32,161.52h-40.3c-3.04,0-5.5,2.46-5.5,5.5s2.46,5.5,5.5,5.5h40.3c9.47,0,17.18,7.71,17.18,17.18v147.09c0,9.47-7.71,17.18-17.18,17.18H187.92c-9.47,0-17.18-7.71-17.18-17.18V189.69c0-9.47,7.71-17.18,17.18-17.18h83.52c3.04,0,5.5-2.46,5.5-5.5s-2.46-5.5-5.5-5.5h-83.52c-15.54,0-28.18,12.64-28.18,28.18v147.09c0,15.54,12.64,28.18,28.18,28.18h148.4c15.54,0,28.18-12.64,28.18-28.18V189.69c0-15.54-12.64-28.18-28.18-28.18Z"/><path d="M142.34,195.69H26.8c-8.71,0-15.8-7.26-15.8-16.19V27.19c0-8.93,7.09-16.19,15.8-16.19H177.67c8.71,0,15.8,7.26,15.8,16.19v115.12c0,3.04,2.46,5.5,5.5,5.5s5.5-2.46,5.5-5.5V27.19c0-14.99-12.02-27.19-26.8-27.19H26.8C12.02,0,0,12.2,0,27.19V179.49c0,15,12.02,27.19,26.8,27.19h115.53c3.04,0,5.5-2.46,5.5-5.5s-2.46-5.5-5.5-5.5Z"/><path d="M145.1,293.6l-21.65-17.68c-2.35-1.92-5.82-1.57-7.74,.78-1.92,2.35-1.57,5.82,.78,7.74l9.7,7.92h-15.24c-22.07,0-36.9-14.83-36.9-36.9v-31.96c0-3.04-2.46-5.5-5.5-5.5s-5.5,2.46-5.5,5.5v31.96c0,28.2,19.7,47.9,47.9,47.9h14.36l-8.95,6.8c-2.42,1.84-2.89,5.29-1.05,7.71,1.08,1.42,2.72,2.17,4.38,2.17,1.16,0,2.33-.37,3.33-1.12l21.93-16.68c1.34-1.02,2.14-2.6,2.17-4.28,.03-1.68-.72-3.29-2.02-4.35Z"/><path d="M219.31,73.62l21.65,17.68c1.02,.83,2.25,1.24,3.48,1.24,1.59,0,3.18-.69,4.26-2.02,1.92-2.35,1.57-5.82-.78-7.74l-9.7-7.92h15.24c22.07,0,36.9,14.83,36.9,36.9v31.96c0,3.04,2.46,5.5,5.5,5.5s5.5-2.46,5.5-5.5v-31.96c0-28.2-19.7-47.9-47.9-47.9h-14.36l8.95-6.8c2.42-1.84,2.89-5.29,1.05-7.71-1.84-2.42-5.29-2.89-7.71-1.05l-21.93,16.68c-1.34,1.02-2.14,2.6-2.17,4.28-.03,1.68,.72,3.29,2.02,4.35Z"/><path d="M274.59,214.92h-25.09c-1.32,0-2.64,0-3.96,1.32s-1.32,1.32-1.32,2.64l-31.69,87.16v1.32q0,1.32,1.32,2.64s1.32,1.32,2.64,1.32h21.13c1.32,0,2.64,0,3.96-1.32l1.32-1.32,3.96-11.89h31.69l3.96,11.89s0,1.32,1.32,1.32,1.32,1.32,3.96,1.32h21.13q1.32,0,2.64-1.32s1.32-1.32,1.32-2.64v-1.32l-31.69-87.16-2.64-2.64c-1.32-1.32-2.64-1.32-3.96-1.32Zm-22.45,56.79l10.56-30.37,10.56,30.37h-21.13Z"/><path d="M150.35,143.67l-21.13-29.05c3.96-2.64,7.92-6.6,11.89-9.24,2.64-3.96,5.28-7.92,6.6-13.21,1.32-5.28,1.32-9.24,1.32-13.21v-19.81c0-1.32,0-2.64-1.32-2.64q-1.32-1.32-2.64-1.32h-21.13c-1.32,0-2.64,0-2.64,1.32-1.32,1.32-1.32,2.64-1.32,3.96v25.09c0,2.64-1.32,3.96-2.64,6.6,0,1.32-1.32,2.64-2.64,2.64l-25.09-35.66s-1.32-1.32-2.64-2.64-2.64-1.32-3.96-1.32h-23.77q-1.32,0-2.64,1.32c-1.32-1.32-1.32,0-1.32,1.32v2.64l17.17,26.41c-3.96,1.32-7.92,5.28-10.56,9.24-2.64,3.96-5.28,7.92-6.6,13.21-1.32,5.28-1.32,10.56-1.32,17.17v19.81c0,1.32,0,2.64,1.32,2.64,1.32,1.32,2.64,1.32,3.96,1.32h19.81c1.32,0,2.64,0,2.64-1.32q1.32-1.32,1.32-3.96v-26.41c0-2.64,1.32-3.96,1.32-6.6,1.32-1.32,1.32-3.96,3.96-5.28l27.73,39.62s1.32,1.32,1.32,2.64c1.32,1.32,2.64,1.32,3.96,1.32h26.41q1.32,0,2.64-1.32t1.32-2.64v-1.32s0-1.32-1.32-1.32Z"/></g></g></g></svg>