<?xml version="1.0" encoding="UTF-8"?><svg xmlns="http://www.w3.org/2000/svg" viewBox="0 0 1559.69 1855.65"><g id="a"/><g id="b"><g id="c"><g><path d="M1557.22,343.41c.18-45.37-30.74-73.27-75.84-75.37-69.16-3.21-138.74-7.49-206.97-18.56-131.18-21.3-250.73-72.94-356.85-153.62-40.55-30.83-79.45-63.84-119.1-95.85h-36.27c-17.32,13.55-34.83,26.86-51.89,40.73-12.65,10.28-24.46,21.6-37.07,31.92-135.15,110.65-290.92,171.08-463.8,188.51-45.59,4.6-91.57,5.4-137.38,7.71-39.4,1.99-67.26,27.24-67.73,63.66-2.42,187.81-11.42,375.68,7.02,563.27,10.41,105.89,28.59,210.11,62.38,311.22,57.4,171.75,153.41,317.41,293.23,433.48,116.2,96.46,248.68,163.05,390.56,211.83,14.64,5.03,34.16,4.02,49.04-1.09,101.81-34.93,198.88-80.13,289.41-138.9,197.25-128.07,329.44-305,398.66-529.43,44.47-144.17,61.66-292.65,64.37-442.56,2.39-132.27-2.33-264.65-1.79-396.97Zm-128.17,380.13c-2.33,150.04-17.25,298.67-64.58,442.34-65.59,199.12-190.52,350.91-371,455.46-64.37,37.29-134.3,65.02-201.91,96.63-5.31,2.48-13.2,3.23-18.58,1.24-116.8-43.02-226.18-99.43-322.76-179.08-131.29-108.26-217.66-245.63-264.64-408.29-31.79-110.08-48.63-222.86-50.65-337.22-2.25-127.44-.65-254.96-.69-382.44,0-3.57,.36-7.15,.73-14.07,242.61-9.34,460.45-82.04,645.29-244.69,184.69,162.39,402.42,235.38,644.66,244.59,.63,6.22,1.46,10.85,1.51,15.5,1.1,103.34,4.23,206.72,2.62,310.02Z"/><path d="M354.68,855.57c4.36,0,8.78-.97,12.96-3.01l673.32-329.81c14.63-7.17,20.68-24.84,13.52-39.47-7.17-14.63-24.84-20.68-39.47-13.52L341.68,799.57c-14.63,7.17-20.68,24.84-13.52,39.47,5.12,10.46,15.61,16.53,26.51,16.53Z"/><path d="M1176.47,669.2l-825.53,404.37c-20.34,9.96-28.75,34.52-18.79,54.86,7.12,14.53,21.69,22.97,36.85,22.97,6.05,0,12.2-1.35,18-4.19l825.53-404.37c20.33-9.96,28.75-34.52,18.79-54.86-9.96-20.34-34.52-28.74-54.86-18.78Z"/><path d="M1164.91,971.48l-678.56,332.38c-14.63,7.17-20.68,24.84-13.52,39.47,5.12,10.46,15.61,16.53,26.51,16.53,4.36,0,8.78-.97,12.96-3.01l678.56-332.38c14.63-7.17,20.68-24.84,13.52-39.47-7.17-14.63-24.84-20.68-39.47-13.52Z"/><path d="M1097.35,1300.85l-379.12,185.7c-12.15,5.95-17.18,20.63-11.22,32.78,4.25,8.68,12.96,13.73,22.02,13.73,3.62,0,7.29-.81,10.76-2.5l379.12-185.7c12.15-5.95,17.18-20.63,11.22-32.78-5.95-12.15-20.62-17.18-32.78-11.23Z"/><path d="M398.38,574.98c3.64,0,7.34-.81,10.82-2.53l312.58-154.24c12.13-5.99,17.12-20.68,11.13-32.81s-20.68-17.12-32.81-11.13l-312.58,154.24c-12.13,5.99-17.12,20.68-11.13,32.81,4.27,8.65,12.96,13.66,21.99,13.66Z"/></g></g></g></svg>