<?xml version="1.0" encoding="utf-8"?>
<!-- Generator: Adobe Illustrator 26.1.0, SVG Export Plug-In . SVG Version: 6.00 Build 0)  -->
<svg version="1.1" id="Layer_1" xmlns="http://www.w3.org/2000/svg" xmlns:xlink="http://www.w3.org/1999/xlink" x="0px" y="0px"
	 viewBox="0 0 187.7 190.5" style="enable-background:new 0 0 187.7 190.5;" xml:space="preserve">
<style type="text/css">
	.st0{fill:#5E91BF;}
	.st1{fill:#1C3054;}
</style>
<g id="d">
	<path class="st0" d="M144.7,6.4H49.3C26.6,6.4,8.2,24.9,8.2,47.6V143c0,22.7,18.4,41.1,41.1,41.1h95.4c22.7,0,41.1-18.4,41.1-41.1
		V47.6C185.8,24.9,167.4,6.4,144.7,6.4z"/>
	<g>
		<path class="st1" d="M71.3,79.9c-21.1,0-38.2,17.1-38.2,38.2c0,21.1,17.1,38.2,38.2,38.2c21.1,0,38.2-17.1,38.2-38.2
			C109.4,97,92.4,79.9,71.3,79.9z M73.2,99.8c1.5-1.7,4-3,6-3.1c0.3,2.4-0.7,4.8-2.1,6.5s-3.8,3.1-6.1,2.9
			C70.8,103.8,71.9,101.4,73.2,99.8z M84.9,132.6c-1.7,2.5-3.5,5-6.3,5c-2.7,0-3.6-1.6-6.8-1.6s-4.1,1.6-6.7,1.7
			c-2.7,0.1-4.7-2.7-6.5-5.2c-3.5-5.1-6.2-14.4-2.6-20.6c1.8-3.1,5-5.1,8.5-5.1c2.6-0.1,5.1,1.8,6.8,1.8s4.6-2.2,7.8-1.9
			c1.3,0,5.1,0.5,7.5,4c-0.2,0.1-4.5,2.6-4.4,7.8c0.1,6.2,5.4,8.2,5.5,8.3C87.7,126.9,86.9,129.7,84.9,132.6z"/>
		<path class="st1" d="M141.6,2.9H46.2c-24.3,0-44,19.7-44,44v95.4c0,24.3,19.7,44,44,44h95.4c24.3,0,44-19.7,44-44V46.9
			C185.6,22.7,165.8,2.9,141.6,2.9z M158.8,176.2l-48.5-32.1c-0.7-0.5-1.6-0.3-2.1,0.4c-0.5,0.7-0.3,1.6,0.4,2.1l46.9,31.1
			c-4.3,1.7-9,2.7-14,2.7h-41.1v-27.1c0-0.8-0.7-1.5-1.5-1.5s-1.5,0.7-1.5,1.5v27.1H46.2c-0.3,0-0.6,0-0.9,0v-25
			c0-0.8-0.7-1.5-1.5-1.5s-1.5,0.7-1.5,1.5v24.9c-19.1-2-34.1-18.2-34.1-37.8v-62l21.3,16.6c0.3,0.2,0.6,0.3,0.9,0.3
			c0.4,0,0.9-0.2,1.2-0.6c0.5-0.7,0.4-1.6-0.3-2.1L8.2,76.5V46.9c0-19.6,15-35.8,34.1-37.8V40c0,0.8-0.3,3.3-1.6,4.1
			c-1.1,0.7-2.8,0-4-0.6L16.9,30.7c-0.7-0.4-1.6-0.3-2.1,0.4c-0.5,0.7-0.3,1.6,0.4,2.1L35,46.1c0,0,0.1,0,0.1,0.1
			c1.6,0.8,3.1,1.3,4.4,1.3c1,0,1.9-0.2,2.7-0.7c3-1.8,3.1-6.2,3.1-6.7v-31c0.3,0,0.6,0,0.9,0h4.9v66.8c0,0.2,0.1,0.4,0.3,0.4
			c0.1,0,0.2,0.1,0.2,0.1c0.1,0,0.2,0,0.3-0.1c0.1-0.1,14-9.1,37.8-0.9c0.2,0.1,0.3,0,0.5-0.1c0.1-0.1,0.2-0.2,0.2-0.4V8.9h6.6v70
			c0,0.8,0.7,1.5,1.5,1.5s1.5-0.7,1.5-1.5v-70h16.6c1.2,30.9,24.3,57.7,55.2,63.2c0,0,0,0,0,0c0,0,0,0,0,0c0,0,0,0,0,0c0,0,0,0,0,0
			c0.6,0.1,1.2,0.2,1.9,0.3c0.1,0,0.1,0,0.2,0c0.7,0,1.4-0.5,1.5-1.3c0.1-0.8-0.4-1.6-1.3-1.7c-0.6-0.1-1.2-0.2-1.8-0.3c0,0,0,0,0,0
			c0,0,0,0,0,0c-29.4-5.2-51.5-30.8-52.7-60.3h22.1c20.7,0,37.5,16.6,38,37.1c-18.3-2.5-32.3-15.7-35.7-34c-0.2-0.8-0.9-1.3-1.8-1.2
			c-0.8,0.2-1.3,0.9-1.2,1.8c3.7,19.7,18.8,33.9,38.7,36.4v88.7l-63.9-38.1c-0.7-0.4-1.6-0.2-2.1,0.5c-0.4,0.7-0.2,1.6,0.5,2.1
			l65.4,39v1C179.6,157.1,171.1,169.9,158.8,176.2z"/>
	</g>
</g>
</svg>
