<?xml version="1.0" encoding="UTF-8"?><svg xmlns="http://www.w3.org/2000/svg" viewBox="0 0 23.28 23.28"><g id="a"/><g id="b"><g id="c"><path d="M12.81,5.82h-3.49c-.64,0-1.16,.52-1.16,1.16v9.31c0,.64,.52,1.16,1.16,1.16s1.16-.52,1.16-1.16v-2.33h2.33c1.93,0,3.49-1.56,3.49-3.49v-1.16c0-1.93-1.56-3.49-3.49-3.49Zm1.16,4.66c0,.64-.52,1.16-1.16,1.16h-2.33v-3.49h2.33c.64,0,1.16,.52,1.16,1.16v1.16ZM11.64,0C5.21,0,0,5.21,0,11.64s5.21,11.64,11.64,11.64,11.64-5.21,11.64-11.64S18.07,0,11.64,0Zm0,20.96c-5.14,0-9.31-4.17-9.31-9.31S6.5,2.33,11.64,2.33s9.31,4.17,9.31,9.31-4.17,9.31-9.31,9.31Z"/></g></g></svg>