<?xml version="1.0" encoding="UTF-8"?><svg xmlns="http://www.w3.org/2000/svg" viewBox="0 0 22.93 23.42"><g id="a"/><g id="b"><g id="c"><g><path d="M22.93,15.42c0-1.27-1.04-2.31-2.31-2.31H2.31c-1.27,0-2.31,1.04-2.31,2.31,0,1.16,.88,2.12,2,2.28v5.72h3.69v-5.69h11.54v5.69h3.69v-5.72c1.12-.15,2-1.11,2-2.28Z"/><path d="M4.98,11.41c0-.08-.01-.16-.01-.24v-3.63c0-2.04,1.1-3.82,2.74-4.79V11.41h1.97V2.04c.28-.04,.57-.07,.86-.07h2c.19,0,.37,0,.55,.03V11.41h1.97V2.58c1.81,.92,3.05,2.8,3.05,4.96v3.63c0,.08,0,.16-.01,.24h1.97c0-.08,.01-.16,.01-.24v-3.63c0-4.15-3.39-7.54-7.54-7.54h-2C6.39,0,3,3.39,3,7.54v3.63c0,.08,0,.16,.01,.24h1.97Z"/></g></g></g></svg>