<?xml version="1.0" encoding="UTF-8"?><svg xmlns="http://www.w3.org/2000/svg" viewBox="0 0 261.79 264.13"><g id="a"/><g id="b"><g id="c"><g><path d="M130.89,206c-4.95,0-9.01,4.05-9.01,9.01v40.12c0,4.95,4.05,9.01,9.01,9.01s9.01-4.05,9.01-9.01v-40.12c0-4.95-4.05-9.01-9.01-9.01Z"/><path d="M130.89,58.13c4.95,0,9.01-4.05,9.01-9.01V9.01c0-4.95-4.05-9.01-9.01-9.01s-9.01,4.05-9.01,9.01V49.13c0,4.95,4.05,9.01,9.01,9.01Z"/><path d="M195.84,184.45c-3.5-3.5-9.23-3.5-12.74,0h0c-3.5,3.5-3.5,9.23,0,12.74l28.37,28.37c3.5,3.5,9.23,3.5,12.74,0,3.5-3.5,3.5-9.23,0-12.74l-28.37-28.37Z"/><path d="M66.28,79.53c3.5,3.5,9.23,3.5,12.74,0s3.5-9.23,0-12.74l-28.37-28.37c-3.5-3.5-9.23-3.5-12.74,0-3.5,3.5-3.5,9.23,0,12.74l28.37,28.37Z"/><path d="M58.13,131.75c0-4.95-4.05-9.01-9.01-9.01H9.01c-4.95,0-9.01,4.05-9.01,9.01s4.05,9.01,9.01,9.01H49.13c4.95,0,9.01-4.05,9.01-9.01Z"/><path d="M252.79,122.75h-40.12c-4.95,0-9.01,4.05-9.01,9.01s4.05,9.01,9.01,9.01h40.12c4.95,0,9.01-4.05,9.01-9.01s-4.05-9.01-9.01-9.01Z"/><path d="M224.21,38.43c-3.5-3.5-9.23-3.5-12.74,0L38.28,211.62c-3.5,3.5-3.5,9.23,0,12.74s9.23,3.5,12.74,0L224.21,51.16c3.5-3.5,3.5-9.23,0-12.74Z"/><path d="M184.41,108.16l-78.03,78.03c7.45,3.4,15.72,5.31,24.44,5.31,32.53,0,58.9-26.37,58.9-58.9,0-8.72-1.91-17-5.31-24.44Z"/><path d="M76.81,156.11l77.52-77.52c-7.2-3.14-15.15-4.89-23.5-4.89-32.53,0-58.9,26.37-58.9,58.9,0,8.36,1.75,16.3,4.89,23.5Z"/></g></g></g></svg>