<?xml version="1.0" encoding="UTF-8"?><svg xmlns="http://www.w3.org/2000/svg" viewBox="0 0 22.08 23.27"><g id="a"/><g id="b"><g id="c"><g><path d="M20.08,0c-1.1,0-2,.9-2,2v15.68s-.05,.69-.46,1.09c-.41,.4-1.09,.49-1.33,.5h-6.33V9.04c0-1.1-.9-2-2-2s-2,.9-2,2v12.23c0,1.1,.9,2,2,2h8.35c.41,0,2.5-.08,4.1-1.62,1.63-1.58,1.68-3.72,1.68-3.96V2C22.08,.9,21.18,0,20.08,0Z"/><path d="M12.12,14.23c0,1.1,.9,2,2,2s2-.9,2-2V2C16.12,.9,15.23,0,14.12,0H5.83c-.26-.02-2.47,0-4.15,1.62C.05,3.2,0,5.35,0,5.59v15.68c0,1.1,.9,2,2,2s2-.9,2-2V5.59s.05-.69,.46-1.09c.41-.4,1.09-.49,1.33-.5h6.33V14.23Z"/></g></g></g></svg>