<?xml version="1.0" encoding="UTF-8"?><svg xmlns="http://www.w3.org/2000/svg" viewBox="0 0 270.11 270.11"><g id="a"/><g id="b"><g id="c"><g><path d="M134.36,64.18h.1c6.9-.06,12.45-5.7,12.4-12.6l-.32-39.18c-.06-6.87-5.64-12.4-12.5-12.4h-.1c-6.9,.06-12.45,5.7-12.4,12.6l.32,39.18c.06,6.87,5.64,12.4,12.5,12.4Z"/><path d="M134.05,205.94h-.1c-6.9,.06-12.45,5.7-12.4,12.6l.32,39.17c.06,6.87,5.64,12.4,12.5,12.4h.1c6.9-.06,12.45-5.7,12.4-12.6l-.32-39.17c-.06-6.87-5.64-12.4-12.5-12.4Z"/><path d="M64.18,135.85c-.06-6.87-5.64-12.4-12.5-12.4h-.1l-39.17,.32C5.49,123.83-.06,129.48,0,136.38c.06,6.87,5.64,12.4,12.5,12.4h.1l39.17-.32c6.9-.06,12.45-5.7,12.4-12.6Z"/><path d="M257.61,123.46h-.1l-39.18,.32c-6.9,.06-12.45,5.7-12.4,12.6,.06,6.87,5.64,12.4,12.5,12.4h.1l39.18-.32c6.9-.06,12.45-5.7,12.4-12.6-.06-6.87-5.64-12.4-12.5-12.4Z"/><path d="M203.27,186.88c-4.92-4.84-12.83-4.78-17.68,.15-4.84,4.92-4.78,12.83,.15,17.68l27.93,27.47c2.43,2.39,5.6,3.59,8.76,3.59s6.47-1.25,8.91-3.73c4.84-4.92,4.78-12.83-.15-17.68l-27.93-27.47Z"/><path d="M68.04,86.55c2.43,2.39,5.6,3.59,8.77,3.59s6.47-1.25,8.91-3.73c4.84-4.92,4.78-12.84-.14-17.68l-27.93-27.47c-4.92-4.84-12.84-4.78-17.68,.14-4.84,4.92-4.78,12.84,.14,17.68l27.93,27.47Z"/><path d="M190.25,117.25l-73,73c5.61,1.81,11.59,2.8,17.81,2.8,32.03,0,57.99-25.96,57.99-57.99,0-6.21-.99-12.19-2.8-17.81Z"/><path d="M80.93,155.86l74.94-74.94c-6.46-2.48-13.47-3.86-20.81-3.86-32.03,0-57.99,25.96-57.99,57.99,0,7.34,1.38,14.35,3.86,20.81Z"/><path d="M230.62,41.52c-4.88-4.88-12.8-4.88-17.68,0L40.01,214.46c-4.88,4.88-4.88,12.8,0,17.68,2.44,2.44,5.64,3.66,8.84,3.66s6.4-1.22,8.84-3.66L230.62,59.2c4.88-4.88,4.88-12.8,0-17.68Z"/></g></g></g></svg>