<svg width="26" height="30" viewBox="0 0 26 30" fill="none" xmlns="http://www.w3.org/2000/svg">
<g clip-path="url(#clip0_103_163)">
<path fill-rule="evenodd" clip-rule="evenodd" d="M19.3702 15.0088V19.3352C19.3702 29.553 8.22984 32.7475 3.75215 25.4215C0.874819 20.7096 2.63687 12.4383 11.868 12.1066V16.6424C11.1652 16.7564 10.4127 16.9326 9.72655 17.1668C7.6722 17.8613 6.50925 19.1631 6.83264 21.46C7.45454 25.8569 15.5227 27.1587 14.851 18.5661V2.4713H19.3059V2.46301C19.7495 6.28771 21.8847 8.56594 25.5954 8.80848V13.11C23.4457 13.3193 21.5613 12.6166 19.3702 11.2919V15.0088Z" fill="white"/>
<path fill-rule="evenodd" clip-rule="evenodd" d="M17.919 13.5578V17.8842C17.919 28.102 6.77867 31.2965 2.30098 23.9705C-0.576353 19.2586 1.1857 10.9873 10.4168 10.6556V15.1913C9.71404 15.3053 8.96154 15.4815 8.27538 15.7158C6.22103 16.4102 5.05808 17.7121 5.38146 20.009C6.00337 24.4058 14.0715 25.7077 13.3998 17.1151V1.02025H17.8547V1.01196C18.2984 4.83666 20.4336 7.11489 24.1442 7.35743V11.6589C21.9945 11.8683 20.1102 11.1655 17.919 9.84089V13.5578Z" stroke="#303B48" stroke-width="1.2438" stroke-linecap="round" stroke-linejoin="round"/>
</g>
<defs>
<clipPath id="clip0_103_163">
<rect width="25.1808" height="29.02" fill="white" transform="translate(0.414551 0.390015)"/>
</clipPath>
</defs>
</svg>
