<?xml version="1.0" encoding="UTF-8"?><svg xmlns="http://www.w3.org/2000/svg" viewBox="0 0 96.82 74.57"><g id="a"/><g id="b"><g id="c"><path d="M90.69,69.78c6.35,1.81,6.13-12.19,6.13-18.79V22.7c0-6.6-.76-20.15-6.92-17.8-5.69,2.17-18.2,16.22-18.2,16.22v30.26s12.63,16.58,18.99,18.4Z"/><g><path d="M34.91,42.88c-2.85,0-5.16,2.31-5.16,5.16s2.31,5.16,5.16,5.16,5.16-2.31,5.16-5.16-2.31-5.16-5.16-5.16Z"/><path d="M38.52,22.49h-7.21c-1.02,0-1.85,.96-1.85,2.14l.92,14.53c0,1.18,.83,2.14,1.85,2.14h4.78c1.02,0,1.85-.96,1.85-2.14l1.51-14.53c0-1.18-.83-2.14-1.85-2.14Z"/><path d="M57.82,0H12C5.4,0,0,5.4,0,12V62.57c0,6.6,5.4,12,12,12H57.82c6.6,0,12-5.4,12-12V12c0-6.6-5.4-12-12-12Zm-22.91,60.39c-12.45,0-22.54-10.09-22.54-22.54S22.46,15.31,34.91,15.31s22.54,10.09,22.54,22.54-10.09,22.54-22.54,22.54Z"/></g></g></g></svg>