<?xml version="1.0" encoding="UTF-8"?><svg xmlns="http://www.w3.org/2000/svg" viewBox="0 0 45.08 45.08"><g id="a"/><g id="b"><g id="c"><path d="M22.54,0C10.09,0,0,10.09,0,22.54s10.09,22.54,22.54,22.54,22.54-10.09,22.54-22.54S34.99,0,22.54,0Zm0,37.9c-2.85,0-5.16-2.31-5.16-5.16s2.31-5.16,5.16-5.16,5.16,2.31,5.16,5.16-2.31,5.16-5.16,5.16Zm3.95-14.05c0,1.18-.83,2.14-1.85,2.14h-4.78c-1.02,0-1.85-.96-1.85-2.14l-.92-14.53c0-1.18,.83-2.14,1.85-2.14h7.21c1.02,0,1.85,.96,1.85,2.14l-1.51,14.53Z"/></g></g></svg>