<?xml version="1.0" encoding="UTF-8"?><svg xmlns="http://www.w3.org/2000/svg" viewBox="0 0 23.28 23.28"><g id="a"/><g id="b"><g id="c"><g><path d="M9.24,15.81c.25,.15,.41,.14,.63-.07,.22-.22,.21-.39,.07-.63l-1.15-1.95h0l1.92,1.19c.24,.15,.41,.16,.63-.05,.21-.21,.23-.37,.08-.63l-1.41-2.45c-.04-.07-.08-.14-.14-.2-.17-.18-.41-.12-.54,.01-.14,.14-.16,.29-.03,.5l1.32,2.05h0l-2.02-1.29c-.19-.13-.36-.2-.61,.05-.22,.21-.2,.34-.09,.52l1.29,2.12h0l-2.02-1.37c-.2-.14-.36-.12-.51,.03-.14,.13-.2,.36-.02,.54,.06,.06,.13,.1,.19,.14l2.42,1.47Z"/><path d="M10.87,9.55l-.14,.14c-.14,.14-.19,.28-.11,.46l1.2,2.75c.04,.08,.1,.22,.16,.28,.15,.16,.36,.15,.52,0,.14-.14,.18-.26,.1-.42l-.27-.58,.95-.92,.57,.28c.15,.07,.29,.03,.42-.1,.15-.15,.16-.38,.02-.53-.06-.07-.2-.13-.28-.17l-2.63-1.28c-.24-.12-.39-.04-.53,.09Zm.55,.71l1.34,.71-.69,.67-.66-1.37h0Z"/><path d="M12.38,8.07c-.17,.16-.17,.41-.02,.56,.07,.07,.15,.1,.24,.12l1.38,.29,.26,1.5c.03,.17,.08,.24,.14,.3,.14,.14,.36,.14,.53-.02,.09-.09,.15-.21,.12-.34l-.29-1.31,1.25,.33c.18,.05,.28-.01,.38-.1,.17-.16,.2-.39,.02-.58-.07-.07-.15-.08-.3-.11l-1.44-.31-.25-1.46c-.01-.07-.05-.16-.1-.21-.18-.19-.4-.13-.54,.01-.13,.13-.13,.22-.1,.38l.26,1.18-1.14-.32c-.09-.03-.24-.04-.38,.09Z"/><path d="M4.22,14.42c-.59-.59-.59-1.55,0-2.14l3.63-3.46c.2-.2,.2-.52,0-.71s-.52-.2-.71,0l-3.63,3.46c-.98,.98-.98,2.58,0,3.57l1.46,1.46c.1,.1,.23,.15,.36,.15s.26-.05,.36-.15c.2-.2,.2-.52,0-.71l-1.46-1.46Z"/><path d="M15.14,3.51c-.98-.98-2.58-.98-3.57,0l-2.64,2.64c-.2,.2-.2,.52,0,.71,.2,.2,.52,.2,.71,0l2.64-2.64c.59-.59,1.55-.59,2.14,0l4.64,4.64c.59,.59,.59,1.55,0,2.14l-8.06,8.06c-.59,.59-1.55,.59-2.14,0l-1.33-1.3c-.2-.2-.52-.2-.71,0-.2,.2-.2,.52,0,.71l1.33,1.3c.49,.49,1.14,.74,1.78,.74s1.29-.25,1.78-.74l8.06-8.06c.98-.98,.98-2.58,0-3.57L15.14,3.51Z"/><path d="M21.74,6.19L17.1,1.55c-2.06-2.06-5.42-2.06-7.49,0L1.55,9.61c-2.06,2.06-2.06,5.42,0,7.49l4.64,4.64c1.03,1.03,2.39,1.55,3.74,1.55s2.71-.52,3.74-1.55l8.06-8.06c2.06-2.06,2.06-5.42,0-7.49Zm-.71,6.78l-8.06,8.06c-1.67,1.67-4.39,1.67-6.06,0l-4.64-4.64c-1.67-1.67-1.67-4.39,0-6.06L10.32,2.26c.84-.84,1.93-1.25,3.03-1.25s2.2,.42,3.03,1.25l4.64,4.64c1.67,1.67,1.67,4.39,0,6.06Z"/></g></g></g></svg>