<?xml version="1.0" encoding="utf-8"?>
<!-- Generator: Adobe Illustrator 26.1.0, SVG Export Plug-In . SVG Version: 6.00 Build 0)  -->
<svg version="1.1" id="Layer_1" xmlns="http://www.w3.org/2000/svg" xmlns:xlink="http://www.w3.org/1999/xlink" x="0px" y="0px"
	 viewBox="0 0 187.7 190.5" style="enable-background:new 0 0 187.7 190.5;" xml:space="preserve">
<style type="text/css">
	.st0{fill:#5E91BF;}
	.st1{fill:#1C3054;}
</style>
<g>
	<path class="st0" d="M139.1,4.1H43.7c-22.6,0-41,18.5-41,41v95.4c0,8.4,2.6,16.3,7,22.8v3h2.2c7.5,9.3,19,15.2,31.8,15.2h95.4
		c22.6,0,41-18.5,41-41V45.1C180.1,22.5,161.6,4.1,139.1,4.1z"/>
	<g>
		<path class="st1" d="M139.1,1.1H43.7c-24.3,0-44,19.7-44,44v95.4c0,24.3,19.7,44,44,44h95.4c24.3,0,44-19.7,44-44V45.1
			C183.1,20.8,163.3,1.1,139.1,1.1z M177.1,140.5c0,21-17,38-38,38H43.7c-21,0-38-17-38-38V45.1c0-21,17-38,38-38h95.4
			c21,0,38,17,38,38V140.5z"/>
		<path class="st1" d="M114.2,91.5c-1.6-0.4-3.2,0.5-3.7,2.1c-2,7.6-9,12.9-16.8,12.9c-8.5,0-15.7-6-17.2-14.3
			c-0.3-1.6-1.9-2.7-3.5-2.4c-1.6,0.3-2.7,1.9-2.4,3.5c2,11.2,11.7,19.3,23.1,19.3c10.6,0,19.9-7.1,22.6-17.4
			C116.7,93.6,115.8,92,114.2,91.5z"/>
		<circle class="st1" cx="78.1" cy="76.4" r="6.3"/>
		<ellipse transform="matrix(0.9871 -0.1602 0.1602 0.9871 -10.8289 18.476)" class="st1" cx="109.2" cy="76.4" rx="6.3" ry="6.3"/>
		<path class="st1" d="M149.1,81.6c-0.8-5.7-2-11.2-5-16.2c-7.1-11.9-16.6-20.9-29.6-26c-10.5-4.1-21.4-4.7-32.4-2.8
			c-12.8,2.2-23.6,7.9-32.2,17.7c-3.3,3.7-6.4,7.7-7.8,12.5c-2.7,8.9-3.7,18.1-4.4,27.3c-0.2,3-0.4,6.1-1.8,8.9
			c-1.6,3.2-4.3,4.7-7.9,4.2c-3.5-0.5-6.5,2.1-6.5,5.7c0,3.1,1.5,5.5,3.3,7.8c3.8,4.9,8.8,8.5,14.2,11.4c2.8,1.5,5.6,2.9,8.5,4
			c-0.5,1.4-0.8,3-0.8,4.6c0,7.7,6.2,13.9,13.9,13.9c6.9,0,12.7-5.1,13.7-11.7c6.4,0.6,13,0.5,19.7-0.4c0.9,6.8,6.7,12.1,13.8,12.1
			c7.7,0,13.9-6.2,13.9-13.9c0-2.2-0.5-4.3-1.5-6.2c3.3-1.8,6.6-3.8,9.7-6.2c10.5-7.9,17-18.3,19-31.4c0.3-1.7,0.5-3.4,0.7-5.1v-6.2
			C149.5,84.2,149.3,82.9,149.1,81.6L149.1,81.6z M60.6,145.4c-2.7,0-4.9-2.2-4.9-4.9s2.2-4.9,4.9-4.9c2.7,0,4.9,2.2,4.9,4.9
			S63.3,145.4,60.6,145.4z M107.8,145.4c-2.7,0-4.9-2.2-4.9-4.9s2.2-4.9,4.9-4.9c2.7,0,4.9,2.2,4.9,4.9S110.5,145.4,107.8,145.4z
			 M139.8,106.9c-4,8.8-10.6,15.2-18.8,20.1c-1.5,0.9-3.1,1.8-4.7,2.6c-2.4-1.8-5.3-2.9-8.5-2.9c-6.2,0-11.5,4.1-13.3,9.8l0,0h0
			c-0.8,0.1-1.6,0.2-2.4,0.3c-6.2,0.6-12.2,0.6-18.1,0.1c-1.7-5.8-7-10.1-13.4-10.1c-3.9,0-7.4,1.6-10,4.2
			c-4.2-1.7-8.3-3.8-12.3-6.3c-3.3-2.1-6.4-4.5-8.8-7.7c-0.8-1.1-1.4-2.3-2.2-3.6c2-0.2,3.6-0.2,5.2-0.5c5.1-1.2,8.2-4.6,9.6-9.4
			c0.8-2.9,1.2-5.9,1.5-9c0.7-8.3,1.7-16.5,3.8-24.6c1.1-4.2,3.7-7.6,6.4-10.8c8-9.4,18.2-14.8,30.3-16.6
			c10.2-1.6,20.2-0.9,29.7,3.2c12.3,5.4,21.1,14.4,26.9,26.4c1.7,3.5,2.2,7.5,2.7,11.4C144.2,91.4,143.3,99.3,139.8,106.9z"/>
	</g>
</g>
</svg>
