<svg width="30" height="22" viewBox="0 0 30 22" fill="none" xmlns="http://www.w3.org/2000/svg">
<g clip-path="url(#clip0_103_171)">
<path fill-rule="evenodd" clip-rule="evenodd" d="M29.7099 6.46822H29.7129C29.7129 6.46822 29.4368 4.57 28.583 3.73568C27.5071 2.63877 26.2991 2.63126 25.7454 2.56674C21.7854 2.28613 15.8356 2.28613 15.8356 2.28613C15.8356 2.28613 9.88889 2.28613 5.92438 2.56674C5.37067 2.63126 4.16571 2.63577 3.0868 3.73568C2.22998 4.57 1.95688 6.47122 1.95688 6.47122C1.78131 7.95378 1.68827 9.44385 1.67627 10.9369V13.0257C1.68827 14.5173 1.78281 16.0088 1.95688 17.4914C1.95688 17.4914 2.23298 19.3926 3.0793 20.2374C4.15821 21.3374 5.57325 21.3014 6.20649 21.4184C8.47235 21.63 15.8371 21.6915 15.8371 21.6915C15.8371 21.6915 21.7914 21.6915 25.7484 21.4064C26.3036 21.3419 27.5101 21.3344 28.5875 20.2374C29.4383 19.4031 29.7144 17.5004 29.7144 17.5004C29.89 16.0178 29.983 14.5278 29.995 13.0347V10.9339C29.98 9.44085 29.884 7.95078 29.7069 6.46822H29.7099ZM12.9035 15.5602V7.81123L20.5534 11.6977L12.9035 15.5602Z" fill="white"/>
<path fill-rule="evenodd" clip-rule="evenodd" d="M28.4855 5.24227H28.4885C28.4885 5.24227 28.2124 3.34405 27.3586 2.50973C26.2827 1.41281 25.0747 1.40531 24.521 1.34079C20.561 1.06018 14.6113 1.06018 14.6113 1.06018C14.6113 1.06018 8.66452 1.06018 4.70002 1.34079C4.14631 1.40531 2.94135 1.40981 1.86244 2.50973C1.00561 3.34405 0.732511 5.24527 0.732511 5.24527C0.556944 6.72783 0.463909 8.2179 0.451904 9.71096V11.7998C0.463909 13.2913 0.558445 14.7829 0.732511 16.2655C0.732511 16.2655 1.00862 18.1667 1.85494 19.0115C2.93385 20.1114 4.34888 20.0754 4.98212 20.1924C7.24798 20.404 14.6128 20.4655 14.6128 20.4655C14.6128 20.4655 20.567 20.4655 24.524 20.1804C25.0793 20.1159 26.2857 20.1084 27.3631 19.0115C28.2139 18.1772 28.49 16.2745 28.49 16.2745C28.6656 14.7919 28.7586 13.3018 28.7707 11.8088V9.70796C28.7556 8.2149 28.6596 6.72483 28.4825 5.24227H28.4855ZM11.6792 14.3342V6.58678L19.3291 10.4733L11.6792 14.3357V14.3342Z" stroke="#303B48" stroke-width="0.900342" stroke-linecap="round" stroke-linejoin="round"/>
</g>
<defs>
<clipPath id="clip0_103_171">
<rect width="29.9964" height="21.08" fill="white" transform="translate(0.00170898 0.609985)"/>
</clipPath>
</defs>
</svg>
