<?xml version="1.0" encoding="UTF-8"?><svg xmlns="http://www.w3.org/2000/svg" viewBox="0 0 1200 1200"><defs><style>.d{fill:#f0f1f4;}.e{fill:#1e3056;}</style></defs><g id="a"/><g id="b"><g id="c"><rect class="d" width="1200" height="1200"/><g><g><path class="e" d="M370,933.14H156.69l-.06-56.99,58.26,.26h.06c7.26,0,13.16-5.87,13.2-13.14,.03-7.29-5.85-13.22-13.14-13.25l-58.4-.26-.06-60.47c0-.87,.7-1.58,1.57-1.59l94.81-.86c7.29-.07,13.14-6.03,13.08-13.32-.07-7.29-6-13.18-13.32-13.08l-94.81,.86c-15.3,.14-27.73,12.7-27.72,28l.16,157.05c0,7.29,5.91,13.18,13.2,13.18h226.49c7.29-.01,13.2-5.92,13.2-13.21s-5.91-13.2-13.2-13.2Z"/><path class="e" d="M875.9,847.97c-3.33-1.11-6.4-2.12-8.96-3.18-2.18-.91-4.74-1.85-7.54-2.88-17.63-6.45-32.29-12.97-33.02-27.35-.35-7.02,1.48-12.53,5.61-16.88,6.4-6.74,18.78-10.92,32.3-10.92,17.75,0,27.83,4.56,38.52,17.44,4.65,5.61,12.97,6.38,18.58,1.72,5.61-4.66,6.38-12.98,1.72-18.59-15.7-18.91-33.29-26.97-58.83-26.97-9.99,0-35.01,1.86-51.42,19.12-9.12,9.59-13.56,22.18-12.84,36.39,1.67,33,33.3,44.58,50.3,50.8,2.4,.88,4.6,1.68,6.48,2.46,3.26,1.35,6.9,2.57,10.75,3.85,21.33,7.1,36.44,13.71,36.44,34.13,0,5.17-3,11.09-8.02,15.85-7.51,7.11-18.42,10.88-29.95,10.23-29.59-1.58-39.86-21.24-41.61-25.17-2.98-6.65-10.78-9.63-17.43-6.66-6.65,2.98-9.63,10.78-6.66,17.43,2.86,6.39,19.38,38.35,64.3,40.74,1.28,.07,2.55,.1,3.82,.1,17.34,0,33.83-6.28,45.7-17.54,10.33-9.79,16.25-22.55,16.25-35,0-41.03-35.45-52.83-54.49-59.17Z"/><path class="e" d="M1015.36,847.97c-3.33-1.11-6.4-2.12-8.97-3.18-2.18-.91-4.74-1.85-7.54-2.88-17.63-6.45-32.29-12.97-33.02-27.35-.36-7.02,1.48-12.53,5.61-16.88,6.4-6.74,18.78-10.92,32.3-10.92,17.75,0,27.83,4.56,38.53,17.44,4.66,5.62,12.98,6.39,18.58,1.72,5.61-4.66,6.37-12.97,1.72-18.58-15.7-18.91-33.29-26.97-58.83-26.97-9.99,0-35.01,1.86-51.42,19.12-9.12,9.59-13.56,22.18-12.84,36.39,1.66,33,33.3,44.58,50.3,50.8,2.41,.88,4.6,1.68,6.48,2.46,3.26,1.35,6.9,2.57,10.76,3.85,21.33,7.1,36.43,13.71,36.43,34.13,0,5.17-3,11.09-8.02,15.85-7.51,7.12-18.41,10.9-29.95,10.24-29.6-1.58-39.87-21.24-41.62-25.17-2.98-6.65-10.78-9.63-17.43-6.66-6.65,2.98-9.63,10.78-6.66,17.43,2.86,6.39,19.38,38.35,64.31,40.74,1.28,.07,2.55,.1,3.82,.1,17.34,0,33.82-6.28,45.69-17.54,10.33-9.79,16.25-22.55,16.25-35,0-41.02-35.45-52.83-54.48-59.17Z"/><path class="e" d="M696.96,759.1c-56.25,0-77.94,45.41-88.37,67.23-1.33,2.79-2.47,5.2-3.5,7.04-5.71,10.22-10.26,23.04-15.07,36.6-13.05,36.78-23.97,62.81-45.68,62.81l-60.32,.27,.02-59.96,40.2,.38v.02c14.23,.11,28.95,.23,36.68,8.48,2.15,2.3,7.66,8.69,10.3,16.27,4.02-8.78,7.87-19.19,11.9-30.52,.04-.11,.08-.21,.12-.32-1.12-1.35-2.16-2.51-3.04-3.46-4.24-4.53-9.07-7.83-14.2-10.24,9.3-9.86,15.7-23.78,14.01-42.74-3.16-35.28-41.07-50.54-59.72-50.54-20.83,0-67.97-.03-98.38-.06h-17.81c-6.23-.01-12.06,2.43-16.43,6.87-4.38,4.45-6.72,10.33-6.61,16.58l.15,8.44c.13,7.29,6.21,12.83,13.43,12.96,7.29-.14,13.09-6.15,12.95-13.44l-.09-5.03h14.38c30.41,.03,77.56,.07,98.39,.07,8.55,0,31.79,8.15,33.43,26.49,2.27,25.4-22.1,32.44-28.06,33.77l-41.59-.4v-34.23c.02-7.29-5.89-13.2-13.18-13.2h0c-7.29,0-13.19,5.9-13.2,13.19l-.04,123.94c0,6.18,2.41,11.99,6.79,16.35,4.35,4.33,10.11,6.71,16.24,6.71h.12l63.62-.29c41.96,0,57.78-44.56,70.49-80.38,4.43-12.49,8.62-24.28,13.24-32.57,1.25-2.23,2.65-5.14,4.27-8.53,9.33-19.53,24.95-52.22,64.56-52.22,24.56,0,71.02,15.8,71.02,75.6,0,50.79-36.88,70.01-68.46,71.02-37.63,1.35-55.25-27.12-57.57-31.17-1.43-2.77-2.21-4.84-2.48-5.64-3.69-10.65-7.97-23.02-10.44-33.39-2.39,5.92-4.77,12.63-7.23,19.56-2.37,6.68-4.91,13.82-7.76,21.02,.17,.48,.33,.97,.5,1.45,.38,1.1,1.4,3.83,3.21,7.49,.18,.46,.38,.92,.62,1.37,.11,.22,.52,.98,1.23,2.15,8.1,14.61,26.78,38.44,64.06,43.02-.11-.14-.21-.3-.31-.44,5.32,.79,11,1.14,17.04,.95,45.27-1.47,94-32.57,94-97.4,0-74.83-58.26-101.99-97.41-101.99Z"/><path class="e" d="M430.34,799.5h-.01c-7.28,0-13.19,5.9-13.2,13.18l-.09,111.31-94.69-153.7c-.38-.61-.8-1.19-1.27-1.73-6.37-7.33-16.36-9.87-25.48-6.47-9.1,3.4-14.98,11.88-14.97,21.6l.08,128.92c0,7.29,5.91,13.19,13.2,13.19h0c7.29,0,13.19-5.92,13.19-13.2l-.07-116.85,94.68,153.68c.38,.61,.8,1.19,1.27,1.73,4.41,5.07,10.6,7.81,17.02,7.81,2.7,0,5.44-.48,8.1-1.48,9.3-3.47,15.31-12.1,15.32-21.98l.1-122.79c0-7.29-5.9-13.2-13.18-13.21Z"/><path class="e" d="M728.21,818.59c-3.33-1.29-7.06,.32-8.37,3.63-3.9,9.87-11.53,21.09-19.39,31.13l-26.36-26.26c-2.53-2.52-6.61-2.51-9.12,.02-2.51,2.53-2.51,6.61,.02,9.12l27.25,27.14c-9.18,10.73-16.93,18.43-17.09,18.59-2.53,2.5-2.56,6.59-.06,9.12,1.26,1.28,2.93,1.92,4.59,1.92s3.28-.62,4.53-1.86c.67-.66,8.17-8.11,17.2-18.62l26.71,26.61c1.26,1.25,2.91,1.88,4.55,1.88s3.31-.63,4.57-1.9c2.51-2.53,2.51-6.61-.02-9.12l-27.56-27.46c8.8-11.13,17.6-23.97,22.18-35.56,1.31-3.32-.31-7.06-3.63-8.37Z"/></g><path class="e" d="M600,240.31c-118.36,0-214.31,100.1-214.31,223.57s95.95,223.57,214.31,223.57,214.31-100.1,214.31-223.57-95.95-223.57-214.31-223.57Zm106.31,340.01c-3.39,3.41-7.84,5.11-12.29,5.11s-8.86-1.69-12.24-5.06l-80.97-80.66c-27.45,32.05-50.43,54.87-52.46,56.88-3.38,3.33-7.78,5-12.19,5s-8.95-1.72-12.35-5.16c-6.73-6.82-6.66-17.8,.15-24.53,.49-.49,24.23-24.07,52.14-56.8l-82.37-82.06c-6.79-6.76-6.81-17.75-.05-24.54,6.76-6.78,17.75-6.81,24.54-.05l79.99,79.69c23.98-30.44,47.43-64.73,59.32-94.83,3.52-8.91,13.59-13.28,22.51-9.76,8.91,3.52,13.28,13.6,9.76,22.51-13.75,34.81-40.35,73.43-66.81,106.76l83.27,82.96c6.79,6.76,6.81,17.75,.05,24.53Z"/></g></g></g></svg>