<?xml version="1.0" encoding="UTF-8"?><svg id="a" xmlns="http://www.w3.org/2000/svg" viewBox="0 0 512 512"><defs><style>.j{fill:#fff;}.j,.k{fill-rule:evenodd;}.k,.l{fill:#0e0f0f;}.m{fill:#d8e7c1;}.n{fill:#1c3054;}</style></defs><g><path class="n" d="M61.23,298.68c-3.11,0-5.63-2.52-5.63-5.63l-.07-67.01c0-6.53,5.3-11.89,11.83-11.95l40.45-.37c3.12-.05,5.65,2.47,5.68,5.58,.03,3.11-2.47,5.65-5.58,5.68l-40.45,.37c-.37,0-.67,.31-.67,.68l.06,61.38h91.01c3.11,0,5.63,2.51,5.63,5.63s-2.52,5.63-5.63,5.63H61.23Z"/><path class="n" d="M249.89,283.21c-.22,0-.45-.01-.68-.04-3.09-.37-5.29-3.17-4.92-6.26,.59-4.93-3.65-9.9-4.97-11.31-3.3-3.52-9.58-3.57-15.65-3.62l-.08-5.63,.04-5.63c7.38,.06,17.31,.13,23.91,7.19,2.76,2.95,9.06,10.85,7.92,20.35-.34,2.86-2.77,4.96-5.58,4.96Z"/><path class="n" d="M91.71,263.21h-.02l-29.86-.13c-3.11-.01-5.62-2.55-5.61-5.65,.01-3.1,2.53-5.61,5.63-5.61h.02l29.86,.13c3.11,.01,5.62,2.55,5.61,5.65-.01,3.1-2.53,5.61-5.63,5.61Z"/><path class="n" d="M370.54,298.74c-.54,0-1.08-.01-1.63-.04-19.16-1.02-26.22-14.66-27.43-17.38-1.27-2.84,0-6.17,2.84-7.44,2.84-1.27,6.17,0,7.44,2.84,.75,1.67,5.13,10.07,17.76,10.74,4.92,.28,9.58-1.33,12.78-4.37,2.14-2.03,3.42-4.56,3.42-6.76,0-8.71-6.44-11.53-15.55-14.56-1.64-.55-3.19-1.07-4.59-1.64-.8-.33-1.74-.68-2.77-1.05-7.25-2.65-20.75-7.59-21.46-21.68-.31-6.07,1.59-11.43,5.48-15.53,7-7.37,17.68-8.16,21.94-8.16,10.9,0,18.4,3.44,25.1,11.51,1.99,2.39,1.66,5.94-.73,7.93-2.39,1.99-5.94,1.66-7.93-.74-4.56-5.49-8.86-7.44-16.44-7.44-5.77,0-11.05,1.78-13.78,4.66-1.76,1.85-2.55,4.21-2.39,7.2,.31,6.14,6.56,8.91,14.09,11.67,1.19,.44,2.28,.84,3.22,1.23,1.09,.45,2.4,.88,3.82,1.36,8.13,2.71,23.25,7.74,23.25,25.25,0,5.31-2.53,10.76-6.93,14.93-5.06,4.8-12.1,7.48-19.5,7.48Z"/><path class="n" d="M430.04,298.74c-.54,0-1.08-.01-1.63-.04-19.17-1.02-26.22-14.66-27.44-17.38-1.27-2.84,0-6.17,2.84-7.44s6.17,0,7.44,2.84c.75,1.67,5.13,10.07,17.76,10.74,4.92,.28,9.57-1.33,12.78-4.37,2.14-2.03,3.42-4.56,3.42-6.76,0-8.71-6.44-11.53-15.54-14.56-1.64-.55-3.2-1.07-4.59-1.64-.8-.33-1.74-.67-2.77-1.05-7.25-2.65-20.75-7.59-21.46-21.68-.31-6.07,1.59-11.43,5.48-15.53,7-7.37,17.68-8.16,21.94-8.16,10.89,0,18.4,3.44,25.1,11.51,1.99,2.39,1.66,5.94-.73,7.93-2.39,1.99-5.94,1.66-7.93-.73-4.56-5.49-8.87-7.44-16.44-7.44-5.77,0-11.05,1.78-13.78,4.66-1.76,1.85-2.55,4.21-2.39,7.2,.31,6.14,6.56,8.91,14.09,11.67,1.19,.44,2.28,.84,3.22,1.23,1.09,.45,2.4,.88,3.83,1.36,8.12,2.71,23.25,7.74,23.25,25.25,0,5.31-2.53,10.75-6.93,14.93-5.07,4.8-12.1,7.48-19.5,7.48Z"/><path class="n" d="M205.09,298.75c-2.62,0-5.09-1.02-6.94-2.87-1.87-1.86-2.89-4.34-2.89-6.97l.02-52.88c0-3.11,2.52-5.63,5.63-5.63h0c3.11,0,5.63,2.52,5.63,5.63l-.02,51.45,25.74-.12c9.27,0,13.92-11.11,19.49-26.8,2.05-5.79,3.99-11.26,6.43-15.62,.44-.78,.92-1.81,1.49-3,4.45-9.31,13.71-28.69,37.7-28.69,16.71,0,41.56,11.59,41.56,43.51,0,27.67-20.79,40.94-40.11,41.56-27.47,.87-35.76-20.88-36.62-23.36-.59-1.71-1.2-3.47-1.79-5.23-5.18,14.01-12.29,28.9-28.13,28.9l-27.15,.12h-.04Zm62.42-47.39c.09,4.78,2.99,13.17,5.33,19.92,.58,1.68,6.27,16.5,25.62,15.79,13.47-.43,29.21-8.63,29.21-30.3,0-25.51-19.82-32.25-30.3-32.25-16.9,0-23.56,13.95-27.54,22.28-.69,1.44-1.29,2.69-1.82,3.64-.17,.3-.33,.6-.49,.92Z"/><path class="m" d="M205.09,301.87c-3.46,0-6.7-1.34-9.15-3.78-2.46-2.45-3.81-5.72-3.81-9.19l.02-52.88c0-4.84,3.92-8.76,8.76-8.76h0c4.84,0,8.76,3.92,8.76,8.76l-.02,48.3,22.59-.1c7.21,0,11.59-10.71,16.56-24.72,2.1-5.92,4.08-11.5,6.65-16.1,.41-.74,.87-1.71,1.4-2.83,4.35-9.12,14.56-30.47,40.53-30.47,17.96,0,44.69,12.42,44.69,46.64,0,29.75-22.36,44.02-43.13,44.68-4.87,.14-8.88-3.64-9.04-8.47s3.64-8.88,8.47-9.03c12.08-.39,26.18-7.74,26.18-27.18,0-28.79-26.07-29.12-27.17-29.12-13.77,0-19.77,10.13-24.72,20.5-.72,1.52-1.35,2.82-1.91,3.81-1.84,3.3-3.59,8.22-5.43,13.42-5.45,15.35-12.91,36.38-33.02,36.38l-27.13,.12h-.06Z"/><path class="n" d="M205.08,298.65c-2.61,0-5.07-1.01-6.93-2.86-1.87-1.86-2.9-4.34-2.9-6.98l.02-52.88c0-3.11,2.52-5.63,5.63-5.63h0c3.11,0,5.63,2.52,5.63,5.63l-.02,51.45,25.74-.12c9.27,0,13.92-11.11,19.49-26.8,2.05-5.79,3.99-11.26,6.43-15.62,.44-.79,.92-1.82,1.49-3.01,4.45-9.31,13.71-28.69,37.7-28.69,16.71,0,41.56,11.59,41.56,43.51,0,27.66-20.79,40.93-40.11,41.56-24.04,.76-34.56-18.66-34.99-19.49-1.44-2.75-.38-6.16,2.38-7.6,2.75-1.44,6.13-.38,7.59,2.35,.34,.62,7.79,14.09,24.67,13.49,13.47-.43,29.21-8.63,29.21-30.3,0-25.51-19.82-32.25-30.3-32.25-16.9,0-23.56,13.95-27.54,22.28-.69,1.44-1.29,2.69-1.82,3.64-1.97,3.53-3.76,8.57-5.65,13.89-5.42,15.28-12.17,34.29-30.08,34.29l-27.15,.12h-.05Zm0-11.26h0Z"/><path class="n" d="M224.4,261.98h-.05l-22.43-.21c-3.11-.03-5.61-2.57-5.58-5.68,.03-3.09,2.55-5.58,5.63-5.58h.05l21.84,.21c2.54-.57,12.94-3.57,11.97-14.41-.7-7.83-10.61-11.3-14.26-11.3-8.89,0-29.01-.01-41.98-.02h-6.14l.04,2.14c.06,3.11-2.42,5.67-5.53,5.73-3.08-.05-5.68-2.42-5.73-5.53l-.07-3.6c-.05-2.67,.95-5.18,2.82-7.07,1.86-1.89,4.35-2.94,7.01-2.94h7.6c12.97,.01,33.09,.03,41.97,.03,7.95,0,24.13,6.51,25.48,21.56,1.59,17.76-13.49,25.16-21.69,26.59-.32,.06-.64,.08-.97,.08Z"/><path class="n" d="M179.2,298.43c-2.74,0-5.38-1.17-7.26-3.33-.2-.23-.38-.48-.54-.74l-40.4-65.57,.03,49.86c0,3.11-2.52,5.63-5.63,5.63h0c-3.11,0-5.63-2.52-5.63-5.63l-.03-55c0-4.14,2.5-7.76,6.39-9.22,3.89-1.45,8.15-.37,10.87,2.76,.2,.23,.38,.48,.54,.74l40.4,65.58,.04-47.49c0-3.11,2.52-5.63,5.63-5.63h0c3.11,0,5.63,2.52,5.63,5.64l-.04,52.39c0,4.22-2.57,7.9-6.54,9.38-1.14,.43-2.31,.63-3.46,.63Z"/><g><path class="n" d="M289.99,270.29c-.71,0-1.42-.27-1.96-.82-1.07-1.08-1.06-2.82,.02-3.89,.15-.15,14.82-14.72,19.07-25.49,.56-1.41,2.15-2.1,3.57-1.55,1.41,.56,2.11,2.16,1.55,3.57-4.68,11.85-19.69,26.75-20.32,27.38-.54,.53-1.24,.79-1.93,.79Z"/><path class="n" d="M312.6,273.71c-.7,0-1.41-.27-1.94-.8l-26.94-26.84c-1.08-1.07-1.08-2.82,0-3.89,1.07-1.08,2.81-1.08,3.89,0l26.94,26.84c1.08,1.07,1.08,2.82,0,3.89-.54,.54-1.24,.81-1.95,.81Z"/></g></g><g id="b"><g id="c" transform="translate(-1664.000000, -4844.000000)"><g id="d" transform="translate(1164.000000, 4844.000000)"><g id="e" transform="translate(500.000000, 0.000000)"><rect id="f" class="l" x="0" y="0" width="512" height="512"/><g id="g" transform="translate(77.000000, 76.000000)"><path id="h" class="j" d="M437,256c0,99.41-80.59,180-180,180S77,355.41,77,256,157.59,76,257,76s180,80.59,180,180"/><path id="i" class="k" d="M301.45,170.53v11.36c-15.33-10.76-31.95-15.79-49.94-15.88h0c-.08,0-.17,0-.25,0s-.17,0-.25,0h0c-21.72,.12-41.46,7.42-59.32,23.33-9.84,8.88-17.32,18.96-22.27,30.06-4.9,11.05-7.42,23.45-7.42,36.77,0,12.44,2.21,24.1,6.56,34.65,4.36,10.54,10.98,20.3,19.71,28.99,8.72,8.7,18.48,15.32,28.98,19.66,10.28,4.24,21.6,6.44,33.63,6.53h0c.13,0,.25,0,.38,0,.13,0,.25,0,.38,0h0c12.02-.1,23.35-2.3,33.63-6.54,5.63-2.32,11.03-5.31,16.18-8.91v10.92h37.52V170.53h-37.52Zm-100.38,85.66c0-28.63,17.92-56.35,50.19-56.35s50.19,27.73,50.19,56.35c0,75.79-100.38,75.77-100.38,0h0Z"/></g></g></g></g></g><rect class="n" x="0" y="0" width="512" height="512"/><ellipse class="m" cx="256" cy="256" rx="145.71" ry="153.22"/><g><path class="n" d="M204.21,335.26c-3.63,0-7.26-1.39-10.02-4.18-5.46-5.53-5.41-14.44,.12-19.9,.84-.83,84.14-83.57,108.36-144.87,2.85-7.23,11.02-10.77,18.26-7.92,7.23,2.86,10.78,11.03,7.92,18.26-26.4,66.83-111.16,151-114.76,154.56-2.74,2.7-6.32,4.06-9.89,4.06Z"/><path class="n" d="M332.27,354.6c-3.59,0-7.19-1.37-9.93-4.1L169.79,198.52c-5.51-5.49-5.52-14.4-.04-19.9,5.49-5.5,14.4-5.53,19.9-.04l152.55,151.98c5.51,5.49,5.52,14.4,.04,19.9-2.75,2.76-6.36,4.14-9.97,4.14Z"/></g></svg>