<?xml version="1.0" encoding="UTF-8"?><svg id="a" xmlns="http://www.w3.org/2000/svg" viewBox="0 0 512 512"><defs><style>.b{fill:#fdef7f;}.c{fill:#1c3054;}</style></defs><rect class="c" x="0" y="0" width="512" height="512"/><path class="b" d="M256,74.63c-96.02,0-173.86,81.2-173.86,181.37s77.84,181.37,173.86,181.37,173.86-81.2,173.86-181.37-77.84-181.37-173.86-181.37Zm86.25,275.83c-2.75,2.76-6.36,4.14-9.97,4.14s-7.19-1.37-9.93-4.1l-65.69-65.44c-22.27,26-40.91,44.52-42.56,46.14-2.74,2.7-6.32,4.06-9.89,4.06s-7.26-1.39-10.02-4.18c-5.46-5.53-5.41-14.44,.12-19.9,.4-.4,19.66-19.53,42.29-46.08l-66.82-66.57c-5.51-5.49-5.52-14.4-.04-19.9,5.49-5.5,14.4-5.53,19.9-.04l64.89,64.65c19.45-24.69,38.48-52.51,48.12-76.93,2.85-7.23,11.02-10.77,18.26-7.92,7.23,2.86,10.78,11.03,7.92,18.26-11.15,28.24-32.73,59.57-54.2,86.61l67.55,67.3c5.51,5.49,5.52,14.4,.04,19.9Z"/></svg>