<?xml version="1.0" encoding="UTF-8"?><svg id="a" xmlns="http://www.w3.org/2000/svg" viewBox="0 0 512 512"><defs><style>.j{fill:#fff;}.j,.k{fill-rule:evenodd;}.k,.l{fill:#0e0f0f;}.m{fill:#f9f9f9;}</style></defs><g id="b"><g id="c" transform="translate(-1664.000000, -4844.000000)"><g id="d" transform="translate(1164.000000, 4844.000000)"><g id="e" transform="translate(500.000000, 0.000000)"><rect id="f" class="l" y="0" width="512" height="512"/><g id="g" transform="translate(77.000000, 76.000000)"><path id="h" class="j" d="M437,256c0,99.41-80.59,180-180,180S77,355.41,77,256,157.59,76,257,76s180,80.59,180,180"/><path id="i" class="k" d="M301.45,170.53v11.36c-15.33-10.76-31.95-15.79-49.94-15.88h0c-.08,0-.17,0-.25,0s-.17,0-.25,0h0c-21.72,.12-41.46,7.42-59.32,23.33-9.84,8.88-17.32,18.96-22.27,30.06-4.9,11.05-7.42,23.45-7.42,36.77,0,12.44,2.21,24.1,6.56,34.65,4.36,10.54,10.98,20.3,19.71,28.99,8.72,8.7,18.48,15.32,28.98,19.66,10.28,4.24,21.6,6.44,33.63,6.53h0c.13,0,.25,0,.38,0,.13,0,.25,0,.38,0h0c12.02-.1,23.35-2.3,33.63-6.54,5.63-2.32,11.03-5.31,16.18-8.91v10.92h37.52V170.53h-37.52Zm-100.38,85.66c0-28.63,17.92-56.35,50.19-56.35s50.19,27.73,50.19,56.35c0,75.79-100.38,75.77-100.38,0h0Z"/></g></g></g></g></g><rect x="0" y="0" width="512" height="512"/><path class="m" d="M256,102.78c80.34,0,145.71,68.74,145.71,153.22s-65.36,153.22-145.71,153.22-145.71-68.74-145.71-153.22S175.66,102.78,256,102.78m0-28.15c-96.02,0-173.86,81.2-173.86,181.37s77.84,181.37,173.86,181.37,173.86-81.2,173.86-181.37-77.84-181.37-173.86-181.37h0Z"/><g><path class="m" d="M204.21,335.26c-3.63,0-7.26-1.39-10.02-4.18-5.46-5.53-5.41-14.44,.12-19.9,.84-.83,84.14-83.57,108.36-144.87,2.85-7.23,11.02-10.77,18.26-7.92,7.23,2.86,10.78,11.03,7.92,18.26-26.4,66.83-111.16,151-114.76,154.56-2.74,2.7-6.32,4.06-9.89,4.06Z"/><path class="m" d="M332.27,354.6c-3.59,0-7.19-1.37-9.93-4.1L169.79,198.52c-5.51-5.49-5.52-14.4-.04-19.9,5.49-5.5,14.4-5.53,19.9-.04l152.55,151.98c5.51,5.49,5.52,14.4,.04,19.9-2.75,2.76-6.36,4.14-9.97,4.14Z"/></g><path class="m" d="M256,102.78c80.34,0,145.71,68.74,145.71,153.22s-65.36,153.22-145.71,153.22-145.71-68.74-145.71-153.22S175.66,102.78,256,102.78m0-28.15c-96.02,0-173.86,81.2-173.86,181.37s77.84,181.37,173.86,181.37,173.86-81.2,173.86-181.37-77.84-181.37-173.86-181.37h0Z"/></svg>