<?xml version="1.0" encoding="UTF-8"?><svg xmlns="http://www.w3.org/2000/svg" viewBox="0 0 315 235"><defs><style>.c{opacity:.5;}.d{fill:#f0f2f4;}.e{fill:#ffbf00;}.f{fill:#335799;}.g{fill:#1c3054;}</style></defs><g id="a"><g><g><path class="e" d="M262.78,56.27c12.21,0,22.14,9.93,22.14,22.14s-9.93,22.14-22.14,22.14-22.14-9.93-22.14-22.14,9.93-22.14,22.14-22.14m0-1c-12.78,0-23.14,10.36-23.14,23.14s10.36,23.14,23.14,23.14,23.14-10.36,23.14-23.14-10.36-23.14-23.14-23.14h0Z"/><g><path class="e" d="M262.78,65.4c7.18,0,13.02,5.84,13.02,13.02s-5.84,13.02-13.02,13.02-13.02-5.84-13.02-13.02,5.84-13.02,13.02-13.02m0-1c-7.74,0-14.02,6.28-14.02,14.02s6.28,14.02,14.02,14.02,14.02-6.28,14.02-14.02-6.28-14.02-14.02-14.02h0Z"/><g class="c"><path class="e" d="M262.78,64.4c-7.74,0-14.02,6.28-14.02,14.02s6.28,14.02,14.02,14.02,14.02-6.28,14.02-14.02-6.28-14.02-14.02-14.02Zm10.73,9.29c.14,.34-.72,1.03-1.92,1.54-1.21,.51-2.3,.65-2.44,.31-.14-.34,.72-1.03,1.92-1.54s2.3-.65,2.44-.31Zm-4.74-2.49c.93-.93,1.89-1.46,2.15-1.2s-.28,1.23-1.2,2.15c-.93,.93-1.89,1.46-2.15,1.2-.26-.26,.28-1.22,1.2-2.15Zm-1.21,7.21c0,2.64-2.14,4.78-4.78,4.78s-4.78-2.14-4.78-4.78,2.14-4.78,4.78-4.78,4.78,2.14,4.78,4.78Zm-1.95-8.93c.51-1.21,1.2-2.06,1.54-1.92,.34,.14,.2,1.24-.31,2.44s-1.2,2.06-1.54,1.92c-.34-.14-.2-1.24,.31-2.44Zm-3.07-2.77c.37,0,.67,1.06,.67,2.37s-.3,2.37-.67,2.37-.67-1.06-.67-2.37,.3-2.37,.67-2.37Zm-4.56,1.01c.34-.14,1.03,.72,1.54,1.92s.65,2.3,.31,2.44c-.34,.14-1.03-.72-1.54-1.92-.51-1.21-.65-2.3-.31-2.44Zm-3.69,2.59c.26-.26,1.22,.28,2.15,1.2s1.46,1.89,1.2,2.15-1.22-.28-2.15-1.2-1.46-1.89-1.2-2.15Zm-2.44,3.77c.14-.34,1.24-.2,2.44,.31,1.21,.51,2.06,1.2,1.92,1.54-.14,.34-1.24,.2-2.44-.31-1.21-.51-2.06-1.2-1.92-1.54Zm-.85,4.61c0-.37,1.06-.67,2.37-.67s2.37,.3,2.37,.67-1.06,.67-2.37,.67-2.37-.3-2.37-.67Zm1.01,4.56c-.14-.34,.72-1.03,1.92-1.54,1.21-.51,2.3-.65,2.44-.31s-.72,1.03-1.92,1.54c-1.21,.51-2.3,.65-2.44,.31Zm4.74,2.49c-.93,.93-1.89,1.46-2.15,1.2s.28-1.23,1.2-2.15,1.89-1.46,2.15-1.2-.28,1.22-1.2,2.15Zm3.16,1.72c-.51,1.21-1.2,2.06-1.54,1.92-.34-.14-.2-1.24,.31-2.44s1.2-2.06,1.54-1.92c.34,.14,.2,1.24-.31,2.44Zm3.07,2.77c-.37,0-.67-1.06-.67-2.37s.3-2.37,.67-2.37,.67,1.06,.67,2.37-.3,2.37-.67,2.37Zm4.56-1.01c-.34,.14-1.03-.72-1.54-1.92-.51-1.21-.65-2.3-.3-2.44,.34-.14,1.03,.72,1.54,1.92,.51,1.21,.65,2.3,.31,2.44Zm3.69-2.59c-.26,.26-1.23-.28-2.15-1.2-.93-.93-1.46-1.89-1.2-2.15s1.23,.28,2.15,1.2c.93,.93,1.46,1.89,1.2,2.15Zm2.44-3.77c-.14,.34-1.24,.2-2.44-.31s-2.06-1.2-1.92-1.54c.14-.34,1.24-.2,2.44,.31s2.06,1.2,1.92,1.54Zm-1.52-3.94c-1.31,0-2.37-.3-2.37-.67s1.06-.67,2.37-.67,2.37,.3,2.37,.67-1.06,.67-2.37,.67Z"/></g><path class="e" d="M262.78,73.64c2.64,0,4.78,2.14,4.78,4.78s-2.14,4.78-4.78,4.78-4.78-2.14-4.78-4.78,2.14-4.78,4.78-4.78m0-1c-3.19,0-5.78,2.59-5.78,5.78s2.59,5.78,5.78,5.78,5.78-2.59,5.78-5.78-2.59-5.78-5.78-5.78h0Z"/><g><path class="e" d="M262.55,66.72c.37,0,.67,1.06,.67,2.37s-.3,2.37-.67,2.37-.67-1.06-.67-2.37,.3-2.37,.67-2.37m0-.5c-1.09,0-1.17,2.2-1.17,2.87s.08,2.87,1.17,2.87,1.17-2.2,1.17-2.87-.08-2.87-1.17-2.87h0Z"/><path class="e" d="M253.38,78.02c1.31,0,2.37,.3,2.37,.67s-1.06,.67-2.37,.67-2.37-.3-2.37-.67,1.06-.67,2.37-.67m0-.5c-.67,0-2.87,.08-2.87,1.17s2.2,1.17,2.87,1.17,2.87-.08,2.87-1.17-2.2-1.17-2.87-1.17h0Z"/><path class="e" d="M272.15,77.58c1.31,0,2.37,.3,2.37,.67s-1.06,.67-2.37,.67-2.37-.3-2.37-.67,1.06-.67,2.37-.67m0-.5c-.67,0-2.87,.08-2.87,1.17s2.2,1.17,2.87,1.17,2.87-.08,2.87-1.17-2.2-1.17-2.87-1.17h0Z"/><path class="e" d="M262.99,85.49c.37,0,.67,1.06,.67,2.37s-.3,2.37-.67,2.37-.67-1.06-.67-2.37,.3-2.37,.67-2.37m0-.5c-1.09,0-1.17,2.2-1.17,2.87s.08,2.87,1.17,2.87,1.17-2.2,1.17-2.87-.08-2.87-1.17-2.87h0Z"/><path class="e" d="M265.78,84.83c.36,0,.99,.82,1.46,1.94,.51,1.21,.65,2.3,.31,2.44-.03,.01-.05,.02-.08,.02-.36,0-.99-.82-1.46-1.94-.51-1.21-.65-2.3-.31-2.44,.03-.01,.05-.02,.08-.02m0-.5c-.1,0-.19,.02-.28,.06-1,.42-.22,2.48,.04,3.1,.22,.53,1.02,2.24,1.92,2.24,.1,0,.19-.02,.28-.06,1-.42,.22-2.48-.04-3.1-.22-.53-1.02-2.24-1.92-2.24h0Z"/><path class="e" d="M273,73.5c.27,0,.46,.06,.51,.19,.14,.34-.72,1.03-1.92,1.54-.76,.32-1.47,.49-1.93,.49-.27,0-.46-.06-.51-.19-.14-.34,.72-1.03,1.92-1.54,.76-.32,1.47-.49,1.93-.49m0-.5c-.55,0-1.33,.19-2.13,.53-.62,.26-1.19,.59-1.59,.9-.57,.46-.77,.89-.6,1.29,.1,.22,.34,.49,.97,.49,.55,0,1.33-.19,2.13-.53,.62-.26,2.61-1.2,2.19-2.2-.1-.23-.34-.49-.97-.49h0Z"/><path class="e" d="M255.88,81.22c.27,0,.46,.06,.51,.19,.14,.34-.72,1.03-1.92,1.54-.76,.32-1.47,.49-1.93,.49-.27,0-.46-.06-.51-.19-.14-.34,.72-1.03,1.92-1.54,.76-.32,1.47-.49,1.93-.49m0-.5c-.55,0-1.33,.19-2.13,.53-.62,.26-2.61,1.2-2.19,2.2,.1,.23,.34,.49,.97,.49,.55,0,1.33-.19,2.13-.53,.62-.26,1.19-.59,1.59-.9,.57-.46,.77-.89,.6-1.29-.1-.22-.34-.49-.97-.49h0Z"/><path class="e" d="M258.06,67.71c.36,0,.99,.82,1.46,1.94,.51,1.21,.65,2.3,.31,2.44-.03,.01-.05,.02-.08,.02-.36,0-.99-.82-1.46-1.94-.51-1.21-.65-2.3-.31-2.44,.03-.01,.05-.02,.08-.02m0-.5c-.1,0-.19,.02-.28,.06-1,.42-.22,2.48,.04,3.1,.22,.53,1.02,2.24,1.92,2.24,.1,0,.19-.02,.28-.06,1-.42,.22-2.48-.04-3.1-.22-.53-1.02-2.24-1.92-2.24h0Z"/><path class="e" d="M269.82,80.83c.46,0,1.18,.17,1.93,.5,1.21,.51,2.06,1.2,1.92,1.54-.05,.13-.24,.19-.51,.19-.46,0-1.18-.17-1.93-.5-1.21-.51-2.06-1.2-1.92-1.54,.05-.13,.24-.19,.51-.19m0-.5c-.63,0-.88,.27-.97,.49-.42,1,1.56,1.94,2.18,2.2,.8,.34,1.58,.54,2.13,.54,.63,0,.88-.27,.97-.49,.17-.4-.03-.84-.6-1.29-.4-.32-.96-.64-1.58-.91-.8-.34-1.58-.54-2.13-.54h0Z"/><path class="e" d="M267.08,67.55s.06,0,.08,.02c.34,.14,.2,1.24-.31,2.44-.47,1.12-1.1,1.94-1.46,1.94-.03,0-.06,0-.08-.02-.34-.14-.2-1.24,.31-2.44,.47-1.12,1.1-1.94,1.46-1.94m0-.5c-.9,0-1.7,1.71-1.92,2.24-.26,.62-1.04,2.68-.04,3.1,.09,.04,.18,.06,.28,.06,.9,0,1.7-1.71,1.92-2.24,.26-.62,.45-1.25,.51-1.75,.09-.72-.07-1.18-.47-1.35-.09-.04-.18-.06-.28-.06h0Z"/><path class="e" d="M260.15,85s.06,0,.08,.02c.34,.14,.2,1.24-.31,2.44-.47,1.12-1.1,1.94-1.46,1.94-.03,0-.06,0-.08-.02-.34-.14-.2-1.24,.31-2.44,.47-1.12,1.1-1.94,1.46-1.94m0-.5c-.9,0-1.7,1.71-1.92,2.24-.26,.62-.45,1.25-.51,1.75-.09,.72,.07,1.18,.47,1.35,.09,.04,.18,.06,.28,.06,.9,0,1.7-1.71,1.92-2.24,.26-.62,1.04-2.68,.04-3.1-.09-.04-.18-.06-.28-.06h0Z"/><path class="e" d="M270.73,69.94c.08,0,.15,.02,.19,.07,.26,.26-.28,1.23-1.2,2.15-.77,.77-1.56,1.27-1.96,1.27-.08,0-.15-.02-.19-.07-.26-.26,.28-1.23,1.2-2.15,.77-.77,1.56-1.27,1.96-1.27m0-.5c-.66,0-1.63,.73-2.31,1.41-.48,.48-1.97,2.09-1.2,2.86,.1,.1,.27,.21,.55,.21,.66,0,1.63-.73,2.31-1.41,.48-.48,1.97-2.09,1.2-2.86-.1-.1-.27-.21-.55-.21h0Z"/><path class="e" d="M254.49,70.25c.4,0,1.19,.5,1.96,1.27,.93,.93,1.46,1.89,1.2,2.15-.04,.04-.11,.07-.19,.07-.4,0-1.19-.5-1.96-1.27-.93-.93-1.46-1.89-1.2-2.15,.04-.04,.11-.07,.19-.07m0-.5c-.28,0-.45,.12-.55,.21-.77,.77,.73,2.38,1.2,2.86,.68,.68,1.65,1.41,2.31,1.41,.28,0,.45-.12,.55-.21,.77-.77-.73-2.38-1.2-2.86-.68-.68-1.65-1.41-2.31-1.41h0Z"/><path class="e" d="M268.08,83.21c.4,0,1.19,.5,1.96,1.27,.93,.93,1.46,1.89,1.2,2.15-.04,.04-.11,.07-.19,.07-.4,0-1.19-.5-1.96-1.27-.93-.93-1.46-1.89-1.2-2.15,.04-.04,.11-.07,.19-.07m0-.5c-.28,0-.45,.12-.55,.21-.77,.77,.73,2.38,1.2,2.86,.68,.68,1.65,1.41,2.31,1.41,.28,0,.45-.12,.55-.21,.77-.77-.73-2.38-1.2-2.86-.68-.68-1.65-1.41-2.31-1.41h0Z"/><path class="e" d="M257.77,83.53c.08,0,.15,.02,.19,.07,.26,.26-.28,1.23-1.2,2.15-.77,.77-1.56,1.27-1.96,1.27-.08,0-.15-.02-.19-.07-.26-.26,.28-1.23,1.2-2.15,.77-.77,1.56-1.27,1.96-1.27m0-.5c-.66,0-1.63,.73-2.31,1.41-.48,.48-1.97,2.09-1.2,2.86,.1,.1,.27,.21,.55,.21,.66,0,1.63-.73,2.31-1.41,.48-.48,1.97-2.09,1.2-2.86-.1-.1-.27-.21-.55-.21h0Z"/><path class="e" d="M252.37,73.9c.46,0,1.18,.17,1.93,.5,1.21,.51,2.06,1.2,1.92,1.54-.05,.13-.24,.19-.51,.19-.46,0-1.18-.17-1.93-.5-1.21-.51-2.06-1.2-1.92-1.54,.05-.13,.24-.19,.51-.19m0-.5c-.63,0-.88,.27-.97,.49-.17,.4,.03,.84,.6,1.29,.4,.32,.96,.64,1.58,.91,.8,.34,1.58,.54,2.13,.54,.63,0,.88-.27,.97-.49,.42-1-1.56-1.94-2.18-2.2-.8-.34-1.58-.54-2.13-.54h0Z"/></g></g></g><g><path class="e" d="M246.48,112.04c-.2-.08-.35-.2-.46-.36-.11-.16-.17-.34-.18-.55h.75c.01,.14,.06,.26,.15,.34,.09,.08,.22,.12,.38,.12s.29-.04,.38-.12c.09-.08,.14-.18,.14-.31,0-.1-.03-.19-.1-.26-.06-.07-.14-.12-.24-.16-.1-.04-.23-.08-.39-.13-.23-.07-.41-.13-.55-.2-.14-.06-.26-.16-.37-.29-.1-.13-.15-.31-.15-.53,0-.21,.05-.39,.15-.54s.25-.27,.44-.35c.19-.08,.4-.12,.64-.12,.36,0,.65,.09,.88,.26,.23,.17,.35,.42,.37,.73h-.77c0-.12-.06-.22-.15-.3-.09-.08-.22-.12-.38-.12-.14,0-.25,.04-.33,.1-.08,.07-.12,.17-.12,.31,0,.09,.03,.17,.09,.23s.14,.11,.23,.15c.09,.04,.22,.08,.39,.13,.23,.07,.41,.13,.55,.2,.14,.07,.27,.17,.37,.3,.1,.13,.16,.31,.16,.53,0,.19-.05,.36-.15,.52s-.24,.29-.43,.38c-.19,.09-.41,.14-.67,.14-.24,0-.46-.04-.66-.12Z"/><path class="e" d="M251.39,110.24c-.09,.16-.23,.29-.42,.39-.19,.1-.43,.15-.71,.15h-.58v1.34h-.7v-3.49h1.28c.27,0,.5,.05,.69,.14,.19,.09,.33,.22,.43,.39,.09,.16,.14,.35,.14,.55,0,.19-.04,.36-.13,.53Zm-.73-.15c.09-.09,.14-.21,.14-.37,0-.34-.19-.51-.57-.51h-.56v1.01h.56c.19,0,.34-.04,.43-.13Z"/><path class="e" d="M252.74,111.93c-.27-.15-.49-.37-.65-.64-.16-.27-.24-.58-.24-.92s.08-.65,.24-.92,.38-.48,.65-.64,.57-.23,.9-.23,.63,.08,.9,.23c.27,.15,.49,.37,.65,.64,.16,.27,.24,.58,.24,.92s-.08,.65-.24,.92c-.16,.27-.37,.48-.65,.64-.27,.15-.57,.23-.9,.23s-.63-.08-.9-.23Zm1.46-.54c.16-.1,.29-.23,.38-.41,.09-.18,.13-.38,.13-.61s-.04-.44-.13-.61c-.09-.17-.21-.31-.38-.4-.16-.09-.35-.14-.56-.14s-.4,.05-.56,.14c-.16,.09-.29,.23-.38,.4-.09,.18-.13,.38-.13,.61s.04,.44,.13,.61c.09,.18,.22,.31,.38,.41,.16,.09,.35,.14,.56,.14s.4-.05,.56-.14Z"/><path class="e" d="M257.91,112.13l-1.27-1.56v1.56h-.7v-3.49h.7v1.57l1.27-1.57h.85l-1.44,1.73,1.48,1.76h-.89Z"/><path class="e" d="M259.96,109.2v.88h1.18v.55h-1.18v.92h1.33v.57h-2.02v-3.5h2.02v.57h-1.33Z"/><path class="e" d="M264.11,108.85c.28,.14,.49,.35,.65,.61,.15,.27,.23,.57,.23,.92s-.08,.66-.23,.92c-.15,.26-.37,.46-.65,.61-.28,.14-.6,.21-.97,.21h-1.22v-3.49h1.22c.37,0,.69,.07,.97,.21Zm-.14,2.38c.2-.2,.3-.48,.3-.84s-.1-.65-.3-.85c-.2-.21-.48-.31-.85-.31h-.5v2.3h.5c.37,0,.65-.1,.85-.3Z"/><path class="e" d="M266.76,109.46c.15-.27,.37-.48,.63-.63,.27-.15,.57-.23,.9-.23,.39,0,.73,.1,1.03,.3,.29,.2,.5,.48,.61,.83h-.81c-.08-.17-.19-.29-.34-.38s-.31-.12-.5-.12c-.2,0-.38,.05-.54,.14s-.28,.23-.37,.4c-.09,.17-.13,.38-.13,.61s.04,.43,.13,.61,.21,.31,.37,.41c.16,.09,.34,.14,.54,.14,.19,0,.36-.04,.5-.13s.26-.21,.34-.38h.81c-.12,.36-.32,.63-.61,.83-.29,.2-.63,.3-1.03,.3-.33,0-.63-.08-.9-.23-.27-.15-.48-.36-.63-.63-.16-.27-.23-.58-.23-.92s.08-.65,.23-.92Z"/><path class="e" d="M271.25,111.93c-.27-.15-.49-.37-.65-.64-.16-.27-.24-.58-.24-.92s.08-.65,.24-.92,.38-.48,.65-.64,.57-.23,.9-.23,.63,.08,.9,.23c.27,.15,.49,.37,.65,.64,.16,.27,.24,.58,.24,.92s-.08,.65-.24,.92c-.16,.27-.37,.48-.65,.64-.27,.15-.57,.23-.9,.23s-.63-.08-.9-.23Zm1.46-.54c.16-.1,.29-.23,.38-.41,.09-.18,.13-.38,.13-.61s-.04-.44-.13-.61c-.09-.17-.21-.31-.38-.4-.16-.09-.35-.14-.56-.14s-.4,.05-.56,.14c-.16,.09-.29,.23-.38,.4-.09,.18-.13,.38-.13,.61s.04,.44,.13,.61c.09,.18,.22,.31,.38,.41,.16,.09,.35,.14,.56,.14s.4-.05,.56-.14Z"/><path class="e" d="M276.26,112.13l-.77-1.36h-.33v1.36h-.7v-3.49h1.31c.27,0,.5,.05,.69,.14,.19,.09,.33,.22,.43,.38,.1,.16,.14,.34,.14,.54,0,.23-.07,.44-.2,.62-.13,.19-.33,.31-.59,.38l.83,1.42h-.81Zm-1.1-1.88h.58c.19,0,.33-.05,.43-.14,.09-.09,.14-.22,.14-.38s-.05-.28-.14-.37c-.09-.09-.24-.13-.43-.13h-.58v1.03Z"/><path class="e" d="M278.36,109.2v.88h1.18v.55h-1.18v.92h1.33v.57h-2.02v-3.5h2.02v.57h-1.33Z"/></g></g><rect class="d" width="315" height="235"/><path class="f" d="M53.45,9.96c-.35,16.05-13.25,28.44-29.25,28.1-15.71-.34-28.16-13.5-27.73-29.33,.42-15.54,13.37-27.97,28.83-27.66,15.94,.32,28.49,13.2,28.15,28.9Zm-22.16-.41c-.03-3.34-2.95-6.27-6.28-6.28-3.54-.02-6.44,2.93-6.33,6.44,.11,3.41,3.01,6.22,6.36,6.16,3.33-.06,6.27-3.04,6.25-6.32Zm3.33-1.97c5.02-1.09,5.93-3.1,3.01-6.64-4.99,4.22-4.91,4.05-3.01,6.64Zm3.44,10.89c.46-1.44,1.64-3.27,1.16-3.96-1.04-1.49-2.92-2.38-4.59-3.61-1.59,3.74-1.44,4.03,3.42,7.57Zm-21.76,3.85c3.67,2.73,5.7,1.77,6.69-3.17-3.04-1.59-3.48-1.37-6.69,3.17Zm17.27-.07c-3.39-4.62-3.71-4.77-6.68-3.09,1.15,5.12,3.16,6.05,6.68,3.09ZM16.07-2.99c1.54,1.51,2.93,2.87,4.38,4.28,.95-.43,1.85-.84,2.72-1.24-1.5-5.25-3.27-6.04-7.09-3.04Zm-.78,10.56c1.77-2.9,1.47-3.56-3.09-6.59-2.76,3.7-1.91,5.51,3.09,6.59Zm.06,3.86c-5.23,1.6-5.91,3.1-3.16,6.7,4.44-2.93,4.78-3.61,3.16-6.7ZM34.23-2.58c-3.72-3.18-5.65-2.73-7.04,1.01-.21,.56-.1,1.74,.2,1.88,.81,.36,2.03,.71,2.69,.34,1.5-.83,2.75-2.1,4.16-3.23Zm-1.42,18c-1.84,1.01-2.14,1.87-.78,2.99,.65,.53,1.12,1.31,1.82,1.73,.6,.36,1.41,.35,2.13,.51-.11-.7,0-1.55-.36-2.07-.79-1.13-1.83-2.09-2.8-3.16Zm-23.19-2.54c1.71-1.3,2.96-2.25,4.49-3.41-1.64-1.12-2.89-1.97-4.49-3.07v6.48ZM22.28-5.85l-.37,.65c1.03,1.11,2.06,2.21,3.08,3.32,1.04-1.17,2.07-2.33,3.53-3.97h-6.25ZM40.23,12.77V6.21c-1.68,1.34-2.89,2.31-4.32,3.45,1.54,1.11,2.71,1.95,4.32,3.11Zm-15.32,7.66c-1.13,1.61-2.04,2.89-3.09,4.39h6.4c-1.25-1.66-2.16-2.87-3.31-4.39ZM13.85-1.48l-.66,1.2c1.39,1.21,2.78,2.42,4.31,3.75,.46-.43,.97-.89,1.73-1.59-2.04-1.05-2.61-4.29-5.38-3.36ZM30.4,1.62c1.02,.95,1.83,1.78,1.87,1.75,1.43-1.27,2.8-2.6,4.11-3.99,.09-.09-.34-.97-.67-1.08-.41-.14-1.06,0-1.43,.26-1.29,.92-2.5,1.95-3.88,3.06Zm-11.47,15.19c-2.6-2.51-3.26,.83-4.58,1.68-1.41,.9-1.16,1.96,.94,2.75,1.06-1.28,2.24-2.71,3.65-4.42Z"/><g><path class="f" d="M31.36,267.16c-20.71,0-37.06-16.38-37.12-37.19-.06-20.33,16.66-37.1,36.97-37.08,20.69,.01,37.27,16.49,37.33,37.1,.06,20.61-16.51,37.17-37.18,37.17Zm3.44-20.42l-.7,.72c1.45,1.35,2.67,3.27,4.39,3.96,5.03,2.03,14.36-4,14.95-9.55,.1-.91-1.1-2.66-1.96-2.86-3.65-.82-7.4-1.51-11.13-1.63-2.75-.09-4.82,1.52-5.08,4.66-.13,1.57-.32,3.14-.49,4.71Zm-3.59-42.53c-3.48,.9-6.48,1.44-9.3,2.47-2.87,1.05-3.19,2.73-1.15,4.98,1.96,2.16,4.08,4.19,6.25,6.15,3.51,3.17,5.83,2.91,9.32-.83,4.1-4.4,4.37-6.47,.64-9.76-1.62-1.43-3.91-2.08-5.75-3.01Zm9.75,19.41c-.23,6.13,3.59,6.54,6.39,8,3.11,1.62,5.31,.51,7.01-2.3,2.61-4.32-.37-14.6-4.98-16.62-.78-.34-2.55-.08-2.87,.47-2.23,3.85-4.2,7.85-5.55,10.44Zm-34.94,5.91c-.12,5.56,1.46,6.54,6.51,4.01,2.06-1.03,4.14-2.06,6.1-3.26,3.6-2.2,4.18-4.55,2.19-8.2-.64-1.17-1.32-2.32-2.03-3.45-1.38-2.18-3.26-2.62-5.67-1.76-4.92,1.75-6.95,5.26-7.1,12.66Zm17.49,7.5c-2.47,.46-3.92,.66-5.33,1.01-4.42,1.1-5.35,2.49-4.81,7.01,.55,4.59,9.29,10.8,13.76,9.54,.91-.26,2.11-1.93,2.02-2.83-.37-3.61-.85-7.29-1.99-10.7-.58-1.74-2.66-2.99-3.65-4.03Zm14.12-6.83c.04-3.65-2.43-6.32-5.95-6.44-3.68-.13-6.65,2.6-6.72,6.18-.06,3.48,2.96,6.52,6.47,6.5,3.49-.02,6.16-2.71,6.2-6.24Z"/><path class="f" d="M79.16,232.41c-1.35-20.67,13.93-38.04,34.7-39.46,20.28-1.39,38.1,14.2,39.41,34.48,1.33,20.65-14.02,38.26-34.59,39.67-20.56,1.41-38.17-14.05-39.52-34.68Zm20.6,2.1l-.76-.65c-1.26,1.53-3.09,2.88-3.66,4.63-1.69,5.15,4.92,14.07,10.51,14.3,.92,.04,2.59-1.27,2.72-2.14,.58-3.7,1.02-7.48,.9-11.21-.09-2.75-1.83-4.71-4.98-4.76-1.58-.02-3.15-.12-4.73-.18Zm42.21-6.35c-1.12-3.41-1.85-6.38-3.07-9.12-1.24-2.79-2.93-3.01-5.04-.82-2.03,2.1-3.92,4.34-5.73,6.63-2.93,3.71-2.53,6.01,1.43,9.24,4.66,3.8,6.74,3.94,9.78,0,1.32-1.71,1.82-4.04,2.63-5.94Zm-18.74,10.99c-6.13,.17-6.29,4.01-7.56,6.9-1.42,3.21-.16,5.34,2.75,6.85,4.48,2.32,14.55-1.32,16.26-6.06,.29-.8-.09-2.55-.66-2.83-3.99-1.98-8.11-3.68-10.78-4.86Zm-8.17-34.48c-5.55,.24-6.43,1.88-3.58,6.76,1.16,1.99,2.32,4,3.65,5.88,2.43,3.45,4.81,3.88,8.33,1.65,1.13-.71,2.23-1.47,3.31-2.25,2.09-1.52,2.4-3.42,1.39-5.77-2.07-4.8-5.71-6.59-13.1-6.26Zm-6.35,17.94c-.62-2.43-.92-3.86-1.36-5.25-1.39-4.34-2.83-5.18-7.31-4.34-4.54,.85-10.17,9.98-8.62,14.35,.31,.89,2.06,1.98,2.95,1.83,3.58-.6,7.22-1.32,10.55-2.68,1.7-.69,2.81-2.85,3.79-3.91Zm7.73,13.64c3.64-.19,6.15-2.83,6.04-6.36-.11-3.68-3.03-6.47-6.6-6.3-3.48,.16-6.32,3.38-6.06,6.88,.25,3.48,3.1,5.97,6.63,5.78Z"/><path class="f" d="M223.7,259.38c-16.39,12.66-39.34,9.68-52.11-6.76-12.47-16.05-9.49-39.54,6.6-51.95,16.39-12.64,39.57-9.73,52.22,6.55,12.64,16.27,9.65,39.51-6.71,52.15Zm-9.76-18.27l-.11,.99c1.97,.19,4.11,.95,5.89,.45,5.22-1.47,8.93-11.94,6-16.7-.48-.78-2.5-1.44-3.29-1.07-3.39,1.59-6.78,3.33-9.8,5.51-2.24,1.61-2.89,4.15-1.17,6.79,.86,1.32,1.66,2.68,2.49,4.02Zm-28.83-31.47c-2.21,2.84-4.25,5.1-5.85,7.64-1.63,2.59-.86,4.11,2.14,4.64,2.87,.51,5.79,.83,8.7,1.05,4.71,.36,6.4-1.26,6.87-6.35,.55-5.99-.49-7.79-5.46-8.11-2.15-.14-4.37,.74-6.39,1.13Zm19.58,9.41c3.56,4.99,6.84,2.98,9.95,2.42,3.46-.62,4.52-2.85,4.14-6.1-.57-5.02-9.21-11.33-14.1-10.11-.82,.21-2.06,1.49-1.98,2.13,.59,4.41,1.47,8.79,1.99,11.66Zm-24.04,26.03c3.3,4.47,5.15,4.29,7.61-.8,1-2.08,2.02-4.16,2.84-6.31,1.5-3.94,.53-6.16-3.28-7.83-1.22-.54-2.46-1.03-3.72-1.49-2.43-.89-4.18-.08-5.56,2.07-2.83,4.4-2.28,8.41,2.11,14.36Zm18.43-4.75c-1.67,1.88-2.69,2.92-3.6,4.06-2.83,3.57-2.72,5.24,.48,8.49,3.24,3.29,13.96,2.87,16.72-.86,.56-.76,.49-2.81-.13-3.47-2.5-2.63-5.12-5.25-8.11-7.26-1.53-1.02-3.93-.74-5.36-.96Zm7-14.03c-2.19-2.91-5.78-3.52-8.65-1.46-2.99,2.15-3.67,6.12-1.54,8.99,2.08,2.8,6.33,3.35,9.09,1.19,2.75-2.15,3.22-5.91,1.1-8.72Z"/><path class="f" d="M285.89,267.16c-20.71,0-37.06-16.38-37.12-37.19-.06-20.33,16.66-37.1,36.97-37.08,20.69,.01,37.27,16.49,37.33,37.1,.06,20.61-16.51,37.17-37.18,37.17Zm3.44-20.42l-.7,.72c1.45,1.35,2.67,3.27,4.39,3.96,5.03,2.03,14.36-4,14.95-9.55,.1-.91-1.1-2.66-1.96-2.86-3.65-.82-7.4-1.51-11.13-1.63-2.75-.09-4.82,1.52-5.08,4.66-.13,1.57-.32,3.14-.49,4.71Zm-3.59-42.53c-3.48,.9-6.48,1.44-9.3,2.47-2.87,1.05-3.19,2.73-1.15,4.98,1.96,2.16,4.08,4.19,6.25,6.15,3.51,3.17,5.83,2.91,9.32-.83,4.1-4.4,4.37-6.47,.64-9.76-1.62-1.43-3.91-2.08-5.75-3.01Zm9.75,19.41c-.23,6.13,3.59,6.54,6.39,8,3.11,1.62,5.31,.51,7.01-2.3,2.61-4.32-.37-14.6-4.98-16.62-.78-.34-2.55-.08-2.87,.47-2.23,3.85-4.2,7.85-5.55,10.44Zm-34.94,5.91c-.12,5.56,1.46,6.54,6.51,4.01,2.06-1.03,4.14-2.06,6.1-3.26,3.6-2.2,4.18-4.55,2.19-8.2-.64-1.17-1.32-2.32-2.03-3.45-1.38-2.18-3.26-2.62-5.67-1.76-4.92,1.75-6.95,5.26-7.1,12.66Zm17.49,7.5c-2.47,.46-3.92,.66-5.33,1.01-4.42,1.1-5.35,2.49-4.81,7.01,.55,4.59,9.29,10.8,13.76,9.54,.91-.26,2.11-1.93,2.02-2.83-.37-3.61-.85-7.29-1.99-10.7-.58-1.74-2.66-2.99-3.65-4.03Zm14.12-6.83c.04-3.65-2.43-6.32-5.95-6.44-3.68-.13-6.65,2.6-6.72,6.18-.06,3.48,2.96,6.52,6.47,6.5,3.49-.02,6.16-2.71,6.2-6.24Z"/></g><g><g><g><path class="g" d="M37.61,84.5c-6.95,0-12.4-2.21-16.22-6.57-3.7-4.22-5.57-10.2-5.57-17.78v-.28c0-4.6,.9-8.77,2.66-12.4,1.84-3.77,4.51-6.72,7.96-8.77,3.4-2.02,7.3-3.04,11.61-3.04h.36c4.5,0,9.02,1.08,13.44,3.22,1.65,.8,2.41,2.74,1.73,4.44l-2.78,7.01c-.36,.9-1.07,1.61-1.98,1.97-.41,.16-.85,.24-1.28,.24-.52,0-1.03-.11-1.51-.34-4.08-1.95-6.4-2.36-7.62-2.36-2.14,0-3.59,.69-4.72,2.22-1.33,1.82-2,4.56-2,8.14,0,10.11,4.54,10.11,6.72,10.11,2.43,0,5.54-.66,9.23-1.95,.38-.13,.77-.2,1.16-.2,.72,0,1.43,.22,2.03,.65,.93,.66,1.48,1.72,1.48,2.85v7.24c0,1.41-.85,2.69-2.15,3.23-3.75,1.56-7.97,2.36-12.54,2.36Z"/><path class="d" d="M38.41,39.16c3.99,0,7.96,.96,11.91,2.87l-2.78,7.02c-3.77-1.8-6.81-2.7-9.13-2.7-3.25,0-5.76,1.22-7.54,3.66-1.78,2.44-2.67,5.84-2.67,10.2,0,9.08,3.41,13.61,10.22,13.61,2.84,0,6.3-.71,10.38-2.14v7.24c-3.34,1.39-7.07,2.09-11.19,2.09-5.92,0-10.45-1.79-13.58-5.37-3.14-3.58-4.7-8.74-4.7-15.48v-.28c0-4.08,.77-7.71,2.31-10.87,1.54-3.16,3.74-5.59,6.6-7.29,2.86-1.7,6.13-2.55,9.83-2.55h.36m0-7h-.36c-4.95,0-9.46,1.19-13.4,3.53-4.04,2.4-7.18,5.85-9.32,10.25-2,4.11-3.02,8.8-3.02,13.93v.28c0,8.45,2.17,15.21,6.44,20.09,4.51,5.15,10.85,7.76,18.85,7.76,5.03,0,9.7-.88,13.88-2.63,2.61-1.09,4.31-3.64,4.31-6.46v-7.24c0-2.27-1.1-4.4-2.95-5.71-1.2-.85-2.62-1.29-4.05-1.29-.78,0-1.56,.13-2.31,.39-4.13,1.45-6.67,1.75-8.07,1.75-1.61,0-1.93-.42-2.06-.6-.27-.36-1.15-1.86-1.15-6.01,0-3.52,.72-5.25,1.33-6.08,.3-.4,.57-.79,1.89-.79,.44,0,2.2,.15,6.11,2.02,.95,.45,1.98,.68,3.02,.68,.87,0,1.73-.16,2.56-.48,1.81-.71,3.24-2.13,3.95-3.93l2.78-7.02c1.35-3.41-.16-7.29-3.46-8.88-4.89-2.37-9.93-3.57-14.96-3.57h0Z"/></g><g><path class="g" d="M82.23,83.95c-1.93,0-3.5-1.57-3.5-3.5v-14.07h-9.12v14.07c0,1.93-1.57,3.5-3.5,3.5h-8.63c-1.93,0-3.5-1.57-3.5-3.5V39.75c0-1.93,1.57-3.5,3.5-3.5h8.63c1.93,0,3.5,1.57,3.5,3.5v12.45h9.12v-12.45c0-1.93,1.57-3.5,3.5-3.5h8.6c1.93,0,3.5,1.57,3.5,3.5v40.7c0,1.93-1.57,3.5-3.5,3.5h-8.6Z"/><path class="d" d="M90.83,39.75v40.7h-8.6v-17.57h-16.12v17.57h-8.63V39.75h8.63v15.95h16.12v-15.95h8.6m0-7h-8.6c-3.87,0-7,3.13-7,7v8.95h-2.12v-8.95c0-3.87-3.13-7-7-7h-8.63c-3.87,0-7,3.13-7,7v40.7c0,3.87,3.13,7,7,7h8.63c3.87,0,7-3.13,7-7v-10.57h2.12v10.57c0,3.87,3.13,7,7,7h8.6c3.87,0,7-3.13,7-7V39.75c0-3.87-3.13-7-7-7h0Z"/></g><g><path class="g" d="M118.67,84.5c-7.22,0-12.92-2.21-16.94-6.55-3.94-4.27-5.94-10.31-5.94-17.96s2.01-13.69,5.97-17.91c4.02-4.29,9.72-6.46,16.94-6.46s12.93,2.2,16.92,6.53c3.92,4.25,5.91,10.27,5.91,17.89s-2,13.65-5.94,17.92c-4.01,4.35-9.71,6.55-16.94,6.55Zm.06-34.71c-3.05,0-4.3,1.18-4.97,2.08-1.27,1.68-1.91,4.43-1.91,8.18,0,10.22,4.61,10.22,6.83,10.22s6.83,0,6.83-10.24-4.57-10.24-6.77-10.24Z"/><path class="d" d="M118.71,39.11c6.24,0,11.03,1.8,14.35,5.4,3.32,3.6,4.98,8.77,4.98,15.52s-1.67,11.93-5.01,15.55c-3.34,3.62-8.13,5.43-14.36,5.43s-11.02-1.81-14.36-5.43c-3.34-3.62-5.01-8.81-5.01-15.59s1.67-11.95,5.02-15.52c3.35-3.57,8.15-5.36,14.39-5.36m-.04,34.66c6.88,0,10.33-4.58,10.33-13.74s-3.42-13.74-10.27-13.74c-3.43,0-6.02,1.15-7.77,3.47-1.74,2.31-2.62,5.74-2.62,10.29,0,9.15,3.44,13.72,10.33,13.72m.04-41.66c-8.23,0-14.79,2.55-19.5,7.57-4.59,4.89-6.92,11.73-6.92,20.31s2.31,15.4,6.87,20.34c4.7,5.1,11.27,7.68,19.51,7.68s14.8-2.58,19.51-7.68c4.56-4.94,6.87-11.76,6.87-20.3s-2.3-15.35-6.84-20.27c-4.69-5.08-11.25-7.65-19.5-7.65h0Zm-.04,34.66c-1.67,0-2.01-.45-2.15-.64-.28-.37-1.18-1.89-1.18-6.08s.84-5.59,1.2-6.07c.17-.22,.52-.69,2.18-.69s1.95,.42,2.1,.63c.28,.37,1.17,1.9,1.17,6.11s-.9,5.73-1.18,6.1c-.14,.19-.48,.64-2.15,.64h0Z"/></g><g><path class="g" d="M164.05,84.5c-7.22,0-12.92-2.21-16.94-6.55-3.94-4.27-5.94-10.31-5.94-17.96s2.01-13.69,5.97-17.91c4.02-4.29,9.72-6.46,16.94-6.46s12.93,2.2,16.92,6.53c3.92,4.25,5.91,10.27,5.91,17.89s-2,13.65-5.94,17.92c-4.01,4.35-9.71,6.55-16.94,6.55Zm.06-34.71c-3.05,0-4.3,1.18-4.97,2.08-1.27,1.68-1.91,4.43-1.91,8.18,0,10.22,4.61,10.22,6.83,10.22s6.83,0,6.83-10.24-4.57-10.24-6.77-10.24Z"/><path class="d" d="M164.09,39.11c6.24,0,11.03,1.8,14.35,5.4,3.32,3.6,4.98,8.77,4.98,15.52s-1.67,11.93-5.01,15.55c-3.34,3.62-8.13,5.43-14.36,5.43s-11.02-1.81-14.36-5.43c-3.34-3.62-5.01-8.81-5.01-15.59s1.67-11.95,5.02-15.52c3.35-3.57,8.15-5.36,14.39-5.36m-.04,34.66c6.88,0,10.33-4.58,10.33-13.74s-3.42-13.74-10.27-13.74c-3.43,0-6.02,1.15-7.77,3.47-1.74,2.31-2.62,5.74-2.62,10.29,0,9.15,3.44,13.72,10.33,13.72m.04-41.66c-8.23,0-14.79,2.55-19.5,7.57-4.59,4.89-6.92,11.73-6.92,20.31s2.31,15.4,6.87,20.34c4.7,5.1,11.27,7.68,19.51,7.68s14.8-2.58,19.51-7.68c4.56-4.94,6.87-11.76,6.87-20.3s-2.3-15.35-6.84-20.27c-4.69-5.08-11.25-7.65-19.5-7.65h0Zm-.04,34.66c-1.67,0-2.01-.45-2.15-.64-.28-.37-1.18-1.89-1.18-6.08s.84-5.59,1.2-6.07c.17-.22,.52-.69,2.18-.69s1.95,.42,2.1,.63c.28,.37,1.17,1.9,1.17,6.11s-.9,5.73-1.18,6.1c-.14,.19-.48,.64-2.15,.64h0Z"/></g><g><path class="g" d="M201.13,84.5c-5.04,0-9.53-.94-13.34-2.81-1.2-.59-1.96-1.81-1.96-3.14v-8.02c0-1.18,.6-2.29,1.59-2.93,.58-.38,1.24-.57,1.91-.57,.48,0,.96,.1,1.41,.3,2.64,1.16,4.83,1.98,6.53,2.42,1.58,.41,3.11,.62,4.54,.62,.94,0,1.69-.15,2.06-.42,.02-.02,.05-.15,.05-.39,0-.07,0-.1,0-.1-.07-.09-.35-.42-1.07-.92-.4-.28-1.56-.96-4.7-2.45-2.89-1.36-5.02-2.65-6.5-3.93-3.52-3.04-5.3-6.91-5.3-11.5s1.64-8.33,4.88-11.08c3.1-2.6,7.26-3.92,12.4-3.92,4.08,0,8.61,1.06,13.47,3.15,1.76,.76,2.58,2.79,1.85,4.56l-2.78,6.71c-.56,1.35-1.86,2.16-3.23,2.16-.44,0-.89-.08-1.32-.26-1.94-.79-3.58-1.36-4.87-1.69-1.15-.3-2.35-.45-3.54-.45-.36,0-1.01,.04-1.32,.3-.06,.06-.09,.13-.09,.32,0,.13,.02,.19,.02,.2h0s.15,.21,.65,.55c.27,.19,1.32,.82,5.01,2.57,4.34,2.06,7.31,4.2,9.08,6.53,1.88,2.34,2.86,5.33,2.86,8.83,0,4.65-1.82,8.6-5.26,11.42-3.32,2.62-7.68,3.94-12.99,3.94Z"/><path class="d" d="M203.6,39.16c3.62,0,7.65,.96,12.08,2.87l-2.78,6.71c-2.1-.85-3.87-1.47-5.32-1.84s-2.92-.56-4.41-.56-2.69,.38-3.58,1.13c-.89,.75-1.34,1.75-1.34,2.99,0,.76,.17,1.42,.52,1.99,.34,.57,.9,1.11,1.67,1.64,.77,.53,2.6,1.48,5.5,2.85,3.79,1.8,6.38,3.63,7.79,5.48,1.43,1.78,2.14,4.02,2.14,6.71,0,3.64-1.33,6.54-3.98,8.71-2.65,2.1-6.25,3.15-10.77,3.15s-8.46-.82-11.8-2.45v-8.02c2.82,1.24,5.17,2.11,7.06,2.6,1.88,.49,3.69,.74,5.43,.74s3.1-.36,4.11-1.09c1-.72,1.5-1.8,1.5-3.23,0-.8-.21-1.5-.64-2.1-.43-.6-1.08-1.21-1.96-1.81-.88-.6-2.61-1.51-5.19-2.73-2.58-1.22-4.48-2.35-5.71-3.41-2.73-2.36-4.09-5.31-4.09-8.85s1.22-6.35,3.65-8.41c2.45-2.06,5.83-3.09,10.13-3.09m0-7c-5.98,0-10.9,1.59-14.64,4.73-4.02,3.41-6.14,8.16-6.14,13.76,0,5.01,1.82,9.46,5.27,12.98-.91,.16-1.8,.51-2.6,1.03-1.98,1.29-3.18,3.5-3.18,5.86v8.02c0,2.67,1.52,5.11,3.93,6.29,4.29,2.1,9.3,3.16,14.88,3.16,6.12,0,11.21-1.57,15.11-4.65,.03-.02,.06-.05,.09-.07,4.28-3.51,6.55-8.39,6.55-14.13,0-4.28-1.22-7.98-3.63-11.02-.85-1.1-1.89-2.15-3.15-3.16,1.42-.73,2.6-1.95,3.26-3.54l2.78-6.71c1.47-3.54-.18-7.6-3.7-9.11-5.3-2.28-10.29-3.44-14.85-3.44h0Z"/></g><g><path class="g" d="M223.26,83.95c-1.93,0-3.5-1.57-3.5-3.5V39.75c0-1.93,1.57-3.5,3.5-3.5h23.44c1.93,0,3.5,1.57,3.5,3.5v7.07c0,1.93-1.57,3.5-3.5,3.5h-11.31v1.94h10.25c1.93,0,3.5,1.57,3.5,3.5v7.07c0,1.93-1.57,3.5-3.5,3.5h-10.25v3.49h11.31c1.93,0,3.5,1.57,3.5,3.5v7.13c0,1.93-1.57,3.5-3.5,3.5h-23.44Z"/><path class="d" d="M246.7,39.75v7.07h-14.81v8.94h13.75v7.07h-13.75v10.49h14.81v7.13h-23.44V39.75h23.44m0-7h-23.44c-3.87,0-7,3.13-7,7v40.7c0,3.87,3.13,7,7,7h23.44c3.87,0,7-3.13,7-7v-7.13c0-2.36-1.16-4.44-2.95-5.71,1.17-1.25,1.89-2.93,1.89-4.79v-7.07c0-1.42-.42-2.74-1.15-3.84,1.36-1.28,2.2-3.09,2.2-5.1v-7.07c0-3.87-3.13-7-7-7h0Z"/></g></g><g><g><path class="g" d="M94.29,140.46c-1.93,0-3.5-1.57-3.5-3.5v-16.31l-14.5-27c-.58-1.08-.55-2.4,.08-3.45,.63-1.06,1.77-1.7,3-1.7h10.33c1.32,0,2.53,.75,3.13,1.93l6.2,12.32,6.25-12.33c.6-1.18,1.8-1.92,3.12-1.92h10.27c1.23,0,2.38,.65,3.01,1.71,.63,1.06,.66,2.38,.07,3.46l-14.49,26.68v16.61c0,1.93-1.57,3.5-3.5,3.5h-9.47Z"/><path class="d" d="M118.68,91.99l-14.92,27.46v17.5h-9.47v-17.19l-14.92-27.77h10.33l9.32,18.51,9.38-18.51h10.27m0-7h-10.27c-2.64,0-5.05,1.48-6.24,3.84l-3.12,6.15-3.09-6.13c-1.19-2.36-3.61-3.85-6.25-3.85h-10.33c-2.46,0-4.74,1.29-6.01,3.41-1.26,2.11-1.32,4.74-.16,6.9l14.08,26.22v15.43c0,3.87,3.13,7,7,7h9.47c3.87,0,7-3.13,7-7v-15.72l14.07-25.9c1.18-2.17,1.13-4.8-.14-6.92-1.26-2.12-3.55-3.42-6.02-3.42h0Zm0,14h0Z"/></g><g><path class="g" d="M143.74,141.07c-7.87,0-14.08-2.4-18.44-7.12-4.29-4.65-6.46-11.24-6.46-19.6s2.19-14.94,6.5-19.54c4.37-4.66,10.58-7.03,18.45-7.03s14.08,2.39,18.43,7.09c4.27,4.63,6.43,11.2,6.43,19.52s-2.17,14.91-6.46,19.55c-4.36,4.73-10.57,7.12-18.44,7.12Zm.06-38.35c-3.54,0-5,1.39-5.79,2.44-1.45,1.92-2.19,5.03-2.19,9.25,0,11.66,5.34,11.66,7.91,11.66s7.91,0,7.91-11.68-5.3-11.68-7.85-11.68Z"/><path class="d" d="M143.79,91.28c6.9,0,12.18,1.99,15.85,5.97,3.67,3.98,5.51,9.69,5.51,17.15s-1.85,13.18-5.54,17.18c-3.69,4-8.98,6-15.87,6s-12.18-2-15.87-6c-3.69-4-5.54-9.74-5.54-17.22s1.85-13.2,5.55-17.15c3.7-3.95,9-5.92,15.9-5.92m-.05,38.29c7.61,0,11.41-5.06,11.41-15.18s-3.78-15.18-11.35-15.18c-3.79,0-6.65,1.28-8.58,3.83-1.93,2.55-2.89,6.34-2.89,11.36,0,10.11,3.8,15.16,11.41,15.16m.05-45.29c-8.88,0-15.95,2.74-21.01,8.13-4.94,5.27-7.44,12.65-7.44,21.93s2.49,16.66,7.39,21.97c5.05,5.47,12.12,8.25,21.01,8.25s15.96-2.78,21.01-8.25c4.91-5.31,7.39-12.69,7.39-21.93s-2.48-16.6-7.36-21.89c-5.03-5.45-12.1-8.22-21-8.22h0Zm-.05,38.29c-1.96,0-4.41,0-4.41-8.16,0-4.52,.93-6.41,1.48-7.14,.26-.34,.79-1.05,3-1.05,1.94,0,4.35,0,4.35,8.18s-2.45,8.18-4.41,8.18h0Z"/></g><g><path class="g" d="M192.43,141.07c-6.67,0-12-1.82-15.85-5.4-3.92-3.65-5.92-8.6-5.92-14.71v-28.97c0-1.93,1.57-3.5,3.5-3.5h9.5c1.93,0,3.5,1.57,3.5,3.5v27.53c0,2.52,.44,4.42,1.25,5.33,.89,1.01,2.77,1.22,4.2,1.22s3.3-.21,4.19-1.23c.81-.93,1.26-2.84,1.26-5.39v-27.46c0-1.93,1.57-3.5,3.5-3.5h9.5c1.93,0,3.5,1.57,3.5,3.5v29.28c0,5.94-2.07,10.8-6.15,14.45-3.97,3.55-9.23,5.35-15.65,5.35h-.34Z"/><path class="d" d="M211.07,91.99v29.28c0,4.92-1.66,8.87-4.98,11.84-3.32,2.97-7.76,4.46-13.32,4.46h-.34c-5.78,0-10.27-1.49-13.47-4.46-3.2-2.97-4.8-7.02-4.8-12.15v-28.97h9.5v27.53c0,3.49,.71,6.03,2.12,7.64,1.41,1.61,3.69,2.41,6.83,2.41s5.41-.81,6.83-2.43c1.41-1.62,2.12-4.18,2.12-7.69v-27.46h9.5m0-7h-9.5c-3.87,0-7,3.13-7,7v27.46c0,1.72-.23,2.6-.36,2.96-.25,.07-.74,.16-1.59,.16s-1.35-.09-1.6-.16c-.13-.36-.35-1.22-.35-2.89v-27.53c0-3.87-3.13-7-7-7h-9.5c-3.87,0-7,3.13-7,7v28.97c0,7.03,2.43,13,7.03,17.28,4.52,4.2,10.66,6.33,18.24,6.33h.34c7.31,0,13.36-2.1,17.99-6.24,4.79-4.28,7.31-10.18,7.31-17.06v-29.28c0-3.87-3.13-7-7-7h0Z"/></g><g><path class="g" d="M247.42,140.46c-1.21,0-2.33-.62-2.97-1.65l-9.34-15.01v13.16c0,1.93-1.57,3.5-3.5,3.5h-9.53c-1.93,0-3.5-1.57-3.5-3.5v-44.96c0-1.93,1.57-3.5,3.5-3.5h13.1c6.93,0,12.05,1.32,15.65,4.02,3.85,2.9,5.81,7.26,5.81,12.95,0,3.37-.95,6.42-2.82,9.08-1.09,1.54-2.44,2.88-4.04,4.01,5.94,8.87,9.67,14.38,11.08,16.39,.75,1.07,.84,2.47,.24,3.63s-1.8,1.89-3.11,1.89h-10.58Zm-12.31-32.01c2.77-.05,3.88-.62,4.24-.87,.21-.15,.66-.46,.66-1.84,0-1.27-.38-1.51-.54-1.61-.37-.23-1.51-.75-4.37-.82v5.14Z"/><path class="d" d="M235.18,91.99c6.09,0,10.61,1.11,13.55,3.32,2.94,2.21,4.41,5.6,4.41,10.15,0,2.64-.73,5-2.18,7.06-1.46,2.06-3.52,3.67-6.18,4.84,7.22,10.78,11.63,17.32,13.22,19.59h-10.58l-10.73-17.25h-5.07v17.25h-9.53v-44.96h13.1m-3.57,19.96h3.08c3.01,0,5.24-.5,6.67-1.51,1.43-1,2.15-2.57,2.15-4.71s-.72-3.65-2.17-4.57c-1.45-.91-3.73-1.37-6.84-1.37h-2.89v12.15m3.57-26.96h-13.1c-3.87,0-7,3.13-7,7v44.96c0,3.87,3.13,7,7,7h9.53c3.87,0,7-3.13,7-7v-.91l2.86,4.6c1.28,2.05,3.52,3.3,5.94,3.3h10.58c2.61,0,5.01-1.45,6.21-3.77,1.2-2.32,1.02-5.11-.48-7.25-1.26-1.79-4.38-6.4-9.29-13.73,.82-.82,1.57-1.7,2.24-2.64,2.3-3.26,3.47-6.99,3.47-11.1,0-8.53-3.92-13.27-7.2-15.74-4.23-3.18-10.04-4.73-17.76-4.73h0Z"/></g></g><g><g><path class="g" d="M65.37,198.75c-1.6,0-2.99-1.08-3.39-2.63l-5.09-19.73-5.07,19.73c-.4,1.55-1.79,2.63-3.39,2.63h-11.25c-1.6,0-3-1.08-3.39-2.63l-11.92-46.73c-.27-1.05-.04-2.16,.63-3.01,.66-.85,1.68-1.35,2.76-1.35h9.75c1.63,0,3.04,1.12,3.41,2.7l4.93,21.06,5.5-21.14c.4-1.54,1.79-2.62,3.39-2.62h9.37c1.59,0,2.99,1.08,3.39,2.62l5.5,21.13,4.9-21.04c.37-1.58,1.78-2.71,3.41-2.71h9.75c1.08,0,2.1,.5,2.76,1.35,.66,.85,.9,1.96,.63,3.01l-11.89,46.73c-.4,1.55-1.79,2.64-3.39,2.64h-11.28Z"/><path class="d" d="M88.54,148.52l-11.89,46.73h-11.28l-6.33-24.55c-.26-1-.66-2.8-1.21-5.4-.58-2.96-.91-4.81-.99-5.53-.11,1-.43,2.87-.96,5.59-.53,2.73-.92,4.53-1.15,5.4l-6.3,24.48h-11.25l-11.92-46.73h9.75l5.98,25.51c1,4.43,1.76,8.51,2.27,12.24,.13-1.24,.43-3.17,.91-5.8,.48-2.63,.9-4.56,1.26-5.77l6.81-26.18h9.37l6.81,26.18c.34,1.36,.73,3.24,1.17,5.63,.44,2.39,.76,4.37,.97,5.95,.28-2.05,.64-4.26,1.1-6.65,.46-2.39,.86-4.25,1.2-5.59l5.95-25.51h9.75m0-7h-9.75c-3.25,0-6.08,2.24-6.82,5.41l-1.68,7.22-1.92-7.39c-.8-3.08-3.59-5.24-6.77-5.24h-9.37c-3.19,0-5.97,2.15-6.77,5.24l-1.93,7.44-1.7-7.27c-.74-3.16-3.56-5.4-6.82-5.4h-9.75c-2.16,0-4.2,1-5.53,2.71s-1.79,3.93-1.25,6.03l11.92,46.73c.79,3.1,3.58,5.27,6.78,5.27h11.25c3.19,0,5.98-2.16,6.78-5.26l1.69-6.57,1.69,6.57c.8,3.09,3.59,5.25,6.78,5.25h11.28c3.2,0,5.99-2.17,6.78-5.27l11.89-46.73c.53-2.09,.07-4.32-1.26-6.02-1.33-1.71-3.37-2.7-5.53-2.7h0Zm0,14h0Z"/></g><g><path class="g" d="M122.84,198.75c-1.93,0-3.5-1.57-3.5-3.5v-16.67h-11.51v16.67c0,1.93-1.57,3.5-3.5,3.5h-9.91c-1.93,0-3.5-1.57-3.5-3.5v-46.73c0-1.93,1.57-3.5,3.5-3.5h9.91c1.93,0,3.5,1.57,3.5,3.5v14.81h11.51v-14.81c0-1.93,1.57-3.5,3.5-3.5h9.88c1.93,0,3.5,1.57,3.5,3.5v46.73c0,1.93-1.57,3.5-3.5,3.5h-9.88Z"/><path class="d" d="M132.72,148.52v46.73h-9.88v-20.17h-18.51v20.17h-9.91v-46.73h9.91v18.31h18.51v-18.31h9.88m0-7h-9.88c-3.87,0-7,3.13-7,7v11.31h-4.51v-11.31c0-3.87-3.13-7-7-7h-9.91c-3.87,0-7,3.13-7,7v46.73c0,3.87,3.13,7,7,7h9.91c3.87,0,7-3.13,7-7v-13.17h4.51v13.17c0,3.87,3.13,7,7,7h9.88c3.87,0,7-3.13,7-7v-46.73c0-3.87-3.13-7-7-7h0Z"/></g><g><path class="g" d="M144.51,198.75c-1.93,0-3.5-1.57-3.5-3.5v-46.73c0-1.93,1.57-3.5,3.5-3.5h26.91c1.93,0,3.5,1.57,3.5,3.5v8.12c0,1.93-1.57,3.5-3.5,3.5h-13.5v3.26h12.29c1.93,0,3.5,1.57,3.5,3.5v8.12c0,1.93-1.57,3.5-3.5,3.5h-12.29v5.05h13.5c1.93,0,3.5,1.57,3.5,3.5v8.18c0,1.93-1.57,3.5-3.5,3.5h-26.91Z"/><path class="d" d="M171.42,148.52v8.12h-17v10.26h15.79v8.12h-15.79v12.05h17v8.18h-26.91v-46.73h26.91m0-7h-26.91c-3.87,0-7,3.13-7,7v46.73c0,3.87,3.13,7,7,7h26.91c3.87,0,7-3.13,7-7v-8.18c0-2.84-1.69-5.28-4.11-6.38,1.76-1.27,2.9-3.34,2.9-5.67v-8.12c0-1.75-.64-3.35-1.7-4.57,1.77-1.27,2.92-3.34,2.92-5.69v-8.12c0-3.87-3.13-7-7-7h0Z"/></g><g><path class="g" d="M181.17,198.75c-1.93,0-3.5-1.57-3.5-3.5v-46.73c0-1.93,1.57-3.5,3.5-3.5h26.91c1.93,0,3.5,1.57,3.5,3.5v8.12c0,1.93-1.57,3.5-3.5,3.5h-13.5v3.26h12.29c1.93,0,3.5,1.57,3.5,3.5v8.12c0,1.93-1.57,3.5-3.5,3.5h-12.29v5.05h13.5c1.93,0,3.5,1.57,3.5,3.5v8.18c0,1.93-1.57,3.5-3.5,3.5h-26.91Z"/><path class="d" d="M208.08,148.52v8.12h-17v10.26h15.79v8.12h-15.79v12.05h17v8.18h-26.91v-46.73h26.91m0-7h-26.91c-3.87,0-7,3.13-7,7v46.73c0,3.87,3.13,7,7,7h26.91c3.87,0,7-3.13,7-7v-8.18c0-2.84-1.69-5.28-4.11-6.38,1.76-1.27,2.9-3.34,2.9-5.67v-8.12c0-1.75-.64-3.35-1.7-4.57,1.77-1.27,2.92-3.34,2.92-5.69v-8.12c0-3.87-3.13-7-7-7h0Z"/></g><g><path class="g" d="M217.83,198.75c-1.93,0-3.5-1.57-3.5-3.5v-46.73c0-1.93,1.57-3.5,3.5-3.5h9.91c1.93,0,3.5,1.57,3.5,3.5v35.05h15.45c1.93,0,3.5,1.57,3.5,3.5v8.18c0,1.93-1.57,3.5-3.5,3.5h-28.86Z"/><path class="d" d="M227.74,148.52v38.55h18.95v8.18h-28.86v-46.73h9.91m0-7h-9.91c-3.87,0-7,3.13-7,7v46.73c0,3.87,3.13,7,7,7h28.86c3.87,0,7-3.13,7-7v-8.18c0-3.87-3.13-7-7-7h-11.95v-31.55c0-3.87-3.13-7-7-7h0Z"/></g><g><path class="g" d="M265.46,199.39c-5.71,0-10.79-1.07-15.09-3.17-1.2-.59-1.96-1.81-1.96-3.14v-9.21c0-1.18,.6-2.29,1.59-2.93,.58-.38,1.24-.57,1.91-.57,.48,0,.96,.1,1.41,.3,3.05,1.34,5.6,2.29,7.58,2.8,1.86,.49,3.66,.73,5.35,.73,1.22,0,2.14-.2,2.67-.58,.11-.08,.27-.2,.27-.87,0-.26-.06-.35-.09-.39-.14-.2-.5-.61-1.37-1.21-.58-.4-2.01-1.22-5.48-2.85-3.28-1.54-5.68-3-7.35-4.43-3.92-3.39-5.91-7.7-5.91-12.81s1.83-9.27,5.42-12.32c3.46-2.91,8.13-4.38,13.9-4.38,4.61,0,9.75,1.2,15.26,3.58,1.76,.76,2.58,2.79,1.85,4.56l-3.2,7.7c-.56,1.35-1.86,2.16-3.23,2.16-.44,0-.89-.08-1.32-.26-2.25-.92-4.16-1.58-5.66-1.96-1.37-.35-2.78-.53-4.2-.53-.86,0-1.48,.16-1.85,.47-.15,.12-.29,.25-.29,.76,0,.12,.01,.35,.08,.47,.04,.06,.24,.36,.91,.82,.33,.22,1.55,.97,5.83,3,4.91,2.33,8.25,4.73,10.24,7.34,2.09,2.6,3.17,5.93,3.17,9.82,0,5.26-1.97,9.53-5.85,12.71-3.71,2.93-8.6,4.4-14.59,4.4Z"/><path class="d" d="M268.3,147.85c4.16,0,8.78,1.1,13.87,3.29l-3.2,7.7c-2.41-.98-4.44-1.68-6.1-2.11-1.66-.43-3.35-.64-5.07-.64s-3.08,.43-4.11,1.3c-1.02,.86-1.53,2.01-1.53,3.44,0,.87,.2,1.64,.59,2.28,.39,.65,1.03,1.28,1.92,1.89,.88,.61,2.99,1.7,6.31,3.28,4.35,2.07,7.33,4.17,8.95,6.3,1.64,2.05,2.46,4.61,2.46,7.7,0,4.18-1.52,7.51-4.57,10-3.05,2.41-7.17,3.61-12.37,3.61s-9.72-.94-13.55-2.81v-9.21c3.24,1.43,5.94,2.42,8.1,2.99,2.16,.56,4.24,.85,6.23,.85s3.56-.42,4.71-1.25c1.15-.83,1.73-2.07,1.73-3.71,0-.92-.25-1.72-.74-2.41-.49-.69-1.24-1.39-2.25-2.08-1.01-.69-3-1.74-5.96-3.13-2.96-1.4-5.15-2.7-6.55-3.91-3.13-2.71-4.7-6.09-4.7-10.16s1.4-7.29,4.19-9.65c2.81-2.37,6.69-3.55,11.63-3.55m0-7c-6.61,0-12.04,1.75-16.14,5.19-4.38,3.71-6.68,8.89-6.68,15.01s2.46,11.44,7.12,15.46c.18,.16,.38,.32,.57,.48-.42-.08-.85-.12-1.27-.12-1.34,0-2.67,.38-3.82,1.14-1.98,1.29-3.18,3.5-3.18,5.86v9.21c0,2.67,1.52,5.11,3.93,6.29,4.78,2.34,10.38,3.52,16.63,3.52,6.79,0,12.41-1.72,16.71-5.12,.03-.02,.06-.05,.09-.07,4.67-3.82,7.14-9.15,7.14-15.42,0-4.67-1.33-8.72-3.94-12.01-1.24-1.61-2.87-3.13-4.94-4.59,2.14-.48,4.03-1.97,4.93-4.15l3.2-7.7c1.47-3.54-.18-7.6-3.7-9.11-5.95-2.56-11.55-3.86-16.64-3.86h0Z"/></g></g></g><path class="f" d="M75.15,115.27c-.06,9.87-8.02,17.68-17.96,17.6-9.56-.07-17.42-8.1-17.37-17.73,.05-9.78,8.03-17.67,17.82-17.6,9.69,.06,17.58,8.05,17.52,17.74Zm-12.86-.04c.05-2.59-2.09-4.8-4.72-4.85-2.65-.05-4.87,2.09-4.91,4.74-.04,2.62,2.08,4.82,4.69,4.89,2.69,.07,4.89-2.06,4.95-4.78Zm-4.77,10.09c1.02-.19,2.04-.34,3.03-.59,.72-.19,.76-.48,.28-1.03-1.87-2.14-4.69-2.17-6.62-.08-.58,.63-.52,.94,.34,1.15,.97,.24,1.96,.37,2.97,.55Zm9.98-9.48c.03-1.45-.22-1.6-1.27-1.02-2.35,1.3-3.04,3.59-1.8,5.97,.46,.87,.72,.91,1.28,.12,1.12-1.6,1.67-3.39,1.8-5.07Zm-16.21,2.76c-.13-1.77-1.39-3.47-3.07-4.03-.57-.19-.77,.07-.77,.59,.02,2.2,.67,4.19,1.97,5.97,.37,.5,.75,.45,.98-.1,.33-.79,.6-1.62,.89-2.43Zm12.95-8.21c.16-.02,.52-.03,.87-.1,.78-.16,.89-.41,.44-1.03-1.27-1.72-2.94-2.92-4.97-3.59-.66-.22-.85-.04-.81,.65,.14,2.4,1.89,4.07,4.48,4.08Zm-13.44,.13c2.44-.09,4.21-1.74,4.37-4.16,.05-.76-.11-.9-.82-.68-1.72,.53-3.15,1.52-4.33,2.85-.35,.4-.56,.94-.83,1.41l1.62,.58Zm7.42-3.78c0-1.05-.29-1.58-.78-1.49-.76,.15-.7,.81-.69,1.36,0,.58,.03,1.41,.73,1.41,.72,0,.65-.84,.73-1.28Zm3.5,14.16c-.06,.16-.29,.47-.21,.62,.33,.61,.69,1.23,1.15,1.73,.29,.32,.85,.02,.93-.41,.13-.65-1.02-1.99-1.88-1.94Zm-8.26,.71c0-.68-.34-.96-.76-.61-.52,.43-.91,1.05-1.29,1.62-.08,.12,.09,.49,.25,.63,.13,.11,.47,.11,.62,.02,.66-.4,1.08-.99,1.17-1.66Zm11.67-8.13c.52-.21,1.04-.35,1.48-.63,.19-.12,.36-.55,.29-.73-.08-.21-.48-.45-.7-.42-.49,.06-1.01,.22-1.43,.47-.25,.15-.36,.56-.53,.85l.89,.46Zm-15.34,0l.92-.45c-.19-.3-.31-.71-.59-.89-.37-.24-.85-.39-1.3-.42-.26-.02-.64,.21-.77,.43-.08,.15,.13,.6,.33,.73,.4,.26,.88,.38,1.41,.6Z"/></g><g id="b"/></svg>