<?xml version="1.0" encoding="UTF-8"?><svg xmlns="http://www.w3.org/2000/svg" viewBox="0 0 315 235"><defs><style>.c{opacity:.5;}.d{fill:#f0f2f4;}.e{fill:#ffbf00;}.f{fill:#335799;}.g{fill:#1c3054;}</style></defs><g id="a"><g><g><path class="e" d="M262.78,56.27c12.21,0,22.14,9.93,22.14,22.14s-9.93,22.14-22.14,22.14-22.14-9.93-22.14-22.14,9.93-22.14,22.14-22.14m0-1c-12.78,0-23.14,10.36-23.14,23.14s10.36,23.14,23.14,23.14,23.14-10.36,23.14-23.14-10.36-23.14-23.14-23.14h0Z"/><g><path class="e" d="M262.78,65.4c7.18,0,13.02,5.84,13.02,13.02s-5.84,13.02-13.02,13.02-13.02-5.84-13.02-13.02,5.84-13.02,13.02-13.02m0-1c-7.74,0-14.02,6.28-14.02,14.02s6.28,14.02,14.02,14.02,14.02-6.28,14.02-14.02-6.28-14.02-14.02-14.02h0Z"/><g class="c"><path class="e" d="M262.78,64.4c-7.74,0-14.02,6.28-14.02,14.02s6.28,14.02,14.02,14.02,14.02-6.28,14.02-14.02-6.28-14.02-14.02-14.02Zm10.73,9.29c.14,.34-.72,1.03-1.92,1.54-1.21,.51-2.3,.65-2.44,.31-.14-.34,.72-1.03,1.92-1.54s2.3-.65,2.44-.31Zm-4.74-2.49c.93-.93,1.89-1.46,2.15-1.2s-.28,1.23-1.2,2.15c-.93,.93-1.89,1.46-2.15,1.2-.26-.26,.28-1.22,1.2-2.15Zm-1.21,7.21c0,2.64-2.14,4.78-4.78,4.78s-4.78-2.14-4.78-4.78,2.14-4.78,4.78-4.78,4.78,2.14,4.78,4.78Zm-1.95-8.93c.51-1.21,1.2-2.06,1.54-1.92,.34,.14,.2,1.24-.31,2.44s-1.2,2.06-1.54,1.92c-.34-.14-.2-1.24,.31-2.44Zm-3.07-2.77c.37,0,.67,1.06,.67,2.37s-.3,2.37-.67,2.37-.67-1.06-.67-2.37,.3-2.37,.67-2.37Zm-4.56,1.01c.34-.14,1.03,.72,1.54,1.92s.65,2.3,.31,2.44c-.34,.14-1.03-.72-1.54-1.92-.51-1.21-.65-2.3-.31-2.44Zm-3.69,2.59c.26-.26,1.22,.28,2.15,1.2s1.46,1.89,1.2,2.15-1.22-.28-2.15-1.2-1.46-1.89-1.2-2.15Zm-2.44,3.77c.14-.34,1.24-.2,2.44,.31,1.21,.51,2.06,1.2,1.92,1.54-.14,.34-1.24,.2-2.44-.31-1.21-.51-2.06-1.2-1.92-1.54Zm-.85,4.61c0-.37,1.06-.67,2.37-.67s2.37,.3,2.37,.67-1.06,.67-2.37,.67-2.37-.3-2.37-.67Zm1.01,4.56c-.14-.34,.72-1.03,1.92-1.54,1.21-.51,2.3-.65,2.44-.31s-.72,1.03-1.92,1.54c-1.21,.51-2.3,.65-2.44,.31Zm4.74,2.49c-.93,.93-1.89,1.46-2.15,1.2s.28-1.23,1.2-2.15,1.89-1.46,2.15-1.2-.28,1.22-1.2,2.15Zm3.16,1.72c-.51,1.21-1.2,2.06-1.54,1.92-.34-.14-.2-1.24,.31-2.44s1.2-2.06,1.54-1.92c.34,.14,.2,1.24-.31,2.44Zm3.07,2.77c-.37,0-.67-1.06-.67-2.37s.3-2.37,.67-2.37,.67,1.06,.67,2.37-.3,2.37-.67,2.37Zm4.56-1.01c-.34,.14-1.03-.72-1.54-1.92-.51-1.21-.65-2.3-.3-2.44,.34-.14,1.03,.72,1.54,1.92,.51,1.21,.65,2.3,.31,2.44Zm3.69-2.59c-.26,.26-1.23-.28-2.15-1.2-.93-.93-1.46-1.89-1.2-2.15s1.23,.28,2.15,1.2c.93,.93,1.46,1.89,1.2,2.15Zm2.44-3.77c-.14,.34-1.24,.2-2.44-.31s-2.06-1.2-1.92-1.54c.14-.34,1.24-.2,2.44,.31s2.06,1.2,1.92,1.54Zm-1.52-3.94c-1.31,0-2.37-.3-2.37-.67s1.06-.67,2.37-.67,2.37,.3,2.37,.67-1.06,.67-2.37,.67Z"/></g><path class="e" d="M262.78,73.64c2.64,0,4.78,2.14,4.78,4.78s-2.14,4.78-4.78,4.78-4.78-2.14-4.78-4.78,2.14-4.78,4.78-4.78m0-1c-3.19,0-5.78,2.59-5.78,5.78s2.59,5.78,5.78,5.78,5.78-2.59,5.78-5.78-2.59-5.78-5.78-5.78h0Z"/><g><path class="e" d="M262.55,66.72c.37,0,.67,1.06,.67,2.37s-.3,2.37-.67,2.37-.67-1.06-.67-2.37,.3-2.37,.67-2.37m0-.5c-1.09,0-1.17,2.2-1.17,2.87s.08,2.87,1.17,2.87,1.17-2.2,1.17-2.87-.08-2.87-1.17-2.87h0Z"/><path class="e" d="M253.38,78.02c1.31,0,2.37,.3,2.37,.67s-1.06,.67-2.37,.67-2.37-.3-2.37-.67,1.06-.67,2.37-.67m0-.5c-.67,0-2.87,.08-2.87,1.17s2.2,1.17,2.87,1.17,2.87-.08,2.87-1.17-2.2-1.17-2.87-1.17h0Z"/><path class="e" d="M272.15,77.58c1.31,0,2.37,.3,2.37,.67s-1.06,.67-2.37,.67-2.37-.3-2.37-.67,1.06-.67,2.37-.67m0-.5c-.67,0-2.87,.08-2.87,1.17s2.2,1.17,2.87,1.17,2.87-.08,2.87-1.17-2.2-1.17-2.87-1.17h0Z"/><path class="e" d="M262.99,85.49c.37,0,.67,1.06,.67,2.37s-.3,2.37-.67,2.37-.67-1.06-.67-2.37,.3-2.37,.67-2.37m0-.5c-1.09,0-1.17,2.2-1.17,2.87s.08,2.87,1.17,2.87,1.17-2.2,1.17-2.87-.08-2.87-1.17-2.87h0Z"/><path class="e" d="M265.78,84.83c.36,0,.99,.82,1.46,1.94,.51,1.21,.65,2.3,.31,2.44-.03,.01-.05,.02-.08,.02-.36,0-.99-.82-1.46-1.94-.51-1.21-.65-2.3-.31-2.44,.03-.01,.05-.02,.08-.02m0-.5c-.1,0-.19,.02-.28,.06-1,.42-.22,2.48,.04,3.1,.22,.53,1.02,2.24,1.92,2.24,.1,0,.19-.02,.28-.06,1-.42,.22-2.48-.04-3.1-.22-.53-1.02-2.24-1.92-2.24h0Z"/><path class="e" d="M273,73.5c.27,0,.46,.06,.51,.19,.14,.34-.72,1.03-1.92,1.54-.76,.32-1.47,.49-1.93,.49-.27,0-.46-.06-.51-.19-.14-.34,.72-1.03,1.92-1.54,.76-.32,1.47-.49,1.93-.49m0-.5c-.55,0-1.33,.19-2.13,.53-.62,.26-1.19,.59-1.59,.9-.57,.46-.77,.89-.6,1.29,.1,.22,.34,.49,.97,.49,.55,0,1.33-.19,2.13-.53,.62-.26,2.61-1.2,2.19-2.2-.1-.23-.34-.49-.97-.49h0Z"/><path class="e" d="M255.88,81.22c.27,0,.46,.06,.51,.19,.14,.34-.72,1.03-1.92,1.54-.76,.32-1.47,.49-1.93,.49-.27,0-.46-.06-.51-.19-.14-.34,.72-1.03,1.92-1.54,.76-.32,1.47-.49,1.93-.49m0-.5c-.55,0-1.33,.19-2.13,.53-.62,.26-2.61,1.2-2.19,2.2,.1,.23,.34,.49,.97,.49,.55,0,1.33-.19,2.13-.53,.62-.26,1.19-.59,1.59-.9,.57-.46,.77-.89,.6-1.29-.1-.22-.34-.49-.97-.49h0Z"/><path class="e" d="M258.06,67.71c.36,0,.99,.82,1.46,1.94,.51,1.21,.65,2.3,.31,2.44-.03,.01-.05,.02-.08,.02-.36,0-.99-.82-1.46-1.94-.51-1.21-.65-2.3-.31-2.44,.03-.01,.05-.02,.08-.02m0-.5c-.1,0-.19,.02-.28,.06-1,.42-.22,2.48,.04,3.1,.22,.53,1.02,2.24,1.92,2.24,.1,0,.19-.02,.28-.06,1-.42,.22-2.48-.04-3.1-.22-.53-1.02-2.24-1.92-2.24h0Z"/><path class="e" d="M269.82,80.83c.46,0,1.18,.17,1.93,.5,1.21,.51,2.06,1.2,1.92,1.54-.05,.13-.24,.19-.51,.19-.46,0-1.18-.17-1.93-.5-1.21-.51-2.06-1.2-1.92-1.54,.05-.13,.24-.19,.51-.19m0-.5c-.63,0-.88,.27-.97,.49-.42,1,1.56,1.94,2.18,2.2,.8,.34,1.58,.54,2.13,.54,.63,0,.88-.27,.97-.49,.17-.4-.03-.84-.6-1.29-.4-.32-.96-.64-1.58-.91-.8-.34-1.58-.54-2.13-.54h0Z"/><path class="e" d="M267.08,67.55s.06,0,.08,.02c.34,.14,.2,1.24-.31,2.44-.47,1.12-1.1,1.94-1.46,1.94-.03,0-.06,0-.08-.02-.34-.14-.2-1.24,.31-2.44,.47-1.12,1.1-1.94,1.46-1.94m0-.5c-.9,0-1.7,1.71-1.92,2.24-.26,.62-1.04,2.68-.04,3.1,.09,.04,.18,.06,.28,.06,.9,0,1.7-1.71,1.92-2.24,.26-.62,.45-1.25,.51-1.75,.09-.72-.07-1.18-.47-1.35-.09-.04-.18-.06-.28-.06h0Z"/><path class="e" d="M260.15,85s.06,0,.08,.02c.34,.14,.2,1.24-.31,2.44-.47,1.12-1.1,1.94-1.46,1.94-.03,0-.06,0-.08-.02-.34-.14-.2-1.24,.31-2.44,.47-1.12,1.1-1.94,1.46-1.94m0-.5c-.9,0-1.7,1.71-1.92,2.24-.26,.62-.45,1.25-.51,1.75-.09,.72,.07,1.18,.47,1.35,.09,.04,.18,.06,.28,.06,.9,0,1.7-1.71,1.92-2.24,.26-.62,1.04-2.68,.04-3.1-.09-.04-.18-.06-.28-.06h0Z"/><path class="e" d="M270.73,69.94c.08,0,.15,.02,.19,.07,.26,.26-.28,1.23-1.2,2.15-.77,.77-1.56,1.27-1.96,1.27-.08,0-.15-.02-.19-.07-.26-.26,.28-1.23,1.2-2.15,.77-.77,1.56-1.27,1.96-1.27m0-.5c-.66,0-1.63,.73-2.31,1.41-.48,.48-1.97,2.09-1.2,2.86,.1,.1,.27,.21,.55,.21,.66,0,1.63-.73,2.31-1.41,.48-.48,1.97-2.09,1.2-2.86-.1-.1-.27-.21-.55-.21h0Z"/><path class="e" d="M254.49,70.25c.4,0,1.19,.5,1.96,1.27,.93,.93,1.46,1.89,1.2,2.15-.04,.04-.11,.07-.19,.07-.4,0-1.19-.5-1.96-1.27-.93-.93-1.46-1.89-1.2-2.15,.04-.04,.11-.07,.19-.07m0-.5c-.28,0-.45,.12-.55,.21-.77,.77,.73,2.38,1.2,2.86,.68,.68,1.65,1.41,2.31,1.41,.28,0,.45-.12,.55-.21,.77-.77-.73-2.38-1.2-2.86-.68-.68-1.65-1.41-2.31-1.41h0Z"/><path class="e" d="M268.08,83.21c.4,0,1.19,.5,1.96,1.27,.93,.93,1.46,1.89,1.2,2.15-.04,.04-.11,.07-.19,.07-.4,0-1.19-.5-1.96-1.27-.93-.93-1.46-1.89-1.2-2.15,.04-.04,.11-.07,.19-.07m0-.5c-.28,0-.45,.12-.55,.21-.77,.77,.73,2.38,1.2,2.86,.68,.68,1.65,1.41,2.31,1.41,.28,0,.45-.12,.55-.21,.77-.77-.73-2.38-1.2-2.86-.68-.68-1.65-1.41-2.31-1.41h0Z"/><path class="e" d="M257.77,83.53c.08,0,.15,.02,.19,.07,.26,.26-.28,1.23-1.2,2.15-.77,.77-1.56,1.27-1.96,1.27-.08,0-.15-.02-.19-.07-.26-.26,.28-1.23,1.2-2.15,.77-.77,1.56-1.27,1.96-1.27m0-.5c-.66,0-1.63,.73-2.31,1.41-.48,.48-1.97,2.09-1.2,2.86,.1,.1,.27,.21,.55,.21,.66,0,1.63-.73,2.31-1.41,.48-.48,1.97-2.09,1.2-2.86-.1-.1-.27-.21-.55-.21h0Z"/><path class="e" d="M252.37,73.9c.46,0,1.18,.17,1.93,.5,1.21,.51,2.06,1.2,1.92,1.54-.05,.13-.24,.19-.51,.19-.46,0-1.18-.17-1.93-.5-1.21-.51-2.06-1.2-1.92-1.54,.05-.13,.24-.19,.51-.19m0-.5c-.63,0-.88,.27-.97,.49-.17,.4,.03,.84,.6,1.29,.4,.32,.96,.64,1.58,.91,.8,.34,1.58,.54,2.13,.54,.63,0,.88-.27,.97-.49,.42-1-1.56-1.94-2.18-2.2-.8-.34-1.58-.54-2.13-.54h0Z"/></g></g></g><g><path class="e" d="M246.48,112.04c-.2-.08-.35-.2-.46-.36-.11-.16-.17-.34-.18-.55h.75c.01,.14,.06,.26,.15,.34,.09,.08,.22,.12,.38,.12s.29-.04,.38-.12c.09-.08,.14-.18,.14-.31,0-.1-.03-.19-.1-.26-.06-.07-.14-.12-.24-.16-.1-.04-.23-.08-.39-.13-.23-.07-.41-.13-.55-.2-.14-.06-.26-.16-.37-.29-.1-.13-.15-.31-.15-.53,0-.21,.05-.39,.15-.54s.25-.27,.44-.35c.19-.08,.4-.12,.64-.12,.36,0,.65,.09,.88,.26,.23,.17,.35,.42,.37,.73h-.77c0-.12-.06-.22-.15-.3-.09-.08-.22-.12-.38-.12-.14,0-.25,.04-.33,.1-.08,.07-.12,.17-.12,.31,0,.09,.03,.17,.09,.23s.14,.11,.23,.15c.09,.04,.22,.08,.39,.13,.23,.07,.41,.13,.55,.2,.14,.07,.27,.17,.37,.3,.1,.13,.16,.31,.16,.53,0,.19-.05,.36-.15,.52s-.24,.29-.43,.38c-.19,.09-.41,.14-.67,.14-.24,0-.46-.04-.66-.12Z"/><path class="e" d="M251.39,110.24c-.09,.16-.23,.29-.42,.39-.19,.1-.43,.15-.71,.15h-.58v1.34h-.7v-3.49h1.28c.27,0,.5,.05,.69,.14,.19,.09,.33,.22,.43,.39,.09,.16,.14,.35,.14,.55,0,.19-.04,.36-.13,.53Zm-.73-.15c.09-.09,.14-.21,.14-.37,0-.34-.19-.51-.57-.51h-.56v1.01h.56c.19,0,.34-.04,.43-.13Z"/><path class="e" d="M252.74,111.93c-.27-.15-.49-.37-.65-.64-.16-.27-.24-.58-.24-.92s.08-.65,.24-.92,.38-.48,.65-.64,.57-.23,.9-.23,.63,.08,.9,.23c.27,.15,.49,.37,.65,.64,.16,.27,.24,.58,.24,.92s-.08,.65-.24,.92c-.16,.27-.37,.48-.65,.64-.27,.15-.57,.23-.9,.23s-.63-.08-.9-.23Zm1.46-.54c.16-.1,.29-.23,.38-.41,.09-.18,.13-.38,.13-.61s-.04-.44-.13-.61c-.09-.17-.21-.31-.38-.4-.16-.09-.35-.14-.56-.14s-.4,.05-.56,.14c-.16,.09-.29,.23-.38,.4-.09,.18-.13,.38-.13,.61s.04,.44,.13,.61c.09,.18,.22,.31,.38,.41,.16,.09,.35,.14,.56,.14s.4-.05,.56-.14Z"/><path class="e" d="M257.91,112.13l-1.27-1.56v1.56h-.7v-3.49h.7v1.57l1.27-1.57h.85l-1.44,1.73,1.48,1.76h-.89Z"/><path class="e" d="M259.96,109.2v.88h1.18v.55h-1.18v.92h1.33v.57h-2.02v-3.5h2.02v.57h-1.33Z"/><path class="e" d="M264.11,108.85c.28,.14,.49,.35,.65,.61,.15,.27,.23,.57,.23,.92s-.08,.66-.23,.92c-.15,.26-.37,.46-.65,.61-.28,.14-.6,.21-.97,.21h-1.22v-3.49h1.22c.37,0,.69,.07,.97,.21Zm-.14,2.38c.2-.2,.3-.48,.3-.84s-.1-.65-.3-.85c-.2-.21-.48-.31-.85-.31h-.5v2.3h.5c.37,0,.65-.1,.85-.3Z"/><path class="e" d="M266.76,109.46c.15-.27,.37-.48,.63-.63,.27-.15,.57-.23,.9-.23,.39,0,.73,.1,1.03,.3,.29,.2,.5,.48,.61,.83h-.81c-.08-.17-.19-.29-.34-.38s-.31-.12-.5-.12c-.2,0-.38,.05-.54,.14s-.28,.23-.37,.4c-.09,.17-.13,.38-.13,.61s.04,.43,.13,.61,.21,.31,.37,.41c.16,.09,.34,.14,.54,.14,.19,0,.36-.04,.5-.13s.26-.21,.34-.38h.81c-.12,.36-.32,.63-.61,.83-.29,.2-.63,.3-1.03,.3-.33,0-.63-.08-.9-.23-.27-.15-.48-.36-.63-.63-.16-.27-.23-.58-.23-.92s.08-.65,.23-.92Z"/><path class="e" d="M271.25,111.93c-.27-.15-.49-.37-.65-.64-.16-.27-.24-.58-.24-.92s.08-.65,.24-.92,.38-.48,.65-.64,.57-.23,.9-.23,.63,.08,.9,.23c.27,.15,.49,.37,.65,.64,.16,.27,.24,.58,.24,.92s-.08,.65-.24,.92c-.16,.27-.37,.48-.65,.64-.27,.15-.57,.23-.9,.23s-.63-.08-.9-.23Zm1.46-.54c.16-.1,.29-.23,.38-.41,.09-.18,.13-.38,.13-.61s-.04-.44-.13-.61c-.09-.17-.21-.31-.38-.4-.16-.09-.35-.14-.56-.14s-.4,.05-.56,.14c-.16,.09-.29,.23-.38,.4-.09,.18-.13,.38-.13,.61s.04,.44,.13,.61c.09,.18,.22,.31,.38,.41,.16,.09,.35,.14,.56,.14s.4-.05,.56-.14Z"/><path class="e" d="M276.26,112.13l-.77-1.36h-.33v1.36h-.7v-3.49h1.31c.27,0,.5,.05,.69,.14,.19,.09,.33,.22,.43,.38,.1,.16,.14,.34,.14,.54,0,.23-.07,.44-.2,.62-.13,.19-.33,.31-.59,.38l.83,1.42h-.81Zm-1.1-1.88h.58c.19,0,.33-.05,.43-.14,.09-.09,.14-.22,.14-.38s-.05-.28-.14-.37c-.09-.09-.24-.13-.43-.13h-.58v1.03Z"/><path class="e" d="M278.36,109.2v.88h1.18v.55h-1.18v.92h1.33v.57h-2.02v-3.5h2.02v.57h-1.33Z"/></g></g><rect class="d" width="315" height="235"/><g/><g/></g><g id="b"><g><path class="f" d="M31.36,267.16c-20.71,0-37.06-16.38-37.12-37.19-.06-20.33,16.66-37.1,36.97-37.08,20.69,.01,37.27,16.49,37.33,37.1,.06,20.61-16.51,37.17-37.18,37.17Zm3.44-20.42l-.7,.72c1.45,1.35,2.67,3.27,4.39,3.96,5.03,2.03,14.36-4,14.95-9.55,.1-.91-1.1-2.66-1.96-2.86-3.65-.82-7.4-1.51-11.13-1.63-2.75-.09-4.82,1.52-5.08,4.66-.13,1.57-.32,3.14-.49,4.71Zm-3.59-42.53c-3.48,.9-6.48,1.44-9.3,2.47-2.87,1.05-3.19,2.73-1.15,4.98,1.96,2.16,4.08,4.19,6.25,6.15,3.51,3.17,5.83,2.91,9.32-.83,4.1-4.4,4.37-6.47,.64-9.76-1.62-1.43-3.91-2.08-5.75-3.01Zm9.75,19.41c-.23,6.13,3.59,6.54,6.39,8,3.11,1.62,5.31,.51,7.01-2.3,2.61-4.32-.37-14.6-4.98-16.62-.78-.34-2.55-.08-2.87,.47-2.23,3.85-4.2,7.85-5.55,10.44Zm-34.94,5.91c-.12,5.56,1.46,6.54,6.51,4.01,2.06-1.03,4.14-2.06,6.1-3.26,3.6-2.2,4.18-4.55,2.19-8.2-.64-1.17-1.32-2.32-2.03-3.45-1.38-2.18-3.26-2.62-5.67-1.76-4.92,1.75-6.95,5.26-7.1,12.66Zm17.49,7.5c-2.47,.46-3.92,.66-5.33,1.01-4.42,1.1-5.35,2.49-4.81,7.01,.55,4.59,9.29,10.8,13.76,9.54,.91-.26,2.11-1.93,2.02-2.83-.37-3.61-.85-7.29-1.99-10.7-.58-1.74-2.66-2.99-3.65-4.03Zm14.12-6.83c.04-3.65-2.43-6.32-5.95-6.44-3.68-.13-6.65,2.6-6.72,6.18-.06,3.48,2.96,6.52,6.47,6.5,3.49-.02,6.16-2.71,6.2-6.24Z"/><path class="f" d="M79.16,232.41c-1.35-20.67,13.93-38.04,34.7-39.46,20.28-1.39,38.1,14.2,39.41,34.48,1.33,20.65-14.02,38.26-34.59,39.67-20.56,1.41-38.17-14.05-39.52-34.68Zm20.6,2.1l-.76-.65c-1.26,1.53-3.09,2.88-3.66,4.63-1.69,5.15,4.92,14.07,10.51,14.3,.92,.04,2.59-1.27,2.72-2.14,.58-3.7,1.02-7.48,.9-11.21-.09-2.75-1.83-4.71-4.98-4.76-1.58-.02-3.15-.12-4.73-.18Zm42.21-6.35c-1.12-3.41-1.85-6.38-3.07-9.12-1.24-2.79-2.93-3.01-5.04-.82-2.03,2.1-3.92,4.34-5.73,6.63-2.93,3.71-2.53,6.01,1.43,9.24,4.66,3.8,6.74,3.94,9.78,0,1.32-1.71,1.82-4.04,2.63-5.94Zm-18.74,10.99c-6.13,.17-6.29,4.01-7.56,6.9-1.42,3.21-.16,5.34,2.75,6.85,4.48,2.32,14.55-1.32,16.26-6.06,.29-.8-.09-2.55-.66-2.83-3.99-1.98-8.11-3.68-10.78-4.86Zm-8.17-34.48c-5.55,.24-6.43,1.88-3.58,6.76,1.16,1.99,2.32,4,3.65,5.88,2.43,3.45,4.81,3.88,8.33,1.65,1.13-.71,2.23-1.47,3.31-2.25,2.09-1.52,2.4-3.42,1.39-5.77-2.07-4.8-5.71-6.59-13.1-6.26Zm-6.35,17.94c-.62-2.43-.92-3.86-1.36-5.25-1.39-4.34-2.83-5.18-7.31-4.34-4.54,.85-10.17,9.98-8.62,14.35,.31,.89,2.06,1.98,2.95,1.83,3.58-.6,7.22-1.32,10.55-2.68,1.7-.69,2.81-2.85,3.79-3.91Zm7.73,13.64c3.64-.19,6.15-2.83,6.04-6.36-.11-3.68-3.03-6.47-6.6-6.3-3.48,.16-6.32,3.38-6.06,6.88,.25,3.48,3.1,5.97,6.63,5.78Z"/><path class="f" d="M223.7,259.38c-16.39,12.66-39.34,9.68-52.11-6.76-12.47-16.05-9.49-39.54,6.6-51.95,16.39-12.64,39.57-9.73,52.22,6.55,12.64,16.27,9.65,39.51-6.71,52.15Zm-9.76-18.27l-.11,.99c1.97,.19,4.11,.95,5.89,.45,5.22-1.47,8.93-11.94,6-16.7-.48-.78-2.5-1.44-3.29-1.07-3.39,1.59-6.78,3.33-9.8,5.51-2.24,1.61-2.89,4.15-1.17,6.79,.86,1.32,1.66,2.68,2.49,4.02Zm-28.83-31.47c-2.21,2.84-4.25,5.1-5.85,7.64-1.63,2.59-.86,4.11,2.14,4.64,2.87,.51,5.79,.83,8.7,1.05,4.71,.36,6.4-1.26,6.87-6.35,.55-5.99-.49-7.79-5.46-8.11-2.15-.14-4.37,.74-6.39,1.13Zm19.58,9.41c3.56,4.99,6.84,2.98,9.95,2.42,3.46-.62,4.52-2.85,4.14-6.1-.57-5.02-9.21-11.33-14.1-10.11-.82,.21-2.06,1.49-1.98,2.13,.59,4.41,1.47,8.79,1.99,11.66Zm-24.04,26.03c3.3,4.47,5.15,4.29,7.61-.8,1-2.08,2.02-4.16,2.84-6.31,1.5-3.94,.53-6.16-3.28-7.83-1.22-.54-2.46-1.03-3.72-1.49-2.43-.89-4.18-.08-5.56,2.07-2.83,4.4-2.28,8.41,2.11,14.36Zm18.43-4.75c-1.67,1.88-2.69,2.92-3.6,4.06-2.83,3.57-2.72,5.24,.48,8.49,3.24,3.29,13.96,2.87,16.72-.86,.56-.76,.49-2.81-.13-3.47-2.5-2.63-5.12-5.25-8.11-7.26-1.53-1.02-3.93-.74-5.36-.96Zm7-14.03c-2.19-2.91-5.78-3.52-8.65-1.46-2.99,2.15-3.67,6.12-1.54,8.99,2.08,2.8,6.33,3.35,9.09,1.19,2.75-2.15,3.22-5.91,1.1-8.72Z"/><path class="f" d="M285.89,267.16c-20.71,0-37.06-16.38-37.12-37.19-.06-20.33,16.66-37.1,36.97-37.08,20.69,.01,37.27,16.49,37.33,37.1,.06,20.61-16.51,37.17-37.18,37.17Zm3.44-20.42l-.7,.72c1.45,1.35,2.67,3.27,4.39,3.96,5.03,2.03,14.36-4,14.95-9.55,.1-.91-1.1-2.66-1.96-2.86-3.65-.82-7.4-1.51-11.13-1.63-2.75-.09-4.82,1.52-5.08,4.66-.13,1.57-.32,3.14-.49,4.71Zm-3.59-42.53c-3.48,.9-6.48,1.44-9.3,2.47-2.87,1.05-3.19,2.73-1.15,4.98,1.96,2.16,4.08,4.19,6.25,6.15,3.51,3.17,5.83,2.91,9.32-.83,4.1-4.4,4.37-6.47,.64-9.76-1.62-1.43-3.91-2.08-5.75-3.01Zm9.75,19.41c-.23,6.13,3.59,6.54,6.39,8,3.11,1.62,5.31,.51,7.01-2.3,2.61-4.32-.37-14.6-4.98-16.62-.78-.34-2.55-.08-2.87,.47-2.23,3.85-4.2,7.85-5.55,10.44Zm-34.94,5.91c-.12,5.56,1.46,6.54,6.51,4.01,2.06-1.03,4.14-2.06,6.1-3.26,3.6-2.2,4.18-4.55,2.19-8.2-.64-1.17-1.32-2.32-2.03-3.45-1.38-2.18-3.26-2.62-5.67-1.76-4.92,1.75-6.95,5.26-7.1,12.66Zm17.49,7.5c-2.47,.46-3.92,.66-5.33,1.01-4.42,1.1-5.35,2.49-4.81,7.01,.55,4.59,9.29,10.8,13.76,9.54,.91-.26,2.11-1.93,2.02-2.83-.37-3.61-.85-7.29-1.99-10.7-.58-1.74-2.66-2.99-3.65-4.03Zm14.12-6.83c.04-3.65-2.43-6.32-5.95-6.44-3.68-.13-6.65,2.6-6.72,6.18-.06,3.48,2.96,6.52,6.47,6.5,3.49-.02,6.16-2.71,6.2-6.24Z"/></g><g><g><g><rect class="g" x="127.89" y="28.16" width="20.02" height="52.79" rx="3" ry="3"/><path class="d" d="M144.91,31.16v46.79h-14.02V31.16h14.02m0-6h-14.02c-3.31,0-6,2.69-6,6v46.79c0,3.31,2.69,6,6,6h14.02c3.31,0,6-2.69,6-6V31.16c0-3.31-2.69-6-6-6h0Z"/></g><g><path class="g" d="M171.72,80.96c-1.66,0-3-1.34-3-3v-29.7c0-2.97-1.03-3.97-4.08-3.97-3.44,0-7.71,.26-12.7,.78-.1,.01-.21,.02-.31,.02-.74,0-1.46-.27-2.01-.77-.63-.57-.99-1.38-.99-2.23v-10.88c0-1.54,1.16-2.83,2.69-2.98,4.99-.51,9.47-.77,13.3-.77s7,.19,9.32,.58c2.44,.41,4.55,1.09,6.27,2.01,1.7,.92,3.14,1.98,4.28,3.16,1.23,1.28,2.17,2.86,2.81,4.7,.56,1.62,.95,3.27,1.15,4.9,.2,1.55,.29,3.38,.29,5.45v29.7c0,1.66-1.34,3-3,3h-14.02Z"/><path class="d" d="M164.62,30.44c3.75,0,6.68,.18,8.82,.54,2.13,.36,3.91,.93,5.35,1.7,1.43,.77,2.61,1.64,3.54,2.6,.93,.96,1.64,2.16,2.13,3.59,.49,1.43,.83,2.87,1.01,4.3,.18,1.43,.27,3.12,.27,5.08v29.7h-14.02v-29.7c0-4.65-2.36-6.97-7.08-6.97-3.57,0-7.9,.27-13.01,.79v-10.88c4.91-.51,9.24-.76,12.99-.76m0-6c-3.93,0-8.51,.27-13.6,.79-3.06,.31-5.39,2.89-5.39,5.97v10.88c0,1.7,.72,3.32,1.98,4.46,1.11,1,2.54,1.54,4.02,1.54,.21,0,.41-.01,.62-.03,4.88-.51,9.05-.76,12.39-.76,.49,0,.81,.04,1.01,.08,.03,.18,.07,.47,.07,.89v29.7c0,3.31,2.69,6,6,6h14.02c3.31,0,6-2.69,6-6v-29.7c0-2.22-.1-4.13-.32-5.83-.23-1.83-.67-3.69-1.29-5.5-.78-2.26-1.95-4.21-3.48-5.8-1.36-1.41-3.05-2.66-5.02-3.72-2.01-1.08-4.42-1.86-7.19-2.33-2.49-.42-5.7-.63-9.82-.63h0Z"/></g><g><path class="g" d="M220.46,80.96c-1.66,0-3-1.34-3-3v-29.7c0-2.97-1.03-3.97-4.08-3.97-.33,0-.67,0-1.01,0v33.67c0,1.66-1.34,3-3,3h-14.02c-1.66,0-3-1.34-3-3V31.81c0-1.47,1.07-2.73,2.53-2.96,5.86-.94,12.55-1.41,19.88-1.41,6.3,0,10.93,.81,14.16,2.46,1.71,.85,3.17,1.88,4.32,3.05,1.24,1.25,2.19,2.82,2.83,4.66,.56,1.62,.95,3.29,1.16,4.98,.19,1.59,.29,3.5,.29,5.66v29.7c0,1.66-1.34,3-3,3h-14.06Z"/><path class="d" d="M214.76,30.44c5.76,0,10.02,.71,12.79,2.13,1.45,.72,2.63,1.55,3.56,2.49,.93,.94,1.64,2.12,2.13,3.54,.49,1.42,.83,2.87,1.01,4.35,.18,1.48,.27,3.25,.27,5.29v29.7h-14.06v-29.7c0-4.65-2.36-6.97-7.08-6.97-1.25,0-2.59,.04-4.01,.11v36.57h-14.02V31.81c5.73-.92,12.2-1.37,19.4-1.37m0-6c-7.48,0-14.33,.49-20.35,1.45-2.91,.46-5.05,2.98-5.05,5.92v46.14c0,3.31,2.69,6,6,6h14.02c2.5,0,4.65-1.53,5.55-3.71,.9,2.18,3.04,3.71,5.55,3.71h14.06c3.31,0,6-2.69,6-6v-29.7c0-2.28-.11-4.31-.32-6.02-.23-1.89-.67-3.78-1.3-5.6-.79-2.27-1.98-4.21-3.53-5.79-1.38-1.4-3.1-2.62-5.12-3.63-3.66-1.87-8.73-2.78-15.5-2.78h0Z"/></g><g><path class="g" d="M242.18,80.96c-1.66,0-3-1.34-3-3v-10.8c0-1.66,1.34-3,3-3h17.13v-15.9c0-2.97-1.04-3.97-4.12-3.97-2.87,0-6.4,.2-10.48,.6l-2.24,.22c-.1,0-.19,.01-.29,.01-.74,0-1.46-.28-2.02-.78-.63-.57-.98-1.38-.98-2.22v-10.73c0-1.41,.99-2.64,2.37-2.93,3.15-.68,8.05-1.01,14.97-1.01,4.73,0,8.42,.44,11.27,1.33,3.39,1.04,5.81,2.46,7.39,4.32,1.7,1.93,2.85,4.21,3.39,6.73,.5,2.17,.75,4.81,.75,7.82v16.51h2.09c1.66,0,3,1.34,3,3v10.8c0,1.66-1.34,3-3,3h-39.24Z"/><path class="d" d="M256.52,30.44c4.38,0,7.84,.4,10.37,1.19,2.82,.87,4.82,2,6,3.4,1.4,1.59,2.31,3.4,2.75,5.42,.46,2,.69,4.4,.69,7.19v19.51h5.09v10.8h-39.24v-10.8h20.13v-18.9c0-4.65-2.37-6.97-7.12-6.97-2.99,0-6.58,.21-10.77,.61l-2.24,.22v-10.73c2.91-.63,7.7-.94,14.34-.94m0-6c-7.14,0-12.24,.35-15.6,1.07-2.77,.59-4.74,3.04-4.74,5.87v10.73c0,1.69,.71,3.31,1.97,4.44,1.11,1.01,2.55,1.56,4.03,1.56,.19,0,.39,0,.58-.03l2.24-.22c3.99-.39,7.41-.59,10.19-.59,.51,0,.84,.04,1.05,.09,.03,.18,.07,.47,.07,.89v12.9h-14.13c-3.31,0-6,2.69-6,6v10.8c0,3.31,2.69,6,6,6h39.24c3.31,0,6-2.69,6-6v-10.8c0-3.01-2.21-5.5-5.09-5.93v-13.58c0-3.26-.27-6.04-.83-8.49-.65-2.99-2.02-5.7-4.06-8.04-1.96-2.29-4.83-4-8.78-5.21-3.11-.98-7.09-1.46-12.13-1.46h0Z"/></g></g><g><g><path class="g" d="M61.28,142.82c-1.66,0-3-1.34-3-3v-46.14c0-1.48,1.08-2.74,2.54-2.96,5.86-.91,12.52-1.37,19.79-1.37,7.92,0,13.52,1.38,17.14,4.22,3.78,2.97,5.7,7.8,5.7,14.35v31.91c0,1.66-1.34,3-3,3H61.28Zm22.11-16.8v-18.54c0-.43-.08-.62-.1-.65-.5-.27-1.56-.64-3.93-.65l-1.06,.04v19.8h5.09Z"/><path class="d" d="M80.61,92.34c7.15,0,12.25,1.19,15.28,3.58,3.04,2.38,4.55,6.38,4.55,12v31.91H61.28v-46.14c5.73-.89,12.18-1.34,19.33-1.34m-5.31,36.67h11.09v-21.54c0-1.61-.6-2.73-1.79-3.36-1.19-.63-2.96-.94-5.29-.94l-4.01,.14v25.69m5.31-42.67c-7.42,0-14.24,.47-20.25,1.41-2.92,.45-5.08,2.97-5.08,5.93v46.14c0,3.31,2.69,6,6,6h39.17c3.31,0,6-2.69,6-6v-31.91c0-7.52-2.3-13.14-6.85-16.71-4.16-3.27-10.37-4.86-18.99-4.86h0Z"/></g><g><path class="g" d="M109.74,127.68c-1.66,0-3-1.34-3-3v-31.65c0-1.66,1.34-3,3-3h14.02c1.66,0,3,1.34,3,3v21.82c0,.68-.23,1.33-.65,1.86l-7.77,9.83c-.57,.72-1.44,1.14-2.35,1.14h-6.25Z"/><path class="d" d="M123.75,93.03v21.82l-7.77,9.83h-6.25v-31.65h14.02m0-6h-14.02c-3.31,0-6,2.69-6,6v31.65c0,3.31,2.69,6,6,6h6.25c1.84,0,3.57-.84,4.71-2.28l7.77-9.83c.84-1.06,1.29-2.37,1.29-3.72v-21.82c0-3.31-2.69-6-6-6h0Z"/></g><g><path class="g" d="M143.63,142.82c-.91,0-1.78-.42-2.35-1.13-.57-.71-.78-1.65-.58-2.54l4.08-17.89c.01-.06,.03-.13,.05-.19l4.24-14.25h-19.18c-1.66,0-3-1.34-3-3v-20.05c0-1.66,1.34-3,3-3h14.02c1.66,0,3,1.34,3,3v6.25h20.56c1.66,0,3,1.34,3,3v8.56c0,.29-.04,.57-.12,.85l-6.02,20.44c0,.06-.02,.12-.04,.19l-3.94,17.42c-.31,1.37-1.52,2.34-2.93,2.34h-13.8Z"/><path class="d" d="M143.92,83.78v9.25h23.56v8.56l-6.14,20.85,.04-.04-3.94,17.42h-13.8l4.08-17.89,5.38-18.1h-23.2v-20.05h14.02m17.45,38.63h0m-17.46-44.63h-14.02c-3.31,0-6,2.69-6,6v20.05c0,3.31,2.69,6,6,6h15.15l-3.09,10.39c-.04,.12-.07,.25-.1,.38l-4.08,17.89c-.41,1.78,.02,3.65,1.16,5.08,1.14,1.43,2.87,2.26,4.69,2.26h13.8c2.8,0,5.23-1.94,5.85-4.68l3.89-17.21c.03-.13,.06-.26,.09-.4l5.97-20.25c.16-.55,.24-1.12,.24-1.7v-8.56c0-3.31-2.69-6-6-6h-17.56v-3.25c0-3.31-2.69-6-6-6h0Z"/></g><g><path class="g" d="M175.33,143.55c-1.54,0-3.29-.27-5.35-.83-1.41-.38-2.34-1.73-2.2-3.18l1.19-12.39c.08-.85,.53-1.63,1.22-2.14,.52-.38,1.14-.57,1.76-.57,.22,0,.43,.02,.65,.07,1.42,.31,2.76,.47,3.98,.47,2,0,3.54-.43,4.71-1.32,.58-.44,1.36-1.31,1.36-3.66v-12.1c0-.81-.09-1.27-.16-1.51-1.86,.01-3.63,.25-5.33,.69l-.92,.25c-.26,.07-.52,.1-.78,.1-.65,0-1.3-.21-1.82-.62-.74-.57-1.18-1.45-1.18-2.38v-10.95c0-1.37,.93-2.57,2.26-2.91,3.26-.83,6.45-1.25,9.48-1.25s5.64,.29,7.78,.89c2.25,.63,4.02,1.46,5.43,2.53,1.47,1.13,2.63,2.6,3.46,4.39,.75,1.61,1.24,3.25,1.48,4.89,.21,1.49,.32,3.25,.32,5.23v32.59c0,1.66-1.34,3-3,3h-10.51c-1.29,0-2.43-.82-2.84-2.05l-.62-1.85c-.52,.52-1.04,1-1.56,1.41-1.02,.81-2.31,1.55-3.84,2.18-1.64,.68-3.31,1.02-4.96,1.02Z"/><path class="d" d="M184.2,92.31c2.79,0,5.12,.26,6.97,.78,1.85,.52,3.32,1.19,4.41,2.02,1.08,.83,1.94,1.92,2.57,3.27,.63,1.35,1.04,2.7,1.23,4.05,.19,1.35,.29,2.95,.29,4.81v32.59h-10.51l-2.2-6.58h-.61c-.29,.6-.84,1.39-1.66,2.35-.82,.96-1.63,1.76-2.42,2.4-.79,.64-1.83,1.22-3.11,1.75-1.28,.53-2.55,.79-3.81,.79s-2.79-.24-4.57-.72l1.19-12.39c1.64,.36,3.18,.54,4.62,.54,2.65,0,4.82-.64,6.52-1.93,1.7-1.29,2.55-3.31,2.55-6.05v-12.1c0-3.01-1-4.52-3-4.52-2.14,0-4.23,.27-6.25,.79l-.94,.25v-10.95c3.04-.77,5.95-1.16,8.74-1.16m0-6c-3.28,0-6.72,.45-10.22,1.34-2.66,.68-4.52,3.07-4.52,5.82v10.95c0,1.87,.87,3.63,2.35,4.76,1.06,.81,2.34,1.24,3.65,1.24,.52,0,1.05-.07,1.56-.21l.94-.25c.55-.14,1.11-.26,1.69-.35v10.39c0,.97-.19,1.29-.19,1.29-.61,.45-1.58,.69-2.88,.69-1,0-2.13-.13-3.33-.4-.43-.09-.86-.14-1.29-.14-1.26,0-2.49,.4-3.53,1.15-1.39,1.01-2.28,2.57-2.44,4.28l-1.19,12.39c-.28,2.91,1.58,5.6,4.41,6.37,2.32,.63,4.32,.93,6.14,.93,2.05,0,4.11-.42,6.11-1.25,1.17-.49,2.21-1.01,3.13-1.6,1.12,1.32,2.78,2.12,4.58,2.12h10.51c3.31,0,6-2.69,6-6v-32.59c0-2.16-.11-4-.35-5.65-.28-1.92-.86-3.85-1.73-5.72-1.04-2.23-2.5-4.08-4.36-5.51-1.72-1.32-3.82-2.31-6.45-3.04-2.41-.67-5.22-1-8.59-1h0Z"/></g><g><path class="g" d="M220.05,142.82c-.91,0-1.78-.42-2.35-1.13-.57-.71-.78-1.65-.58-2.54l4.08-17.89c.01-.06,.03-.13,.05-.19l4.24-14.25h-19.18c-1.66,0-3-1.34-3-3v-20.05c0-1.66,1.34-3,3-3h14.02c1.66,0,3,1.34,3,3v6.25h20.56c1.66,0,3,1.34,3,3v8.56c0,.29-.04,.57-.12,.85l-6.02,20.44c0,.06-.02,.12-.04,.19l-3.94,17.42c-.31,1.37-1.52,2.34-2.93,2.34h-13.8Z"/><path class="d" d="M220.34,83.78v9.25h23.56v8.56l-6.14,20.85,.04-.04-3.94,17.42h-13.8l4.08-17.89,5.38-18.1h-23.2v-20.05h14.02m17.45,38.63h0m-17.46-44.63h-14.02c-3.31,0-6,2.69-6,6v20.05c0,3.31,2.69,6,6,6h15.15l-3.09,10.39c-.04,.12-.07,.25-.1,.38l-4.08,17.89c-.41,1.78,.02,3.65,1.16,5.08,1.14,1.43,2.87,2.26,4.69,2.26h13.8c2.8,0,5.23-1.94,5.85-4.68l3.89-17.21c.03-.13,.06-.26,.09-.4l5.97-20.25c.16-.55,.24-1.12,.24-1.7v-8.56c0-3.31-2.69-6-6-6h-17.56v-3.25c0-3.31-2.69-6-6-6h0Z"/></g><g><path class="g" d="M251.76,143.55c-1.54,0-3.29-.27-5.35-.83-1.41-.38-2.34-1.73-2.2-3.18l1.19-12.39c.08-.85,.53-1.63,1.22-2.14,.52-.38,1.14-.57,1.76-.57,.22,0,.43,.02,.65,.07,1.42,.31,2.76,.47,3.98,.47,2,0,3.54-.43,4.71-1.32,.58-.44,1.36-1.31,1.36-3.66v-12.1c0-.81-.09-1.27-.16-1.51-1.86,.01-3.63,.25-5.33,.69l-.92,.25c-.26,.07-.52,.1-.78,.1-.65,0-1.3-.21-1.82-.62-.74-.57-1.18-1.45-1.18-2.38v-10.95c0-1.37,.93-2.57,2.26-2.91,3.26-.83,6.45-1.25,9.48-1.25s5.64,.29,7.78,.89c2.25,.63,4.02,1.46,5.43,2.53,1.47,1.13,2.63,2.6,3.46,4.39,.75,1.61,1.24,3.25,1.48,4.89,.21,1.49,.32,3.25,.32,5.23v32.59c0,1.66-1.34,3-3,3h-10.51c-1.29,0-2.43-.82-2.84-2.05l-.62-1.85c-.52,.52-1.04,1-1.56,1.41-1.02,.81-2.31,1.55-3.84,2.18-1.64,.68-3.31,1.02-4.96,1.02Z"/><path class="d" d="M260.63,92.31c2.79,0,5.12,.26,6.97,.78,1.85,.52,3.32,1.19,4.41,2.02,1.08,.83,1.94,1.92,2.57,3.27,.63,1.35,1.04,2.7,1.23,4.05,.19,1.35,.29,2.95,.29,4.81v32.59h-10.51l-2.2-6.58h-.61c-.29,.6-.84,1.39-1.66,2.35-.82,.96-1.63,1.76-2.42,2.4-.79,.64-1.83,1.22-3.11,1.75-1.28,.53-2.55,.79-3.81,.79s-2.79-.24-4.57-.72l1.19-12.39c1.64,.36,3.18,.54,4.62,.54,2.65,0,4.82-.64,6.52-1.93,1.7-1.29,2.55-3.31,2.55-6.05v-12.1c0-3.01-1-4.52-3-4.52-2.14,0-4.23,.27-6.25,.79l-.94,.25v-10.95c3.04-.77,5.95-1.16,8.74-1.16m0-6c-3.28,0-6.72,.45-10.22,1.34-2.66,.68-4.52,3.07-4.52,5.82v10.95c0,1.87,.87,3.63,2.35,4.76,1.06,.81,2.34,1.24,3.65,1.24,.52,0,1.05-.07,1.56-.21l.94-.25c.55-.14,1.11-.26,1.69-.35v10.39c0,.97-.19,1.29-.19,1.29-.61,.45-1.58,.69-2.88,.69-1,0-2.13-.13-3.33-.4-.43-.09-.86-.14-1.29-.14-1.26,0-2.49,.4-3.53,1.15-1.39,1.01-2.28,2.57-2.44,4.28l-1.19,12.39c-.28,2.91,1.58,5.6,4.41,6.37,2.32,.63,4.32,.93,6.14,.93,2.05,0,4.11-.42,6.11-1.25,1.17-.49,2.21-1.01,3.13-1.6,1.12,1.32,2.78,2.12,4.58,2.12h10.51c3.31,0,6-2.69,6-6v-32.59c0-2.16-.11-4-.35-5.65-.28-1.92-.86-3.85-1.73-5.72-1.04-2.23-2.5-4.08-4.36-5.51-1.72-1.32-3.82-2.31-6.45-3.04-2.41-.67-5.22-1-8.59-1h0Z"/></g></g><g><g><path class="g" d="M47.88,219.86c-1.66,0-3-1.34-3-3v-46.76c0-2.83-.19-5.64-.57-8.35-.37-2.68-.75-4.65-1.11-5.85l-.62-2.07c-.27-.91-.1-1.89,.47-2.65,.57-.76,1.46-1.21,2.41-1.21h14.06c1.26,0,2.39,.79,2.82,1.98,.22,.62,.47,1.44,.76,2.52,.3,1.11,.67,3.17,1.14,6.3,.47,3.12,.7,6.26,.7,9.33v46.76c0,1.66-1.34,3-3,3h-14.06Z"/><path class="d" d="M59.51,152.98c.19,.53,.42,1.29,.69,2.28,.26,.99,.62,2.98,1.07,5.96,.45,2.99,.67,5.95,.67,8.89v46.76h-14.06v-46.76c0-2.99-.2-5.91-.6-8.76-.4-2.85-.8-4.96-1.21-6.3l-.61-2.06h14.06m0-6h-14.06c-1.89,0-3.68,.9-4.81,2.41-1.13,1.52-1.48,3.48-.94,5.3l.61,2.06c.19,.62,.56,2.1,1.02,5.42,.36,2.57,.54,5.24,.54,7.93v46.76c0,3.31,2.69,6,6,6h14.06c3.31,0,6-2.69,6-6v-46.76c0-3.22-.25-6.51-.73-9.77-.64-4.32-1-5.85-1.2-6.63-.31-1.17-.59-2.07-.84-2.77-.86-2.37-3.12-3.95-5.64-3.95h0Z"/></g><g><rect class="g" x="68.69" y="149.98" width="20.02" height="52.79" rx="3" ry="3"/><path class="d" d="M85.71,152.98v46.79h-14.02v-46.79h14.02m0-6h-14.02c-3.31,0-6,2.69-6,6v46.79c0,3.31,2.69,6,6,6h14.02c3.31,0,6-2.69,6-6v-46.79c0-3.31-2.69-6-6-6h0Z"/></g><g><path class="g" d="M107.71,203.49c-6.58,0-11.58-.34-15.29-1.03-1.42-.26-2.45-1.5-2.45-2.95v-10.95c0-.86,.37-1.67,1-2.24,.55-.49,1.26-.76,2-.76,.11,0,.23,0,.35,.02,3.6,.42,8,.63,13.06,.63,2.21,0,2.71-.82,2.93-1.18,.77-1.26,1.15-3.18,1.15-5.69v-6c0-1.13-.05-2.09-.14-2.85-.08-.65-.25-1.35-.52-2.06-.19-.51-.42-.9-.69-1.16-.77-.72-2.31-1.12-4.43-1.12-3.02,0-6.29,.15-9.71,.46l-1.69,.18c-.1,.01-.21,.02-.31,.02-.74,0-1.45-.27-2.01-.77-.63-.57-.99-1.38-.99-2.23v-10.98c0-1.55,1.18-2.84,2.72-2.99,4.18-.39,9.23-.59,15.02-.59,3.3,0,6.31,.46,8.94,1.35,2.7,.92,4.96,2.19,6.71,3.77,1.73,1.56,3.17,3.47,4.27,5.67,1.89,3.75,2.85,8.25,2.85,13.37v5.93c0,2.46-.16,4.74-.49,6.78-.34,2.15-1.01,4.33-1.99,6.46-1.03,2.27-2.43,4.21-4.15,5.77-1.72,1.56-4.01,2.83-6.79,3.76-2.69,.91-5.84,1.37-9.36,1.37Z"/><path class="d" d="M107.71,152.25c2.99,0,5.64,.4,7.97,1.19,2.32,.79,4.22,1.85,5.67,3.16,1.46,1.31,2.66,2.91,3.6,4.79,1.69,3.35,2.53,7.36,2.53,12.03v5.93c0,2.31-.15,4.41-.45,6.31-.3,1.89-.89,3.79-1.75,5.69-.87,1.9-2.01,3.5-3.43,4.79-1.42,1.29-3.33,2.34-5.73,3.14-2.4,.81-5.2,1.21-8.4,1.21-6.34,0-11.25-.33-14.74-.98v-10.95c3.73,.43,8.2,.65,13.41,.65,2.6,0,4.43-.87,5.49-2.62,1.06-1.75,1.59-4.16,1.59-7.25v-6c0-1.25-.05-2.32-.16-3.22-.11-.89-.34-1.81-.69-2.75-.35-.94-.83-1.7-1.43-2.28-1.4-1.3-3.57-1.95-6.5-1.95-3.13,0-6.46,.16-9.97,.47l-1.73,.18v-10.98c4.09-.38,9.01-.58,14.74-.58m0-6c-5.89,0-11.04,.2-15.3,.6-3.08,.29-5.44,2.88-5.44,5.97v10.98c0,1.7,.72,3.32,1.98,4.46,1.11,1,2.54,1.54,4.02,1.54,.21,0,.41-.01,.62-.03l1.69-.18c3.32-.29,6.48-.44,9.4-.44,1.26,0,1.99,.18,2.3,.3v.02c.19,.49,.31,.96,.36,1.38,.08,.65,.12,1.49,.12,2.49v6c0,2.14-.33,3.29-.57,3.84-.12,.02-.29,.03-.51,.03-4.95,0-9.23-.21-12.71-.61-.23-.03-.46-.04-.69-.04-1.46,0-2.89,.54-3.99,1.52-1.28,1.14-2.01,2.77-2.01,4.48v10.95c0,2.89,2.06,5.37,4.9,5.9,3.89,.72,9.07,1.08,15.84,1.08,3.84,0,7.31-.51,10.32-1.52,3.17-1.07,5.81-2.54,7.84-4.38,2.03-1.84,3.66-4.11,4.86-6.75,1.09-2.38,1.83-4.82,2.22-7.23,.35-2.2,.53-4.64,.53-7.25v-5.93c0-5.6-1.07-10.55-3.17-14.73-1.26-2.53-2.93-4.74-4.94-6.55-2.05-1.85-4.66-3.33-7.75-4.38-2.94-1.01-6.27-1.52-9.91-1.52h0Z"/></g><g><path class="g" d="M133.08,202.77c-1.66,0-3-1.34-3-3v-10.8c0-1.66,1.34-3,3-3h8.36c.01-.27,.02-.55,.02-.83v-17.27c0-.62-.1-1.12-.3-1.51-.04,0-.1,0-.17,0-1.42,0-2.93,.11-4.5,.33l-1.01,.12c-.11,.01-.23,.02-.34,.02-.73,0-1.44-.27-2-.76-.64-.57-1-1.38-1-2.24v-10.98c0-1.43,1.01-2.66,2.41-2.94,2.14-.43,4.74-.64,7.92-.64s5.92,.31,8.03,.96c2.19,.67,4.01,1.61,5.42,2.79,1.42,1.19,2.58,2.67,3.45,4.41,.81,1.63,1.38,3.34,1.68,5.07,.28,1.62,.42,3.43,.42,5.37v17.27c0,2.37-.15,4.85-.43,7.4-.29,2.56-.57,4.48-.85,5.88l-.4,1.95c-.28,1.4-1.51,2.4-2.94,2.4h-23.78Z"/><path class="d" d="M142.47,152.25c2.96,0,5.35,.28,7.15,.83,1.81,.55,3.26,1.29,4.37,2.22,1.11,.93,2.01,2.08,2.69,3.45,.69,1.37,1.16,2.79,1.41,4.25,.25,1.46,.38,3.08,.38,4.86v17.27c0,2.26-.14,4.62-.42,7.06-.28,2.45-.55,4.32-.81,5.62l-.4,1.95h-23.78v-10.8h10.95c.29-1.18,.43-2.46,.43-3.83v-17.27c0-1.25-.27-2.32-.81-3.2-.54-.88-1.43-1.32-2.66-1.32-1.57,0-3.2,.12-4.91,.36l-.94,.11v-10.98c1.93-.38,4.37-.58,7.33-.58m0-6c-3.39,0-6.17,.23-8.51,.69-2.81,.56-4.82,3.02-4.82,5.88v10.98c0,1.71,.73,3.34,2.01,4.48,1.1,.98,2.53,1.52,3.99,1.52,.23,0,.46-.01,.69-.04l.94-.11s.1-.01,.15-.02c.52-.07,1.04-.13,1.55-.18v13.5h-5.38c-3.31,0-6,2.69-6,6v10.8c0,3.31,2.69,6,6,6h23.78c2.85,0,5.31-2.01,5.88-4.8l.4-1.95c.3-1.49,.6-3.5,.9-6.14,.3-2.66,.45-5.26,.45-7.74v-17.27c0-2.12-.16-4.1-.47-5.89-.35-2.03-1.01-4.01-1.95-5.9-1.05-2.11-2.47-3.91-4.21-5.37-1.72-1.44-3.89-2.57-6.46-3.36-2.41-.74-5.32-1.1-8.92-1.1h0Z"/></g></g></g><path class="f" d="M302.02,11.82c-.35,16.05-13.25,28.44-29.25,28.1-15.71-.34-28.16-13.5-27.73-29.33,.42-15.54,13.37-27.97,28.83-27.66,15.94,.32,28.49,13.2,28.15,28.9Zm-22.16-.41c-.03-3.34-2.95-6.27-6.28-6.28-3.54-.02-6.44,2.93-6.33,6.44,.11,3.41,3.01,6.22,6.36,6.16,3.33-.06,6.27-3.04,6.25-6.32Zm3.33-1.97c5.02-1.09,5.93-3.1,3.01-6.64-4.99,4.22-4.91,4.05-3.01,6.64Zm3.44,10.89c.46-1.44,1.64-3.27,1.16-3.96-1.04-1.49-2.92-2.38-4.59-3.61-1.59,3.74-1.44,4.03,3.42,7.57Zm-21.76,3.85c3.67,2.73,5.7,1.77,6.69-3.17-3.04-1.59-3.48-1.37-6.69,3.17Zm17.27-.07c-3.39-4.62-3.71-4.77-6.68-3.09,1.15,5.12,3.16,6.05,6.68,3.09ZM264.63-1.13c1.54,1.51,2.93,2.87,4.38,4.28,.95-.43,1.85-.84,2.72-1.24-1.5-5.25-3.27-6.04-7.09-3.04Zm-.78,10.56c1.77-2.9,1.47-3.56-3.09-6.59-2.76,3.7-1.91,5.51,3.09,6.59Zm.06,3.86c-5.23,1.6-5.91,3.1-3.16,6.7,4.44-2.93,4.78-3.61,3.16-6.7ZM282.79-.72c-3.72-3.18-5.65-2.73-7.04,1.01-.21,.56-.1,1.74,.2,1.88,.81,.36,2.03,.71,2.69,.34,1.5-.83,2.75-2.1,4.16-3.23Zm-1.42,18c-1.84,1.01-2.14,1.87-.78,2.99,.65,.53,1.12,1.31,1.82,1.73,.6,.36,1.41,.35,2.13,.51-.11-.7,0-1.55-.36-2.07-.79-1.13-1.83-2.09-2.8-3.16Zm-23.19-2.54c1.71-1.3,2.96-2.25,4.49-3.41-1.64-1.12-2.89-1.97-4.49-3.07v6.48Zm12.66-18.73l-.37,.65c1.03,1.11,2.06,2.21,3.08,3.32,1.04-1.17,2.07-2.33,3.53-3.97h-6.25Zm17.96,18.62v-6.55c-1.68,1.34-2.89,2.31-4.32,3.45,1.54,1.11,2.71,1.95,4.32,3.11Zm-15.32,7.66c-1.13,1.61-2.04,2.89-3.09,4.39h6.4c-1.25-1.66-2.16-2.87-3.31-4.39ZM262.41,.38l-.66,1.2c1.39,1.21,2.78,2.42,4.31,3.75,.46-.43,.97-.89,1.73-1.59-2.04-1.05-2.61-4.29-5.38-3.36Zm16.56,3.1c1.02,.95,1.83,1.78,1.87,1.75,1.43-1.27,2.8-2.6,4.11-3.99,.09-.09-.34-.97-.67-1.08-.41-.14-1.06,0-1.43,.26-1.29,.92-2.5,1.95-3.88,3.06Zm-11.47,15.19c-2.6-2.51-3.26,.83-4.58,1.68-1.41,.9-1.16,1.96,.94,2.75,1.06-1.28,2.24-2.71,3.65-4.42Z"/><path class="f" d="M255.61,176.5c-1.83,9.7-11.06,15.95-20.82,14.1-9.39-1.78-15.69-11.09-13.92-20.56,1.8-9.62,11.06-15.94,20.68-14.13,9.53,1.8,15.86,11.06,14.06,20.59Zm-12.64-2.34c.52-2.54-1.2-5.09-3.78-5.61-2.6-.53-5.17,1.19-5.68,3.78-.51,2.57,1.18,5.11,3.74,5.65,2.63,.55,5.18-1.15,5.72-3.82Zm-6.5,9.08c1.04,0,2.07,.03,3.09-.04,.74-.05,.84-.34,.46-.96-1.46-2.44-4.22-2.97-6.49-1.26-.68,.51-.68,.83,.12,1.2,.91,.41,1.86,.71,2.82,1.07Zm11.51-7.54c.29-1.42,.07-1.61-1.07-1.23-2.54,.85-3.64,2.99-2.84,5.55,.29,.94,.55,1.03,1.23,.35,1.39-1.37,2.25-3.04,2.68-4.67Zm-16.44-.19c.19-1.76-.75-3.67-2.3-4.51-.52-.29-.77-.07-.86,.44-.37,2.17-.09,4.25,.87,6.23,.27,.56,.66,.57,.98,.07,.47-.72,.88-1.48,1.31-2.23Zm14.21-5.76c.16,.01,.52,.06,.88,.06,.79-.02,.95-.25,.61-.94-.94-1.92-2.37-3.4-4.25-4.42-.61-.33-.83-.19-.92,.49-.29,2.38,1.14,4.34,3.67,4.81Zm-13.25-2.28c2.42,.34,4.46-.96,5.04-3.31,.18-.74,.06-.91-.69-.82-1.78,.22-3.37,.93-4.77,2.03-.42,.33-.72,.82-1.07,1.24l1.49,.86Zm7.98-2.4c.19-1.03,0-1.61-.5-1.6-.78,0-.83,.67-.92,1.21-.1,.58-.22,1.39,.47,1.52,.71,.13,.79-.71,.95-1.13Zm.91,14.56c-.09,.15-.37,.41-.31,.58,.21,.66,.45,1.33,.82,1.91,.23,.36,.83,.17,.99-.24,.24-.61-.64-2.14-1.5-2.25Zm-8.25-.78c.13-.67-.16-1-.64-.74-.59,.33-1.08,.87-1.56,1.37-.09,.1,0,.5,.14,.66,.11,.13,.44,.2,.61,.13,.72-.28,1.24-.79,1.45-1.42Zm12.94-5.91c.55-.11,1.09-.16,1.57-.35,.21-.08,.46-.47,.42-.67-.05-.22-.39-.52-.61-.54-.5-.03-1.03,.03-1.49,.21-.28,.1-.45,.48-.67,.74l.79,.61Zm-15.1-2.76l.99-.28c-.13-.33-.18-.76-.42-.98-.32-.3-.77-.53-1.2-.65-.25-.06-.67,.09-.83,.29-.11,.13,.02,.61,.19,.78,.35,.32,.8,.53,1.28,.84Z"/><g><g><g><rect class="g" x="129.39" y="29.66" width="17.02" height="49.79" rx="1.5" ry="1.5"/><path class="d" d="M144.91,31.16v46.79h-14.02V31.16h14.02m0-3h-14.02c-1.66,0-3,1.34-3,3v46.79c0,1.66,1.34,3,3,3h14.02c1.66,0,3-1.34,3-3V31.16c0-1.66-1.34-3-3-3h0Z"/></g><g><path class="g" d="M171.72,79.46c-.83,0-1.5-.67-1.5-1.5v-29.7c0-3.84-1.67-5.47-5.58-5.47-3.49,0-7.82,.26-12.85,.79-.05,0-.1,0-.15,0-.37,0-.73-.14-1-.39-.32-.28-.5-.69-.5-1.11v-10.88c0-.77,.58-1.41,1.35-1.49,4.94-.51,9.36-.77,13.14-.77s6.86,.19,9.07,.56c2.28,.39,4.24,1.01,5.81,1.86,1.56,.84,2.88,1.81,3.91,2.88,1.08,1.12,1.91,2.51,2.47,4.15,.53,1.53,.89,3.07,1.08,4.6,.19,1.49,.28,3.26,.28,5.26v29.7c0,.83-.67,1.5-1.5,1.5h-14.02Z"/><path class="d" d="M164.62,30.44c3.75,0,6.68,.18,8.82,.54,2.13,.36,3.91,.93,5.35,1.7,1.43,.77,2.61,1.64,3.54,2.6,.93,.96,1.64,2.16,2.13,3.59,.49,1.43,.83,2.87,1.01,4.3,.18,1.43,.27,3.12,.27,5.08v29.7h-14.02v-29.7c0-4.65-2.36-6.97-7.08-6.97-3.57,0-7.9,.27-13.01,.79v-10.88c4.91-.51,9.24-.76,12.99-.76m0-3c-3.83,0-8.3,.26-13.3,.77-1.53,.16-2.69,1.45-2.69,2.98v10.88c0,.85,.36,1.66,.99,2.23,.55,.5,1.27,.77,2.01,.77,.1,0,.21,0,.31-.02,4.99-.52,9.26-.78,12.7-.78,3.05,0,4.08,1,4.08,3.97v29.7c0,1.66,1.34,3,3,3h14.02c1.66,0,3-1.34,3-3v-29.7c0-2.07-.1-3.9-.29-5.45-.21-1.63-.59-3.28-1.15-4.9-.64-1.84-1.58-3.42-2.81-4.7-1.14-1.18-2.58-2.25-4.28-3.16-1.72-.92-3.83-1.6-6.27-2.01-2.32-.39-5.37-.58-9.32-.58h0Z"/></g><g><path class="g" d="M220.46,79.46c-.83,0-1.5-.67-1.5-1.5v-29.7c0-3.84-1.67-5.47-5.58-5.47-.8,0-1.64,.02-2.51,.05v35.13c0,.83-.67,1.5-1.5,1.5h-14.02c-.83,0-1.5-.67-1.5-1.5V31.81c0-.74,.54-1.37,1.26-1.48,5.79-.92,12.39-1.39,19.64-1.39,6.05,0,10.46,.75,13.48,2.3,1.57,.79,2.9,1.72,3.94,2.77,1.08,1.1,1.92,2.48,2.48,4.1,.53,1.52,.89,3.09,1.08,4.67,.19,1.53,.28,3.38,.28,5.47v29.7c0,.83-.67,1.5-1.5,1.5h-14.06Z"/><path class="d" d="M214.76,30.44c5.76,0,10.02,.71,12.79,2.13,1.45,.72,2.63,1.55,3.56,2.49,.93,.94,1.64,2.12,2.13,3.54,.49,1.42,.83,2.87,1.01,4.35,.18,1.48,.27,3.25,.27,5.29v29.7h-14.06v-29.7c0-4.65-2.36-6.97-7.08-6.97-1.25,0-2.59,.04-4.01,.11v36.57h-14.02V31.81c5.73-.92,12.2-1.37,19.4-1.37m0-3c-7.32,0-14.01,.47-19.88,1.41-1.46,.23-2.53,1.49-2.53,2.96v46.14c0,1.66,1.34,3,3,3h14.02c1.66,0,3-1.34,3-3V44.29c.34,0,.68,0,1.01,0,3.05,0,4.08,1,4.08,3.97v29.7c0,1.66,1.34,3,3,3h14.06c1.66,0,3-1.34,3-3v-29.7c0-2.16-.1-4.06-.29-5.66-.21-1.68-.59-3.36-1.16-4.98-.64-1.84-1.59-3.41-2.83-4.66-1.16-1.17-2.62-2.2-4.35-3.07-3.2-1.64-7.84-2.45-14.13-2.45h0Z"/></g><g><path class="g" d="M242.18,79.46c-.83,0-1.5-.67-1.5-1.5v-10.8c0-.83,.67-1.5,1.5-1.5h18.63v-17.4c0-3.84-1.68-5.47-5.62-5.47-2.92,0-6.5,.2-10.62,.61l-2.24,.22s-.1,0-.14,0c-.37,0-.73-.14-1.01-.39-.31-.28-.49-.69-.49-1.11v-10.73c0-.71,.49-1.32,1.19-1.47,3.05-.65,7.84-.97,14.66-.97,4.52,0,8.16,.42,10.82,1.26,3.12,.96,5.31,2.22,6.69,3.86,1.54,1.76,2.58,3.81,3.07,6.07,.48,2.08,.72,4.61,.72,7.5v18.01h3.59c.83,0,1.5,.67,1.5,1.5v10.8c0,.83-.67,1.5-1.5,1.5h-39.24Z"/><path class="d" d="M256.52,30.44c4.38,0,7.84,.4,10.37,1.19,2.82,.87,4.82,2,6,3.4,1.4,1.59,2.31,3.4,2.75,5.42,.46,2,.69,4.4,.69,7.19v19.51h5.09v10.8h-39.24v-10.8h20.13v-18.9c0-4.65-2.37-6.97-7.12-6.97-2.99,0-6.58,.21-10.77,.61l-2.24,.22v-10.73c2.91-.63,7.7-.94,14.34-.94m0-3c-6.92,0-11.82,.33-14.97,1.01-1.38,.3-2.37,1.52-2.37,2.93v10.73c0,.85,.36,1.65,.98,2.22,.55,.5,1.27,.78,2.02,.78,.1,0,.19,0,.29-.01l2.24-.22c4.08-.4,7.61-.6,10.48-.6,3.08,0,4.12,1,4.12,3.97v15.9h-17.13c-1.66,0-3,1.34-3,3v10.8c0,1.66,1.34,3,3,3h39.24c1.66,0,3-1.34,3-3v-10.8c0-1.66-1.34-3-3-3h-2.09v-16.51c0-3-.26-5.65-.76-7.86-.53-2.47-1.68-4.74-3.4-6.71-1.58-1.85-3.99-3.26-7.39-4.3-2.83-.89-6.52-1.33-11.25-1.33h0Z"/></g></g><g><g><path class="g" d="M61.28,141.32c-.83,0-1.5-.67-1.5-1.5v-46.14c0-.74,.54-1.37,1.27-1.48,5.79-.9,12.37-1.35,19.56-1.35,7.57,0,12.87,1.27,16.21,3.9,3.4,2.67,5.13,7.11,5.13,13.18v31.91c0,.83-.67,1.5-1.5,1.5H61.28Zm23.61-13.8v-20.04c0-1.34-.53-1.79-.99-2.03-.66-.35-2-.76-4.57-.77l-2.54,.09v22.74h8.09Z"/><path class="d" d="M80.61,92.34c7.15,0,12.25,1.19,15.28,3.58s4.55,6.38,4.55,12v31.91H61.28v-46.14c5.73-.89,12.18-1.34,19.33-1.34m-5.31,36.67h11.09v-21.54c0-1.61-.6-2.73-1.79-3.36-1.19-.63-2.96-.94-5.29-.94l-4.01,.14v25.69m5.31-39.67c-7.27,0-13.93,.46-19.79,1.37-1.46,.23-2.54,1.49-2.54,2.96v46.14c0,1.66,1.34,3,3,3h39.17c1.66,0,3-1.34,3-3v-31.91c0-6.55-1.92-11.38-5.7-14.36-3.61-2.84-9.22-4.22-17.14-4.22h0Zm-2.31,16.88l1.06-.04c2.37,0,3.43,.37,3.85,.6,.06,.03,.08,.05,.08,.05,.02,.03,.1,.22,.1,.65v18.54h-5.09v-19.8h0Z"/></g><g><path class="g" d="M109.74,126.18c-.83,0-1.5-.67-1.5-1.5v-31.65c0-.83,.67-1.5,1.5-1.5h14.02c.83,0,1.5,.67,1.5,1.5v21.82c0,.34-.11,.67-.32,.93l-7.77,9.83c-.28,.36-.72,.57-1.18,.57h-6.25Z"/><path class="d" d="M123.75,93.03v21.82l-7.77,9.83h-6.25v-31.65h14.02m0-3h-14.02c-1.66,0-3,1.34-3,3v31.65c0,1.66,1.34,3,3,3h6.25c.92,0,1.78-.42,2.35-1.14l7.77-9.83c.42-.53,.65-1.19,.65-1.86v-21.82c0-1.66-1.34-3-3-3h0Z"/></g><g><path class="g" d="M143.63,141.32c-.46,0-.89-.21-1.17-.56s-.39-.82-.29-1.27l4.08-17.89,4.84-16.27h-21.19c-.83,0-1.5-.67-1.5-1.5v-20.05c0-.83,.67-1.5,1.5-1.5h14.02c.83,0,1.5,.67,1.5,1.5v7.75h22.06c.83,0,1.5,.67,1.5,1.5v8.56c0,.14-.02,.29-.06,.42l-6.05,20.55c0,.06-.02,.11-.03,.17l-3.94,17.42c-.15,.68-.76,1.17-1.46,1.17h-13.8Z"/><path class="d" d="M143.92,83.78v9.25h23.56v8.56l-6.14,20.85,.04-.04-3.94,17.42h-13.8l4.08-17.89,5.38-18.1h-23.2v-20.05h14.02m17.45,38.63h0m-17.46-41.63h-14.02c-1.66,0-3,1.34-3,3v20.05c0,1.66,1.34,3,3,3h19.18l-4.24,14.25c-.02,.06-.03,.12-.05,.19l-4.08,17.89c-.2,.89,0,1.82,.58,2.54,.57,.71,1.43,1.13,2.35,1.13h13.8c1.4,0,2.62-.97,2.93-2.34l3.91-17.29c.03-.11,.05-.22,.07-.34l6.02-20.42c.08-.28,.12-.56,.12-.85v-8.56c0-1.66-1.34-3-3-3h-20.56v-6.25c0-1.66-1.34-3-3-3h0Z"/></g><g><path class="g" d="M175.33,142.05c-1.39,0-3.06-.26-4.96-.77-.71-.19-1.17-.86-1.1-1.59l1.19-12.39c.04-.43,.26-.82,.61-1.07,.26-.19,.57-.29,.88-.29,.11,0,.22,.01,.32,.04,1.52,.34,2.97,.51,4.3,.51,2.3,0,4.19-.55,5.62-1.63,1.31-1,1.95-2.59,1.95-4.86v-12.1c0-3.02-1.01-3.02-1.5-3.02-2,0-3.98,.25-5.87,.75l-.93,.25c-.13,.03-.26,.05-.39,.05-.33,0-.65-.11-.91-.31-.37-.28-.59-.72-.59-1.19v-10.95c0-.69,.47-1.29,1.13-1.45,3.14-.8,6.21-1.2,9.11-1.2s5.4,.28,7.38,.83c2.03,.57,3.69,1.33,4.92,2.28,1.27,.98,2.29,2.27,3.01,3.83,.69,1.48,1.14,2.98,1.35,4.47,.2,1.42,.3,3.1,.3,5.02v32.59c0,.83-.67,1.5-1.5,1.5h-10.51c-.64,0-1.22-.41-1.42-1.02l-1.44-4.3c-.15,.18-.31,.37-.47,.57-.88,1.03-1.76,1.91-2.62,2.6-.9,.73-2.07,1.39-3.47,1.97-1.46,.6-2.93,.91-4.39,.91Z"/><path class="d" d="M184.2,92.31c2.79,0,5.12,.26,6.97,.78,1.85,.52,3.32,1.19,4.41,2.02,1.08,.83,1.94,1.92,2.57,3.27,.63,1.35,1.04,2.7,1.23,4.05,.19,1.35,.29,2.95,.29,4.81v32.59h-10.51l-2.2-6.58h-.61c-.29,.6-.84,1.39-1.66,2.35-.82,.96-1.63,1.76-2.42,2.4-.79,.64-1.83,1.22-3.11,1.75-1.28,.53-2.55,.79-3.81,.79s-2.79-.24-4.57-.72l1.19-12.39c1.64,.36,3.18,.54,4.62,.54,2.65,0,4.82-.64,6.52-1.93,1.7-1.29,2.55-3.31,2.55-6.05v-12.1c0-3.01-1-4.52-3-4.52-2.14,0-4.23,.27-6.25,.79l-.94,.25v-10.95c3.04-.77,5.95-1.16,8.74-1.16m0-3c-3.03,0-6.22,.42-9.48,1.25-1.33,.34-2.26,1.54-2.26,2.91v10.95c0,.93,.43,1.81,1.18,2.38,.53,.41,1.17,.62,1.82,.62,.26,0,.52-.03,.78-.1l.94-.25c1.7-.44,3.49-.68,5.3-.69,.07,.24,.17,.7,.17,1.52v12.1c0,2.36-.78,3.22-1.36,3.66-1.17,.89-2.71,1.32-4.71,1.32-1.22,0-2.56-.16-3.98-.47-.21-.05-.43-.07-.65-.07-.63,0-1.25,.2-1.76,.57-.69,.51-1.14,1.28-1.22,2.14l-1.19,12.39c-.14,1.46,.79,2.8,2.2,3.18,2.06,.56,3.81,.83,5.35,.83,1.65,0,3.32-.34,4.96-1.02,1.53-.63,2.82-1.37,3.84-2.18,.52-.42,1.04-.89,1.56-1.41l.62,1.85c.41,1.22,1.56,2.05,2.84,2.05h10.51c1.66,0,3-1.34,3-3v-32.59c0-1.98-.11-3.74-.32-5.23-.23-1.63-.73-3.28-1.48-4.89-.83-1.79-1.99-3.26-3.46-4.39-1.41-1.08-3.18-1.9-5.43-2.53-2.14-.6-4.68-.89-7.78-.89h0Z"/></g><g><path class="g" d="M220.05,141.32c-.46,0-.89-.21-1.17-.56s-.39-.82-.29-1.27l4.08-17.89,4.84-16.27h-21.19c-.83,0-1.5-.67-1.5-1.5v-20.05c0-.83,.67-1.5,1.5-1.5h14.02c.83,0,1.5,.67,1.5,1.5v7.75h22.06c.83,0,1.5,.67,1.5,1.5v8.56c0,.14-.02,.29-.06,.42l-6.05,20.55c0,.06-.02,.11-.03,.17l-3.94,17.42c-.15,.68-.76,1.17-1.46,1.17h-13.8Z"/><path class="d" d="M220.34,83.78v9.25h23.56v8.56l-6.14,20.85,.04-.04-3.94,17.42h-13.8l4.08-17.89,5.38-18.1h-23.2v-20.05h14.02m17.45,38.63h0m-17.46-41.63h-14.02c-1.66,0-3,1.34-3,3v20.05c0,1.66,1.34,3,3,3h19.18l-4.24,14.25c-.02,.06-.03,.12-.05,.19l-4.08,17.89c-.2,.89,0,1.82,.58,2.54,.57,.71,1.43,1.13,2.35,1.13h13.8c1.4,0,2.62-.97,2.93-2.34l3.91-17.29c.03-.11,.05-.22,.07-.34l6.02-20.42c.08-.28,.12-.56,.12-.85v-8.56c0-1.66-1.34-3-3-3h-20.56v-6.25c0-1.66-1.34-3-3-3h0Z"/></g><g><path class="g" d="M251.76,142.05c-1.39,0-3.06-.26-4.96-.77-.71-.19-1.17-.86-1.1-1.59l1.19-12.39c.04-.43,.26-.82,.61-1.07,.26-.19,.57-.29,.88-.29,.11,0,.22,.01,.32,.04,1.52,.34,2.97,.51,4.3,.51,2.3,0,4.19-.55,5.62-1.63,1.31-1,1.95-2.59,1.95-4.86v-12.1c0-3.02-1.01-3.02-1.5-3.02-2,0-3.98,.25-5.87,.75l-.93,.25c-.13,.03-.26,.05-.39,.05-.33,0-.65-.11-.91-.31-.37-.28-.59-.72-.59-1.19v-10.95c0-.69,.47-1.29,1.13-1.45,3.14-.8,6.21-1.2,9.11-1.2s5.4,.28,7.38,.83c2.03,.57,3.69,1.33,4.92,2.28,1.27,.98,2.29,2.27,3.01,3.83,.69,1.48,1.14,2.98,1.35,4.47,.2,1.42,.3,3.1,.3,5.02v32.59c0,.83-.67,1.5-1.5,1.5h-10.51c-.64,0-1.22-.41-1.42-1.02l-1.44-4.3c-.15,.18-.31,.37-.47,.57-.88,1.03-1.76,1.91-2.62,2.6-.9,.73-2.07,1.39-3.47,1.97-1.46,.6-2.93,.91-4.39,.91Z"/><path class="d" d="M260.63,92.31c2.79,0,5.12,.26,6.97,.78,1.85,.52,3.32,1.19,4.41,2.02,1.08,.83,1.94,1.92,2.57,3.27,.63,1.35,1.04,2.7,1.23,4.05,.19,1.35,.29,2.95,.29,4.81v32.59h-10.51l-2.2-6.58h-.61c-.29,.6-.84,1.39-1.66,2.35-.82,.96-1.63,1.76-2.42,2.4-.79,.64-1.83,1.22-3.11,1.75-1.28,.53-2.55,.79-3.81,.79s-2.79-.24-4.57-.72l1.19-12.39c1.64,.36,3.18,.54,4.62,.54,2.65,0,4.82-.64,6.52-1.93,1.7-1.29,2.55-3.31,2.55-6.05v-12.1c0-3.01-1-4.52-3-4.52-2.14,0-4.23,.27-6.25,.79l-.94,.25v-10.95c3.04-.77,5.95-1.16,8.74-1.16m0-3c-3.03,0-6.22,.42-9.48,1.25-1.33,.34-2.26,1.54-2.26,2.91v10.95c0,.93,.43,1.81,1.18,2.38,.53,.41,1.17,.62,1.82,.62,.26,0,.52-.03,.78-.1l.94-.25c1.7-.44,3.49-.68,5.3-.69,.07,.24,.17,.7,.17,1.52v12.1c0,2.36-.78,3.22-1.36,3.66-1.17,.89-2.71,1.32-4.71,1.32-1.22,0-2.56-.16-3.98-.47-.21-.05-.43-.07-.65-.07-.63,0-1.25,.2-1.76,.57-.69,.51-1.14,1.28-1.22,2.14l-1.19,12.39c-.14,1.46,.79,2.8,2.2,3.18,2.06,.56,3.81,.83,5.35,.83,1.65,0,3.32-.34,4.96-1.02,1.53-.63,2.82-1.37,3.84-2.18,.52-.42,1.04-.89,1.56-1.41l.62,1.85c.41,1.22,1.56,2.05,2.84,2.05h10.51c1.66,0,3-1.34,3-3v-32.59c0-1.98-.11-3.74-.32-5.23-.23-1.63-.73-3.28-1.48-4.89-.83-1.79-1.99-3.26-3.46-4.39-1.41-1.08-3.18-1.9-5.43-2.53-2.14-.6-4.68-.89-7.78-.89h0Z"/></g></g><g><g><path class="g" d="M47.88,218.36c-.83,0-1.5-.67-1.5-1.5v-46.76c0-2.9-.2-5.78-.58-8.56-.38-2.76-.77-4.81-1.16-6.08l-.62-2.07c-.14-.45-.05-.95,.23-1.33s.73-.6,1.2-.6h14.06c.63,0,1.19,.4,1.41,.99,.21,.58,.45,1.36,.73,2.4,.28,1.06,.64,3.06,1.1,6.13,.45,3.05,.69,6.11,.69,9.11v46.76c0,.83-.67,1.5-1.5,1.5h-14.06Z"/><path class="d" d="M59.51,152.98c.19,.53,.42,1.29,.69,2.28,.26,.99,.62,2.98,1.07,5.96,.45,2.99,.67,5.95,.67,8.89v46.76h-14.06v-46.76c0-2.99-.2-5.91-.6-8.76-.4-2.85-.8-4.96-1.21-6.3l-.61-2.06h14.06m0-3h-14.06c-.95,0-1.84,.45-2.41,1.21s-.74,1.74-.47,2.65l.61,2.06c.37,1.21,.74,3.18,1.11,5.86,.38,2.71,.57,5.51,.57,8.35v46.76c0,1.66,1.34,3,3,3h14.06c1.66,0,3-1.34,3-3v-46.76c0-3.07-.24-6.21-.7-9.33-.47-3.13-.84-5.19-1.14-6.3-.29-1.08-.54-1.91-.76-2.52-.43-1.19-1.56-1.98-2.82-1.98h0Z"/></g><g><rect class="g" x="70.19" y="151.48" width="17.02" height="49.79" rx="1.5" ry="1.5"/><path class="d" d="M85.71,152.98v46.79h-14.02v-46.79h14.02m0-3h-14.02c-1.66,0-3,1.34-3,3v46.79c0,1.66,1.34,3,3,3h14.02c1.66,0,3-1.34,3-3v-46.79c0-1.66-1.34-3-3-3h0Z"/></g><g><path class="g" d="M107.71,201.99c-6.4,0-11.45-.34-15.02-1-.71-.13-1.23-.75-1.23-1.47v-10.95c0-.43,.18-.84,.5-1.12,.28-.25,.63-.38,1-.38,.06,0,.12,0,.17,.01,3.66,.42,8.11,.64,13.23,.64,2.06,0,3.43-.62,4.21-1.9,.91-1.5,1.37-3.68,1.37-6.47v-6c0-1.19-.05-2.21-.15-3.03-.09-.77-.3-1.58-.6-2.4-.27-.72-.62-1.3-1.06-1.72-1.09-1.01-2.93-1.53-5.46-1.53-3.07,0-6.38,.16-9.84,.46l-1.71,.18c-.05,0-.1,0-.16,0-.37,0-.73-.14-1-.39-.32-.28-.5-.69-.5-1.11v-10.98c0-.77,.59-1.42,1.36-1.49,4.13-.39,9.14-.58,14.88-.58,3.14,0,5.98,.43,8.45,1.27,2.51,.86,4.59,2.02,6.19,3.47,1.59,1.43,2.91,3.19,3.93,5.23,1.78,3.54,2.69,7.82,2.69,12.7v5.93c0,2.38-.16,4.58-.47,6.54-.32,2.02-.95,4.06-1.87,6.08-.95,2.08-2.22,3.86-3.79,5.28-1.57,1.42-3.67,2.58-6.26,3.45-2.54,.86-5.53,1.29-8.88,1.29Z"/><path class="d" d="M107.71,152.25c2.99,0,5.64,.4,7.97,1.19,2.32,.79,4.22,1.85,5.67,3.16,1.46,1.31,2.66,2.91,3.6,4.79,1.69,3.35,2.53,7.36,2.53,12.03v5.93c0,2.31-.15,4.41-.45,6.31-.3,1.89-.89,3.79-1.75,5.69-.87,1.9-2.01,3.5-3.43,4.79-1.42,1.29-3.33,2.34-5.73,3.14-2.4,.81-5.2,1.21-8.4,1.21-6.34,0-11.25-.33-14.74-.98v-10.95c3.73,.43,8.2,.65,13.41,.65,2.6,0,4.43-.87,5.49-2.62,1.06-1.75,1.59-4.16,1.59-7.25v-6c0-1.25-.05-2.32-.16-3.22-.11-.89-.34-1.81-.69-2.75-.35-.94-.83-1.7-1.43-2.28-1.4-1.3-3.57-1.95-6.5-1.95-3.13,0-6.46,.16-9.97,.47l-1.73,.18v-10.98c4.09-.38,9.01-.58,14.74-.58m0-3c-5.79,0-10.85,.2-15.02,.59-1.54,.14-2.72,1.44-2.72,2.99v10.98c0,.85,.36,1.66,.99,2.23,.55,.5,1.27,.77,2.01,.77,.1,0,.21,0,.31-.02l1.73-.18c3.37-.3,6.64-.45,9.66-.45,2.11,0,3.65,.4,4.46,1.15,.24,.23,.47,.62,.66,1.13,.27,.71,.44,1.41,.52,2.06,.09,.77,.14,1.73,.14,2.85v6c0,2.51-.39,4.43-1.15,5.69-.21,.35-.71,1.17-2.93,1.17-5.06,0-9.46-.21-13.06-.63-.12-.01-.23-.02-.35-.02-.73,0-1.44,.27-2,.76-.64,.57-1,1.38-1,2.24v10.95c0,1.45,1.03,2.68,2.45,2.95,3.71,.69,8.71,1.03,15.29,1.03,3.52,0,6.66-.46,9.36-1.37,2.78-.94,5.06-2.2,6.78-3.76,1.72-1.56,3.12-3.5,4.15-5.77,.97-2.14,1.64-4.31,1.99-6.46,.32-2.04,.49-4.32,.49-6.78v-5.93c0-5.12-.96-9.63-2.85-13.38-1.1-2.2-2.54-4.11-4.27-5.67-1.75-1.58-4.01-2.85-6.71-3.77-2.63-.9-5.63-1.35-8.94-1.35h0Z"/></g><g><path class="g" d="M133.08,201.27c-.83,0-1.5-.67-1.5-1.5v-10.8c0-.83,.67-1.5,1.5-1.5h9.72c.11-.74,.17-1.52,.17-2.33v-17.27c0-.96-.2-1.78-.59-2.41-.18-.3-.49-.6-1.38-.6-1.48,0-3.07,.12-4.71,.35l-.98,.11c-.06,0-.11,0-.17,0-.37,0-.72-.13-1-.38-.32-.28-.5-.69-.5-1.12v-10.98c0-.72,.5-1.33,1.21-1.47,2.02-.4,4.58-.61,7.63-.61s5.62,.29,7.59,.9c1.99,.61,3.64,1.45,4.9,2.51,1.26,1.06,2.29,2.38,3.07,3.93,.75,1.5,1.27,3.06,1.55,4.66,.27,1.54,.4,3.26,.4,5.12v17.27c0,2.31-.14,4.74-.43,7.23-.28,2.48-.56,4.41-.83,5.75l-.4,1.95c-.14,.7-.76,1.2-1.47,1.2h-23.78Z"/><path class="d" d="M142.47,152.25c2.96,0,5.35,.28,7.15,.83,1.81,.55,3.26,1.29,4.37,2.22,1.11,.93,2.01,2.08,2.69,3.45s1.16,2.79,1.41,4.25c.25,1.46,.38,3.08,.38,4.86v17.27c0,2.26-.14,4.62-.42,7.06-.28,2.45-.55,4.32-.81,5.62l-.4,1.95h-23.78v-10.8h10.95c.29-1.18,.43-2.46,.43-3.83v-17.27c0-1.25-.27-2.32-.81-3.2-.54-.88-1.43-1.32-2.66-1.32-1.57,0-3.2,.12-4.91,.36l-.94,.11v-10.98c1.93-.38,4.37-.58,7.33-.58m0-3c-3.19,0-5.78,.21-7.92,.64-1.4,.28-2.41,1.51-2.41,2.94v10.98c0,.86,.37,1.67,1,2.24,.55,.49,1.26,.76,2,.76,.11,0,.23,0,.34-.02l.94-.11s.05,0,.07,0c1.57-.22,3.08-.33,4.5-.33,.07,0,.13,0,.17,0,.2,.38,.3,.89,.3,1.51v17.27c0,.28,0,.56-.02,.83h-8.36c-1.66,0-3,1.34-3,3v10.8c0,1.66,1.34,3,3,3h23.78c1.43,0,2.65-1,2.94-2.4l.4-1.95c.28-1.4,.56-3.32,.85-5.88,.29-2.55,.43-5.04,.43-7.4v-17.27c0-1.95-.14-3.75-.42-5.37-.3-1.74-.87-3.45-1.68-5.07-.87-1.74-2.03-3.22-3.45-4.41-1.41-1.18-3.23-2.12-5.42-2.79-2.12-.65-4.74-.96-8.03-.96h0Z"/></g></g></g></g></svg>