<?xml version="1.0" encoding="UTF-8"?><svg xmlns="http://www.w3.org/2000/svg" viewBox="0 0 315 235"><defs><style>.c,.d{opacity:.85;}.e{fill:#f0f2f4;}.f{opacity:.9;}.f,.d,.g,.h,.i{fill:#335799;}.j,.g{opacity:.75;}.k{fill:none;}.i{opacity:.8;}</style></defs><g id="a"><rect class="e" y=".28" width="315" height="235"/><g><g><g><path class="f" d="M258.73,22.77l-88.59,167.83c1.2,6.9,5.57,13.56,12.33,18l3.14,1.66c5.42,2.86,12.26,.67,15.18-4.88l6.85-12.97,23.93-45.33,1.22-2.31c-2.82-6.65-1.84-16.77,3.19-26.43,1.12-2.1,2.35-4.07,3.66-5.9,4.85-6.6,10.96-10.98,16.61-12.11l.71-1.34,24.46-46.33,6.76-12.81c2.93-5.55,.89-12.43-4.54-15.29l-3.98-2.1c-7.21-2.71-14.8-2.46-20.92,.32Zm-62.71,180.41c-1.26,2.39-4.23,3.31-6.62,2.05s-3.31-4.23-2.05-6.62,4.23-3.31,6.62-2.05,3.31,4.23,2.05,6.62Zm24.93-47.23c-1.26,2.39-4.23,3.31-6.62,2.05s-3.31-4.23-2.05-6.62,4.23-3.31,6.62-2.05,3.31,4.23,2.05,6.62Zm37.7-71.43c-1.26,2.39-4.23,3.31-6.62,2.05s-3.31-4.23-2.05-6.62,4.23-3.31,6.62-2.05,3.31,4.23,2.05,6.62Zm15.99-41.9l-.06,.11c1.42,.77,1.96,2.59,1.18,4.06l-1.19,2.25-11.85,22.46c-.54,1.03-1.51,1.67-2.51,1.81l-.14,.26c-.27-.11-.53-.2-.8-.29-.13-.03-.27-.06-.4-.11-4.48-1.16-9.53,1.18-12.01,5.87-.23,.44-.43,.89-.61,1.35l-3.3,6.26-.67,1.27-.08-.04-.81,1.54-10.69,20.25-4.87,9.22-10.2,19.31-1.31,2.47,.08,.04-2.37,4.48c-.26,.37-.5,.75-.72,1.16s-.4,.83-.56,1.26l-.33,.62c-.28,.4-.54,.82-.77,1.26-2.48,4.69-1.55,10.18,1.93,13.22,.11,.08,.22,.17,.32,.27,.22,.18,.45,.35,.69,.5l-.14,.26c.46,.9,.47,2.07-.08,3.09l-11.59,21.96-.96,1.82c-.78,1.47-2.58,2.06-4.02,1.31l-.06,.11c-3.82-1.26-8.15,.45-10.13,4.21-.23,.44-.42,.89-.57,1.35-.04-.02-.07-.04-.1-.07l-.54,1.03c-.78,1.48-2.6,2.06-4.05,1.3,0,0-3.65-3.15-5.18-8.4-.46-1.59,2.28-7.26,3.06-8.73L257.07,33.42c.78-1.48,3.91-6.94,5.48-7.46,5.2-1.7,9.86-.46,9.86-.46,1.45,.76,1.99,2.6,1.21,4.08l-.54,1.03s.08,.03,.11,.05c-.29,.38-.56,.79-.79,1.23-1.98,3.76-.95,8.29,2.24,10.74Zm9.87-7.09c-1.26,2.39-4.23,3.31-6.62,2.05s-3.31-4.23-2.05-6.62,4.23-3.31,6.62-2.05,3.31,4.23,2.05,6.62Z"/><g class="j"><circle class="h" cx="191.69" cy="200.89" r="4.9"/><circle class="h" cx="216.62" cy="153.67" r="4.9"/><circle class="h" cx="254.32" cy="82.24" r="4.9"/><circle class="h" cx="280.18" cy="33.24" r="4.9"/></g><path class="d" d="M273.14,30.63l-.06-.02h0l.54-1.03c.34-.65,.43-1.36,.3-2.03-.02-.09-.04-.19-.07-.28-.05-.18-.13-.36-.22-.53-.09-.17-.19-.33-.32-.48-.24-.3-.55-.56-.91-.75,0,0-.66-.17-1.75-.3-.09-.01-.19-.02-.28-.03-.19-.02-.4-.04-.62-.05-.76-.05-1.65-.07-2.62-.01-1.39,.09-2.97,.33-4.59,.86-1.57,.51-4.7,5.98-5.48,7.46l-78.81,149.3c-.78,1.48-3.53,7.15-3.06,8.73,.14,.47,.29,.93,.46,1.37,.02,.04,.03,.08,.05,.12,.08,.19,.16,.39,.24,.57,.24,.57,.51,1.1,.78,1.6,.07,.13,.15,.26,.22,.39,.47,.81,.96,1.52,1.42,2.12,.07,.09,.14,.18,.2,.26,.13,.17,.27,.33,.39,.48,.06,.07,.12,.15,.18,.22,.72,.83,1.24,1.27,1.24,1.27,.36,.19,.75,.3,1.13,.33,.39,.03,.77-.02,1.14-.14,.18-.06,.36-.14,.53-.23,.51-.28,.95-.71,1.24-1.26l.54-1.03h0l.05,.03s.03,.02,.05,.03c.08-.23,.16-.46,.26-.68,.1-.22,.2-.45,.32-.67,.62-1.17,1.47-2.15,2.46-2.89,.1-.07,.2-.15,.3-.22,.2-.14,.41-.27,.63-.39,.64-.36,1.32-.64,2.03-.83,1.53-.41,3.16-.38,4.72,.13l.06-.11c.11,.05,.21,.1,.32,.14,.39,.14,.8,.2,1.2,.17,1.02-.07,1.98-.65,2.5-1.63l3.86-7.32,8.69-16.46c.54-1.03,.53-2.19,.08-3.09l.14-.26c-.24-.16-.47-.33-.69-.5-.1-.1-.2-.19-.32-.27-3.49-3.04-4.41-8.53-1.93-13.22,.04-.08,.09-.16,.14-.24,.04-.09,.09-.18,.14-.27,0-.02,.02-.04,.03-.06,.23-.44,.49-.86,.77-1.25l.03-.06c.16-.43,.34-.85,.56-1.26s.46-.8,.72-1.16l2.37-4.49-.08-.04,.26-.5h0l11.42-21.63,4.83-9.15,11.42-21.63,.08,.04,3.92-7.42c.11-.29,.24-.58,.37-.87,.07-.14,.13-.28,.21-.42,0-.02,.02-.04,.03-.06v-.02l.02-.02c1.2-2.27,3.01-3.98,5.07-5,2.17-1.09,4.62-1.41,6.91-.82,.13,.05,.26,.08,.4,.11,.27,.08,.54,.18,.8,.29l.12-.23h0l.02-.03c1-.13,1.97-.78,2.51-1.81l4.31-8.17,1.82-3.46,.58-1.1,1.42-2.69,4.91-9.3c.47-.9,.46-1.92,.05-2.77-.26-.54-.68-1-1.23-1.3h0l.06-.11c-.9-.69-1.63-1.54-2.16-2.5-.12-.21-.23-.43-.33-.65-.07-.16-.14-.33-.2-.5-.07-.17-.13-.35-.18-.53-.18-.58-.29-1.18-.34-1.8-.02-.24-.03-.49-.03-.74,0-.12,0-.25,0-.37,.06-1.24,.38-2.49,1-3.66,.12-.22,.24-.43,.37-.64s.27-.4,.42-.59c-.02,0-.04-.02-.06-.02Z"/><path class="g" d="M265.1,20.54c4.67-.73,9.76-.22,14.69,1.65l3.98,2.1c5.42,2.86,7.52,9.64,4.66,15.07l-9.59,18.16c7.55,0,14.85-4.08,18.62-11.22,5.43-10.28,1.49-23.01-8.79-28.44-7.89-4.16-17.21-2.81-23.58,2.68Z"/><path class="g" d="M200.67,205.6c-2.86,5.42-9.64,7.52-15.07,4.66l-3.14-1.66c-4.53-2.96-8-6.89-10.18-11.2-.42,7.94,3.7,15.78,11.19,19.74,10.28,5.43,23.01,1.49,28.44-8.79,3.77-7.14,3.02-15.47-1.24-21.71l-10.01,18.96Z"/><path class="i" d="M200.67,205.6c-2.86,5.42-9.64,7.52-15.07,4.66l-2.57-1.36c.93,1.01,2.05,1.89,3.34,2.57,6.09,3.21,13.63,.88,16.84-5.2,1.33-2.51,1.71-5.28,1.27-7.88l-3.81,7.22Z"/><path class="i" d="M279.31,22.01c.16,.06,.32,.12,.49,.18l3.98,2.1c5.42,2.86,7.52,9.64,4.66,15.07l-3.39,6.42c2.4-1.11,4.46-2.98,5.79-5.49,3.21-6.09,.88-13.63-5.2-16.84-2.02-1.06-4.19-1.52-6.32-1.43Z"/><path class="h" d="M230.11,152.73c3.17-6,7.14-10.82,10.97-13.71-2.16-4.44-1.78-11.03,1.46-17.17,3.36-6.37,8.86-10.47,13.91-10.96,0-4.94,1.76-11.38,5.15-17.82,.41-.77,.83-1.52,1.26-2.25l-2.18-1.15c-.6-.32-1.36-.09-1.67,.52,0,0-2.92,7.07-4.05,7.67-3.82,2.03-15.44,9.76-21.05,20.39s-4.58,23.86-4.96,28.89c-.09,1.18-3.5,6.63-3.5,6.63-.32,.6-.09,1.36,.52,1.67l2.28,1.2c.55-1.3,1.18-2.61,1.87-3.92Z"/><path class="h" d="M190.68,213.02c-2,0-3.97-.48-5.78-1.44l-3.26-1.73c-6.94-4.56-11.67-11.48-12.98-18.99l-.09-.5L257.65,21.62l.47-.21c6.62-3.01,14.67-3.14,22.07-.36l.17,.08,3.98,2.1c6.17,3.26,8.48,11.02,5.16,17.32l-32.26,61.12-.7,.14c-6.89,1.38-14.4,8.06-19.12,17-4.72,8.95-6,18.91-3.25,25.38l.28,.66-32.33,61.24c-1.6,3.03-4.27,5.28-7.52,6.32-1.29,.42-2.61,.62-3.91,.62Zm-7.45-5.71l3.07,1.62c2.26,1.19,4.88,1.41,7.37,.61,2.5-.8,4.56-2.53,5.79-4.87l31.67-60c-2.78-7.35-1.42-17.71,3.63-27.28,5.05-9.57,12.84-16.54,20.48-18.39l31.6-59.87c2.55-4.83,.79-10.78-3.91-13.26l-3.89-2.05c-6.47-2.4-13.44-2.36-19.22,.11l-88.1,166.91c1.28,6.49,5.46,12.46,11.52,16.46Z"/><path class="g" d="M229.44,153.39c-.55,1.04-1.04,2.07-1.48,3.1l-1.07-.56-6.4,12.12-.56,1.06-1.18,2.24c5.9-.09,11.58-3.31,14.53-8.9,2.61-4.94,2.49-10.6,.18-15.25-1.43,1.8-2.8,3.88-4.02,6.19Z"/><path class="i" d="M223.35,162.64c1.84-.62,3.45-1.91,4.43-3.76s1.14-3.91,.61-5.78l-5.04,9.54Z"/><path class="g" d="M261.1,93.83c.55-1.04,1.12-2.03,1.72-2.97l-1.07-.56,6.4-12.12,.56-1.06,1.18-2.24c3.26,4.93,3.8,11.43,.85,17.02-2.61,4.94-7.35,8.03-12.49,8.75,.67-2.2,1.62-4.51,2.84-6.81Z"/><path class="i" d="M265.3,83.58c.53,1.87,.37,3.93-.61,5.78s-2.59,3.14-4.43,3.76l5.04-9.54Z"/></g><g><path class="e" d="M213.44,135.39l-1.39,2.63,1.02,1.08-.95,1.79-5.69-6.26,1.05-1.99,8.38,1.17-.96,1.81-1.47-.24Zm-1.56-.26l-3.04-.49,2.12,2.22,.92-1.73Z"/><path class="e" d="M213.88,125.41c.63-.17,1.32-.05,2.06,.34l3.27,1.73-.9,1.7-3.04-1.6c-.37-.2-.72-.25-1.03-.17-.31,.08-.55,.29-.72,.62s-.21,.64-.1,.95c.1,.3,.34,.55,.72,.75l3.04,1.6-.9,1.71-5.59-2.95,.9-1.71,.74,.39c-.16-.3-.23-.64-.22-1.01,.01-.37,.11-.74,.31-1.11,.35-.66,.83-1.07,1.46-1.23Z"/><path class="e" d="M220.03,122.39l1.45,.77-.46,.87c-.33,.62-.74,1.03-1.22,1.21-.49,.19-1.08,.1-1.76-.26l-2.23-1.17-.36,.68-1.42-.75,.36-.68-1.36-.72,.91-1.71,1.36,.72,.59-1.12,1.42,.75-.59,1.12,2.25,1.19c.17,.09,.31,.11,.42,.07,.12-.04,.22-.16,.32-.34l.32-.61Z"/><path class="e" d="M215.61,118.68c-.28,.1-.55,.08-.81-.06s-.44-.35-.52-.64c-.08-.28-.04-.58,.12-.88s.37-.49,.65-.59c.28-.1,.55-.07,.82,.07s.43,.35,.51,.63c.08,.28,.04,.57-.12,.87s-.38,.5-.65,.6Zm1.69-1.14l5.59,2.95-.9,1.71-5.59-2.95,.9-1.71Z"/><path class="e" d="M220.58,111.81c-.02-.39,.07-.78,.26-1.14l1.81,.96-.25,.47c-.23,.43-.3,.8-.23,1.11,.07,.31,.34,.59,.8,.83l2.6,1.37-.9,1.71-5.59-2.95,.9-1.71,.93,.49c-.2-.36-.31-.74-.33-1.14Z"/><path class="e" d="M227.22,111.62c-.47,.31-.98,.48-1.55,.5-.57,.02-1.14-.12-1.72-.43s-1.01-.7-1.32-1.18-.46-1.01-.46-1.57c0-.56,.14-1.12,.43-1.67s.67-.98,1.13-1.3c.47-.32,.99-.49,1.56-.51,.57-.02,1.15,.12,1.72,.42s1.01,.7,1.32,1.19c.3,.49,.45,1.02,.45,1.58,0,.57-.15,1.13-.43,1.67s-.67,.98-1.13,1.29Zm-.27-3.1c-.12-.36-.4-.65-.85-.89s-.85-.31-1.21-.21c-.36,.1-.62,.31-.8,.64s-.2,.67-.08,1.02,.41,.64,.86,.88,.85,.31,1.2,.22c.36-.09,.62-.3,.79-.63s.2-.67,.08-1.03Z"/><path class="e" d="M225.99,104.15c-.31-.47-.47-.97-.48-1.52,0-.55,.13-1.1,.42-1.64,.37-.7,.86-1.19,1.48-1.47,.62-.28,1.3-.31,2.04-.11l-.96,1.82c-.51-.07-.88,.11-1.11,.55-.17,.31-.18,.63-.03,.95s.45,.59,.9,.83,.85,.33,1.2,.27,.6-.24,.76-.56c.23-.44,.18-.85-.17-1.23l.96-1.82c.58,.49,.93,1.08,1.05,1.75,.12,.67,0,1.36-.36,2.05-.29,.55-.66,.97-1.12,1.27-.46,.3-.97,.46-1.53,.46-.56,0-1.13-.14-1.71-.45s-1.03-.69-1.34-1.16Z"/><path class="e" d="M235.31,96.96l-3.25,.47,2.35,1.24-.9,1.71-7.42-3.92,.9-1.71,4.1,2.16-1.38-2.9,1.12-2.12,1.58,3.81,4.03-.87-1.12,2.13Z"/><path class="e" d="M237.16,87.68l-2.05,3.88c.36,.16,.69,.19,.97,.08,.29-.1,.51-.29,.66-.58,.23-.43,.2-.82-.07-1.18l.96-1.82c.32,.29,.56,.63,.73,1.03,.17,.4,.23,.83,.21,1.28-.03,.46-.16,.91-.4,1.37-.29,.55-.66,.97-1.12,1.28-.46,.3-.97,.46-1.53,.47-.56,.01-1.13-.14-1.71-.44s-1.03-.69-1.34-1.16c-.31-.47-.47-.98-.48-1.53,0-.55,.13-1.1,.43-1.66s.65-.96,1.1-1.26c.45-.3,.95-.46,1.49-.47,.55-.01,1.1,.13,1.66,.42,.16,.08,.32,.18,.49,.29Zm-1.86,1.22c-.29-.16-.58-.18-.86-.07-.28,.11-.5,.31-.66,.61s-.2,.57-.13,.86c.06,.29,.24,.53,.52,.74l1.13-2.15Z"/><path class="e" d="M235.95,82.7c-.02-.39,.07-.78,.26-1.14l1.81,.96-.25,.47c-.23,.43-.3,.8-.23,1.11,.07,.31,.34,.59,.8,.83l2.6,1.37-.9,1.71-5.59-2.95,.9-1.71,.93,.49c-.2-.36-.31-.74-.33-1.14Z"/></g></g><g><g><g><g class="c"><path class="h" d="M100.15,34.98l-1.41,2.67-2.08,3.93-11.47,21.72-.84,1.6-20.53,38.9-4.4,8.33-20.53,38.9-.84,1.6-11.47,21.72-2.08,3.93-1.41,2.67c-.76,1.45-3.44,6.99-2.97,8.56,1.57,5.17,5.23,8.31,5.23,8.31,1.45,.76,3.25,.2,4.02-1.24l.53-1s.07,.05,.1,.07c.15-.45,.33-.89,.56-1.32,1.94-3.68,6.23-5.31,10.04-4.04l.05-.1c1.44,.74,3.23,.18,3.99-1.26l14.39-27.25c.49-.93,.43-2-.05-2.85l.12-.23c-.24-.15-.47-.32-.7-.49-.1-.09-.21-.18-.32-.26-3.53-2.95-4.66-8.07-2.42-12.3,.21-.4,.45-.78,.71-1.14l3.59-6.8-.08-.04,10.39-19.68,4.4-8.33,10.39-19.68,.08,.04,3.59-6.8c.15-.41,.33-.82,.54-1.22,2.24-4.24,7.09-6.19,11.52-4.94,.13,.05,.26,.09,.39,.12,.27,.09,.54,.19,.8,.3l.12-.23c.98-.08,1.9-.64,2.38-1.57l14.39-27.25c.76-1.44,.21-3.23-1.21-4l.05-.1c-3.2-2.44-4.27-6.9-2.33-10.57,.23-.43,.49-.83,.78-1.2-.04-.02-.08-.03-.11-.05l.53-1c.76-1.45,.2-3.25-1.24-4.02,0,0-4.65-1.26-9.81,.36-1.56,.49-4.63,5.83-5.39,7.28Z"/></g><path class="f" d="M101.73,24.51L15.1,188.61c1.26,6.79,5.67,13.37,12.43,17.8l3.14,1.66c5.42,2.86,12.2,.77,15.07-4.66l31.28-59.27c-2.89-6.61-1.98-16.66,3.05-26.17,5.02-9.51,12.8-15.94,19.89-17.28l31.22-59.14c2.86-5.42,.77-12.2-4.66-15.07l-3.98-2.1c-7.2-2.73-14.75-2.55-20.82,.12ZM41.09,200.99c-1.26,2.39-4.23,3.31-6.62,2.05s-3.31-4.23-2.05-6.62,4.23-3.31,6.62-2.05,3.31,4.23,2.05,6.62Zm25.45-48.21c-1.26,2.39-4.23,3.31-6.62,2.05s-3.31-4.23-2.05-6.62,4.23-3.31,6.62-2.05,3.31,4.23,2.05,6.62Zm34.24-64.86c-1.26,2.39-4.23,3.31-6.62,2.05s-3.31-4.23-2.05-6.62,4.23-3.31,6.62-2.05,3.31,4.23,2.05,6.62Zm25.91-49.08c-1.26,2.39-4.23,3.31-6.62,2.05s-3.31-4.23-2.05-6.62,4.23-3.31,6.62-2.05,3.31,4.23,2.05,6.62Zm-10.07-7.5l-.53,1s.08,.03,.11,.05c-.29,.37-.55,.77-.78,1.2-1.94,3.68-.87,8.14,2.33,10.57l-.05,.1c1.42,.77,1.97,2.56,1.21,4l-14.39,27.25c-.49,.93-1.41,1.49-2.38,1.57l-.12,.23c-.26-.11-.53-.21-.8-.3-.13-.03-.26-.07-.39-.12-4.43-1.25-9.29,.71-11.52,4.94-.21,.4-.39,.81-.54,1.22l-3.59,6.8-.08-.04-10.39,19.68-4.4,8.33-10.39,19.68,.08,.04-3.59,6.8c-.26,.36-.49,.74-.71,1.14-2.24,4.24-1.11,9.35,2.42,12.3,.11,.08,.22,.17,.32,.26,.22,.17,.46,.34,.7,.49l-.12,.23c.48,.85,.54,1.93,.05,2.85l-14.39,27.25c-.76,1.44-2.55,2-3.99,1.26l-.05,.1c-3.82-1.27-8.1,.37-10.04,4.04-.23,.43-.41,.87-.56,1.32-.04-.02-.07-.04-.1-.07l-.53,1c-.76,1.45-2.57,2-4.02,1.24,0,0-3.66-3.13-5.23-8.31-.48-1.56,2.2-7.11,2.97-8.56l1.41-2.67,2.08-3.93,11.47-21.72,.84-1.6,20.53-38.9,4.4-8.33,20.53-38.9,.84-1.6,11.47-21.72,2.08-3.93,1.41-2.67c.76-1.45,3.83-6.79,5.39-7.28,5.16-1.62,9.81-.36,9.81-.36,1.45,.76,2,2.57,1.24,4.02Z"/></g><path class="g" d="M107.85,22.73c4.67-.73,9.76-.22,14.69,1.65l3.98,2.1c5.42,2.86,7.52,9.64,4.66,15.07l-9.59,18.16c7.55,0,14.85-4.08,18.62-11.22,5.43-10.28,1.49-23.01-8.79-28.44-7.89-4.16-17.21-2.81-23.58,2.68Z"/><path class="i" d="M66.21,164.61c4.13-.83,7.86-3.44,9.98-7.45,2.12-4.01,2.17-8.57,.53-12.44l-10.5,19.9Z"/><path class="i" d="M100.38,99.89c4.13-.83,7.86-3.44,9.98-7.45,2.12-4.01,2.17-8.57,.53-12.44l-10.5,19.9Z"/><path class="g" d="M45.73,203.41c-2.86,5.42-9.64,7.52-15.07,4.66l-3.14-1.66c-4.53-2.96-8-6.89-10.18-11.2-.42,7.94,3.7,15.78,11.19,19.74,10.28,5.43,23.01,1.49,28.44-8.79,3.77-7.14,3.02-15.47-1.24-21.71l-10.01,18.96Z"/><g class="c"><circle class="h" cx="36.75" cy="198.7" r="4.9"/><circle class="h" cx="62.2" cy="150.49" r="4.9"/><circle class="h" cx="96.44" cy="85.63" r="4.9"/><circle class="h" cx="122.35" cy="36.54" r="4.9"/></g><path class="i" d="M45.73,203.41c-2.86,5.42-9.64,7.52-15.07,4.66l-2.57-1.36c.93,1.01,2.05,1.89,3.34,2.57,6.09,3.21,13.63,.88,16.84-5.2,1.33-2.51,1.71-5.28,1.27-7.88l-3.81,7.22Z"/><path class="i" d="M122.06,24.2c.16,.06,.32,.12,.49,.18l3.98,2.1c5.42,2.86,7.52,9.64,4.66,15.07l-3.39,6.42c2.4-1.11,4.46-2.98,5.79-5.49,3.21-6.09,.88-13.63-5.2-16.84-2.02-1.06-4.19-1.52-6.32-1.43Z"/><path class="h" d="M35.83,210.85c-2.03,0-4.03-.49-5.87-1.46l-3.26-1.73c-6.94-4.54-11.71-11.38-13.08-18.78l-.1-.51L100.64,23.34l.48-.21c6.56-2.9,14.56-2.95,21.95-.16l.17,.08,3.98,2.1c2.98,1.57,5.17,4.22,6.17,7.46,1,3.24,.69,6.66-.89,9.64l-31.56,59.78-.71,.13c-6.84,1.29-14.23,7.77-18.84,16.51-4.61,8.73-5.79,18.5-3,24.87l.29,.66-31.62,59.91c-1.57,2.98-4.22,5.17-7.46,6.17-1.24,.38-2.51,.57-3.77,.57Zm-7.54-5.74l3.07,1.62c2.27,1.2,4.88,1.44,7.35,.67,2.47-.76,4.49-2.43,5.69-4.7l30.96-58.64c-2.83-7.25-1.57-17.43,3.38-26.79s12.63-16.15,20.22-17.9l30.89-58.52c1.2-2.27,1.44-4.88,.67-7.35-.76-2.47-2.43-4.49-4.7-5.69l-3.89-2.06c-6.46-2.42-13.39-2.45-19.12-.07L16.68,188.84c1.34,6.38,5.55,12.29,11.62,16.27Z"/></g><g><path class="e" d="M47.04,148.69c.21,.33,.32,.71,.32,1.16,0,.45-.13,.93-.4,1.44l-.5,.95,2.26,1.2-.81,1.54-6.31-3.33,1.31-2.49c.27-.5,.58-.88,.93-1.14,.36-.26,.73-.39,1.13-.4,.4-.01,.79,.09,1.19,.29,.37,.19,.65,.45,.87,.78Zm-1.22,1.31c-.06-.22-.22-.39-.47-.52s-.48-.16-.7-.09c-.21,.07-.4,.25-.55,.55l-.44,.84,1.58,.83,.44-.84c.15-.29,.2-.55,.14-.76Z"/><path class="e" d="M45.04,144.32l6.65,3.51-.81,1.54-6.65-3.51,.81-1.54Z"/><path class="e" d="M48.39,144.69c-.29-.4-.45-.82-.48-1.27-.03-.45,.06-.88,.28-1.29,.19-.35,.42-.63,.71-.82,.28-.19,.58-.3,.89-.32l-.71-.37,.81-1.54,5.01,2.65-.81,1.54-.71-.37c.15,.27,.23,.58,.24,.92,0,.34-.09,.69-.28,1.04-.22,.41-.52,.72-.91,.95-.39,.22-.83,.33-1.33,.32-.5-.01-1-.15-1.52-.43s-.92-.61-1.2-1.01Zm2.12-2.9c-.33,.1-.58,.3-.74,.6s-.19,.62-.08,.95c.11,.33,.35,.59,.73,.8s.74,.26,1.08,.16c.34-.09,.59-.29,.75-.6s.19-.62,.08-.95c-.11-.33-.36-.6-.74-.8s-.74-.26-1.08-.16Z"/><path class="e" d="M55.8,139.67c-.33,.26-.68,.42-1.04,.48-.36,.06-.72,.02-1.05-.13l.8-1.52c.18,.07,.37,.07,.55-.02,.18-.09,.33-.23,.44-.44,.1-.19,.14-.36,.12-.5-.02-.14-.09-.25-.21-.31-.14-.08-.29-.06-.44,.06-.15,.11-.35,.32-.61,.61-.27,.32-.52,.57-.74,.76s-.48,.32-.77,.39c-.29,.07-.61,.01-.95-.17-.29-.15-.51-.37-.66-.65-.15-.28-.22-.62-.19-1,.03-.38,.15-.78,.37-1.21,.33-.63,.75-1.04,1.25-1.24,.5-.2,1.03-.19,1.57,.03l-.75,1.42c-.19-.07-.36-.06-.53,.01s-.31,.22-.42,.43c-.09,.18-.13,.34-.11,.47,.02,.13,.09,.23,.21,.29,.14,.08,.29,.06,.44-.06,.15-.11,.35-.31,.59-.6,.29-.32,.55-.57,.76-.76s.47-.31,.77-.38,.63-.01,.98,.16c.29,.15,.51,.38,.66,.66,.14,.29,.2,.62,.17,1-.03,.38-.15,.77-.37,1.18-.23,.44-.51,.79-.84,1.05Z"/><path class="e" d="M58.31,132.12l1.3,.69-.41,.78c-.29,.56-.66,.92-1.1,1.09s-.96,.09-1.58-.24l-1.99-1.05-.32,.61-1.28-.67,.32-.61-1.22-.64,.81-1.54,1.22,.64,.53-1.01,1.28,.67-.53,1.01,2.01,1.06c.15,.08,.28,.1,.38,.06,.1-.04,.2-.14,.29-.31l.29-.55Z"/><path class="e" d="M54.35,128.8c-.25,.09-.49,.07-.72-.05s-.39-.32-.46-.57c-.07-.25-.03-.52,.11-.79s.33-.44,.58-.53c.25-.09,.49-.07,.73,.06s.38,.31,.45,.57c.07,.25,.03,.51-.11,.78s-.34,.45-.59,.53Zm1.51-1.02l5.01,2.65-.81,1.54-5.01-2.65,.81-1.54Z"/><path class="e" d="M57.6,127.25c-.28-.42-.42-.87-.43-1.36,0-.49,.12-.98,.38-1.47,.33-.63,.77-1.07,1.33-1.32,.55-.25,1.16-.28,1.83-.1l-.86,1.64c-.46-.06-.79,.1-1,.5-.15,.28-.16,.56-.03,.85,.13,.28,.4,.53,.81,.75s.76,.3,1.07,.24c.31-.05,.53-.22,.68-.5,.21-.4,.16-.76-.15-1.1l.86-1.64c.52,.44,.83,.96,.94,1.57,.11,.6,0,1.22-.33,1.84-.26,.49-.59,.87-1,1.14-.41,.27-.87,.41-1.37,.42-.5,0-1.01-.13-1.53-.4s-.92-.62-1.2-1.04Z"/><path class="e" d="M66.3,117.45l-1.24,2.35,.91,.97-.85,1.61-5.1-5.61,.94-1.78,7.51,1.05-.86,1.63-1.31-.21Zm-1.39-.23l-2.72-.44,1.9,1.99,.82-1.55Z"/><path class="e" d="M66.69,108.51c.57-.15,1.18-.05,1.85,.3l2.93,1.55-.81,1.53-2.72-1.44c-.34-.18-.64-.23-.92-.15-.28,.08-.49,.26-.65,.55s-.19,.58-.09,.85c.09,.27,.31,.5,.64,.67l2.72,1.44-.81,1.54-5.01-2.65,.81-1.54,.66,.35c-.14-.27-.2-.57-.19-.91,.01-.33,.1-.66,.28-.99,.31-.59,.75-.96,1.31-1.1Z"/><path class="e" d="M72.2,105.81l1.3,.69-.41,.78c-.29,.56-.66,.92-1.1,1.09s-.96,.09-1.58-.24l-1.99-1.05-.32,.61-1.28-.67,.32-.61-1.22-.64,.81-1.54,1.22,.64,.53-1.01,1.28,.67-.53,1.01,2.01,1.06c.15,.08,.28,.1,.38,.06,.1-.04,.2-.14,.29-.31l.29-.55Z"/><path class="e" d="M68.24,102.48c-.25,.09-.49,.07-.72-.05s-.39-.32-.46-.57c-.07-.25-.03-.52,.11-.79s.33-.44,.58-.53c.25-.09,.49-.07,.73,.06s.38,.31,.45,.57c.07,.25,.03,.51-.11,.78s-.34,.45-.59,.53Zm1.51-1.02l5.01,2.65-.81,1.54-5.01-2.65,.81-1.54Z"/><path class="e" d="M78.06,97.87l-3.07,.06-.19,.37,2.38,1.26-.81,1.54-6.31-3.33,1.36-2.58c.26-.5,.57-.88,.93-1.13,.36-.26,.73-.4,1.13-.41,.39-.01,.78,.08,1.15,.27,.42,.22,.73,.54,.94,.95,.2,.41,.25,.88,.15,1.42l3.27-.14-.92,1.73Zm-4.35-.15l.5-.95c.15-.28,.19-.53,.13-.74-.06-.21-.22-.39-.47-.52s-.47-.16-.68-.09c-.21,.07-.39,.24-.54,.52l-.5,.95,1.56,.83Z"/><path class="e" d="M79.71,94.14c-.42,.28-.88,.43-1.39,.45-.51,.02-1.02-.11-1.54-.38s-.91-.63-1.18-1.06c-.27-.43-.41-.9-.41-1.41,0-.51,.13-1,.39-1.5s.6-.88,1.02-1.16c.42-.28,.88-.44,1.4-.46,.51-.02,1.03,.11,1.54,.38s.91,.63,1.18,1.06c.27,.44,.41,.91,.4,1.42,0,.51-.13,1.01-.39,1.5s-.6,.88-1.01,1.16Zm-.24-2.78c-.11-.32-.36-.59-.76-.8s-.76-.27-1.08-.19c-.32,.09-.56,.28-.71,.57s-.18,.6-.07,.91c.11,.31,.37,.57,.77,.79s.76,.28,1.08,.2c.32-.08,.55-.27,.71-.56s.18-.6,.07-.92Z"/><path class="e" d="M78.61,87.45c-.28-.42-.42-.87-.43-1.36,0-.49,.12-.98,.38-1.47,.33-.63,.77-1.07,1.33-1.32,.55-.25,1.16-.28,1.83-.1l-.86,1.64c-.46-.06-.79,.1-1,.5-.15,.28-.16,.56-.03,.85,.13,.28,.4,.53,.81,.75s.76,.3,1.07,.24c.31-.05,.53-.22,.68-.5,.21-.4,.16-.76-.15-1.1l.86-1.64c.52,.44,.83,.96,.94,1.57,.11,.6,0,1.22-.33,1.84-.26,.49-.59,.87-1,1.14-.41,.27-.87,.41-1.37,.42-.5,0-1.01-.13-1.53-.4s-.92-.62-1.2-1.04Z"/><path class="e" d="M86.96,81.01l-2.91,.42,2.1,1.11-.81,1.54-6.65-3.51,.81-1.54,3.67,1.94-1.24-2.59,1-1.9,1.42,3.41,3.61-.78-1.01,1.9Z"/><path class="e" d="M88.61,72.69l-1.84,3.48c.32,.14,.62,.17,.87,.08,.26-.09,.45-.26,.59-.52,.2-.38,.18-.74-.06-1.06l.86-1.64c.29,.26,.5,.57,.65,.92,.15,.36,.21,.74,.19,1.15-.02,.41-.14,.82-.36,1.22-.26,.49-.59,.87-1.01,1.15-.41,.27-.87,.41-1.37,.42-.5,.01-1.02-.12-1.54-.4s-.92-.62-1.2-1.04c-.28-.42-.42-.87-.43-1.37,0-.49,.12-.99,.38-1.49s.59-.86,.99-1.13c.4-.27,.85-.41,1.34-.43s.99,.11,1.49,.38c.14,.08,.29,.16,.43,.26Zm-1.67,1.09c-.26-.14-.52-.16-.77-.06-.25,.1-.45,.28-.59,.55s-.18,.51-.12,.77c.06,.26,.21,.48,.46,.66l1.01-1.92Z"/><path class="e" d="M87.53,68.22c-.02-.35,.06-.69,.24-1.02l1.63,.86-.22,.42c-.2,.38-.27,.71-.21,.99,.06,.28,.3,.53,.72,.75l2.33,1.23-.81,1.54-5.01-2.65,.81-1.54,.84,.44c-.18-.33-.28-.66-.3-1.02Z"/></g></g><g><g class="j"><circle class="h" cx="113.06" cy="200.89" r="4.9"/><circle class="h" cx="137.99" cy="153.67" r="4.9"/><circle class="h" cx="175.7" cy="82.24" r="4.9"/><circle class="h" cx="201.56" cy="33.24" r="4.9"/></g><path class="d" d="M194.52,30.63l-.06-.02h0l.54-1.03c.34-.65,.43-1.36,.3-2.03-.02-.09-.04-.19-.07-.28-.05-.18-.13-.36-.22-.53-.09-.17-.19-.33-.32-.48-.24-.3-.55-.56-.91-.75,0,0-.66-.17-1.75-.3-.09-.01-.19-.02-.28-.03-.19-.02-.4-.04-.62-.05-.76-.05-1.65-.07-2.62-.01-1.39,.09-2.97,.33-4.59,.86-1.57,.51-4.7,5.98-5.48,7.46L99.64,182.72c-.78,1.48-3.53,7.15-3.06,8.73,.14,.47,.29,.93,.46,1.37,.02,.04,.03,.08,.05,.12,.08,.19,.16,.39,.24,.57,.24,.57,.51,1.1,.78,1.6,.07,.13,.15,.26,.22,.39,.47,.81,.96,1.52,1.42,2.12,.07,.09,.14,.18,.2,.26,.13,.17,.27,.33,.39,.48,.06,.07,.12,.15,.18,.22,.72,.83,1.24,1.27,1.24,1.27,.36,.19,.75,.3,1.13,.33,.39,.03,.77-.02,1.14-.14,.18-.06,.36-.14,.53-.23,.51-.28,.95-.71,1.24-1.26l.54-1.03h0l.05,.03s.03,.02,.05,.03c.08-.23,.16-.46,.26-.68,.1-.22,.2-.45,.32-.67,.62-1.17,1.47-2.15,2.46-2.89,.1-.07,.2-.15,.3-.22,.2-.14,.41-.27,.63-.39,.64-.36,1.32-.64,2.03-.83,1.53-.41,3.16-.38,4.72,.13l.06-.11c.11,.05,.21,.1,.32,.14,.39,.14,.8,.2,1.2,.17,1.02-.07,1.98-.65,2.5-1.63l3.86-7.32,8.69-16.46c.54-1.03,.53-2.19,.08-3.09l.14-.26c-.24-.16-.47-.33-.69-.5-.1-.1-.2-.19-.32-.27-3.49-3.04-4.41-8.53-1.93-13.22,.04-.08,.09-.16,.14-.24,.04-.09,.09-.18,.14-.27,0-.02,.02-.04,.03-.06,.23-.44,.49-.86,.77-1.25l.03-.06c.16-.43,.34-.85,.56-1.26s.46-.8,.72-1.16l2.37-4.49-.08-.04,.26-.5h0l11.42-21.63,4.83-9.15,11.42-21.63,.08,.04,3.92-7.42c.11-.29,.24-.58,.37-.87,.07-.14,.13-.28,.21-.42,0-.02,.02-.04,.03-.06v-.02l.02-.02c1.2-2.27,3.01-3.98,5.07-5,2.17-1.09,4.62-1.41,6.91-.82,.13,.05,.26,.08,.4,.11,.27,.08,.54,.18,.8,.29l.12-.23h0l.02-.03c1-.13,1.97-.78,2.51-1.81l4.31-8.17,1.82-3.46,.58-1.1,1.42-2.69,4.91-9.3c.47-.9,.46-1.92,.05-2.77-.26-.54-.68-1-1.23-1.3h0l.06-.11c-.9-.69-1.63-1.54-2.16-2.5-.12-.21-.23-.43-.33-.65-.07-.16-.14-.33-.2-.5-.07-.17-.13-.35-.18-.53-.18-.58-.29-1.18-.34-1.8-.02-.24-.03-.49-.03-.74,0-.12,0-.25,0-.37,.06-1.24,.38-2.49,1-3.66,.12-.22,.24-.43,.37-.64s.27-.4,.42-.59c-.02,0-.04-.02-.06-.02Z"/><path class="i" d="M149.88,152.87l-5.51,10.45"/><path class="g" d="M186.47,20.54c4.67-.73,9.76-.22,14.69,1.65l3.98,2.1c5.42,2.86,7.52,9.64,4.66,15.07l-9.59,18.16c7.55,0,14.85-4.08,18.62-11.22,5.43-10.28,1.49-23.01-8.79-28.44-7.89-4.16-17.21-2.81-23.58,2.68Z"/><path class="g" d="M122.05,205.6c-2.86,5.42-9.64,7.52-15.07,4.66l-3.14-1.66c-4.53-2.96-8-6.89-10.18-11.2-.42,7.94,3.7,15.78,11.19,19.74,10.28,5.43,23.01,1.49,28.44-8.79,3.77-7.14,3.02-15.47-1.24-21.71l-10.01,18.96Z"/><path class="i" d="M122.05,205.6c-2.86,5.42-9.64,7.52-15.07,4.66l-2.57-1.36c.93,1.01,2.05,1.89,3.34,2.57,6.09,3.21,13.63,.88,16.84-5.2,1.33-2.51,1.71-5.28,1.27-7.88l-3.81,7.22Z"/><g><circle class="k" cx="113.06" cy="200.89" r="4.9"/><path class="k" d="M117.42,152.4c2.18,4.31,5.65,8.24,10.18,11.2l3.14,1.66c1.05,.55,2.14,.92,3.25,1.11,.32-.9,.26-1.85-.13-2.62l.14-.26c-.24-.16-.47-.33-.69-.5-.1-.1-.2-.19-.32-.27-3.49-3.04-4.41-8.53-1.93-13.22,.23-.44,.49-.86,.77-1.26l.33-.62c.16-.43,.34-.85,.56-1.26s.46-.8,.72-1.16l2.37-4.48-.08-.04,1.31-2.47,10.2-19.31,4.87-9.22,10.69-20.25,.81-1.54,.08,.04,.67-1.27,3.3-6.26c.17-.46,.37-.91,.61-1.35,2.48-4.69,7.53-7.03,12.01-5.87,.13,.05,.26,.08,.4,.11,.27,.08,.54,.18,.8,.29l.14-.26c1-.13,1.97-.78,2.51-1.81l11.85-22.46,1.19-2.25c.78-1.47,.24-3.29-1.18-4.06l.06-.11c-3.19-2.45-4.22-6.98-2.24-10.74,.23-.44,.5-.85,.79-1.23-.04-.02-.08-.03-.11-.05l.54-1.03c.78-1.48,.24-3.31-1.21-4.08,0,0-4.66-1.24-9.86,.46-1.57,.51-4.7,5.98-5.48,7.46L99.64,182.72c-.78,1.48-3.53,7.15-3.06,8.73,1.53,5.25,5.18,8.4,5.18,8.4,1.45,.76,3.27,.18,4.05-1.3l.54-1.03s.07,.05,.1,.07c.15-.46,.34-.91,.57-1.35,1.98-3.76,6.31-5.46,10.13-4.21l.06-.11c1.44,.74,3.24,.15,4.02-1.31l.96-1.82,8.33-15.78c-.64-.26-1.28-.56-1.91-.89-7.49-3.96-11.61-11.8-11.19-19.74Z"/><circle class="k" cx="137.99" cy="153.67" r="4.9"/><circle class="k" cx="175.7" cy="82.24" r="4.9"/><circle class="k" cx="201.56" cy="33.24" r="4.9"/><path class="g" d="M157.05,163.35c3.77-7.14,3.02-15.47-1.24-21.71l-10.01,18.96h0l-7.37,13.97c7.55,0,14.85-4.08,18.62-11.22Z"/></g><path class="f" d="M180.11,22.77L91.52,190.6c1.2,6.9,5.57,13.56,12.33,18l3.14,1.66c5.42,2.86,12.26,.67,15.18-4.88l6.85-12.97,23.93-45.33,1.22-2.31c-2.82-6.65-1.84-16.77,3.19-26.43,1.12-2.1,2.35-4.07,3.66-5.9,4.85-6.6,10.96-10.98,16.61-12.11l.71-1.34,24.46-46.33,6.76-12.81c2.93-5.55,.89-12.43-4.54-15.29l-3.98-2.1c-7.21-2.71-14.8-2.46-20.92,.32Zm-62.71,180.41c-1.26,2.39-4.23,3.31-6.62,2.05s-3.31-4.23-2.05-6.62,4.23-3.31,6.62-2.05c2.39,1.26,3.31,4.23,2.05,6.62Zm24.93-47.23c-1.26,2.39-4.23,3.31-6.62,2.05s-3.31-4.23-2.05-6.62,4.23-3.31,6.62-2.05,3.31,4.23,2.05,6.62Zm37.7-71.43c-1.26,2.39-4.23,3.31-6.62,2.05-2.39-1.26-3.31-4.23-2.05-6.62s4.23-3.31,6.62-2.05,3.31,4.23,2.05,6.62Zm15.99-41.9l-.06,.11c1.42,.77,1.96,2.59,1.18,4.06l-1.19,2.25-11.85,22.46c-.54,1.03-1.51,1.67-2.51,1.81l-.14,.26c-.27-.11-.53-.2-.8-.29-.13-.03-.27-.06-.4-.11-4.48-1.16-9.53,1.18-12.01,5.87-.23,.44-.43,.89-.61,1.35l-3.3,6.26-.67,1.27-.08-.04-.81,1.54-10.69,20.25-4.87,9.22-10.2,19.31-1.31,2.47,.08,.04-2.37,4.48c-.26,.37-.5,.75-.72,1.16s-.4,.83-.56,1.26l-.33,.62c-.28,.4-.54,.82-.77,1.26-2.48,4.69-1.55,10.18,1.93,13.22,.11,.08,.22,.17,.32,.27,.22,.18,.45,.35,.69,.5l-.14,.26c.46,.9,.47,2.07-.08,3.09l-11.59,21.96-.96,1.82c-.78,1.47-2.58,2.06-4.02,1.31l-.06,.11c-3.82-1.26-8.15,.45-10.13,4.21-.23,.44-.42,.89-.57,1.35-.04-.02-.07-.04-.1-.07l-.54,1.03c-.78,1.48-2.6,2.06-4.05,1.3,0,0-3.65-3.15-5.18-8.4-.46-1.59,2.28-7.26,3.06-8.73L178.45,33.42c.78-1.48,3.91-6.94,5.48-7.46,5.2-1.7,9.86-.46,9.86-.46,1.45,.76,1.99,2.6,1.21,4.08l-.54,1.03s.08,.03,.11,.05c-.29,.38-.56,.79-.79,1.23-1.98,3.76-.95,8.29,2.24,10.74Zm9.87-7.09c-1.26,2.39-4.23,3.31-6.62,2.05s-3.31-4.23-2.05-6.62,4.23-3.31,6.62-2.05,3.31,4.23,2.05,6.62Z"/><path class="i" d="M149.61,153.38l-3.81,7.22c-.08,.16-.17,.31-.26,.46,.09-.15,.17-.3,.26-.46l-3.25,6.15c2.4-1.11,4.46-2.98,5.79-5.49s1.71-5.28,1.27-7.88Z"/><path class="g" d="M195.46,90.57c3.77-7.14,3.02-15.47-1.24-21.71l-10.01,18.96h0l-7.37,13.97c7.55,0,14.85-4.08,18.62-11.22Z"/><path class="i" d="M188.03,80.6l-3.81,7.22c-.08,.16-.17,.31-.26,.46,.09-.15,.17-.3,.26-.46l-3.25,6.15c2.4-1.11,4.46-2.98,5.79-5.49s1.71-5.28,1.27-7.88Z"/><path class="h" d="M151.48,152.73c3.17-6,7.14-10.82,10.97-13.71-2.16-4.44-1.78-11.03,1.46-17.17s8.86-10.47,13.91-10.96c0-4.94,1.76-11.38,5.15-17.82,.41-.77,.83-1.52,1.26-2.25l-2.18-1.15c-.6-.32-1.36-.09-1.67,.52,0,0-2.92,7.07-4.05,7.67-3.82,2.03-15.44,9.76-21.05,20.39-5.61,10.63-4.58,23.86-4.96,28.89-.09,1.18-3.5,6.63-3.5,6.63-.32,.6-.09,1.36,.52,1.67l2.28,1.2c.55-1.3,1.18-2.61,1.87-3.92Z"/><path class="h" d="M112.06,213.02c-2,0-3.97-.48-5.78-1.44l-3.26-1.73c-6.94-4.56-11.67-11.48-12.98-18.99l-.09-.5L179.02,21.62l.47-.21c6.62-3.01,14.67-3.14,22.07-.36l.17,.08,3.98,2.1c6.17,3.26,8.48,11.02,5.16,17.32l-32.26,61.12-.7,.14c-6.89,1.38-14.4,8.06-19.12,17-4.72,8.95-6,18.91-3.25,25.38l.28,.66-32.33,61.24c-1.6,3.03-4.27,5.28-7.52,6.32-1.29,.42-2.61,.62-3.91,.62Zm-7.45-5.71l3.07,1.62c2.26,1.19,4.88,1.41,7.37,.61,2.5-.8,4.56-2.53,5.79-4.87l31.67-60c-2.78-7.35-1.42-17.71,3.63-27.28,5.05-9.57,12.84-16.54,20.48-18.39l31.6-59.87c2.55-4.83,.79-10.78-3.91-13.26l-3.89-2.05c-6.47-2.4-13.44-2.36-19.22,.11L93.09,190.84c1.28,6.49,5.46,12.46,11.52,16.46Z"/><g><path class="e" d="M138.68,113.6l1.37,.72-1.51,2.87,1.48,.78,1.13-2.15,1.33,.7-1.13,2.15,2.85,1.5-.91,1.71-7.04-3.72,2.42-4.58Z"/><path class="e" d="M139.68,110.78l7.42,3.92-.9,1.71-7.42-3.92,.9-1.71Z"/><path class="e" d="M143.43,111.19c-.32-.45-.5-.92-.53-1.42-.04-.5,.07-.98,.31-1.44,.21-.39,.47-.7,.79-.91,.32-.21,.65-.33,.99-.35l-.79-.42,.91-1.71,5.59,2.95-.91,1.71-.79-.42c.17,.3,.26,.65,.26,1.03,0,.38-.1,.77-.31,1.16-.24,.45-.58,.81-1.01,1.06-.43,.25-.93,.37-1.48,.35s-1.12-.17-1.69-.48-1.02-.68-1.34-1.12Zm2.36-3.24c-.37,.11-.65,.33-.83,.67s-.21,.69-.09,1.06c.12,.37,.39,.66,.82,.89s.83,.29,1.21,.18c.38-.1,.65-.33,.83-.67s.21-.7,.09-1.06c-.12-.37-.4-.66-.82-.89s-.83-.29-1.2-.18Z"/><path class="e" d="M151.54,102.76l1.45,.77-.46,.87c-.33,.62-.74,1.03-1.22,1.21-.49,.19-1.08,.1-1.76-.26l-2.23-1.17-.36,.68-1.42-.75,.36-.68-1.36-.72,.91-1.71,1.36,.72,.59-1.12,1.42,.75-.59,1.12,2.25,1.19c.17,.09,.31,.11,.42,.07,.12-.04,.22-.16,.32-.34l.32-.61Z"/></g></g></g></g><g id="b"/></svg>