<?xml version="1.0" encoding="UTF-8"?><svg xmlns="http://www.w3.org/2000/svg" viewBox="0 0 376.28 97.62"><defs><style>.d,.e{fill:#ffbf00;}.f{opacity:.75;}.g{fill:#132139;}.e{opacity:.25;}</style></defs><g id="a"/><g id="b"><g id="c"><g><path class="e" d="M250.16,38.91c6.82-3.6,10.74-9.42,11.9-17.05,1.18-7.81-2.48-15.06-9.47-18.66-6.96-3.58-14.08-3.83-21.03-.2-17.56,9.15-35.07,18.41-52.6,27.62l-26.21,13.78c-8.74,4.59-17.48,9.18-26.21,13.78-6.45,3.4-10.31,8.83-11.8,15.94-1.19,5.65-.01,10.87,3.73,15.36,5.99,7.19,17.89,9.29,26.43,4.78,9.68-5.1,19.36-10.19,29.04-15.28,25.41-13.36,50.83-26.69,76.22-40.08Z"/><g><path class="d" d="M197.73,66.84c-17.5,9.29-34.96,18.67-52.51,27.85-7.24,3.79-14.7,3.53-21.87-.34-7.77-4.19-11.09-12.73-8.54-21.52,1.86-6.41,5.69-11.32,11.65-14.49C161.18,39.9,195.88,21.44,230.61,3.03c6.9-3.66,14.01-3.63,21.01-.33,8.17,3.86,12.06,12.37,9.82,21.31-1.7,6.77-5.59,11.95-11.81,15.26-17.29,9.2-34.6,18.38-51.89,27.57h0Zm-18.98-35.64c-8.68,4.61-17.35,9.22-26.03,13.83-8.68,4.61-17.36,9.21-26.03,13.83-6.41,3.41-10.24,8.8-11.73,15.83-1.18,5.58-.02,10.72,3.7,15.12,5.95,7.03,17.76,8.99,26.24,4.47,9.61-5.12,19.23-10.23,28.84-15.33,25.24-13.41,50.48-26.79,75.7-40.23,6.77-3.61,10.67-9.39,11.83-16.92,1.18-7.71-2.45-14.83-9.39-18.31-6.91-3.47-13.98-3.64-20.88,0-17.44,9.19-34.83,18.48-52.25,27.73Z"/><path class="d" d="M134.7,97.62c-3.83,0-7.69-1.02-11.46-3.06-7.87-4.25-11.27-12.81-8.66-21.81,1.91-6.58,5.87-11.51,11.77-14.64,11.72-6.22,23.44-12.45,35.16-18.68,22.99-12.21,45.98-24.43,68.98-36.62,6.86-3.64,14-3.75,21.24-.33,8.22,3.88,12.22,12.56,9.96,21.6-1.74,6.94-5.75,12.13-11.94,15.42-12.21,6.49-24.42,12.98-36.63,19.46l-15.53,8.25h0c-4.94,2.61-9.87,5.24-14.8,7.87-12.26,6.53-24.94,13.29-37.45,19.83-3.46,1.81-7.04,2.71-10.64,2.71ZM241.3,.5c-3.58,0-7.12,.92-10.58,2.75-23,12.19-45.99,24.41-68.98,36.62-11.72,6.23-23.44,12.45-35.16,18.68-5.78,3.07-9.65,7.89-11.53,14.33-2.55,8.76,.76,17.1,8.41,21.23,7.28,3.93,14.56,4.04,21.63,.34,12.52-6.55,25.19-13.3,37.45-19.83,5.02-2.67,10.04-5.35,15.06-8.02l.19-.1h0l15.08-8c12.21-6.48,24.42-12.97,36.63-19.46,6.05-3.22,9.98-8.3,11.68-15.1,2.2-8.8-1.69-17.25-9.68-21.02-3.43-1.62-6.84-2.43-10.21-2.43Zm-106.52,96.46c-6.25,0-12.48-2.47-16.31-6.99-3.71-4.39-4.98-9.55-3.75-15.33,1.53-7.24,5.52-12.62,11.86-15.99,6.11-3.25,12.23-6.5,18.34-9.75l33.72-17.91c5.12-2.72,10.24-5.45,15.37-8.17,12.08-6.43,24.57-13.07,36.88-19.56,6.84-3.6,13.94-3.6,21.11,0,6.98,3.5,10.71,10.8,9.52,18.57-1.19,7.75-5.21,13.51-11.96,17.1-17.95,9.57-36.23,19.27-53.89,28.65-7.27,3.86-14.54,7.72-21.81,11.58l-5.5,2.92c-7.78,4.13-15.57,8.27-23.35,12.42-3.13,1.67-6.69,2.46-10.24,2.46ZM178.87,31.43l-33.72,17.91c-6.12,3.25-12.23,6.49-18.34,9.75-6.2,3.3-10.1,8.57-11.6,15.66-1.19,5.62,.04,10.64,3.65,14.9,5.86,6.93,17.49,8.91,25.93,4.41,7.78-4.15,15.56-8.28,23.35-12.42l5.5-2.92c7.27-3.86,14.54-7.72,21.81-11.58,17.67-9.38,35.94-19.08,53.89-28.65,6.6-3.52,10.54-9.15,11.7-16.74,1.16-7.56-2.47-14.64-9.25-18.05-7.02-3.53-13.97-3.53-20.66,0-12.31,6.49-24.8,13.13-36.88,19.56-5.12,2.72-10.24,5.45-15.37,8.17Z"/></g><g class="f"><g><path class="d" d="M135.88,95.92c-.73,.47-1.52,.84-2.28,1.25,.22,.01,.44,.03,.66,.04,.58-.38,1.26-.64,1.63-1.29Z"/><path class="d" d="M257.56,16.16c-1.94,.8-3.59,2.04-5.49,2.9-9.94,4.48-19.42,9.87-29.03,15-4.09,2.18-8.09,4.56-12.11,6.86-7.69,4.39-15.52,8.55-22.88,13.51-2,1.35-4.15,2.46-6.23,3.68-9.33,5.5-18.42,11.42-28.19,16.13-5.7,2.75-11.31,5.72-17.17,8.15-4.24,1.76-8.36,3.82-12.5,5.82-1.7,.82-3.46,1.53-5.16,2.34,2.12,2.37,4.89,4.14,7.97,5.26,2.75-1.77,5.51-3.53,8.31-5.24,10.31-6.31,20.74-12.41,31.56-17.77,8.24-4.09,16.57-8,25.04-11.63,5.3-2.28,10.6-4.61,15.83-7.06,2.63-1.23,5.31-2.33,8.22-2.88,1.91-.36,3.81-1.03,5.58-1.85,9.8-4.53,19.3-9.67,28.73-14.9,3.34-1.86,6.69-3.78,9.84-5.97,.89-2.02,1.51-4.22,1.87-6.6,.38-2.55,.23-5.04-.38-7.36-1.25,.58-2.52,1.1-3.78,1.62ZM128.64,93.78l.06,.1-2.14,1.13-.06-.1,2.14-1.13Zm2.23-1.46c-.06,.08-.1,.18-.18,.23-.08,.04-.19,.02-.3,.03,.07-.09,.11-.19,.19-.23,.08-.04,.19-.02,.28-.02Zm6.8-4.08l-.06,.19-2.12,1.13-.06-.12,2.23-1.19Zm91.23-43.87c-2.02,1.35-4.2,1.74-6.47,2.1,3.92-2.53,8.53-3.39,12.64-5.45l.22,.5c-2.15,.93-4.48,1.58-6.39,2.86Zm20.03-10.26c-3.58,2.02-7.26,3.98-11.13,5.54,7.46-3.55,13.97-8.6,20.96-12.93-3.17,2.63-6.3,5.39-9.83,7.38Zm-32.68,15.07l-.06,.18-1.83,.97-.06-.12,1.95-1.03Zm-7.72,3.31c-.9,1.32-1.16,1.46-3.37,1.79l3.37-1.79Zm-6.86,3.42c-.07,.07-.13,.17-.22,.2-.06,.03-.16-.03-.26-.05,.09-.08,.15-.18,.23-.21,.06-.02,.16,.03,.24,.05Zm-9.16,4.07c-1.39,1.02-2.89,1.57-4.74,2.07,1.61-1.19,3.23-1.58,4.74-2.07Zm-10.83,4.79c-1.58,1.52-3.49,1.47-4.9,2.48,1.19-1.34,2.62-2.3,4.9-2.48Zm-34.57,17.84c-.97,.64-1.56,1.03-2.16,1.4,0,0-.11-.15-.18-.25,.54-.49,1.15-.85,2.33-1.16Zm21.72-12.75c-3.19,2.43-7.18,3.45-10.26,6.08l-.27-.48,10.53-5.59Zm.42-3.36l.03,.17-3.34,1.77-.08-.14,3.38-1.8Zm-18.26,9.82l-1.5,.79c.47-.43,.83-.82,1.5-.79Zm27.41-15.36c-.07,.08-.12,.19-.2,.22-.08,.03-.18,0-.28,0,.06-.07,.11-.18,.19-.22,.07-.04,.18,0,.29,0Z"/><path class="d" d="M258.23,8.24l-.02-.03c-.1,.06-.2,.12-.29,.18,.1-.04,.21-.1,.32-.15Z"/><path class="d" d="M128.86,58.67c2.64-1.24,5.2-2.67,7.8-4,4.84-2.48,9.8-4.75,14.5-7.46,7.44-4.29,15.04-8.28,22.36-12.79,4.63-2.85,9.52-5.29,14.21-8.05,1.12-.66,2.25-1.31,3.38-1.96-4.15,2.21-8.3,4.42-12.45,6.62l-26.15,13.89c-8.72,4.63-17.44,9.25-26.15,13.89-1.73,.92-3.27,2-4.63,3.21,2.37-1.12,4.75-2.23,7.13-3.35Z"/><path class="d" d="M117.87,89.11c3.61-1.93,7.22-3.84,10.83-5.76l.31,.52-8.71,4.63c.74,.51,1.03,.24,1.29,.09,4.34-2.37,8.85-4.36,13.38-6.34,4.81-2.11,9.39-4.74,14.13-6.99,4.61-2.18,9.06-4.69,13.54-7.1,5.02-2.71,10.08-5.41,14.78-8.7,2.25-1.57,4.76-2.75,7.11-4.18,4.7-2.85,9.61-5.34,14.35-8.13,6.87-4.04,13.89-7.82,20.77-11.85,9.3-5.45,19.03-10.07,28.54-15.1,4.26-2.25,8.55-4.44,12.93-6.45-.04-.14-.08-.27-.13-.41-1.05,.59-2.15,1.12-3.45,1.33l3.29-1.75c-.37-1.01-.83-1.98-1.38-2.91-6.24,3.17-12.63,6.04-18.84,9.27-12.22,6.36-24.46,12.69-36.45,19.46-12.28,6.93-24.38,14.17-36.63,21.17-5.61,3.21-11.36,6.18-17.07,9.21-6.6,3.5-13.2,7.01-19.85,10.4-4.81,2.45-9.71,4.71-14.57,7.06,.46,.9,1.01,1.78,1.65,2.63,.07-.04,.13-.08,.18-.1Zm68-35.96c.13-.04,.28-.02,.42-.02-.02,.09-.02,.24-.07,.27-.12,.06-.27,.06-.43,.08,.04-.16,.04-.32,.09-.33Zm-51.11,27.65c.38-.65,.85-.65,1.37-.98-.29,.65-.75,.7-1.37,.98Zm32.74-16.19c-6.97,3.73-13.91,7.53-20.97,11.1-3.04,1.53-6.17,2.91-9.22,4.42,.33-.85,1.01-1.14,1.65-1.48,9.33-4.95,18.66-9.9,28-14.83,.56-.29,1.41-1.03,1.76-.41,.41,.73-.71,.93-1.23,1.21Zm3.81-2.41l-.41,.04c.1-.11,.18-.24,.29-.32,.07-.06,.25-.11,.28-.07,.18,.18-.05,.22-.16,.35Zm5.07-3.17c2.02-1.03,3.58-2.85,5.95-3.27-1.9,1.24-3.73,2.6-5.95,3.27Zm12.65-7.32c.3-.62,.62-.76,1.17-.69-.15,.55-.52,.63-1.17,.69Zm4.38-2.33l.07,.14-1.85,.98-.13-.35c.64-.26,1.28-.52,1.91-.78Zm10.39-5.68l-7.46,3.96c2.06-2.39,5.06-2.62,7.46-3.96Zm3.16-2.53c1.28-.83,2.56-1.68,3.85-2.5,.22-.14,.55-.27,.74,.04,.18,.3-.05,.54-.29,.67-1.34,.77-2.63,1.63-4.3,1.78Zm16.63-8.9c-.57,.7-1.17,.9-1.85,.98l1.85-.98Zm6.47-3.46l2.54-1.35,.07,.13-2.54,1.35-.07-.13Zm24.9-12.97c-.63,.91-1.61,1.21-2.59,1.5,.6-.96,1.6-1.23,2.59-1.5Zm-5.09,2.5c-.53,.71-.89,1.22-1.81,1.06,.47-.6,1.03-.78,1.81-1.06Zm-3.38,1.83c-.48,.6-.75,.82-1.3,.69,.19-.5,.59-.49,1.3-.69Zm-19.86,10.13l-.06,.24-.31,.06c.03-.08,.03-.19,.08-.23,.08-.05,.19-.05,.29-.07Zm-5.89,1.73l-.04-.15,2.43-1.29,.07,.13-2.47,1.31Zm21.35-11.12l.06,.12-2.78,1.47-.02-.15,2.73-1.45Zm-33.98,18.21l-.06-.09,2.45-1.3,.05,.09-2.45,1.3Zm40.64-21.25v-.16l2.35-1.26,.08,.12-2.43,1.29Zm9.43-4.6l-.05-.1,2.14-1.14,.05,.1-2.14,1.14Zm-39.51,21.58c-1.06,1.15-2.26,1.36-3.43,1.66,.93-.74,1.88-1.48,3.43-1.66Zm-33.07,17.37l-.06-.12,2.22-1.18,.06,.12-2.22,1.18Zm-51.23,27.48c.49-.38,.92-.68,1.56-.76-.48,.41-.91,.69-1.56,.76Zm11.66-5.72l-.05-.09,2.43-1.29,.05,.09-2.43,1.29Zm4.45-2.36l-.06-.12,4.26-2.26,.02,.15-4.21,2.24Zm6.89-3.66l-.09-.11,5.15-2.73,.07,.12-5.12,2.72Z"/><path class="d" d="M156.67,54.01c-13.88,7.88-27.84,15.59-42.3,22.36-.07,.51-.12,1.01-.14,1.52,15.05-7.3,29.54-15.68,44.43-23.55-.17,.74-.77,.87-1.22,1.11-10.11,5.39-19.97,11.23-30.18,16.42-4.35,2.21-8.7,4.43-13.05,6.65-.03,1.38,.1,2.73,.39,4.05,6.43-3.1,12.72-6.48,19.11-9.67-6.36,3.33-12.54,7-19.03,10.07,.05,.21,.11,.42,.17,.63,.21-.06,.43-.11,.66-.13-.16,.21-.35,.38-.54,.54,.05,.17,.11,.33,.17,.49,2.59-1.31,5.17-2.63,7.81-3.83,1.84-.84,2.96-2.58,4.57-3.47,9.15-5.06,18.48-9.79,27.65-14.83,6.38-3.5,12.71-7.08,19.11-10.55,.91-.5,1.82-.75,2.89-.73l-2.87,1.52,.12,.25c.92-.43,1.85-.86,2.77-1.29,.08,.17,.16,.34,.24,.51-9.22,4.47-17.69,10.35-27.1,14.47l-.27-.51,22.53-11.97c-.09-.16-.18-.32-.27-.48-11.85,7.05-24.17,13.23-36.25,19.85,3.38-1.44,6.47-3.52,10.12-4.38-.53,.28-1.07,.56-1.59,.85-9.25,5.12-18.83,9.6-28.17,14.55-.37,.19-.73,.4-1.1,.6,.13,.34,.28,.67,.43,1.01,8-4.06,16.15-7.82,24.17-11.86,6.16-3.11,12.33-6.23,18.23-9.85,.24-.15,.47-.31,.72-.44,9.94-5.23,19.51-11.11,29.23-16.72,6.86-3.96,13.91-7.58,20.77-11.53,8.38-4.83,16.97-9.24,25.51-13.74,8-4.21,16.15-8.12,24.24-12.15,.16-.08,.33-.15,.49-.23-.2-.31-.4-.61-.62-.91l-.07,.04c-7.79,4.02-15.54,8.13-23.44,11.94-3.45,1.66-6.73,3.6-10.08,5.43-.74,.4-1.48,.82-2.86,.94l13.3-7.06-.21-.4-37.57,19.96,.14,.27,20.34-10.8,.19,.36c-12.94,6.67-25.5,14.02-38.27,20.99,4.33-3.35,9.36-5.52,14.01-8.33-4,2.16-8.24,3.87-12.03,6.43-.8,.54-1.58,1.07-2.5,1.38-.18,.06-.51,.02-.61-.1-.24-.29,.03-.5,.26-.66,.19-.13,.39-.23,.58-.34,5.05-2.82,10.03-5.78,15.18-8.43,8.94-4.61,17.41-10.06,26.46-14.44,7.34-3.55,14.43-7.59,21.76-11.14,4.84-2.34,9.56-4.91,14.38-7.27-.1-.11-.2-.21-.3-.32l-3.37,1.79-.16-.3,3.29-1.75c-.99-1.01-2.1-1.91-3.35-2.69l-16.07,7.87c5-3.09,10.31-5.56,15.56-8.17-.3-.18-.61-.36-.93-.52-.05-.03-.1-.05-.15-.07-1.63,.81-3.28,1.58-4.98,2.2-3.42,1.25-6.17,3.85-9.87,4.38,4.51-2.51,9.11-4.85,13.75-7.1-.66-.3-1.33-.56-1.99-.8-.56,.22-1.12,.44-1.71,.65,.51-.34,.88-.59,1.22-.82-.24-.08-.48-.15-.72-.23-.19,.11-.38,.2-.61,.17,.12-.09,.24-.16,.36-.24-2.79-.81-5.59-1.08-8.38-.76-2.01,1.05-4,2.13-6.08,3.04-3.1,1.35-6.04,2.93-8.91,4.72-2.43,1.51-5.03,2.74-7.51,4.16-6.07,3.45-12.11,6.94-18.17,10.4-.57,.33-1.17,.62-1.75,.93l-.27-.42c1.47-.96,2.9-2.02,4.43-2.88,4.94-2.77,9.8-5.7,14.81-8.35,5.79-3.06,11.45-6.37,17.24-9.44,1.02-.54,2.06-1.05,3.1-1.56-1.62,.44-3.23,1.07-4.83,1.91-6.73,3.55-13.45,7.11-20.17,10.68-3.18,1.77-6.35,3.55-9.53,5.32-6.92,3.84-13.72,7.91-20.49,12-13.27,8.02-26.57,16-40.46,22.9-6.81,3.39-13.67,6.68-20.61,9.79-.53,.6-1.03,1.23-1.49,1.89,1.9-.86,3.81-1.73,5.71-2.6,1.36-.62,2.65-1.39,4.13-1.77-3.41,1.81-6.88,3.47-10.36,5.14-1.22,1.92-2.14,4.06-2.79,6.39,1.99-1.16,3.98-2.32,5.98-3.45,2.88-1.63,6.35-1.74,9.2-3.49-1.85,1.44-3.91,2.42-6.13,2.96-.8,.19-1.48,.44-2.07,.99-2.09,1.94-4.71,2.87-7.23,3.98-.07,.3-.14,.59-.21,.9-.11,.53-.19,1.05-.26,1.57,13.96-7.72,28.39-14.54,42.3-22.36Zm-33.07,25.47l-6.17,3.28c-.08-.16-.17-.32-.25-.48,2.31-.58,3.99-2.34,6.42-2.8Zm41.64-23.46l.07,.13-29.29,15.56-.07-.13,29.29-15.56Zm14.72-8.19l.07,.14-10.49,5.57-.08-.14,10.5-5.58Zm3.1-1.89l-.03-.15,9.27-4.93,.07,.13-9.31,4.95ZM250.41,10l.07,.14-10.5,5.58-.07-.14,10.5-5.58Zm-13.78,7.08c-14.14,7.64-28.4,15.04-42.55,22.67,14.05-7.8,28.16-15.5,42.55-22.67Zm-18.43,4.53c5.52-2.88,11.01-5.84,16.71-8.44-.53,.28-1.06,.56-1.59,.84-13.64,7.25-27.35,14.38-40.91,21.78-9.26,5.06-18.32,10.49-27.66,15.41-1.25,.66-2.21,1.87-3.81,2.07,.2-.75,.83-.83,1.28-1.08,6.77-3.76,13.68-7.3,20.3-11.32,5.14-3.12,10.5-5.83,15.69-8.85,6.48-3.78,13.33-6.94,19.99-10.42Zm15.81-9.98l-7.06,3.75c2.08-1.8,4.41-3.12,7.06-3.75Zm-93.89,48.88c-.54,.26-1.09,.51-1.63,.77l-.02-.05,19.8-10.52,.24,.54-22.46,11.93-.09-.15,4.3-2.29-.13-.24Zm21.26-11.16c.33-.47,.71-.66,1.27-.67-.34,.44-.71,.66-1.27,.67Zm5.11-2.81l1.57-.83,.06,.08-1.57,.84-.05-.08Zm-34.17,13.44c-.51,.29-1.07,.58-2.13,.14,22.07-10.38,42.86-22.35,63.64-35.18-.1,1.28-.6,1.5-1.02,1.73-5.31,2.9-10.28,6.37-15.72,9.08-1.94,.96-3.74,2.41-5.71,3.46-5.5,2.93-10.9,6.03-16.37,8.99-6.25,3.39-12.47,6.89-19.06,9.65-1.28,.54-2.41,1.43-3.62,2.13Zm54.7-25.95c.2-.1,.39-.26,.6-.29,2.26-.4,2.25-.41,3.43-1.67,.89-.96,1.86-1.74,3.28-1.85,1.75-.14,2.51-1.9,4.03-2.6,3.26-1.49,6.27-3.48,9.63-4.84,3.01-1.22,5.38-3.57,8.19-5.2,4.47-2.61,9.09-4.92,13.63-7.38,3.81-2.07,7.65-4.07,11.47-6.13,1.09-.59,2.24-1.03,3.53-1.19-.36,.24-.72,.48-1.22,.81l1.08-.02c.13,.43-.19,.52-.4,.64-3.91,2.09-7.99,3.84-11.9,5.96-7.95,4.32-16.01,8.44-23.95,12.79-8.52,4.66-17.04,9.36-25.4,14.3-3.38,2-6.98,3.63-10.16,5.98-.33,.24-.69,.59-1.28,.37,.12-.85,.61-1.42,1.34-1.78,4.86-2.36,9.33-5.4,14.11-7.91Zm-25.13,14.41l-.07-.13,6.29-3.34,.08,.13-6.3,3.34Zm-29.79,16.82c.46-1.01,.99-1.57,1.91-1.58,.08,0,.27,.3,.24,.34-.47,.67-1.21,.89-2.15,1.24ZM206.46,25.82l17.47-9.28,.23,.35c-5.86,3.06-11.4,6.72-17.71,8.93Zm-12.66,7.38c3.5-2.05,6.83-4.41,10.76-5.72l-10.76,5.72Zm-5.46,2.99c-2.63,1.34-4.82,3.45-7.81,4.15l7.81-4.15Zm-11.85,6.55c-.97,1.19-2.23,1.93-3.73,2.31,1.02-1.12,2.44-1.61,3.73-2.31Zm-8.4,4.94c-2.94,1.77-6.04,3.26-8.86,5.2,2.61-2.36,5.82-3.62,8.86-5.2Z"/><path class="d" d="M218.32,55.79s-.01,0-.02,0c.16-.22,.34-.35,.61-.31,10.33-5.49,20.66-10.98,30.99-16.48,2.39-1.27,4.41-2.83,6.09-4.63-.02-.02-.05-.03-.06-.05-.32-.5,.22-.67,.52-.84,.22-.12,.43-.25,.64-.38,.55-.69,1.05-1.41,1.5-2.17-3.96,2.38-7.84,4.88-11.83,7.19-1.06,.61-2.28,.93-3.37,1.51-2.72,1.45-5.32,3.18-8.07,4.52-7.36,3.58-14.41,7.82-22.07,10.78-2.25,.87-4.37,2.08-6.48,3.19-2.63,1.38-5.38,1.82-8.18,2.32-.94,.17-2.08,.1-2.44,1.38-.07,.23-.43,.34-.56,.18-1.15-1.52-1.48-.29-2.02,.53-.15,.22-.59,.32-.92,.35-3.42,.38-6.52,1.85-9.4,3.48-3.62,2.05-7.57,3.31-11.19,5.35-5.97,3.35-12.21,6.2-18.29,9.34-3.37,1.74-6.81,3.59-9.93,5.86-1.28,.94-2.99,1.34-3.99,2.45-1.49,1.67-3.72,2.35-5.03,4.18-.32,.45-.74,.91-1.22,1.14-1.23,.59-2.38,1.3-3.51,2.05,.8,.16,1.61,.3,2.42,.37,.88-.47,1.76-.95,2.6-1.49,4.75-3.09,9.46-6.23,14.06-9.54,3-2.16,6.13-4.17,9.37-5.95,4.18-2.29,8.25-4.84,12.76-6.48,3.95-1.43,8-2.62,11.87-4.24,4.54-1.9,9.2-3.51,13.61-5.79,3.15-1.63,6.52-2.95,9.82-4.31,1.2-.5,2.45-.93,3.46-1.72,1.36-1.06,2.92-1.61,4.53-2.1-3.95,1.82-6.85,5.49-11.54,6.35l1.68-1.03c-5.23,1.32-9.39,4.89-14.32,6.99l2.5-1.33c-2.65,.2-4.67,1.9-7.11,2.61-3.89,1.13-7.5,3.02-11.09,4.82-5.61,2.83-11.31,5.47-16.97,8.2-1.99,.96-3.53,2.54-5.33,3.84,.79,.16,1.39-.28,1.94-.72,2.19-1.71,4.81-2.67,7.19-4.03,.3-.17,.77-.52,.99,.02,.18,.45-.33,.67-.66,.85-1.68,.91-3.29,2.02-5.08,2.65-3.66,1.29-6.68,3.69-10.01,5.52-1.31,.72-2.74,1.22-3.88,2.26l-.24-.38c2.58-1.59,5.17-3.18,7.75-4.77-4.6,1.78-8.47,4.79-12.52,7.53l2.29-1.22,.22,.38c-1.89,.84-3.53,2.1-5.29,3.16,3.39-.05,6.76-.81,9.73-2.39,9.65-5.14,19.31-10.27,28.97-15.4,14.82-7.87,29.64-15.74,44.46-23.61Zm-55.71,21.61c-.82,.57-1.22,.91-1.86,.94,.42-.46,.89-.67,1.86-.94Zm-7.67,4.11l-.06-.12,3.7-1.97,.06,.12-3.7,1.97Zm-12.67,8.46c.12-.64,.56-.77,1.26-.89-.27,.7-.64,.92-1.26,.89Zm3.18-2.3c.12,.23-.05,.4-.28,.58l-.35-.05c.08-.19,.13-.4,.25-.56,.05-.06,.35-.03,.38,.03Zm5.18-3.24c.12-.78,.67-.73,1.23-1.19-.33,.77-.68,1-1.23,1.19Zm32.75-16.18c.47-.38,.9-.83,1.88-.71-.64,.72-1.27,.68-1.88,.71Zm-18.42,11.31c4.5-1.98,8.61-4.75,13.34-6.2-4.47,2.04-8.58,4.82-13.34,6.2Zm18.45-8.29c.75-1.12,1.52-1.28,2.32-1.37-.46,.68-1.15,.95-2.32,1.37Zm4.2-1.89c.21-.68,.53-.82,1.16-.74-.2,.6-.6,.6-1.16,.74Zm-35.38,19.62c.29-.37,.54-.57,.96-.52-.2,.32-.5,.43-.96,.52Zm21.2-11.24c.45-.47,.91-.68,1.53-.83-.44,.48-.91,.68-1.53,.83Zm-34.89,18.94l-.06-.09,2.48-1.32,.06,.09-2.48,1.32Zm43.57-23.08l-.08-.15c.98-.52,1.96-1.05,2.96-1.56,.15-.08,.21,.05,.15,.1l-3.02,1.6Zm72.15-37.93c-1.86,1.05-3.3,1.97-5.04,2.58,.72-1.17,1.28-1.45,5.04-2.58Zm-26.49,13.08l.06,.11-4.54,2.41-.06-.11,4.54-2.41Zm-6.75,3.59c-.52,.62-.89,.82-1.4,.87,.22-.5,.67-.55,1.4-.87Zm-4.41,2.3c-.13-.25,.07-.41,.28-.52,.2-.11,.45-.18,.58,.08,.12,.24-.07,.41-.27,.54-.22,.09-.46,.14-.59-.09Zm-25.02,14.19c.16-.25,.36-.39,.67-.31-.16,.24-.36,.39-.67,.31Zm30.47-16.27l3.72-1.98,.07,.14-3.72,1.98-.07-.14Zm-25.39,14.01l.07-.19,5.3-2.82,.06,.12-5.43,2.88Zm31.59-16.96c3.88-3.16,8.32-5.38,12.86-7.62-3.81,3.48-8.39,5.46-12.86,7.62Zm11.2-5.92l1.21-.64c-.3,.54-.72,.61-1.21,.64Zm4-1.91c-.25,.13-.6,.22-.76-.06-.21-.38,.13-.61,.41-.78,.81-.49,1.65-.92,2.91-.8-.81,.95-1.74,1.22-2.56,1.65Zm-37.39,20.21l-.07-.13,2.78-1.47,.02,.16-2.73,1.45Z"/></g></g><g><circle class="g" cx="144.47" cy="67.17" r=".89"/><circle class="g" cx="153.36" cy="62.48" r=".89"/><circle class="g" cx="148.28" cy="74.22" r=".89"/><circle class="g" cx="157.17" cy="69.53" r=".89"/><circle class="g" cx="217.15" cy="28.52" r=".89"/><circle class="g" cx="226.04" cy="23.83" r=".89"/><circle class="g" cx="220.96" cy="35.57" r=".89"/><circle class="g" cx="229.85" cy="30.88" r=".89"/></g></g><g><path class="e" d="M364.16,38.91c6.82-3.6,10.74-9.42,11.9-17.05,1.18-7.81-2.48-15.06-9.47-18.66-6.96-3.58-14.08-3.83-21.03-.2-17.56,9.15-35.07,18.41-52.6,27.62l-26.21,13.78c-8.74,4.59-17.48,9.18-26.21,13.78-6.45,3.4-10.31,8.83-11.8,15.94-1.19,5.65-.01,10.87,3.73,15.36,5.99,7.19,17.89,9.29,26.43,4.78,9.68-5.1,19.36-10.19,29.04-15.28,25.41-13.36,50.83-26.69,76.22-40.08Z"/><g class="f"><g><path class="d" d="M240.09,58.85c-.41,.22-.81,.45-1.2,.68,11.75-5.76,23.4-11.71,34.83-18.08,4.39-2.44,8.75-4.93,13.11-7.44l-20.59,10.94c-8.72,4.63-17.44,9.25-26.15,13.89Z"/><path class="d" d="M232.69,90.43l.16,.3-.13,.07c.66,.71,1.37,1.37,2.14,1.97,.36-.28,.72-.55,1.08-.83,1.85-1.41,4.31-1.71,6.14-3.12,3.41-2.61,7.63-3.82,11.04-6.32,4.62-3.38,9.92-5.42,14.89-8.07,8.07-4.31,16.28-8.35,24.53-12.31,8.29-3.98,16.7-7.73,24.82-12.07,6.12-3.27,12.45-6.12,18.54-9.47,6.89-3.78,13.97-7.22,20.77-11.15,6.29-3.63,12.7-7.03,18.98-10.68-.03-1.68-.3-3.31-.77-4.85-10.75,6.07-21.48,12.17-32.28,18.16-6.98,3.87-14.06,7.57-21.17,11.2-7.65,3.91-15.34,7.76-23.11,11.42-3.36,1.58-6.61,3.36-9.93,5-17.24,8.51-34.13,17.7-51.05,26.8-1.89,1.02-3.74,2.1-5.6,3.19,.14,.17,.27,.35,.42,.52,.1,.12,.22,.23,.33,.35l.21-.11Zm52.87-27.8l-1.21,.64c.27-.56,.72-.61,1.21-.64Zm-3.92,1.55l.11,.1-8.12,4.31-.07-.12,8.07-4.29Zm-42.33,22.65c-.17,.03-.2-.06-.06-.17,.08-.06,.19-.08,.29-.12,.02,.04,.05,.11,.04,.12-.09,.06-.18,.15-.27,.16Z"/><path class="d" d="M228.96,72.97c2.09-1.32,4.35-2.32,6.3-3.87,.6,.83-.48,.88-.17,1.81,1.71-1.98,4.6-2.04,5.79-4.56,.33-.7,1.02-1.02,1.67-1.37,10.27-5.46,20.44-11.11,30.84-16.31,5.37-2.69,10.59-5.69,16.06-8.16,2.48-1.12,4.78-2.75,7.58-3.14,.16-.02,.31-.13,.45-.22,8.02-5.22,16.93-8.71,25.4-13.04,2.3-1.18,4.58-2.4,6.88-3.57,.46-.23,.88-.71,1.59-.44-.44,1.03-1.44,1.37-2.15,2.04,1.35-.46,2.62-1.04,3.44-2.31,.51-.79,1.33-1.18,2.13-1.6,6.65-3.54,13.35-6.96,19.92-10.64,3.03-1.7,6.02-3.48,9-5.28-.88-.36-1.76-.66-2.65-.91-.71,.43-1.41,.86-2.13,1.27-5.98,3.44-11.97,6.87-18.13,9.97-8.72,4.39-17.33,9.02-26.41,12.67-1.35,.54-2.61,1.32-3.92,1.96-.44,.21-1.02,.52-1.32-.11-.26-.54,.34-.73,.69-.99,12.98-9.61,27.27-17.02,41.59-24.32,.82-.42,1.63-.83,2.45-1.25-1.68,.11-3.36,.41-5.02,.94-6.56,3.35-13.07,6.79-19.53,10.34l-.21-.33c-.58,.31-1.15,.61-1.73,.92,.1,0,.21,0,.33,.02-1.14,.71-2.12,1.34-3.12,1.93-4.4,2.6-8.83,5.15-13.2,7.79-5.9,3.57-11.7,7.32-17.67,10.79-4.7,2.73-9.31,5.6-14.09,8.21-5.96,3.26-11.89,6.6-17.97,9.63-9.55,4.75-19.2,9.29-28.8,13.94-1.87,2.38-3.22,5.14-4.08,8.27,.06-.04,.11-.07,.17-.11Zm1.94-4.67c.03-.07,.04-.17,.1-.21,.07-.05,.18-.05,.29-.07-.04,.09-.06,.18-.12,.22-.08,.05-.18,.05-.27,.07Z"/><path class="d" d="M252.91,61.49c.15-.09,.31-.18,.47-.28-3.43,1.88-6.86,3.75-10.25,5.68,3.29-1.76,6.6-3.48,9.78-5.41Z"/><path class="d" d="M354.67,14.14c-5.67,3.56-11.62,6.65-17.55,9.76-3.38,1.77-6.93,3.22-10.33,4.94-4.68,2.36-9.4,4.65-14.22,6.69-6.8,2.87-13.39,6.19-20.19,9.05-10.5,4.43-20.79,9.3-30.71,14.88-4.86,2.73-9.82,5.28-14.63,8.11-5.43,3.2-10.86,6.4-16.29,9.6-.94,.56-1.88,1.13-2.82,1.72,0,.35,0,.69,.03,1.03,1.74-1.34,3.73-2.34,5.67-3.43,2.42-1.36,4.7-2.99,7.01-4.54,2.21-1.48,4.74-2.27,6.93-3.76,4.51-3.05,9.54-5.2,14.21-7.99,5-2.99,10.08-5.91,15.64-7.83,.79-.27,1.55-.66,2.28-1.09,3.59-2.11,7.4-3.85,11.23-5.37,3.94-1.57,7.66-3.64,11.61-5.07,5.78-2.1,11.05-5.21,16.61-7.71,9.62-4.33,19.08-8.98,28.33-14.04,5.85-3.2,11.53-6.68,17.25-10.11,1.66-1,3.27-2.09,4.92-3.13-.28-.24-.57-.48-.87-.7-4.65,3.08-9.4,6.02-14.12,8.99Z"/><path class="d" d="M325.07,25.48c-.9,.43-1.81,.87-2.71,1.31-.88,.43-1.77,.83-2.66,1.24,1.25-.56,2.5-1.13,3.73-1.72,.55-.26,1.09-.55,1.64-.83Z"/><path class="d" d="M271.3,44.59c6.97-3.96,13.99-7.85,20.87-11.98,5.19-3.12,10.39-6.25,15.66-9.23,3.04-1.72,6.03-3.54,9.03-5.32-3.08,1.64-6.17,3.28-9.25,4.92-4.12,2.37-8.24,4.75-12.24,7.32-2.78,1.79-5.72,3.35-8.61,4.96-11.86,6.65-23.7,13.37-35.87,19.43-5.12,2.55-10.2,5.24-15.5,7.42-.37,.33-.73,.68-1.08,1.03,3.27-1.58,6.54-3.15,9.83-4.69,2.08-.98,4.15-1.99,6.2-3.03,7-3.58,14.12-6.95,20.95-10.83Z"/><path class="d" d="M246.64,92.88c4.49-2.69,9.1-5.14,13.7-7.61,6.83-3.67,13.66-7.36,20.6-10.81,7.19-3.57,14.46-6.97,21.78-10.27,8.54-3.85,17.12-7.65,25.55-11.77,9.45-4.62,18.59-9.8,27.73-14.96,6.21-3.51,12.29-7.26,18.37-10.99,.47-1.43,.84-2.93,1.07-4.52,.13-.86,.19-1.72,.2-2.56-5.97,3.4-12.03,6.65-17.97,10.11-8.45,4.92-17.18,9.31-25.77,13.95-3.79,2.05-7.8,3.71-11.53,5.84-5.02,2.87-10.15,5.57-15.38,7.97-8.67,3.98-17.11,8.4-25.74,12.45-8.88,4.16-17.47,8.96-26.02,13.77-2.53,1.42-5.09,2.82-7.63,4.23-3.32,1.84-6.53,3.87-9.84,5.71,.22,.15,.45,.3,.68,.45,2.15-1.87,4.69-2.95,7.34-3.85l-7.3,3.88c.45,.28,.91,.55,1.38,.8l.96-.51-.06,.2-.74,.39c1.04,.53,2.13,.98,3.25,1.34,1.79-1.07,3.55-2.18,5.34-3.25Zm107.64-57.51c.3-.66,.78-.66,1.32-1.04-.36,.7-.82,.73-1.32,1.04Zm19.74-11.91l.09,.12c-.26,.17-.51,.34-.77,.52l-.14-.21,.82-.43Zm-35.59,18.34c-2.3,1.7-5.23,1.69-7.4,3.31,0,.02-.02,.03-.03,.05h0s-.03,0-.04,0c-.99,1.28-2.55,1.36-3.91,1.84,1.22-.79,2.39-1.7,3.91-1.84l.02-.02s.03-.02,.05-.03c.39-.73,1.13-1.01,1.8-1.37,5.35-2.85,10.72-5.68,16.07-8.54,1.58-.85,3.19-1.64,4.98-2.01-5.48,2.97-10.79,6.27-16.77,8.55,.55,.43,.79-.07,1.31,.07Zm18.14-11.05c2.19-1.09,4.03-2.29,6.49-3.21-1.54,2.09-5.05,3.85-6.49,3.21Zm8.25-3.75c.73-1.47,2.3-1.33,3.53-1.87l-3.53,1.87Zm7.93-5.08c.12-.02,.26,.09,.4,.14l-.28,.4c-.17-.04-.4-.03-.43-.11-.12-.26,.11-.39,.31-.43Zm-122.36,63.86l17.31-9.19c-5.39,3.76-11.55,6.13-17.06,9.66-.08-.16-.16-.31-.25-.47Zm16.73-8.02c3.51-3.64,8.49-4.72,12.68-7.27-.21,.62-.49,1.23-1.09,1.45-4.09,1.53-7.66,4.1-11.6,5.82Zm15.46-7.89c.21-.51,.73-.48,1.1-.68-.22,.41-.6,.62-1.1,.68Zm-41.26,22.73v-.15l3.83-2.04,.07,.11-3.9,2.07Zm44.32-24.61c10.11-5.96,20.99-10.43,31.27-16.07-9.75,6.65-20.8,10.8-31.27,16.07Zm33.08-16.21c.45-.99,4.42-3.3,4.42-3.19,0,1.17,.89-.12,1.07,.51-1.75,.85-3.4,1.94-5.48,2.68Zm-20.36,11.36l-.05-.09,2.33-1.24,.13,.28-2.41,1.05Zm5.4-2.53l-.07-.13,3.96-2.1,.05,.14-3.95,2.1Zm6.51-3.1c.76-1.21,2.12-1.23,3.26-1.73l-3.26,1.73Zm8.07-3.93l-.06-.11,2.16-1.15,.07,.1-2.16,1.15Zm50.84-27.19c.18-.59,.6-.73,1.14-.82-.19,.56-.49,.86-1.14,.82Zm-5.06,3.18l.06,.08c-1.51,.96-3.02,1.92-4.52,2.87l-.24-.45,4.71-2.5Zm-30.16,16.39c-1.84,1.14-3.46,2.69-5.77,2.91,1.66-1.48,3.99-1.66,5.77-2.91Z"/><path class="d" d="M270.97,83.56c7.73-3.72,15.41-7.55,23.25-11.05,5.38-2.4,10.77-4.81,16.17-7.13,6.86-2.95,13.47-6.41,20.39-9.2,1.76-.71,3.45-1.57,5.16-2.42,9.23-4.91,18.47-9.81,27.69-14.73,1.94-1.03,3.63-2.25,5.1-3.63-7.37,5.16-15.55,8.87-23.45,13.05-4.6,2.43-9.46,4.38-14.09,6.79-2.1,1.1-4.31,1.95-6.55,2.78,.47-.77,1.28-.93,2.02-1.26,1.13-.5,2.55-.66,2.91-2.23,.05-.2,.4-.4,.64-.49,2.76-.97,5.27-2.43,7.82-3.84,6.19-3.43,12.56-6.54,18.7-10.04,5.32-3.03,10.56-6.2,15.75-9.46,.56-.95,1.04-1.96,1.46-3.01-3.08,1.88-6.16,3.75-9.26,5.58-10.21,6.03-20.5,11.92-31.11,17.24-8.28,4.15-16.59,8.24-25.09,11.95-6.48,2.84-12.79,6.05-19.26,8.92-13.74,6.1-26.77,13.55-39.99,20.64-2.5,1.34-4.96,2.76-7.39,4.23,.77,.23,1.55,.42,2.34,.57,2.89-1.78,5.78-3.56,8.76-5.17,8.51-4.62,16.9-9.5,25.73-13.51,1.48-.67,2.88-1.53,4.35-2.23,5.98-2.81,11.95-5.61,17.96-8.36,6.15-2.81,12.33-5.56,18.5-8.32,.72-.32,1.46-.58,2.2-.85,.29-.11,.69-.39,.9,.01,.25,.46-.18,.71-.51,.91-.48,.29-.97,.56-1.49,.79-6.09,2.74-12.12,5.62-18.29,8.16-7.58,3.12-14.95,6.71-22.38,10.14-5.05,2.33-9.89,5.1-14.79,7.73-5.25,2.81-10.57,5.49-15.6,8.7-1.17,.75-2.34,1.5-3.5,2.25,.39,.04,.79,.06,1.18,.09,3.02-1.92,6.14-3.69,9.2-5.53,4.76-2.86,9.56-5.71,14.56-8.12Zm54.14-26.67l-.07-.12,2.76-1.46,.07,.12-2.76,1.46Z"/><path class="d" d="M233.39,85.55l.3,.53-3.25,1.72c.33,.55,.7,1.08,1.1,1.61,16.88-9.68,34.23-18.48,51.45-27.52,10.53-5.53,21.21-10.8,31.85-16.14,7.57-3.81,15.19-7.55,22.67-11.52,6.39-3.39,12.78-6.82,19.02-10.48,4.56-2.68,9.34-4.94,13.85-7.66,1.45-.88,2.91-1.74,4.38-2.58-.04-.13-.1-.26-.14-.39l-3.45,1.83-.16-.3,3.49-1.85c-.17-.45-.36-.9-.57-1.33l-.85,.45-.06-.13,.85-.45c-.87-1.78-2.03-3.4-3.48-4.81-3.73,2.27-7.46,4.53-11.24,6.71-6.19,3.55-12.44,6.99-18.72,10.37-7.27,3.92-14.53,7.86-22.04,11.3-6.68,3.06-13.44,5.98-20.14,8.99-5.68,2.55-11.35,5.14-17,7.75-3.87,1.79-7.82,3.45-11.54,5.51-5.26,2.9-10.79,5.27-15.87,8.52-3.4,2.18-7.11,3.83-10.51,6.05-5.04,3.3-10.13,6.51-15.21,9.73,.23,1.57,.68,3.09,1.36,4.55l.97-.51,.16,.3-.98,.52c.19,.4,.4,.79,.62,1.18,1.05-.64,2.07-1.34,3.13-1.95Zm76.82-37.93l-.07-.13,2.55-1.36,.07,.13-2.55,1.36Zm6.65-3.7l2.93-1.55,.07,.13-3.06,1.62,.06-.19Zm6.68-3.14l-.12-.21,5.28-2.8,.12,.21-5.27,2.8Zm11.26-5.85l-.07-.13,6.11-3.24,.07,.13-6.11,3.24Zm13.72-7.53c.7-.74,1.55-1.2,2.97-1.65-1.03,1.13-1.97,1.46-2.97,1.65Zm17.8-9.74l.07,.13-8.8,4.67-.07-.13,8.8-4.67Zm-11.09,6.06c-.13,.6-.52,.79-1.24,.82,.32-.62,.7-.82,1.24-.82Zm-52.54,27.36l.07,.13-10.28,5.46-.07-.13,10.28-5.46Zm-12.19,6.46c.28,.12,0,.22-.07,.27-.12,.08-.27,.11-.45,.18,.05-.12,.06-.23,.11-.26,.13-.08,.31-.22,.41-.18Zm18.05-10.95l.05-.21,5.92-3.15,.07,.14-6.05,3.21Zm14.63-7.41l-.05-.1,.64-.34,.05,.1-.64,.34Zm3.15-1.64l-.07-.13,3.35-1.78-.06,.19-3.23,1.71Zm-45,24.53l.11,.12-8.98,4.77-.07-.13,8.94-4.75Zm-36.35,19.3l.08,.12-5.74,3.05-.07-.13,5.73-3.04Zm16.12-8.84c-.36,.34-.69,.59-1.21,.59,.37-.31,.7-.57,1.21-.59Zm80.32-43.12c-.29,.35-.54,.56-.95,.5,.2-.3,.5-.42,.95-.5Zm18.11-9.99l.11,.09-4.21,2.24-.07-.11,4.17-2.21Zm-6.38,3.4c-.1,.32-.34,.38-.64,.38,.1-.32,.35-.37,.64-.38Zm-61.45,29.9l.06,.11-6.97,3.7-.06-.11,6.97-3.7Zm-39.46,20.74l-.05-.09,11.07-5.88,.05,.09-11.07,5.88Zm13.05-6.92l-.07-.12,7.52-3.99,.07,.12-7.52,4Zm16.31-8.49l.07,.13-1.94,1.03-.07-.13,1.94-1.03Zm-44.41,23.77l-.1-.12,10.52-5.59,.07,.13-10.49,5.57Zm62.42-32.74l-.07-.13,5.74-3.05-.06,.19-5.61,2.98Zm9.58-4.91l7.87-4.18,.07,.13-7.87,4.18-.07-.13Zm-21.9,11.78l-3.37,1.79-.07-.13,3.37-1.79,.07,.13ZM363.71,15.19l.06,.11-5.96,3.16-.02-.13,5.92-3.14Zm-84.06,44.63l.07,.1-1.76,.94-.06-.1,1.75-.93Zm-37.45,20.07l-.11-.08,1.09-.58,.06,.11-1.04,.55Zm4.88-2.55l-.07-.09,2.08-1.11,.05,.1-2.07,1.1Zm-3.17,2.83l-.04-.16,3.63-1.93,.07,.14-3.66,1.95Zm38.16-20.23l-.07-.13,7.76-4.12,.11,.11-7.8,4.14Zm38.07-20.41l2.44-1.29,.05,.08-2.43,1.29-.05-.08Zm-23.31,12.74l.08,.14-4,2.12-.08-.14,4-2.12Zm50.83-27.23l-1.14,.6c.34-.5,.73-.61,1.14-.6Zm-10.91,5.71c-.11,.32-.35,.37-.64,.38,.11-.31,.35-.38,.64-.38Zm-25.36,13.02l.07,.12-5.09,2.7-.13-.09,5.15-2.73Zm15.36-8.36l-.09-.12,10.52-5.59,.07,.13-10.49,5.57Zm14.34-7.57l-.07-.12,3.31-1.76,.02,.14-3.26,1.73Zm-72.65,38.78c.13-.07,.2,.03,.12,.15-.33,.18-.65,.35-1.03,.55,.12-.54,.59-.53,.91-.7Zm-14.69,7.94c.09-.1,.16-.23,.27-.31,.08-.06,.2-.05,.3-.07l-.21,.31-.36,.06Zm4.53-2.52l5.82-3.09c-1.95,1.6-3.96,2.21-5.82,3.09Zm21.08-10.88l.07,.14-3.96,2.1,.05-.21,3.84-2.04Z"/><path class="d" d="M275.82,85.71c1.46-.83,2.91-1.66,4.37-2.5,.86-.49,1.71-1,2.67-1.24,1.58-.84,3.15-1.68,4.73-2.51,2.44-1.3,4.88-2.59,7.32-3.89-1.27,.6-2.55,1.2-3.84,1.76-4.43,1.95-8.73,4.17-13.1,6.25-6.5,3.09-12.59,6.87-18.71,10.58-.83,.5-1.65,1.03-2.47,1.54,.62-.25,1.24-.53,1.83-.85,5.73-3.06,11.47-6.1,17.21-9.15Z"/></g></g><g><path class="d" d="M311.44,66.84c-17.5,9.29-34.96,18.67-52.51,27.85-7.24,3.79-14.7,3.53-21.87-.34-7.77-4.19-11.09-12.73-8.54-21.52,1.86-6.41,5.69-11.32,11.65-14.49,34.71-18.43,69.41-36.89,104.14-55.3,6.9-3.66,14.01-3.63,21.01-.33,8.17,3.86,12.06,12.37,9.82,21.31-1.7,6.77-5.59,11.95-11.81,15.26-17.29,9.2-34.6,18.38-51.89,27.57h0Zm-18.98-35.64c-8.68,4.61-17.35,9.22-26.03,13.83-8.68,4.61-17.36,9.21-26.03,13.83-6.41,3.41-10.24,8.8-11.73,15.83-1.18,5.58-.02,10.72,3.7,15.12,5.95,7.03,17.76,8.99,26.24,4.47,9.61-5.12,19.23-10.23,28.84-15.33,25.24-13.41,50.48-26.79,75.7-40.23,6.77-3.61,10.67-9.39,11.83-16.92,1.18-7.71-2.45-14.83-9.39-18.31-6.91-3.47-13.98-3.64-20.88,0-17.44,9.19-34.83,18.48-52.25,27.73Z"/><path class="d" d="M248.4,97.62c-3.83,0-7.69-1.02-11.46-3.06-7.87-4.25-11.27-12.81-8.66-21.81,1.91-6.58,5.87-11.51,11.77-14.64,11.72-6.22,23.44-12.45,35.15-18.67,22.99-12.22,45.98-24.43,68.99-36.62,6.86-3.64,14-3.75,21.24-.33,8.22,3.88,12.22,12.56,9.96,21.6-1.74,6.94-5.75,12.13-11.94,15.42-12.08,6.42-24.16,12.84-36.24,19.26l-15.88,8.43h0c-4.95,2.62-9.89,5.25-14.83,7.89-12.26,6.53-24.94,13.29-37.45,19.83-3.46,1.81-7.04,2.71-10.64,2.71ZM355.01,.5c-3.58,0-7.12,.92-10.58,2.75-23,12.19-46,24.41-68.99,36.62-11.72,6.23-23.44,12.45-35.15,18.67-5.78,3.07-9.65,7.89-11.53,14.33-2.55,8.76,.76,17.1,8.41,21.23,7.28,3.93,14.56,4.04,21.63,.34,12.52-6.55,25.19-13.3,37.45-19.83,5.02-2.67,10.04-5.35,15.06-8.02l.23-.12h0l15.43-8.19c12.08-6.42,24.16-12.83,36.24-19.26,6.05-3.22,9.98-8.3,11.68-15.1,2.2-8.8-1.69-17.25-9.68-21.02-3.43-1.62-6.84-2.43-10.21-2.43Zm-106.52,96.46c-6.25,0-12.48-2.47-16.31-6.99-3.71-4.39-4.97-9.55-3.75-15.33,1.53-7.24,5.52-12.62,11.86-15.99,6.11-3.25,12.23-6.5,18.34-9.75l33.72-17.91c5.09-2.71,10.19-5.42,15.28-8.12,12.11-6.44,24.63-13.1,36.97-19.6,6.84-3.6,13.94-3.6,21.11,0,6.98,3.5,10.71,10.79,9.52,18.57-1.19,7.75-5.21,13.5-11.96,17.1-17.98,9.58-36.28,19.3-53.97,28.69-7.24,3.85-14.49,7.69-21.73,11.54l-5.5,2.92c-7.78,4.13-15.57,8.27-23.35,12.42-3.13,1.67-6.69,2.46-10.24,2.46Zm44.09-65.54l-33.72,17.91c-6.12,3.25-12.23,6.49-18.34,9.75-6.2,3.3-10.1,8.57-11.6,15.66-1.19,5.62,.04,10.64,3.64,14.9,5.86,6.93,17.49,8.91,25.93,4.41,7.78-4.15,15.56-8.28,23.35-12.42l5.5-2.92c7.24-3.85,14.49-7.69,21.73-11.54,17.69-9.39,35.99-19.11,53.97-28.69,6.6-3.52,10.54-9.15,11.7-16.74,1.16-7.56-2.47-14.64-9.25-18.05-7.02-3.53-13.97-3.53-20.66,0-12.34,6.5-24.86,13.16-36.96,19.6-5.09,2.71-10.19,5.42-15.28,8.12Z"/></g><g><circle class="g" cx="258.47" cy="67.17" r=".89"/><circle class="g" cx="267.36" cy="62.48" r=".89"/><circle class="g" cx="262.28" cy="74.22" r=".89"/><circle class="g" cx="271.17" cy="69.53" r=".89"/><circle class="g" cx="331.15" cy="28.52" r=".89"/><circle class="g" cx="340.04" cy="23.83" r=".89"/><circle class="g" cx="334.96" cy="35.57" r=".89"/><circle class="g" cx="343.85" cy="30.88" r=".89"/></g></g><g><path class="e" d="M136.16,38.91c6.82-3.6,10.74-9.42,11.9-17.05,1.18-7.81-2.48-15.06-9.47-18.66-6.96-3.58-14.08-3.83-21.03-.2-17.56,9.15-35.07,18.41-52.6,27.62l-26.21,13.78c-8.74,4.59-17.48,9.18-26.21,13.78-6.45,3.4-10.31,8.83-11.8,15.94-1.19,5.65-.01,10.87,3.73,15.36,5.99,7.19,17.89,9.29,26.43,4.78,9.68-5.1,19.36-10.19,29.04-15.28,25.41-13.36,50.83-26.69,76.22-40.08Z"/><g class="f"><g><path class="d" d="M11.89,95.26s.03,.01,.05,.02c.55-.32,1.1-.62,1.62-.87-.55,.21-1.11,.5-1.67,.85Z"/><path class="d" d="M77.75,49.02c7.43-3.44,14.9-6.81,22.31-10.31,11.49-5.42,22.63-11.51,33.77-17.6,4.54-2.48,8.96-5.2,13.39-7.89-.11-.33-.23-.66-.37-.99-3.74,2.3-7.39,4.73-11.15,6.98-4.43,2.66-9.06,4.99-13.61,7.45-6.03,3.26-12.12,6.42-18.34,9.31-8.4,3.9-16.9,7.6-25.24,11.63-6.77,3.27-13.67,6.25-20.44,9.52-8.31,4.01-16.41,8.39-24.51,12.8-4.83,2.63-9.53,5.51-14.28,8.28-1.17,.68-2.45,1.05-3.81,1.34,.76-1.17,2.06-1.73,3.16-2.4,1.99-1.23,3.96-2.58,6.31-3.13,.26-.06,.55-.21,.71-.41,1.27-1.52,3.04-2.29,4.72-3.19,9.28-4.94,18.49-10.02,27.89-14.73,7.32-3.67,14.72-7.18,22.25-10.43,3.97-1.71,7.83-3.67,11.77-5.44,8.71-3.9,17.09-8.44,25.63-12.68,3.77-1.87,7.39-4.04,11.08-6.09,.28-.16,.51-.41,.99-.8-.83-.13-1.26,.22-1.67,.49-6.25,4.02-12.91,7.33-19.55,10.61-5.18,2.55-10.22,5.43-15.59,7.6-5.83,2.35-11.35,5.4-17.2,7.72-2.18,.87-4.29,1.97-6.39,3.01-4.92,2.46-9.9,4.81-14.81,7.31-6.24,3.18-12.49,6.35-18.69,9.63-.24,.13-.49,.22-.78,.26,.91-.82,1.84-1.6,3.04-1.97,1.8-.56,3.18-1.9,4.83-2.73,9.17-4.64,18.3-9.38,27.58-13.81,2.86-1.37,5.85-2.6,8.7-3.95,4.09-1.92,8.14-3.97,12.3-5.76,5.32-2.29,10.55-4.76,15.68-7.41,7.07-3.67,14.28-7.08,21.08-11.28,4.39-2.71,8.96-5.15,13.49-7.64,1.11-.61,1.99-1.64,3.61-2.04-.66,1.64-2.1,1.85-3.15,2.5-1.15,.71-2.43,1.2-3.53,1.98-1.06,.75-2.15,1.43-3.29,2.03-1.19,.62-2.38,1.26-3.45,2.09,4.64-2.72,9.56-4.93,14.18-7.69-.42-.85-.9-1.67-1.45-2.44-3.84,2.3-7.71,4.54-11.57,6.79-8.72,5.09-17.4,10.29-26.65,14.43-4.66,2.09-9.23,4.37-13.86,6.53-7.27,3.39-14.56,6.74-21.82,10.14-3.81,1.79-7.45,3.92-11.33,5.58-7.33,3.15-14.19,7.26-21.33,10.8-6.34,3.15-12.46,6.68-18.62,10.14-6.24,3.51-12.27,7.4-18.4,11.13,.19,.55,.41,1.09,.65,1.63,.09-.05,.17-.1,.26-.15,5.56-2.72,10.23-6.85,15.72-9.69,4.27-2.21,8.36-4.77,12.71-6.83-1.53,1.42-3.33,2.44-5.17,3.37-4.47,2.26-8.59,5.08-12.77,7.82-2.77,1.81-5.86,3.09-8.57,5.02-.59,.42-1.18,.86-1.79,1.28,.04,.08,.09,.17,.14,.25,3.32-1.97,6.64-3.95,9.98-5.89,.19-.11,.48-.8,.93-.13,.48,.71-.14,.78-.49,1-3.25,2.05-6.5,4.09-9.76,6.13,.16,.25,.33,.49,.5,.73,7.72-4.33,15.05-9.32,22.73-13.74,5.74-3.3,11.5-6.57,17.35-9.66,6.89-3.64,13.8-7.29,21-10.35,4.39-1.87,8.65-4.03,12.98-6.03Z"/><path class="d" d="M91.2,18.46c-7.23,4-14.53,7.87-21.85,11.7-5.96,3.12-12,6.08-17.99,9.13-10.76,5.47-21.36,11.26-32.04,16.88-1.88,.99-3.74,2.03-5.6,3.07,5.78-3.12,11.57-6.23,17.38-9.3,5.17-2.73,10.38-5.37,15.55-8.09,5.1-2.68,10.32-5.14,15.42-7.82,9.2-4.84,18.42-9.62,27.53-14.63,2.06-1.13,4.1-2.32,6.19-3.42,7.17-3.76,14.23-7.71,21.33-11.6,2.3-1.26,4.61-2.46,6.85-3.63-.15,.03-.3,.06-.45,.09-1.24,.67-2.51,1.35-3.77,2.05-9.5,5.22-19.07,10.33-28.56,15.57Z"/><path class="d" d="M136.58,3.3c-.49,.28-1.04,.51-.86,1.26,.07,.3-.03,.66-.3,.71-1.58,.35-2.35,1.83-3.7,2.54-7.01,3.68-13.4,8.45-20.82,11.67,.49,.45,.9-.11,1.24,.35-.43,.61-1.07,.91-1.8,.96-2.67,.16-4.95,1.44-7.27,2.57-2.28,1.11-4.5,2.37-6.86,3.62-.08-1.03,.82-.9,1.08-1.64-3.86,2.01-7.52,4.06-11.5,5.48-.16-.59,.28-.64,.51-.82,2.93-2.28,6.24-4.16,8.94-6.58,1.82-1.63,3.85-2.48,5.88-3.53l-3.9,2.07c1.48-.16,2.75-.72,3.93-1.51,.83-.57,1.74-1.03,2.55-1.63,1.61-1.2,3.64-1.56,4.99-3.52,1.01-1.47,3.41-2,5.31-2.75l-2.19,1.16,.17,.32,10.25-5.44c-5.54,3.22-10.99,6.57-16.33,10.12,10.4-5.11,20.8-10.22,30.62-16.39-.21-.09-.43-.18-.64-.27-4.05,1.8-7.94,3.9-11.84,6.01-.09-.16-.19-.31-.28-.47,3.42-2.06,6.83-4.12,10.25-6.18-1.49-.45-2.99-.75-4.48-.89-3.51,1.89-7.01,3.81-10.47,5.79-5.76,3.29-11.7,6.25-17.47,9.51-14.19,8.02-28.62,15.6-43.09,23.07-11.13,5.75-22.33,11.37-33.51,17.01-7.15,3.6-14.19,7.4-21.24,11.17-.57,.98-1.07,2-1.51,3.08l2.52-1.34,.07,.12-2.67,1.42c-.53,1.37-.96,2.82-1.28,4.34-.03,.15-.05,.3-.08,.45,2.25-1.38,4.65-2.54,6.98-3.8,0-.01,.02-.03,.02-.04h.03c-.12-.49,.31-.82,.36-1.39-2.02,.32-3.71,1.4-5.72,1.74,1.09-.51,2.16-1.04,3.26-1.53,2.55-1.15,5.1-2.29,7.67-3.4,.32-.14,.82-.44,1.07,0,.32,.55-.26,.76-.6,1.01-1.9,1.38-3.9,2.59-6.04,3.58,0,0,0,.02,0,.03l-.05,.03c-.08,.14-.15,.31-.27,.36-2.71,1.15-4.69,3.31-6.95,5.1-.08,.78-.11,1.56-.09,2.32l3.12-1.66,.07,.1-3.18,1.97c.06,1.26,.25,2.48,.57,3.68,2.68-1.88,5.47-3.61,8.23-5.35,9.36-5.9,18.87-11.56,28.81-16.44,9.17-4.5,18.27-9.15,27.62-13.29,6.52-2.88,12.98-5.88,19.4-8.99,6.82-3.3,13.8-6.26,20.59-9.62,7.95-3.94,15.84-8.01,23.46-12.57,4.67-2.8,9.36-5.57,14.04-8.36,.37-.22,.74-.45,1.11-.68-1.55-1.92-3.52-3.54-5.88-4.74-.29-.15-.59-.29-.89-.42-.31,.18-.63,.36-.94,.55Zm-6.82,2.24c-2.87,1.85-6.03,3.21-8.83,5.21,2.53-2.44,5.82-3.58,8.83-5.21Zm-50.33,24.76l.06,.13-2.76,1.47-.06-.12,2.77-1.47Zm25.66-14.35l-.07,.19-2.33,1.24-.06-.12,2.46-1.31ZM131.04,1.73l.06,.09-2.95,1.57-.03-.11,2.92-1.55Zm-14.8,8.05l-.06-.11,4.8-2.55,.12,.08-4.86,2.58ZM15.68,63.56l-.07-.12,4.55-2.42,.07,.12-4.55,2.42Zm9.02-4.77c-.15,.07-.2-.02-.16-.07l1.34-.71,.06,.13c-.41,.22-.82,.45-1.24,.65ZM93.95,22.24l-.07,.18-1.76,.93-.06-.11,1.89-1Zm-59.31,31.69l-.07-.13,2.44-1.29,.07,.13-2.43,1.29Zm6.94-3.36l-.07-.14,3.73-1.98,.07,.14-3.73,1.98Zm11.2-6.13l.83-.44,.09,.13-.78,.52-.14-.21ZM9.98,67.67c.06-.07,.11-.17,.19-.21,.07-.04,.18,0,.28,0-.07,.08-.12,.18-.2,.22-.08,.03-.18,0-.27,0ZM107.17,22.24c.2,.06,.16,.25,.03,.37-.17,.14-.36,.24-.65,.07,.05-.12,.07-.29,.17-.36,.12-.08,.32-.12,.45-.08ZM16.97,64.65c2.07-1.39,4.19-2.1,6.58-2.27-1.55,.98-3.07,2.02-4.66,2.93-.67,.38-1.21-.25-1.92-.65Zm47.75-24.25c-.56,.62-.93,.82-1.42,.89,.22-.47,.67-.51,1.42-.89Zm-11.72,6.74c.67-.56,2.15-1.37,2.2-1.09,.23,1.19,.96,.1,1.41,.46-1.11,.59-2.08,1.13-3.08,1.62-.42,.21-1.02,.68-1.33,.1-.31-.56,.45-.81,.8-1.1ZM10.61,71.07c-2.04,2.15-4.58,2.8-6.58,4.26,1.67-2,3.67-3.45,6.58-4.26Zm52.33-27.73l-.38-.72c4.43-2.77,8.85-5.54,13.33-8.34-.63-.31-.99,.58-1.66,.26,7.05-3.22,13.19-7.92,20.24-11.01-8.37,4.43-16.01,9.99-23.86,15.28,6.13-2.24,11.71-5.82,18.16-7.33-1.29,.98-2.64,1.96-4.26,2.19-2.49,.36-4.58,1.47-6.55,2.89-.99,.72-2.06,1.25-3.28,1.86,.27-.77,1.09-.65,1.36-1.62-4.1,3.21-8.81,4.36-13.08,6.53Zm-12.76,8.21l4.52-2.4,.08,.14-4.51,2.4-.08-.14Zm-4.28,2.44l-1.95,1.04,.06-.19,1.83-.97,.06,.12Zm-26.89,14.29l-.12-.1,3.96-2.1,.07,.13-3.91,2.08Zm9.61-5.14c.03-.08,.04-.18,.1-.22,.07-.05,.18-.05,.3-.07-.04,.09-.06,.19-.12,.23-.08,.05-.18,.04-.28,.06Zm8.77-4.75c.63-.9,1.11-1.15,1.88-1.13-.33,.71-.92,.79-1.88,1.13Zm-26.26,14.51l-.06-.1,2.45-1.3,.06,.1-2.45,1.3Zm48.77-25.56l-.22-.35c2.59-1.9,5.75-2.67,8.58-4.1l-8.37,4.44Zm36.01-19.02l-.1-.18,4.19-2.22,.04,.21-4.13,2.2Zm8.08-4.52c-.23,.51-.56,.89-1.41,1.08,.35-.82,.92-.89,1.41-1.08Zm-8.38,6.3l3.46-1.84c-.74,1.41-2.11,1.59-3.46,1.84Zm9.55-4.72c-.39,.57-.67,.7-1.04,.73,.1-.4,.48-.39,1.04-.73Zm22.69-12.17c-.16,.01-.2-.05-.09-.16,.07-.07,.17-.12,.26-.14,.15-.03,.19,.05,.08,.16-.07,.07-.17,.1-.26,.14Zm4.03-2.22l-1.46,.77c.41-.55,.91-.7,1.46-.77Zm-61.03,30.75l3.46-1.84c-.72,1.42-2.26,1.28-3.46,1.84ZM122.06,14.38l-.09-.17,2.27-1.2-.02,.23-2.16,1.15Zm4.41-2.87c3.86-2.11,7.52-4.53,11.29-6.81-3.16,3.24-7.23,5.02-11.29,6.81Z"/><path class="d" d="M135.12,1.76c-.21-.08-.43-.16-.64-.23-1.19,.93-2.61,1.52-3.74,2.56l4.38-2.33Z"/><path class="d" d="M4.15,66.35c11.47-6.12,22.93-12.26,34.49-18.19,11.8-6.04,23.69-11.9,35.43-18.05,10.15-5.32,20.28-10.67,30.25-16.31,6.56-3.71,13.29-7.09,19.8-10.86,1.46-.85,2.93-1.68,4.4-2.5-.42-.02-.83-.02-1.25-.02-5.94,3.22-11.87,6.47-17.82,9.69-7.02,3.81-13.88,7.93-20.97,11.62-8.85,4.61-17.44,9.71-26.42,14.04-19.42,9.36-38.35,19.65-57.37,29.75-.19,.27-.38,.54-.56,.82Z"/><path class="d" d="M19.97,85.69c3.86-2.16,7.56-4.6,11.49-6.65,7.57-3.95,14.82-8.49,22.47-12.31,8.89-4.45,17.74-9,26.66-13.38,10.39-5.09,20.87-10,31.14-15.34,3.62-1.88,7.31-3.67,11.03-5.38-5.29,2.81-10.57,5.63-15.86,8.42-1.09,.58-2.26,1-3.35,1.58-9.07,4.84-18.47,9.02-27.6,13.76-4.53,2.35-9.1,4.66-13.65,6.98-5.4,2.76-10.91,5.31-16.22,8.25-8.3,4.6-16.44,9.49-24.65,14.24-4.34,2.5-8.68,5-13.02,7.5,.93,.63,1.93,1.18,2.96,1.66,3.09-1.83,6.2-3.63,9.38-5.29,2.27-1.18,4.89-1.57,7.06-3,.26-.17,.69-.3,.86,.13,.15,.4-.23,.61-.52,.74-.35,.15-.74,.27-1.12,.31-1.41,.13-2.61,.78-3.54,1.76-2.56,2.68-5.77,4.18-9.24,5.18-.57,.16-1.07,.43-1.54,.73,1.19,.46,2.43,.81,3.7,1.07l24.13-12.82c-7.74,4.41-15.65,8.51-23.37,12.97,.38,.06,.76,.11,1.14,.15,8.16-4.43,16.34-8.84,24.45-13.35,17.05-9.47,34.2-18.74,51.58-27.55,17.18-8.71,34.25-17.62,51.27-26.62,.72-1.42,1.29-2.93,1.72-4.55-1.1,.64-2.17,1.31-3.28,1.92-5.36,2.95-10.74,5.87-16.22,8.58-3.71,1.83-7.68,3.1-11.38,4.98-.75,.38-1.49,.76-2.02,1.44,0,0,0,.02,0,.03h0s-.03,.01-.05,.02c-.26,.39-.52,.78-1.12,.76,.25-.49,.74-.55,1.12-.76l.02-.03v-.02c-.39-.83,.41-.9,.82-1.14,3.91-2.22,8.07-3.93,12.12-5.89,1.76-.85,3.38-2,5.14-2.88,5.16-2.6,10.19-5.44,15.16-8.36,.12-.57,.23-1.15,.32-1.75,.05-.35,.08-.7,.12-1.05-.06,0-.11,0-.14-.02-.2-.14-.07-.26,.08-.32,.03-.01,.07,0,.1,0,.03-.38,.04-.77,.04-1.15-5.43,2.95-10.78,6.04-16.33,8.78,5.31-3.29,10.9-6.09,16.34-9.15,0-1.76-.28-3.47-.77-5.09-5.71,3.32-11.41,6.67-17.19,9.88-5.15,2.87-10.26,5.84-15.67,8.21-1.23,.54-2.42,1.19-3.61,1.83-11.27,5.98-22.87,11.27-34.51,16.49-4.15,1.86-8.29,3.77-12.35,5.8-7.54,3.77-15.31,7.09-22.63,11.27-8.25,4.7-16.61,9.19-24.6,14.34-4.16,2.68-8.47,5.15-12.67,7.8,.16,.21,.32,.42,.49,.62,.92,1.1,2,2.06,3.17,2.91,4.07-2.39,8.03-4.96,12.14-7.26ZM145.47,28.36c-1.09,1.7-38.01,20.27-40.58,21.29,13.28-7.44,27.1-13.84,40.58-21.29Zm-43.51,22.52c-19.59,10.67-39.42,20.95-58.94,31.83l-.22-.41,59.15-31.42Zm-41.72,15.22c-3.05,1.73-5.97,3.73-9.41,4.67,3.06-1.72,6.07-3.54,9.41-4.67Zm-11.27,5.57c.09,.16,.18,.32,.28,.49l-12.76,6.78-.21-.36c3.97-2.77,8.85-3.91,12.69-6.91Zm-14.62,8.64l-5.12,2.72c-.47,.35-.9,.62-1.32,.7l1.32-.7c1.28-.95,2.84-2.52,5.12-2.72Zm-22.18,12.07c3.19-1.61,7.18-4.54,11.83-6.29l-11.83,6.29ZM111.8,42.42c-1.48,2.49-4.02,3.58-6.53,4.31-1.79,.52-3.56,.97-5.14,1.94-1.04,.63-2.37,.63-3.28,1.52,.31,.56,.74,0,1.24,.31-2.82,1.31-5.54,2.49-8.15,3.89-11.67,6.28-23.7,11.89-35.24,18.41-4.5,2.54-8.99,5.09-13.52,7.56-1.88,1.02-4.6,.69-5.77,2.44-1.13,1.68-2.72,2.2-4.16,3.17-.95,.64-1.87,.66-2.88-.22,27.35-15.38,55.09-29.9,83.43-43.34Zm34.19-20.71c-.75,1-24.29,13.85-26.55,14.1l26.55-14.1Zm-31.02,16.25l.24,.47c-6.12,3-12,6.48-18.07,9l17.83-9.47Zm-20.11,10.52c-4.48,2.64-9,5.2-13.98,6.85,4.77-2.06,9.06-5.09,13.98-6.85Zm-16.05,8.17l-14.86,7.89c4.54-3.41,9.8-5.46,14.64-8.3l.21,.41Zm50.41-27.55c-.29,.49-.58,.6-1.4,.74l1.4-.74Zm-3.95,2.18c-.1,.31-.35,.37-.63,.37,.11-.3,.35-.36,.63-.37Z"/><path class="d" d="M136.13,38.89c3.88-2.07,6.82-4.86,8.83-8.3-9.92,5.32-19.84,10.64-29.89,15.71-12.89,6.5-25.79,13-38.53,19.8-13.72,7.32-27.49,14.55-41.13,22.02-3.89,2.13-7.79,4.26-11.66,6.43-1.49,.83-2.98,1.66-4.47,2.49,4.08,.31,8.26-.43,11.84-2.33,9.65-5.14,19.31-10.27,28.97-15.4,25.35-13.47,50.71-26.91,76.04-40.41Zm-19.69,8.49l.06,.1-3.34,1.78-.06-.1,3.34-1.78Zm-10.65,5.26l.06,.1-3.04,1.61-.06-.1,3.03-1.61Zm-28.12,14.68l-.11-.08,2.15-1.14,.07,.1-2.11,1.12Zm23.89-12.28l-1.29,.68c.21-.5,.54-.57,1.29-.68Zm-32.4,17.24l-1.44,.76c.27-.53,.57-.66,1.44-.76Zm-12.47,6.42l-.05,.2-3.31,1.76-.07-.14,3.43-1.82Zm-24.33,13.48l-.06-.1,1.92-1.02,.06,.1-1.92,1.02Zm12.73-6.87c.36-.39,.65-.9,1.34-.89-.27,.68-.81,.8-1.34,.89ZM123.49,44.05c.6-.53,1.16-.84,1.95-1.01-.62,.52-1.16,.85-1.95,1.01Z"/></g></g><g><path class="d" d="M84.02,66.84c-17.5,9.29-34.96,18.67-52.51,27.85-7.24,3.79-14.7,3.53-21.87-.34-7.77-4.19-11.09-12.73-8.54-21.52,1.86-6.41,5.69-11.32,11.65-14.49C47.47,39.9,82.17,21.44,116.9,3.03c6.9-3.66,14.01-3.63,21.01-.33,8.17,3.86,12.06,12.37,9.82,21.31-1.7,6.77-5.59,11.95-11.81,15.26-17.29,9.2-34.6,18.38-51.89,27.57h0Zm-18.98-35.64c-8.68,4.61-17.35,9.22-26.03,13.83-8.68,4.61-17.36,9.21-26.03,13.83-6.41,3.41-10.24,8.8-11.73,15.83-1.18,5.58-.02,10.72,3.7,15.12,5.95,7.03,17.76,8.99,26.24,4.47,9.61-5.12,19.23-10.23,28.84-15.33,25.24-13.41,50.48-26.79,75.7-40.23,6.77-3.61,10.67-9.39,11.83-16.92,1.18-7.71-2.45-14.83-9.39-18.31-6.91-3.47-13.98-3.64-20.88,0-17.44,9.19-34.83,18.48-52.25,27.73Z"/><path class="d" d="M20.99,97.62c-3.83,0-7.69-1.02-11.46-3.06C1.65,90.31-1.75,81.75,.87,72.75c1.91-6.58,5.87-11.51,11.77-14.64,11.72-6.22,23.44-12.45,35.16-18.68C70.79,27.22,93.78,15.01,116.78,2.81c6.86-3.64,14-3.75,21.24-.33,8.22,3.88,12.22,12.56,9.96,21.6-1.74,6.94-5.75,12.13-11.94,15.42-12.09,6.43-24.19,12.86-36.29,19.28l-15.83,8.41h0c-4.93,2.61-9.86,5.24-14.79,7.86-12.27,6.54-24.97,13.3-37.5,19.86-3.46,1.81-7.04,2.71-10.64,2.71ZM127.6,.5c-3.58,0-7.12,.92-10.58,2.75-23,12.19-45.99,24.41-68.98,36.62-11.72,6.23-23.44,12.45-35.16,18.68-5.78,3.07-9.65,7.89-11.53,14.33-2.55,8.76,.76,17.1,8.41,21.23,7.28,3.93,14.56,4.04,21.63,.34,12.53-6.55,25.22-13.32,37.5-19.86,5-2.67,10.01-5.33,15.01-7.99l.19-.1h0l15.42-8.18c12.1-6.42,24.19-12.85,36.29-19.28,6.05-3.22,9.98-8.3,11.68-15.1,2.2-8.8-1.69-17.25-9.68-21.02-3.43-1.62-6.84-2.43-10.21-2.43ZM21.07,96.96c-6.25,0-12.48-2.47-16.31-6.99-3.71-4.39-4.98-9.55-3.75-15.33,1.53-7.24,5.52-12.62,11.86-15.99,6.11-3.25,12.23-6.5,18.34-9.75l33.72-17.91c5.11-2.72,10.22-5.43,15.33-8.15,12.09-6.43,24.59-13.08,36.91-19.57,6.84-3.6,13.94-3.6,21.11,0,6.98,3.5,10.71,10.8,9.52,18.57-1.19,7.75-5.21,13.51-11.96,17.1-17.95,9.57-36.23,19.27-53.89,28.65-7.27,3.86-14.54,7.72-21.81,11.58l-5.44,2.89c-7.8,4.14-15.61,8.29-23.4,12.44-3.13,1.67-6.69,2.46-10.24,2.46ZM65.16,31.43L31.44,49.34c-6.12,3.25-12.23,6.49-18.34,9.75-6.2,3.3-10.1,8.57-11.6,15.66-1.19,5.62,.04,10.64,3.65,14.9,5.86,6.93,17.49,8.91,25.93,4.41,7.8-4.16,15.6-8.3,23.4-12.44l5.44-2.89c7.27-3.86,14.54-7.72,21.81-11.58,17.67-9.38,35.94-19.08,53.89-28.65,6.6-3.52,10.54-9.15,11.7-16.74,1.16-7.56-2.47-14.64-9.25-18.05-7.02-3.53-13.97-3.53-20.66,0-12.32,6.49-24.82,13.14-36.91,19.57-5.11,2.72-10.22,5.44-15.33,8.15Z"/></g><g><circle class="g" cx="31.29" cy="67.12" r=".89"/><circle class="g" cx="40.18" cy="62.43" r=".89"/><circle class="g" cx="35.1" cy="74.17" r=".89"/><circle class="g" cx="43.99" cy="69.48" r=".89"/><circle class="g" cx="103.97" cy="28.46" r=".89"/><circle class="g" cx="112.86" cy="23.78" r=".89"/><circle class="g" cx="107.78" cy="35.52" r=".89"/><circle class="g" cx="116.67" cy="30.83" r=".89"/></g></g></g></g></svg>