<?xml version="1.0" encoding="UTF-8"?><svg xmlns="http://www.w3.org/2000/svg" viewBox="0 0 909.42 184.04"><defs><style>.d{opacity:.8;}.d,.e,.f,.g,.h{fill:#ffbf00;}.e{opacity:.95;}.i{fill:none;stroke:#ffbf00;stroke-miterlimit:10;stroke-width:3px;}.j,.g{opacity:.75;}.h{opacity:.85;}</style></defs><g id="a"/><g id="b"><g id="c"><g><g class="j"><circle class="f" cx="73.45" cy="97.78" r="19.78"/><circle class="f" cx="288.96" cy="97.78" r="19.78"/><circle class="f" cx="614.92" cy="97.78" r="19.78"/><circle class="f" cx="838.51" cy="97.78" r="19.78"/></g><path class="h" d="M834.57,67.73c0-.08-.01-.17-.02-.25h4.68c2.95,0,5.67-1.03,7.79-2.75,.3-.24,.59-.5,.87-.78,.56-.54,1.06-1.14,1.5-1.78,.44-.64,.82-1.32,1.13-2.04,.62-1.43,.97-3.01,.97-4.66,0,0-.62-2.67-2.22-6.81-.13-.35-.27-.7-.42-1.07-.3-.73-.62-1.5-.97-2.3-1.24-2.8-2.85-6.01-4.9-9.38-2.93-4.82-6.76-9.97-11.72-14.77-4.8-4.64-30.2-5.53-36.95-5.53H113c-6.75,0-32.15,.88-36.95,5.53-1.43,1.39-2.77,2.81-4.02,4.24-.11,.13-.22,.26-.33,.39-.55,.64-1.08,1.28-1.6,1.92-1.56,1.94-2.97,3.89-4.23,5.8-.34,.51-.66,1.02-.98,1.52-2.01,3.21-3.63,6.3-4.9,9.05-.19,.42-.38,.83-.55,1.23-.35,.8-.68,1.57-.97,2.3-.15,.37-.29,.72-.42,1.07-1.61,4.14-2.22,6.81-2.22,6.81,0,1.65,.35,3.22,.97,4.66,.62,1.43,1.52,2.73,2.64,3.82,.56,.54,1.16,1.04,1.82,1.47,1.96,1.3,4.32,2.06,6.85,2.06h4.68c0,.08-.01,.17-.02,.25,0,.08-.02,.16-.02,.25,.96-.16,1.93-.29,2.91-.37,.98-.08,1.97-.13,2.98-.13,5.36,0,10.43,1.19,14.96,3.32,.45,.21,.9,.44,1.34,.67,.88,.46,1.74,.96,2.58,1.5,2.51,1.6,4.78,3.51,6.78,5.67,4.33,4.69,7.33,10.57,8.44,17.07h.49c0,.48,.05,.95,.11,1.41,.22,1.66,.8,3.22,1.65,4.6,2.15,3.5,6.06,5.86,10.51,5.86h108.52c4.68,0,8.81-2.22,11.17-5.55h1.17c.11-1.15,.28-2.29,.49-3.42,.16-.53,.28-1.08,.35-1.63,4.3-18.17,22.16-31.81,43.56-31.81,.37,0,.73,.03,1.1,.04,.41-.01,.82-.03,1.23-.03,.09,0,.17,0,.26,0,2.01,0,3.98,.14,5.92,.37h.29c1.82-.24,3.67-.37,5.55-.37s3.71,.14,5.51,.37h20.47v-.37h241.44v.37h33.86c1.25-.15,2.52-.24,3.8-.3,.63-.03,1.26-.06,1.9-.06,.09,0,.17,0,.26,0,.03,0,.06,0,.1,0,.04,0,.07,0,.11,0,10.36,0,19.88,3.25,27.42,8.69,7.97,5.7,13.73,13.82,15.93,23.12,.07,.56,.2,1.1,.35,1.63,.21,1.12,.38,2.26,.49,3.42h1.17c2.37,3.33,6.49,5.55,11.17,5.55h112.77c4.1,0,7.73-1.99,9.96-5.03,1.42-1.94,2.28-4.29,2.3-6.83h.49c.77-4.5,2.44-8.71,4.84-12.42,.53-.83,1.1-1.63,1.7-2.4,.44-.57,.91-1.12,1.38-1.66,.5-.56,1.01-1.12,1.54-1.65,1.74-1.73,3.67-3.28,5.76-4.61,.84-.53,1.7-1.03,2.58-1.5,.44-.23,.89-.45,1.34-.67,4.53-2.13,9.6-3.32,14.96-3.32,1,0,2,.04,2.98,.13s1.95,.21,2.91,.37c0-.08-.01-.17-.02-.25Z"/><path class="g" d="M855.43,20.01c11.39,15.3,19.18,34.43,21.8,55.55v18.15c0,24.75-20.25,45-45,45h-82.87c14.24,26.95,42.53,45.33,75.13,45.33,46.91,0,84.93-38.03,84.93-84.93,0-35.99-22.39-66.72-53.99-79.09Z"/><path class="g" d="M73.56,138.71c-24.75,0-45-20.25-45-45v-14.31c2.03-21.74,9.52-41.52,20.8-57.41C20.23,35.44,0,64.9,0,99.11c0,46.91,38.03,84.93,84.93,84.93,32.6,0,60.9-18.38,75.13-45.33H73.56Z"/><path class="d" d="M73.56,138.71c-24.75,0-45-20.25-45-45v-11.73c-1.85,5.24-2.87,10.88-2.87,16.75,0,27.78,22.52,50.29,50.29,50.29,11.48,0,22.05-3.85,30.51-10.32h-32.93Z"/><path class="g" d="M290.29,184.04c32.6,0,60.9-18.38,75.13-45.33H215.15c14.24,26.95,42.53,45.33,75.13,45.33Z"/><path class="e" d="M835.47,1.5H69.57C47.22,18.79,31.67,46.92,28.56,79.4v14.31c0,24.75,20.71,45,46.02,45H351.19c18.42-22.6,56.39-38.18,100.34-38.42,9.62,.05,18.97,.73,27.94,1.96,32.69,4.87,59.83,18.43,74.53,36.46h276.03c25.31,0,46.02-20.25,46.02-45v-18.15c-3.92-30.85-19.1-57.46-40.56-74.06ZM73.45,117.57c-10.93,0-19.78-8.86-19.78-19.78s8.86-19.78,19.78-19.78,19.78,8.86,19.78,19.78-8.86,19.78-19.78,19.78Zm215.51,0c-10.93,0-19.78-8.86-19.78-19.78s8.86-19.78,19.78-19.78,19.78,8.86,19.78,19.78-8.86,19.78-19.78,19.78Zm325.96,0c-10.93,0-19.78-8.86-19.78-19.78s8.86-19.78,19.78-19.78,19.78,8.86,19.78,19.78-8.86,19.78-19.78,19.78Zm179.68-21.86h-.49c-.07,6.54-5.56,11.87-12.27,11.87h-112.77c-4.68,0-8.81-2.22-11.18-5.55h-1.17c-.11-1.15-.28-2.29-.49-3.42-.16-.53-.28-1.08-.35-1.63-4.3-18.17-22.16-31.81-43.56-31.81-2.02,0-4.01,.14-5.96,.37h-34.37v-.37h-240.94v.37h-20.47c-1.8-.24-3.64-.37-5.51-.37s-3.74,.13-5.55,.37h-2.84c-1.95-.24-3.94-.37-5.96-.37-21.4,0-39.26,13.63-43.56,31.81-.07,.56-.2,1.1-.35,1.63-.21,1.12-.38,2.26-.49,3.42h-1.17c-2.37,3.33-6.49,5.55-11.18,5.55H125.48c-6.7,0-12.19-5.33-12.27-11.87h-.49c-2.72-16.02-16.95-28.23-34.1-28.23-2.01,0-3.97,.18-5.89,.5,0-.17,.03-.33,.04-.5h-4.68c-6.75,0-12.27-5.4-12.27-12,0,0,4.38-18.97,20.23-34.32,4.8-4.64,30.2-5.53,36.95-5.53H794.33c6.75,0,32.15,.88,36.95,5.53,15.86,15.36,20.23,34.32,20.23,34.32,0,6.6-5.52,12-12.27,12h-4.68c.01,.17,.04,.33,.04,.5-1.91-.32-3.88-.5-5.89-.5-17.15,0-31.38,12.21-34.1,28.23Zm43.91,21.86c-10.93,0-19.78-8.86-19.78-19.78s8.86-19.78,19.78-19.78,19.78,8.86,19.78,19.78-8.86,19.78-19.78,19.78Z"/><path class="d" d="M311.85,138.71h-32.93c-.71,0-1.41-.02-2.12-.05,.7,.03,1.4,.05,2.11,.05h-28.08c8.46,6.47,19.04,10.32,30.51,10.32s22.05-3.85,30.51-10.32Z"/><path class="g" d="M622.42,184.04c32.6,0,60.9-18.38,75.13-45.33h-150.27c14.24,26.95,42.53,45.33,75.13,45.33Z"/><path class="d" d="M643.98,138.71h-32.93c-.71,0-1.41-.02-2.12-.05,.7,.03,1.4,.05,2.11,.05h-28.08c8.46,6.47,19.04,10.32,30.51,10.32s22.05-3.85,30.51-10.32Z"/><path class="f" d="M317.71,144.16c27.37,0,52.08,5.11,69.58,13.32,11.79-16.08,36.03-27.12,64.02-27.12s54.07,11.89,65.31,28.98c17.63-9.29,43.93-15.18,73.31-15.18,3.51,0,6.98,.09,10.4,.25v-9.93c0-2.75-2.25-5-5-5,0,0-30.74,2.9-35.01,0-14.45-9.79-63.92-36.72-112.44-36.72s-93.79,28.62-112.44,36.72c-4.37,1.9-30.27,0-30.27,0-2.75,0-5,2.25-5,5v10.39c5.68-.47,11.54-.71,17.53-.71Z"/><path class="i" d="M835.47,1.5H69.57C47.22,18.79,31.67,46.92,28.56,79.4v14.31c0,24.75,20.71,45,46.02,45H351.19c18.57-22.78,57-38.44,101.4-38.44s82.84,15.65,101.4,38.44h276.03c25.31,0,46.02-20.25,46.02-45v-18.15c-3.92-30.85-19.1-57.46-40.56-74.06Z"/><g><path class="f" d="M433.26,24.75v6.27h-13.08v6.77h9.79v6.08h-9.79v12.99h-7.82V24.75h20.91Z"/><path class="f" d="M445.2,23.01V56.87h-7.82V23.01h7.82Z"/><path class="f" d="M450.81,37.15c.99-1.98,2.34-3.51,4.05-4.58,1.71-1.07,3.61-1.6,5.72-1.6,1.8,0,3.38,.37,4.74,1.1,1.36,.73,2.4,1.69,3.13,2.88v-3.61h7.82v25.53h-7.82v-3.61c-.76,1.19-1.82,2.15-3.18,2.88-1.36,.73-2.94,1.1-4.74,1.1-2.07,0-3.97-.54-5.67-1.62-1.71-1.08-3.06-2.62-4.05-4.62s-1.49-4.31-1.49-6.93,.5-4.93,1.49-6.91Zm16.01,2.33c-1.08-1.13-2.4-1.69-3.96-1.69s-2.88,.56-3.96,1.67c-1.08,1.11-1.62,2.65-1.62,4.6s.54,3.5,1.62,4.64c1.08,1.14,2.4,1.72,3.96,1.72s2.88-.56,3.96-1.69c1.08-1.13,1.62-2.67,1.62-4.62s-.54-3.49-1.62-4.62Z"/><path class="f" d="M496.17,50.24v6.63h-3.98c-2.84,0-5.05-.69-6.63-2.08-1.59-1.39-2.38-3.65-2.38-6.79v-10.16h-3.11v-6.5h3.11v-6.22h7.82v6.22h5.12v6.5h-5.12v10.25c0,.76,.18,1.31,.55,1.65,.37,.34,.98,.5,1.83,.5h2.79Z"/></g><path class="d" d="M876.94,73.49c.1,.69,.2,1.38,.28,2.07v18.15c0,24.75-20.25,45-45,45h-29.28c8.46,6.47,19.04,10.32,30.51,10.32,27.78,0,50.29-22.52,50.29-50.29,0-9.2-2.48-17.82-6.8-25.24Z"/></g></g></g></svg>