<?xml version="1.0" encoding="UTF-8"?><svg xmlns="http://www.w3.org/2000/svg" viewBox="0 0 249.35 73.41"><defs><style>.d{fill:none;stroke:#335799;stroke-miterlimit:10;}.e{opacity:.5;}.f{fill:#335799;}</style></defs><g id="a"/><g id="b"><g id="c"><g><g><g><g><g class="e"><path class="f" d="M233.64,33.63c-4.27,0-7.73,3.46-7.73,7.73s3.46,7.73,7.73,7.73,7.73-3.46,7.73-7.73-3.46-7.73-7.73-7.73Zm0,11.08c-1.85,0-3.36-1.5-3.36-3.36s1.5-3.36,3.36-3.36,3.36,1.5,3.36,3.36-1.5,3.36-3.36,3.36Z"/></g><path class="f" d="M233.64,26.65c8.11,0,14.71,6.6,14.71,14.71s-6.6,14.71-14.71,14.71-14.71-6.6-14.71-14.71,6.6-14.71,14.71-14.71m0-1c-8.68,0-15.71,7.03-15.71,15.71s7.03,15.71,15.71,15.71,15.71-7.03,15.71-15.71-7.03-15.71-15.71-15.71h0Z"/><path class="f" d="M233.64,34.63c3.71,0,6.73,3.02,6.73,6.73s-3.02,6.73-6.73,6.73-6.73-3.02-6.73-6.73,3.02-6.73,6.73-6.73m0-1c-4.27,0-7.73,3.46-7.73,7.73s3.46,7.73,7.73,7.73,7.73-3.46,7.73-7.73-3.46-7.73-7.73-7.73h0Z"/><path class="f" d="M233.64,38.01c1.85,0,3.36,1.5,3.36,3.36s-1.5,3.36-3.36,3.36-3.36-1.5-3.36-3.36,1.5-3.36,3.36-3.36m0-1c-2.4,0-4.36,1.95-4.36,4.36s1.95,4.36,4.36,4.36,4.36-1.95,4.36-4.36-1.95-4.36-4.36-4.36h0Z"/></g><g><path class="f" d="M226.96,62.97c.53,0,.88,.1,1.05,.3,.09,.11,.15,.23,.18,.36,.03,.14,.04,.3,.04,.48v1.49h.36v.57h-2.52v-.57h1.41v-1.49c0-.38-.21-.56-.62-.56-.21,0-.43,.01-.67,.04h-.12v-.57c.24-.03,.54-.04,.89-.04Z"/><path class="f" d="M229.07,65.11v-2.08h.74v1.46l-.5,.63h-.25Z"/><path class="f" d="M231.7,62.97c.42,0,.74,.14,.98,.43,.23,.29,.35,.68,.35,1.19s-.12,.91-.35,1.2c-.24,.29-.56,.43-.97,.43s-.73-.14-.97-.43c-.24-.29-.36-.68-.36-1.2,0-.2,.04-.39,.11-.58,.08-.19,.16-.33,.26-.42v-.02l-.32,.02v-.56c.38-.05,.8-.07,1.27-.07Zm-.57,1.62c0,.69,.19,1.03,.57,1.03s.57-.35,.57-1.04-.19-1.04-.57-1.04h-.28c-.19,.27-.29,.62-.29,1.05Z"/><path class="f" d="M233.36,63.02c.3-.03,.57-.05,.81-.05s.42,.01,.56,.03c.14,.02,.25,.06,.34,.1,.09,.05,.17,.1,.23,.16,.06,.06,.1,.14,.14,.23,.03,.09,.05,.18,.07,.28s.02,.21,.02,.33v2.06h-.75v-2.06c0-.38-.21-.56-.62-.56-.21,0-.47,.02-.79,.05v-.57Z"/><path class="f" d="M236.84,66.04c-.06,.04-.13,.08-.23,.12-.1,.04-.19,.05-.27,.05s-.18,0-.28-.03l.05-.69s.02,0,.06,.01c.04,0,.08,0,.11,0s.09,0,.15,0c.06,0,.14-.02,.23-.05,.13-.04,.23-.12,.31-.23,.07-.11,.11-.25,.11-.4v-.89c0-.19-.05-.31-.14-.36-.04-.02-.09-.03-.16-.03-.14,0-.26,.01-.37,.04h-.06v-.57c.14-.04,.31-.06,.49-.06s.33,.02,.44,.05,.21,.08,.27,.13c.07,.05,.12,.13,.16,.21,.04,.09,.06,.18,.08,.27,.01,.09,.02,.19,.02,.32v2.22h-.56l-.11-.46h-.04s-.06,.1-.12,.17-.11,.12-.17,.16Z"/><path class="f" d="M241.16,63.02v1.13c0,.27-.05,.48-.16,.62-.04,.06-.11,.11-.19,.17-.08,.05-.17,.09-.28,.13l.7,1.1h-.85l-.94-1.56c-.08,.03-.13,.08-.16,.15-.03,.07-.05,.16-.05,.28v1.13h-.74v-1.13c0-.08,0-.15,.01-.22,0-.06,.02-.13,.05-.21,.02-.08,.06-.14,.1-.2,.04-.06,.11-.11,.19-.17,.08-.05,.18-.1,.29-.13l-.7-1.1h.84l.63,1.08,.31,.48c.07-.03,.12-.08,.15-.15s.04-.16,.05-.27v-1.13h.74Z"/></g></g><g><path class="f" d="M226.38,34.07c-.49,.46-.72,.71-1.14,1.25l-.34-.27c.12-.15,.18-.22,.31-.37h0s.04-.11,0-.15c-.04-.04-.11-.03-.15,.02-.13,.15-.19,.22-.31,.38-.15-.11-.22-.17-.36-.29,0,0,0-.01,0-.02,.2-.26,.31-.39,.53-.63,.04-.05,.04-.12,0-.15-.04-.04-.11-.03-.15,.02-.22,.25-.33,.38-.53,.64-.08,.11-.07,.25,.02,.32,.38,.29,.57,.44,.96,.73,.04,.03,.11,.02,.14-.02,.43-.56,.67-.82,1.18-1.31,.04-.04,.04-.1,0-.14-.04-.04-.1-.04-.14,0Z"/><path class="f" d="M229.42,31.27s-.06,0-.08,0c-.02,0-.04,0-.07,0-.15,.02-.29,.03-.34-.07-.03-.05-.03-.09-.01-.14,.03-.07,.11-.15,.22-.19,.14-.06,.23-.07,.36-.01,.05,.02,.12,0,.15-.05,.03-.05,.01-.11-.04-.14-.18-.08-.35-.08-.55,.02-.08,.04-.27,.14-.34,.33-.04,.1-.03,.2,.03,.3,.13,.22,.4,.18,.55,.16,.02,0,.04,0,.06,0,.03,0,.06,0,.09-.01,.18-.02,.32-.02,.38,.12,.02,.04,.01,.09-.01,.14-.03,.07-.1,.13-.19,.17-.22,.09-.36-.01-.38-.03-.04-.04-.11-.03-.15,.02-.04,.04-.03,.11,.01,.14,.04,.03,.27,.19,.59,.06h.03c.12-.07,.22-.16,.27-.28,.05-.1,.05-.21,.02-.3-.12-.29-.42-.26-.59-.24Z"/><path class="f" d="M230.5,30.84s-.06,0-.08,0c-.02,0-.04,0-.07,0-.16,0-.29,0-.33-.1-.02-.05-.02-.09,0-.14,.03-.07,.12-.13,.23-.17,.15-.05,.24-.05,.36,.02,.05,.03,.12,.01,.16-.04,.04-.05,.02-.11-.03-.14-.17-.1-.34-.11-.55-.04-.08,.03-.29,.12-.37,.29-.05,.1-.05,.2,0,.3,.11,.23,.38,.22,.53,.21,.02,0,.04,0,.06,0,.03,0,.06,0,.09,0,.18,0,.32,0,.37,.15,.01,.04,0,.09-.02,.14-.04,.07-.11,.13-.2,.15-.23,.07-.35-.04-.38-.07-.04-.04-.11-.04-.15,0s-.04,.11,0,.14c.04,.04,.25,.21,.58,.11h.03c.13-.05,.24-.14,.3-.25,.06-.1,.07-.2,.05-.29-.09-.3-.4-.3-.57-.29Z"/><path class="f" d="M227.75,31.37c-.42,.25-.38,.66-.36,.84,0,.02,0,.04,0,.06,0,.09,.03,.19,.06,.3,.07,.29,.12,.5-.02,.6-.15,.11-.23,.17-.37,.29l-.29-.36c.1-.08,.15-.12,.26-.2h0c.09-.07,.19-.14,.28-.13,.02,0,.09,.02,.14,.05-.01-.07-.03-.16-.06-.25h-.04s-.1-.01-.14,0c.02-.11,0-.22-.1-.33-.18-.2-.51-.1-.64,0-.14,.11-.46,.37-.66,.55-.05,.04-.07,.06-.12,.1h0s-.07,.09-.07,.14c0,.05,.01,.1,.04,.13l.05,.05s.11,.04,.15,0c.05-.04,.05-.11,.01-.15l-.03-.03s.06-.05,.09-.08c.2-.17,.51-.43,.65-.54,.06-.05,.26-.12,.35-.01,.13,.14,0,.31-.03,.35-.11,.08-.17,.13-.27,.21l-.16-.2s-.1-.05-.15,0h0s-.06,.11-.02,.15c.24,.29,.37,.43,.61,.72,.03,.04,.07,.06,.12,.06,.05,0,.09-.01,.13-.04h0c.15-.13,.23-.19,.39-.31,.26-.19,.17-.54,.1-.83-.02-.1-.05-.19-.05-.27,0-.02,0-.04,0-.07-.02-.17-.04-.45,.25-.63,.18-.11,.59-.2,.81,.21,.18,.34,0,.61-.21,.74-.25,.16-.48,.06-.51,.04-.02-.01-.04-.02-.04-.03-.07-.05-.15-.11-.21-.17,0,.05,.02,.1,.03,.16,.01,.05,.03,.11,.04,.17h0s.03,.02,.05,.04h.03c.12,.07,.34,.14,.6,.02h0s.08-.04,.12-.06c.3-.19,.52-.58,.3-1.02-.26-.51-.81-.45-1.1-.28Z"/><path class="f" d="M226.06,32.98h0s-.05,.11-.02,.15c.23,.25,.34,.38,.57,.64-.54-.15-.81-.21-1.38-.31h-.02c-.08,0-.15,.05-.19,.12-.04,.08-.02,.16,.03,.21,.29,.27,.43,.4,.72,.67,.04,.04,.11,.03,.15,0h0s.04-.11,0-.15l-.64-.62c.56,.09,.84,.15,1.37,.3h.02c.05,0,.1,0,.14-.04,.02-.01,.03-.03,.04-.05,.04-.07,.03-.15-.02-.21l-.61-.71s-.1-.04-.15,0Z"/><path class="f" d="M228.21,31.63s-.05,.03-.05,.06c0,.08,0,.19-.02,.29-.12-.02-.17-.04-.29-.06-.03,0-.06,.01-.07,.04,0,.03,0,.05,.04,.06,.12,.02,.18,.03,.3,.06-.02,.11-.04,.19-.04,.19,0,.03,0,.05,.04,.06,.01,0,.03,0,.04,0,.01,0,.02-.02,.02-.03,0,0,.02-.09,.05-.19,.12,.02,.17,.04,.29,.07,.01,0,.03,0,.04,0,.01,0,.02-.02,.02-.03,0-.03,0-.05-.03-.06-.12-.03-.18-.04-.3-.07,.02-.11,.03-.23,.02-.33,0-.03-.03-.05-.06-.04Z"/></g></g><g><g><g><g class="e"><path class="f" d="M191.18,26.88c-5.53,0-10.01,4.48-10.01,10.01s4.48,10.01,10.01,10.01,10.01-4.48,10.01-10.01-4.48-10.01-10.01-10.01Zm0,14.75c-2.62,0-4.74-2.12-4.74-4.74s2.12-4.74,4.74-4.74,4.74,2.12,4.74,4.74-2.12,4.74-4.74,4.74Z"/></g><path class="f" d="M191.18,17.99c10.42,0,18.9,8.48,18.9,18.9s-8.48,18.9-18.9,18.9-18.9-8.48-18.9-18.9,8.48-18.9,18.9-18.9m0-1c-10.99,0-19.9,8.91-19.9,19.9s8.91,19.9,19.9,19.9,19.9-8.91,19.9-19.9-8.91-19.9-19.9-19.9h0Z"/><path class="f" d="M191.18,27.88c4.97,0,9.01,4.04,9.01,9.01s-4.04,9.01-9.01,9.01-9.01-4.04-9.01-9.01,4.04-9.01,9.01-9.01m0-1c-5.53,0-10.01,4.48-10.01,10.01s4.48,10.01,10.01,10.01,10.01-4.48,10.01-10.01-4.48-10.01-10.01-10.01h0Z"/><path class="f" d="M191.18,32.16c2.62,0,4.74,2.12,4.74,4.74s-2.12,4.74-4.74,4.74-4.74-2.12-4.74-4.74,2.12-4.74,4.74-4.74m0-1c-3.16,0-5.74,2.57-5.74,5.74s2.57,5.74,5.74,5.74,5.74-2.57,5.74-5.74-2.57-5.74-5.74-5.74h0Z"/></g><g><path class="f" d="M186.81,65.11v-2.08h.74v1.46l-.5,.63h-.25Z"/><path class="f" d="M190.16,66.09v.08h-.74v-.08c0-.13,.02-.31,.06-.55,.04-.23,.09-.43,.16-.6l.49-1.35h-1.84v-.57h2.66v.45l-.53,1.44c-.17,.46-.25,.85-.25,1.18Zm-1.18,1.29h-.69v-3.09h.69v3.09Z"/><path class="f" d="M192.23,66.17h-.74v-3.15h.74v3.15Z"/><path class="f" d="M193.56,63.01c.24-.02,.47-.03,.67-.03s.37,.01,.51,.03c.14,.02,.25,.06,.34,.1,.09,.05,.17,.1,.23,.16,.06,.06,.11,.14,.14,.23,.03,.09,.05,.18,.07,.28s.02,.21,.02,.33v2.06h-.75v-2.06c0-.38-.21-.56-.62-.56-.15,0-.32,0-.51,.02s-.35,.03-.47,.05l-.18,.02v-.56c.12-.03,.3-.05,.55-.07Zm.2,3.17h-.75v-2.01h.75v2.01Z"/></g></g><g><path class="f" d="M181.12,27.55c-.45,.49-.67,.75-1.06,1.3l-.35-.25c.11-.15,.17-.23,.28-.38h0s.03-.11-.01-.15c-.04-.03-.11-.02-.15,.02-.12,.15-.18,.23-.29,.38-.15-.11-.22-.16-.38-.27,0,0,0-.01,0-.02,.19-.26,.28-.39,.48-.64,.04-.05,.03-.12,0-.15-.04-.03-.11-.02-.15,.03-.2,.26-.3,.39-.49,.65-.08,.11-.06,.25,.04,.32,.39,.27,.59,.41,.98,.69,.05,.03,.11,.02,.14-.03,.41-.57,.63-.85,1.11-1.36,.04-.04,.04-.11,0-.14-.04-.04-.11-.04-.14,0Z"/><path class="f" d="M183.85,24.51s-.05,.01-.08,.02c-.02,0-.04,0-.06,.01-.15,.03-.28,.06-.34-.03-.03-.04-.04-.09-.03-.13,.02-.07,.09-.16,.19-.21,.13-.08,.22-.09,.35-.05,.06,.02,.12-.01,.14-.07,.02-.05,0-.11-.06-.13-.19-.06-.35-.04-.54,.07-.07,.04-.25,.17-.3,.36-.03,.1,0,.2,.06,.29,.15,.2,.42,.14,.56,.11,.02,0,.04,0,.05-.01,.03,0,.06-.01,.09-.02,.18-.04,.31-.06,.38,.08,.02,.03,.02,.09,0,.14-.02,.08-.08,.14-.16,.19-.21,.11-.35,.03-.38,0-.05-.03-.11-.02-.14,.03-.03,.05-.02,.11,.03,.14,.05,.03,.28,.16,.59,0h.03c.11-.08,.2-.19,.24-.31,.03-.1,.03-.21-.02-.3-.15-.27-.45-.21-.61-.17Z"/><path class="f" d="M184.86,23.96s-.05,0-.08,.01c-.02,0-.04,0-.07,0-.15,.02-.28,.03-.34-.06-.03-.05-.03-.09-.02-.14,.02-.07,.1-.15,.21-.2,.14-.07,.23-.07,.35-.02,.05,.02,.12,0,.15-.05,.03-.05,0-.11-.05-.14-.18-.08-.35-.07-.54,.03-.08,.04-.26,.15-.32,.33-.03,.1-.02,.2,.04,.3,.13,.21,.4,.17,.55,.15,.02,0,.04,0,.06,0,.03,0,.06,0,.09-.01,.18-.03,.31-.03,.38,.11,.02,.04,.01,.09,0,.14-.03,.07-.09,.14-.18,.17-.21,.09-.35,0-.38-.02-.04-.03-.11-.02-.15,.02-.04,.05-.03,.11,.02,.14,.04,.03,.27,.18,.59,.04h.03c.12-.07,.21-.17,.26-.29,.04-.1,.04-.21,0-.3-.13-.29-.43-.24-.59-.22Z"/><path class="f" d="M182.23,24.78c-.39,.29-.31,.68-.27,.86,0,.02,0,.04,.01,.06,.01,.09,.05,.19,.08,.29,.1,.28,.17,.49,.04,.6-.14,.13-.21,.19-.35,.32l-.32-.33c.1-.09,.14-.13,.24-.22h0c.09-.08,.18-.15,.26-.15,.02,0,.09,0,.14,.04-.02-.07-.05-.15-.08-.24h-.04s-.1,0-.14,0c0-.11-.02-.22-.12-.32-.19-.19-.52-.06-.63,.04-.13,.12-.43,.4-.61,.59-.04,.04-.06,.07-.11,.11h0s-.06,.09-.06,.14c0,.05,.02,.1,.05,.13l.05,.04s.11,.03,.15-.01c.04-.05,.04-.11,0-.15l-.03-.03s.05-.05,.09-.09c.18-.18,.47-.46,.6-.58,.05-.05,.24-.13,.34-.04,.14,.13,.03,.31,0,.35-.1,.09-.15,.14-.25,.23l-.18-.19s-.11-.04-.15,0h0s-.05,.11,0,.15c.26,.27,.4,.41,.66,.68,.03,.03,.08,.05,.13,.05,.05,0,.09-.02,.13-.05h0c.14-.14,.21-.2,.36-.33,.24-.21,.12-.55,.03-.83-.03-.1-.06-.19-.07-.26,0-.02,0-.04-.01-.07-.03-.16-.09-.45,.18-.65,.17-.12,.56-.25,.82,.13,.22,.32,.06,.61-.13,.76-.23,.18-.47,.1-.51,.09-.02,0-.04-.02-.04-.02-.07-.05-.16-.1-.23-.15,.01,.05,.03,.1,.05,.15,.02,.05,.04,.11,.05,.16h.01s.03,.02,.06,.03h.03c.12,.06,.35,.11,.6-.04h0s.07-.05,.11-.07c.27-.22,.46-.62,.18-1.04-.32-.48-.84-.37-1.11-.17Z"/><path class="f" d="M180.72,26.49h0s-.05,.11,0,.15c.24,.24,.36,.36,.61,.59-.54-.11-.82-.16-1.39-.23,0,0-.01,0-.02,0-.08,0-.15,.06-.18,.13-.03,.08-.01,.16,.04,.2,.3,.25,.45,.38,.76,.63,.04,.04,.11,.03,.14-.02h0s.03-.11,0-.14c-.27-.23-.41-.35-.68-.58,.56,.06,.84,.11,1.39,.22h.02c.05,0,.1-.02,.13-.05,.01-.01,.03-.03,.04-.05,.03-.07,.02-.15-.03-.2l-.66-.67s-.11-.04-.15,0Z"/><path class="f" d="M182.71,24.99s-.05,.04-.04,.06c.02,.08,.02,.19,.01,.29-.12-.01-.18-.02-.29-.03-.03,0-.06,.02-.06,.05,0,.03,.01,.05,.04,.06,.12,.01,.18,.02,.3,.03-.01,.11-.02,.19-.02,.2,0,.03,.01,.05,.04,.06,.01,0,.03,0,.04-.01,.01,0,.02-.02,.02-.03,0,0,.01-.09,.03-.2,.12,.01,.18,.02,.29,.04,.01,0,.03,0,.04,0,.01,0,.02-.02,.02-.03,0-.03-.01-.05-.04-.06-.12-.02-.18-.03-.3-.04,0-.11,0-.23-.01-.33,0-.03-.03-.04-.06-.03Z"/></g></g><g><g><g><path class="f" d="M141.28,11.45c12.21,0,22.14,9.93,22.14,22.14s-9.93,22.14-22.14,22.14-22.14-9.93-22.14-22.14,9.93-22.14,22.14-22.14m0-1c-12.78,0-23.14,10.36-23.14,23.14s10.36,23.14,23.14,23.14,23.14-10.36,23.14-23.14-10.36-23.14-23.14-23.14h0Z"/><path class="f" d="M141.29,20.52c7.18,0,13.02,5.84,13.02,13.02s-5.84,13.02-13.02,13.02-13.02-5.84-13.02-13.02,5.84-13.02,13.02-13.02m0-1c-7.74,0-14.02,6.28-14.02,14.02s6.28,14.02,14.02,14.02,14.02-6.28,14.02-14.02-6.28-14.02-14.02-14.02h0Z"/><g class="e"><path class="f" d="M141.29,19.52c-7.74,0-14.02,6.28-14.02,14.02s6.28,14.02,14.02,14.02,14.02-6.28,14.02-14.02-6.28-14.02-14.02-14.02Zm10.73,9.29c.14,.34-.72,1.03-1.92,1.54-1.21,.51-2.3,.65-2.44,.31-.14-.34,.72-1.03,1.92-1.54s2.3-.65,2.44-.31Zm-4.74-2.49c.93-.93,1.89-1.46,2.15-1.2s-.28,1.23-1.2,2.15c-.93,.93-1.89,1.46-2.15,1.2-.26-.26,.28-1.22,1.2-2.15Zm-1.21,7.21c0,2.64-2.14,4.78-4.78,4.78s-4.78-2.14-4.78-4.78,2.14-4.78,4.78-4.78,4.78,2.14,4.78,4.78Zm-1.95-8.93c.51-1.21,1.2-2.06,1.54-1.92,.34,.14,.2,1.24-.31,2.44s-1.2,2.06-1.54,1.92c-.34-.14-.2-1.24,.31-2.44Zm-3.07-2.77c.37,0,.67,1.06,.67,2.37s-.3,2.37-.67,2.37-.67-1.06-.67-2.37,.3-2.37,.67-2.37Zm-4.56,1.01c.34-.14,1.03,.72,1.54,1.92s.65,2.3,.31,2.44c-.34,.14-1.03-.72-1.54-1.92-.51-1.21-.65-2.3-.31-2.44Zm-3.69,2.59c.26-.26,1.22,.28,2.15,1.2s1.46,1.89,1.2,2.15-1.22-.28-2.15-1.2-1.46-1.89-1.2-2.15Zm-2.44,3.77c.14-.34,1.24-.2,2.44,.31,1.21,.51,2.06,1.2,1.92,1.54-.14,.34-1.24,.2-2.44-.31-1.21-.51-2.06-1.2-1.92-1.54Zm-.85,4.61c0-.37,1.06-.67,2.37-.67s2.37,.3,2.37,.67-1.06,.67-2.37,.67-2.37-.3-2.37-.67Zm1.01,4.56c-.14-.34,.72-1.03,1.92-1.54,1.21-.51,2.3-.65,2.44-.31s-.72,1.03-1.92,1.54c-1.21,.51-2.3,.65-2.44,.31Zm4.74,2.49c-.93,.93-1.89,1.46-2.15,1.2s.28-1.23,1.2-2.15,1.89-1.46,2.15-1.2-.28,1.22-1.2,2.15Zm3.16,1.72c-.51,1.21-1.2,2.06-1.54,1.92-.34-.14-.2-1.24,.31-2.44s1.2-2.06,1.54-1.92c.34,.14,.2,1.24-.31,2.44Zm3.07,2.77c-.37,0-.67-1.06-.67-2.37s.3-2.37,.67-2.37,.67,1.06,.67,2.37-.3,2.37-.67,2.37Zm4.56-1.01c-.34,.14-1.03-.72-1.54-1.92-.51-1.21-.65-2.3-.3-2.44,.34-.14,1.03,.72,1.54,1.92,.51,1.21,.65,2.3,.31,2.44Zm3.69-2.59c-.26,.26-1.23-.28-2.15-1.2-.93-.93-1.46-1.89-1.2-2.15s1.23,.28,2.15,1.2c.93,.93,1.46,1.89,1.2,2.15Zm2.44-3.77c-.14,.34-1.24,.2-2.44-.31s-2.06-1.2-1.92-1.54c.14-.34,1.24-.2,2.44,.31s2.06,1.2,1.92,1.54Zm-1.52-3.94c-1.31,0-2.37-.3-2.37-.67s1.06-.67,2.37-.67,2.37,.3,2.37,.67-1.06,.67-2.37,.67Z"/></g><path class="f" d="M141.29,28.76c2.64,0,4.78,2.14,4.78,4.78s-2.14,4.78-4.78,4.78-4.78-2.14-4.78-4.78,2.14-4.78,4.78-4.78m0-1c-3.19,0-5.78,2.59-5.78,5.78s2.59,5.78,5.78,5.78,5.78-2.59,5.78-5.78-2.59-5.78-5.78-5.78h0Z"/><g><path class="f" d="M141.06,21.84c.37,0,.67,1.06,.67,2.37s-.3,2.37-.67,2.37-.67-1.06-.67-2.37,.3-2.37,.67-2.37m0-.5c-1.09,0-1.17,2.2-1.17,2.87s.08,2.87,1.17,2.87,1.17-2.2,1.17-2.87-.08-2.87-1.17-2.87h0Z"/><path class="f" d="M131.89,33.14c1.31,0,2.37,.3,2.37,.67s-1.06,.67-2.37,.67-2.37-.3-2.37-.67,1.06-.67,2.37-.67m0-.5c-.67,0-2.87,.08-2.87,1.17s2.2,1.17,2.87,1.17,2.87-.08,2.87-1.17-2.2-1.17-2.87-1.17h0Z"/><path class="f" d="M150.67,32.7c1.31,0,2.37,.3,2.37,.67s-1.06,.67-2.37,.67-2.37-.3-2.37-.67,1.06-.67,2.37-.67m0-.5c-.67,0-2.87,.08-2.87,1.17s2.2,1.17,2.87,1.17,2.87-.08,2.87-1.17-2.2-1.17-2.87-1.17h0Z"/><path class="f" d="M141.5,40.61c.37,0,.67,1.06,.67,2.37s-.3,2.37-.67,2.37-.67-1.06-.67-2.37,.3-2.37,.67-2.37m0-.5c-1.09,0-1.17,2.2-1.17,2.87s.08,2.87,1.17,2.87,1.17-2.2,1.17-2.87-.08-2.87-1.17-2.87h0Z"/><path class="f" d="M144.29,39.96c.36,0,.99,.82,1.46,1.94,.51,1.21,.65,2.3,.3,2.44-.03,.01-.05,.02-.08,.02-.36,0-.99-.82-1.46-1.94-.51-1.21-.65-2.3-.31-2.44,.03-.01,.05-.02,.08-.02m0-.5c-.1,0-.19,.02-.28,.06-1,.42-.22,2.48,.04,3.1,.22,.53,1.02,2.24,1.92,2.24,.1,0,.19-.02,.28-.06,.4-.17,.56-.62,.47-1.35-.06-.51-.24-1.13-.51-1.75-.22-.53-1.02-2.24-1.92-2.24h0Z"/><path class="f" d="M151.51,28.62c.27,0,.46,.06,.51,.19,.14,.34-.72,1.03-1.92,1.54-.76,.32-1.47,.49-1.93,.49-.27,0-.46-.06-.51-.19-.14-.34,.72-1.03,1.92-1.54,.76-.32,1.47-.49,1.93-.49m0-.5c-.55,0-1.33,.19-2.13,.53-.62,.26-1.19,.59-1.59,.9-.57,.46-.77,.89-.6,1.29,.1,.22,.34,.49,.97,.49,.55,0,1.33-.19,2.13-.53,.62-.26,2.61-1.2,2.19-2.2-.1-.23-.34-.49-.97-.49h0Z"/><path class="f" d="M134.39,36.34c.27,0,.46,.06,.51,.19,.14,.34-.72,1.03-1.92,1.54-.76,.32-1.47,.49-1.93,.49-.27,0-.46-.06-.51-.19-.14-.34,.72-1.03,1.92-1.54,.76-.32,1.47-.49,1.93-.49m0-.5c-.55,0-1.33,.19-2.13,.53-.62,.26-1.19,.59-1.59,.9-.57,.46-.77,.89-.6,1.29,.1,.22,.34,.49,.97,.49,.55,0,1.33-.19,2.13-.53,.62-.26,1.19-.59,1.59-.9,.57-.46,.77-.89,.6-1.29-.1-.22-.34-.49-.97-.49h0Z"/><path class="f" d="M136.58,22.84c.36,0,.99,.82,1.46,1.94,.51,1.21,.65,2.3,.31,2.44-.03,.01-.05,.02-.08,.02-.36,0-.99-.82-1.46-1.94-.51-1.21-.65-2.3-.31-2.44,.03-.01,.05-.02,.08-.02m0-.5c-.1,0-.19,.02-.28,.06-1,.42-.22,2.48,.04,3.1,.22,.53,1.02,2.24,1.92,2.24,.1,0,.19-.02,.28-.06,1-.42,.22-2.48-.04-3.1-.22-.53-1.02-2.24-1.92-2.24h0Z"/><path class="f" d="M148.33,35.95c.46,0,1.18,.17,1.93,.5,1.21,.51,2.06,1.2,1.92,1.54-.05,.13-.24,.19-.51,.19-.46,0-1.18-.17-1.93-.5-1.21-.51-2.06-1.2-1.92-1.54,.05-.13,.24-.19,.51-.19m0-.5c-.63,0-.88,.27-.97,.49-.42,1,1.56,1.94,2.18,2.2,.8,.34,1.58,.54,2.13,.54,.63,0,.88-.27,.97-.49,.42-1-1.56-1.94-2.18-2.2-.8-.34-1.58-.54-2.13-.54h0Z"/><path class="f" d="M145.59,22.67s.06,0,.08,.02c.34,.14,.2,1.24-.31,2.44-.47,1.12-1.1,1.94-1.46,1.94-.03,0-.06,0-.08-.02-.34-.14-.2-1.24,.31-2.44,.47-1.12,1.1-1.94,1.46-1.94m0-.5c-.9,0-1.7,1.71-1.92,2.24-.26,.62-1.04,2.68-.04,3.1,.09,.04,.18,.06,.28,.06,.9,0,1.7-1.71,1.92-2.24,.26-.62,.45-1.25,.51-1.75,.09-.72-.07-1.18-.47-1.35-.09-.04-.18-.06-.28-.06h0Z"/><path class="f" d="M138.66,40.12s.06,0,.08,.02c.34,.14,.2,1.24-.31,2.44-.47,1.12-1.1,1.94-1.46,1.94-.03,0-.06,0-.08-.02-.34-.14-.2-1.24,.31-2.44,.47-1.12,1.1-1.94,1.46-1.94m0-.5c-.9,0-1.7,1.71-1.92,2.24-.26,.62-1.04,2.68-.04,3.1,.09,.04,.18,.06,.28,.06,.9,0,1.7-1.71,1.92-2.24,.27-.62,.45-1.25,.51-1.75,.09-.72-.07-1.18-.47-1.35-.09-.04-.18-.06-.28-.06h0Z"/><path class="f" d="M149.24,25.06c.08,0,.15,.02,.19,.07,.26,.26-.28,1.23-1.2,2.15-.77,.77-1.56,1.27-1.96,1.27-.08,0-.15-.02-.19-.07-.26-.26,.28-1.23,1.2-2.15,.77-.77,1.56-1.27,1.96-1.27m0-.5c-.66,0-1.63,.73-2.31,1.41-.48,.48-1.97,2.09-1.2,2.86,.1,.1,.27,.21,.55,.21,.66,0,1.63-.73,2.31-1.41,.48-.48,1.97-2.09,1.2-2.86-.1-.1-.27-.21-.55-.21h0Z"/><path class="f" d="M133,25.37c.4,0,1.19,.5,1.96,1.27,.93,.93,1.46,1.89,1.2,2.15-.04,.04-.11,.07-.19,.07-.4,0-1.19-.5-1.96-1.27-.93-.93-1.46-1.89-1.2-2.15,.04-.04,.11-.07,.19-.07m0-.5c-.28,0-.45,.12-.55,.21-.77,.77,.73,2.38,1.2,2.86,.68,.68,1.65,1.41,2.31,1.41,.28,0,.45-.12,.55-.21,.77-.77-.73-2.38-1.2-2.86-.68-.68-1.65-1.41-2.31-1.41h0Z"/><path class="f" d="M146.59,38.33c.4,0,1.19,.5,1.96,1.27,.93,.93,1.46,1.89,1.2,2.15-.04,.04-.11,.07-.19,.07-.4,0-1.19-.5-1.96-1.27-.93-.93-1.46-1.89-1.2-2.15,.04-.04,.11-.07,.19-.07m0-.5c-.28,0-.45,.12-.55,.21-.77,.77,.73,2.38,1.2,2.86,.68,.68,1.65,1.41,2.31,1.41,.28,0,.45-.12,.55-.21,.31-.31,.28-.79-.07-1.42-.25-.45-.65-.95-1.13-1.43-.68-.68-1.65-1.41-2.31-1.41h0Z"/><path class="f" d="M136.28,38.65c.08,0,.15,.02,.19,.07,.26,.26-.28,1.22-1.2,2.15-.77,.77-1.56,1.27-1.96,1.27-.08,0-.15-.02-.19-.07-.26-.26,.28-1.22,1.2-2.15,.77-.77,1.56-1.27,1.96-1.27m0-.5c-.66,0-1.63,.73-2.31,1.41-.48,.48-1.97,2.09-1.2,2.86,.1,.1,.27,.21,.55,.21,.66,0,1.63-.73,2.31-1.41,.48-.48,1.97-2.09,1.2-2.86-.1-.1-.27-.21-.55-.21h0Z"/><path class="f" d="M130.88,29.02c.46,0,1.18,.17,1.93,.5,1.21,.51,2.06,1.2,1.92,1.54-.05,.13-.24,.19-.51,.19-.46,0-1.18-.17-1.93-.5-1.21-.51-2.06-1.2-1.92-1.54,.05-.13,.24-.19,.51-.19m0-.5c-.63,0-.88,.27-.97,.49-.42,1,1.56,1.94,2.18,2.2,.8,.34,1.58,.54,2.13,.54,.63,0,.88-.27,.97-.49,.42-1-1.56-1.94-2.18-2.2-.8-.34-1.58-.54-2.13-.54h0Z"/></g></g><g><path class="f" d="M136.31,62.97c.42,0,.74,.14,.98,.43,.23,.29,.35,.68,.35,1.19s-.12,.91-.35,1.2c-.24,.29-.56,.43-.97,.43s-.73-.14-.97-.43c-.24-.29-.36-.68-.36-1.2,0-.2,.04-.39,.11-.58,.08-.19,.16-.33,.26-.42v-.02l-.32,.02v-.56c.38-.05,.8-.07,1.27-.07Zm-.57,1.62c0,.69,.19,1.03,.57,1.03s.57-.35,.57-1.04-.19-1.04-.57-1.04h-.28c-.19,.27-.29,.62-.29,1.05Z"/><path class="f" d="M138.23,63.02c.14-.03,.29-.04,.44-.04s.29,.02,.4,.05c.11,.03,.2,.08,.27,.14,.07,.06,.13,.13,.17,.21,.07,.15,.11,.34,.11,.58v1.28c0,.15-.01,.31-.03,.46-.02,.16-.04,.27-.06,.35l-.03,.12h-1.42v-.57h.76c.03-.12,.04-.31,.04-.56v-1.09c0-.19-.05-.31-.14-.36-.04-.02-.09-.03-.15-.03-.12,0-.25,.01-.37,.04v-.59Z"/><path class="f" d="M141.94,62.97c.26,0,.46,.05,.61,.15,.32,.2,.47,.69,.47,1.48,0,.52-.12,.93-.35,1.21s-.57,.42-1,.42c-.18,0-.35-.04-.5-.11-.16-.07-.29-.17-.41-.31-.12-.13-.21-.31-.28-.51-.07-.21-.1-.44-.1-.7v-1.57h.75v1.57c0,.34,.05,.6,.14,.77,.09,.17,.23,.25,.43,.25s.34-.08,.44-.24c.1-.16,.14-.42,.14-.78s-.03-.6-.08-.76c-.04-.14-.13-.22-.26-.25-.06-.01-.13-.02-.22-.02h-.16v-.54c.12-.04,.25-.05,.38-.05Z"/><path class="f" d="M143.61,65.11v-2.08h.75v1.46l-.5,.63h-.25Z"/><path class="f" d="M144.92,64.09c0-.17,.03-.32,.08-.45,.05-.13,.12-.24,.21-.32,.09-.08,.19-.15,.31-.2,.21-.1,.45-.14,.72-.14,.13,0,.26,.01,.37,.04,.12,.02,.23,.07,.35,.15,.12,.07,.22,.17,.31,.28,.08,.12,.16,.27,.21,.47,.05,.2,.08,.41,.08,.63s-.01,.41-.04,.57c-.02,.16-.06,.29-.1,.4-.04,.11-.1,.21-.16,.29-.07,.08-.13,.15-.21,.21-.07,.05-.16,.09-.25,.13-.16,.06-.35,.09-.56,.09s-.42,0-.61-.02c-.19-.01-.33-.02-.41-.03l-.13-.02v-.55c.37,.03,.75,.04,1.14,.04,.14,0,.26-.04,.35-.12,.07-.06,.12-.17,.16-.32,.03-.1,.04-.21,.05-.32,0-.11,0-.21,0-.29s0-.15,0-.21c0-.06,0-.12-.01-.2,0-.08-.02-.14-.03-.2-.01-.05-.04-.11-.06-.16-.03-.06-.06-.1-.1-.14-.09-.08-.21-.12-.35-.12-.1,0-.19,.02-.27,.05-.08,.03-.13,.06-.17,.1-.04,.04-.07,.08-.09,.14-.03,.07-.04,.15-.04,.22s.02,.14,.05,.21c.03,.06,.07,.12,.12,.15,.09,.07,.17,.11,.25,.12l.09,.02-.12,.56-.13-.02c-.23-.03-.4-.07-.51-.12-.33-.15-.5-.45-.5-.9Z"/></g></g><g><path class="f" d="M129.31,20.37c-.5,.44-.74,.68-1.19,1.18l-.32-.29c.13-.14,.19-.21,.32-.34h0s.04-.11,0-.15c-.04-.04-.11-.04-.15,0-.13,.14-.2,.21-.33,.35l-.34-.31s0-.01,0-.02c.21-.24,.32-.36,.55-.59,.04-.04,.05-.11,0-.15-.04-.04-.11-.04-.15,0-.23,.23-.34,.35-.55,.59-.09,.1-.08,.24,0,.32,.36,.32,.54,.47,.91,.79,.04,.04,.11,.03,.14-.01,.47-.53,.71-.78,1.24-1.24,.04-.04,.05-.1,.01-.14-.04-.04-.1-.05-.14,0Z"/><path class="f" d="M132.3,17.59s-.05,0-.08,.01c-.02,0-.04,0-.07,0-.15,.02-.28,.03-.34-.06-.03-.05-.03-.09-.02-.14,.02-.07,.1-.15,.2-.2,.13-.07,.23-.07,.35-.02,.05,.02,.12,0,.15-.05,.03-.05,0-.11-.05-.14-.18-.08-.34-.07-.54,.03-.08,.04-.26,.15-.32,.33-.03,.1-.02,.2,.04,.3,.13,.22,.4,.17,.55,.15,.02,0,.04,0,.06,0,.03,0,.06,0,.09-.01,.18-.03,.31-.03,.38,.11,.02,.04,.01,.09,0,.14-.03,.07-.09,.14-.18,.17-.21,.09-.35,0-.38-.02-.04-.03-.11-.03-.15,.02s-.03,.11,.02,.14c.04,.03,.27,.18,.59,.05h.03c.12-.07,.21-.17,.26-.29,.04-.1,.04-.21,0-.3-.13-.29-.43-.25-.59-.22Z"/><path class="f" d="M133.34,17.13s-.05,0-.08,0c-.02,0-.04,0-.07,0-.15,0-.28,.01-.33-.09-.02-.05-.03-.09,0-.14,.03-.07,.11-.14,.22-.18,.14-.06,.23-.06,.35,0,.05,.03,.12,0,.15-.04,.03-.05,.02-.11-.04-.14-.17-.09-.34-.09-.54-.01-.08,.03-.27,.13-.35,.31-.04,.1-.04,.2,.01,.3,.12,.22,.39,.2,.53,.19,.02,0,.04,0,.06,0,.03,0,.06,0,.09,0,.18-.01,.31-.01,.37,.14,.01,.04,0,.09-.02,.14-.04,.07-.1,.13-.19,.16-.22,.08-.35-.03-.38-.05-.04-.04-.11-.03-.15,0s-.04,.11,0,.14c.04,.04,.26,.2,.59,.09h.03c.12-.06,.23-.15,.28-.26,.05-.1,.06-.21,.03-.3-.11-.29-.41-.28-.57-.26Z"/><path class="f" d="M130.66,17.72c-.41,.25-.37,.65-.34,.83,0,.02,0,.04,0,.06,0,.09,.03,.19,.06,.3,.07,.29,.12,.5-.02,.6-.15,.11-.23,.17-.37,.29l-.28-.36c.1-.08,.15-.12,.26-.19h0c.09-.07,.19-.14,.28-.12,.02,0,.09,.02,.14,.05-.01-.07-.03-.16-.06-.25h-.04s-.09-.02-.14,0c.02-.11,0-.22-.09-.33-.18-.21-.51-.11-.63-.02-.14,.11-.46,.35-.66,.52-.05,.04-.07,.06-.12,.1h0s-.07,.08-.07,.13c0,.05,0,.1,.04,.13l.04,.05s.1,.04,.15,0c.05-.04,.05-.11,.02-.15l-.03-.03s.06-.05,.09-.08c.2-.16,.51-.41,.65-.51,.06-.04,.25-.11,.34,0,.13,.15,0,.31-.03,.34-.11,.08-.16,.12-.27,.2l-.16-.21s-.1-.05-.15-.01h0s-.06,.1-.02,.15l.59,.74s.07,.06,.12,.06c.05,0,.09,0,.13-.04h0c.15-.12,.23-.18,.39-.3,.26-.19,.17-.54,.1-.82-.02-.1-.05-.19-.05-.27,0-.02,0-.04,0-.07-.02-.17-.05-.45,.24-.62,.18-.11,.57-.2,.8,.2,.19,.34,.01,.61-.2,.74-.25,.16-.48,.06-.51,.04-.02-.01-.03-.02-.04-.03-.07-.05-.15-.11-.21-.17,0,.05,.02,.1,.03,.16,.01,.05,.03,.11,.04,.17h0s.03,.02,.05,.04h.03c.12,.07,.34,.14,.6,.02h0s.08-.04,.12-.06c.29-.19,.51-.58,.27-1.02-.27-.5-.81-.44-1.09-.27Z"/><path class="f" d="M129.01,19.28h0s-.06,.11-.02,.15l.55,.65c-.53-.17-.8-.24-1.36-.37h-.02c-.08,0-.15,.04-.19,.11-.04,.07-.03,.15,.02,.21l.69,.71s.1,.04,.14,0h0s.04-.1,0-.14c-.25-.26-.37-.39-.61-.65,.55,.12,.83,.19,1.35,.36h.02c.05,.01,.1,0,.14-.04,.02-.01,.03-.03,.04-.05,.04-.07,.03-.15-.02-.21l-.59-.73s-.1-.05-.15,0Z"/><path class="f" d="M131.12,17.97s-.05,.03-.05,.06c.01,.08,0,.19-.01,.29-.12-.02-.17-.04-.29-.06-.03,0-.06,.01-.06,.04,0,.03,0,.05,.04,.06,.12,.02,.18,.03,.3,.06-.02,.11-.04,.19-.04,.19,0,.03,0,.05,.04,.06,.01,0,.03,0,.04,0,.01,0,.02-.02,.02-.03,0,0,.02-.09,.04-.19,.12,.02,.17,.04,.29,.06,.01,0,.03,0,.04,0,.01,0,.02-.02,.02-.03,0-.03,0-.05-.04-.06-.12-.03-.18-.04-.3-.07,.02-.11,.03-.23,.02-.33,0-.03-.03-.05-.06-.04Z"/></g></g><g><g><g><g class="e"><path class="f" d="M87.47,18.75c-7.86,0-14.23,6.37-14.23,14.23s6.37,14.23,14.23,14.23,14.23-6.37,14.23-14.23-6.37-14.23-14.23-14.23Zm0,18.69c-2.46,0-4.46-2-4.46-4.46s2-4.46,4.46-4.46,4.46,2,4.46,4.46-2,4.46-4.46,4.46Z"/></g><path class="f" d="M87.47,10.17c12.58,0,22.81,10.23,22.81,22.81s-10.23,22.81-22.81,22.81-22.81-10.23-22.81-22.81,10.23-22.81,22.81-22.81m0-1c-13.15,0-23.81,10.66-23.81,23.81s10.66,23.81,23.81,23.81,23.81-10.66,23.81-23.81-10.66-23.81-23.81-23.81h0Z"/><path class="f" d="M87.47,19.75c7.3,0,13.23,5.94,13.23,13.23s-5.94,13.23-13.23,13.23-13.23-5.94-13.23-13.23,5.94-13.23,13.23-13.23m0-1c-7.86,0-14.23,6.37-14.23,14.23s6.37,14.23,14.23,14.23,14.23-6.37,14.23-14.23-6.37-14.23-14.23-14.23h0Z"/><path class="f" d="M87.47,28.52c2.46,0,4.46,2,4.46,4.46s-2,4.46-4.46,4.46-4.46-2-4.46-4.46,2-4.46,4.46-4.46m0-1c-3.01,0-5.46,2.45-5.46,5.46s2.45,5.46,5.46,5.46,5.46-2.45,5.46-5.46-2.45-5.46-5.46-5.46h0Z"/></g><g><path class="f" d="M78.01,63.02h1.66v.48l-.43,1.5-.26,1.17h-.72l.26-1.17,.4-1.41h-1.65v-1.22h.74v.65Z"/><path class="f" d="M80.17,65.11v-2.08h.74v1.46l-.5,.63h-.25Z"/><path class="f" d="M81.62,65.11v-2.08h.74v1.46l-.5,.63h-.25Z"/><path class="f" d="M84.64,62.97c.25,0,.46,.05,.61,.15,.32,.2,.47,.69,.47,1.48,0,.52-.12,.93-.35,1.21-.23,.28-.57,.42-1,.42-.18,0-.35-.04-.51-.11-.16-.07-.29-.17-.41-.31-.12-.13-.21-.31-.28-.51-.07-.21-.1-.44-.1-.7v-1.57h.75v1.57c0,.34,.05,.6,.14,.77s.24,.25,.43,.25,.34-.08,.44-.24c.1-.16,.14-.42,.14-.78s-.03-.6-.08-.76c-.04-.14-.13-.22-.26-.25-.05-.01-.13-.02-.22-.02h-.16v-.54c.12-.04,.25-.05,.38-.05Z"/><path class="f" d="M87.5,62.97c.42,0,.74,.14,.98,.43,.23,.29,.35,.68,.35,1.19s-.12,.91-.35,1.2c-.24,.29-.56,.43-.97,.43s-.73-.14-.97-.43c-.24-.29-.36-.68-.36-1.2,0-.2,.04-.39,.12-.58,.08-.19,.16-.33,.26-.42v-.02l-.32,.02v-.56c.38-.05,.8-.07,1.27-.07Zm-.57,1.62c0,.69,.19,1.03,.57,1.03s.57-.35,.57-1.04-.19-1.04-.57-1.04h-.28c-.19,.27-.29,.62-.29,1.05Z"/><path class="f" d="M90.51,65.14h-1.31v-.61h1.31v.61Z"/><path class="f" d="M91.01,65.11v-2.08h.75v1.46l-.5,.63h-.25Z"/><path class="f" d="M92.2,63.02c.3-.03,.57-.05,.81-.05s.42,.01,.56,.03c.14,.02,.25,.06,.34,.1,.09,.05,.17,.1,.23,.16,.06,.06,.1,.14,.14,.23,.03,.09,.05,.18,.07,.28,.01,.09,.02,.21,.02,.33v2.06h-.75v-2.06c0-.38-.21-.56-.62-.56-.21,0-.47,.02-.79,.05v-.57Z"/><path class="f" d="M94.97,64.09c0-.17,.03-.32,.08-.45,.05-.13,.12-.24,.21-.32,.09-.08,.19-.15,.31-.2,.21-.1,.45-.14,.72-.14,.13,0,.26,.01,.37,.04,.12,.02,.23,.07,.35,.15,.12,.07,.22,.17,.31,.28,.08,.12,.16,.27,.21,.47,.05,.2,.08,.41,.08,.63s-.01,.41-.04,.57c-.02,.16-.06,.29-.1,.4-.04,.11-.1,.21-.16,.29-.07,.08-.13,.15-.21,.21-.07,.05-.16,.09-.25,.13-.16,.06-.35,.09-.56,.09s-.42,0-.61-.02c-.19-.01-.33-.02-.41-.03l-.13-.02v-.55c.37,.03,.75,.04,1.14,.04,.14,0,.26-.04,.35-.12,.07-.06,.12-.17,.16-.32,.03-.1,.04-.21,.05-.32,0-.11,0-.21,0-.29s0-.15,0-.21c0-.06,0-.12-.01-.2,0-.08-.02-.14-.03-.2-.01-.05-.04-.11-.06-.16-.03-.06-.06-.1-.1-.14-.09-.08-.21-.12-.35-.12-.1,0-.19,.02-.27,.05-.08,.03-.13,.06-.17,.1-.04,.04-.07,.08-.09,.14-.03,.07-.04,.15-.04,.22s.02,.14,.05,.21c.03,.06,.07,.12,.12,.15,.09,.07,.17,.11,.25,.12l.09,.02-.12,.56-.13-.02c-.23-.03-.4-.07-.51-.12-.33-.15-.5-.45-.5-.9Z"/></g></g><g><path class="f" d="M74.96,20.1c-.5,.44-.74,.67-1.19,1.16l-.32-.3c.13-.14,.19-.2,.32-.33h0s.04-.11,0-.15c-.04-.04-.1-.04-.15,0-.13,.13-.2,.2-.33,.34l-.34-.32s0-.01,0-.02c.21-.23,.32-.34,.54-.57,.04-.04,.05-.11,0-.15-.04-.04-.11-.04-.15,0-.22,.22-.33,.34-.55,.57-.09,.09-.09,.24,0,.31,.35,.32,.53,.49,.89,.81,.04,.04,.11,.03,.14,0,.48-.51,.73-.76,1.25-1.22,.04-.04,.05-.1,0-.14-.04-.04-.1-.05-.14,0Z"/><path class="f" d="M77.85,17.27s-.05,.01-.08,.01c-.02,0-.04,0-.06,.01-.15,.03-.28,.04-.34-.05-.03-.04-.04-.09-.02-.13,.02-.07,.09-.15,.19-.2,.13-.07,.22-.08,.34-.04,.05,.02,.12,0,.14-.06,.02-.05,0-.11-.05-.13-.18-.07-.34-.05-.53,.05-.07,.04-.25,.16-.3,.34-.03,.1,0,.2,.05,.29,.14,.21,.4,.16,.55,.13,.02,0,.04,0,.05,0,.03,0,.06,0,.09-.02,.18-.04,.3-.05,.38,.09,.02,.03,.02,.09,0,.14-.03,.08-.09,.14-.17,.18-.21,.1-.35,.01-.38,0-.05-.03-.11-.02-.14,.03-.03,.05-.02,.11,.02,.14,.04,.03,.28,.17,.59,.02h.03c.12-.08,.21-.18,.25-.3,.04-.1,.03-.21-.01-.3-.15-.28-.44-.22-.6-.19Z"/><path class="f" d="M78.85,16.76s-.05,0-.08,0c-.02,0-.04,0-.06,0-.15,.02-.28,.03-.33-.07-.03-.05-.03-.09-.02-.14,.02-.07,.1-.14,.2-.19,.13-.06,.22-.07,.34-.02,.05,.02,.12,0,.14-.05,.03-.05,0-.11-.05-.14-.18-.08-.34-.07-.53,.02-.08,.04-.26,.14-.32,.32-.03,.1-.02,.2,.03,.3,.13,.22,.4,.18,.54,.16,.02,0,.04,0,.05,0,.03,0,.06,0,.09-.01,.18-.02,.31-.03,.37,.11,.02,.04,.01,.09,0,.14-.03,.07-.09,.14-.18,.17-.21,.09-.35,0-.38-.03-.04-.03-.11-.03-.15,.02-.04,.04-.03,.11,.01,.14,.04,.03,.27,.19,.59,.06h.03c.12-.07,.22-.17,.26-.28,.04-.1,.04-.21,0-.3-.13-.29-.42-.25-.58-.23Z"/><path class="f" d="M76.24,17.45c-.39,.26-.34,.65-.31,.84,0,.02,0,.04,0,.06,0,.09,.04,.19,.07,.3,.08,.29,.13,.5,0,.6-.15,.11-.22,.17-.37,.29l-.29-.36c.1-.08,.15-.12,.25-.2h0c.09-.07,.18-.14,.27-.12,.02,0,.09,.02,.14,.05-.01-.07-.04-.15-.06-.24h-.04s-.09-.01-.14,0c.02-.11,0-.22-.1-.33-.18-.2-.5-.11-.63-.01-.14,.11-.44,.35-.64,.52-.05,.04-.07,.06-.11,.1h0s-.06,.08-.07,.13c0,.05,0,.1,.04,.13l.04,.05s.1,.04,.15,0c.04-.04,.05-.11,.01-.15l-.03-.03,.09-.08c.19-.16,.5-.41,.63-.51,.06-.04,.25-.11,.34,0,.13,.14,0,.31-.02,.34-.11,.08-.16,.12-.27,.2l-.16-.2s-.1-.05-.15-.01h0s-.06,.1-.02,.15l.6,.73s.07,.06,.12,.06c.05,0,.09,0,.13-.04h0c.15-.12,.23-.18,.38-.3,.26-.19,.16-.54,.08-.82-.03-.1-.05-.19-.06-.26,0-.02,0-.04,0-.07-.02-.17-.06-.45,.21-.63,.17-.11,.56-.21,.8,.18,.2,.33,.04,.61-.16,.75-.24,.17-.47,.07-.51,.05-.02-.01-.04-.02-.04-.02-.07-.05-.15-.11-.21-.16,.01,.05,.02,.1,.04,.16,.01,.05,.03,.11,.04,.17h0s.03,.02,.05,.04h.03c.12,.07,.34,.13,.6,0h0s.08-.04,.11-.07c.28-.2,.48-.6,.23-1.02-.29-.49-.82-.42-1.09-.24Z"/><path class="f" d="M74.66,19.01h0s-.05,.1-.02,.15c.22,.26,.33,.39,.55,.65-.53-.17-.8-.24-1.35-.37h-.02c-.08,0-.15,.04-.19,.11-.04,.07-.03,.15,.02,.21,.27,.28,.41,.43,.68,.71,.04,.04,.1,.04,.14,0h0s.04-.1,0-.14l-.61-.65c.55,.13,.82,.2,1.35,.37h.02c.05,.01,.1,0,.14-.04,.02-.01,.03-.03,.04-.05,.04-.07,.03-.15-.02-.2l-.6-.72s-.1-.05-.15,0Z"/><path class="f" d="M76.7,17.69s-.05,.03-.04,.06c.01,.08,0,.19,0,.28-.11-.02-.17-.03-.29-.05-.03,0-.06,.01-.06,.04,0,.03,.01,.05,.04,.06,.12,.02,.18,.03,.3,.05-.02,.11-.03,.19-.03,.19,0,.03,.01,.05,.04,.06,.01,0,.03,0,.04,0,.01,0,.02-.02,.02-.03,0,0,.02-.09,.04-.19,.12,.02,.17,.03,.29,.06,.01,0,.03,0,.04,0,.01,0,.02-.02,.02-.03,0-.03-.01-.05-.04-.06-.12-.02-.18-.04-.3-.06,.01-.11,.02-.23,0-.33,0-.03-.03-.04-.06-.04Z"/></g></g><g><g><g><g class="e"><path class="f" d="M28.4,11.14c-9.53,0-17.26,7.73-17.26,17.26s7.73,17.26,17.26,17.26,17.26-7.73,17.26-17.26-7.73-17.26-17.26-17.26Zm-1.49,3.15h2.82c.55,0,1,.45,1,1l-.5,4.24c0,.55-.45,1-1,1h-1.74c-.55,0-1-.45-1-1l-.58-4.24c0-.55,.45-1,1-1Zm-5.66,20.02l-3.37,2.63c-.48,.28-1.09,.11-1.37-.36l-1.41-2.43c-.28-.48-.11-1.09,.36-1.37l3.92-1.7c.48-.28,1.09-.11,1.37,.36l.87,1.5c.28,.48,.11,1.09-.36,1.37Zm7.16-.31c-3.1,0-5.61-2.51-5.61-5.61s2.51-5.61,5.61-5.61,5.61,2.51,5.61,5.61-2.51,5.61-5.61,5.61Zm11.4,3.23c-.3,.46-.92,.6-1.38,.3l-3.3-2.71c-.46-.3-.6-.92-.3-1.38l.94-1.46c.3-.46,.92-.6,1.38-.3l3.88,1.8c.46,.3,.6,.92,.3,1.38l-1.52,2.37Z"/></g><path class="f" d="M28.4,1c15.11,0,27.4,12.29,27.4,27.4s-12.29,27.4-27.4,27.4S1,43.51,1,28.4,13.29,1,28.4,1m0-1C12.71,0,0,12.71,0,28.4s12.71,28.4,28.4,28.4,28.4-12.71,28.4-28.4S44.08,0,28.4,0h0Z"/><path class="f" d="M28.4,12.14c8.96,0,16.26,7.29,16.26,16.26s-7.29,16.26-16.26,16.26-16.26-7.29-16.26-16.26S19.43,12.14,28.4,12.14m0-1c-9.53,0-17.26,7.73-17.26,17.26s7.73,17.26,17.26,17.26,17.26-7.73,17.26-17.26-7.73-17.26-17.26-17.26h0Z"/><path class="f" d="M28.4,22.79c3.1,0,5.61,2.51,5.61,5.61s-2.51,5.61-5.61,5.61-5.61-2.51-5.61-5.61,2.51-5.61,5.61-5.61m0-1c-3.64,0-6.61,2.96-6.61,6.61s2.96,6.61,6.61,6.61,6.61-2.96,6.61-6.61-2.96-6.61-6.61-6.61h0Z"/><g><path class="d" d="M29.72,14.29h-2.82c-.55,0-1,.45-1,1l.58,4.24c0,.55,.45,1,1,1h1.74c.55,0,1-.45,1-1l.5-4.24c0-.55-.45-1-1-1Z"/><path class="d" d="M15.09,34.14l1.41,2.43c.28,.48,.89,.64,1.37,.36l3.37-2.63c.48-.28,.64-.89,.36-1.37l-.87-1.5c-.28-.48-.89-.64-1.37-.36l-3.92,1.7c-.48,.28-.64,.89-.36,1.37Z"/><path class="d" d="M39.8,37.24l1.52-2.37c.3-.46,.16-1.08-.3-1.38l-3.88-1.8c-.46-.3-1.08-.16-1.38,.3l-.94,1.46c-.3,.46-.16,1.08,.3,1.38l3.3,2.71c.46,.3,1.08,.16,1.38-.3Z"/></g></g><g><path class="f" d="M14.18,66.04c-.06,.04-.13,.08-.23,.12-.1,.04-.19,.05-.27,.05s-.18,0-.28-.03l.05-.69s.02,0,.06,.01c.04,0,.08,0,.11,0s.09,0,.15,0c.06,0,.14-.02,.23-.05,.13-.04,.23-.12,.31-.23,.07-.11,.11-.25,.11-.4v-.89c0-.19-.05-.31-.14-.36-.04-.02-.09-.03-.16-.03-.14,0-.26,.01-.37,.04h-.06v-.57c.14-.04,.31-.06,.49-.06s.33,.02,.44,.05c.12,.03,.21,.08,.27,.13,.07,.05,.12,.13,.16,.21,.04,.09,.06,.18,.08,.27,.01,.09,.02,.19,.02,.32v2.22h-.56l-.11-.46h-.04s-.06,.1-.12,.17-.11,.12-.17,.16Z"/><path class="f" d="M15.92,63.02c.14-.03,.29-.04,.44-.04s.29,.02,.4,.05c.11,.03,.2,.08,.27,.14,.07,.06,.13,.13,.17,.21,.07,.15,.11,.34,.11,.58v1.28c0,.15-.01,.31-.03,.46-.02,.16-.04,.27-.06,.35l-.03,.12h-1.42v-.57h.76c.03-.12,.04-.31,.04-.56v-1.09c0-.19-.04-.31-.14-.36-.04-.02-.09-.03-.15-.03-.12,0-.25,.01-.37,.04v-.59Z"/><path class="f" d="M18.06,65.11v-2.08h.75v1.46l-.5,.63h-.25Z"/><path class="f" d="M21.08,62.97c.26,0,.46,.05,.61,.15,.32,.2,.47,.69,.47,1.48,0,.52-.12,.93-.35,1.21s-.57,.42-1,.42c-.18,0-.35-.04-.5-.11-.16-.07-.29-.17-.41-.31-.12-.13-.21-.31-.28-.51-.07-.21-.1-.44-.1-.7v-1.57h.75v1.57c0,.34,.05,.6,.14,.77,.09,.17,.23,.25,.43,.25s.34-.08,.44-.24c.1-.16,.14-.42,.14-.78s-.03-.6-.08-.76c-.04-.14-.13-.22-.26-.25-.06-.01-.13-.02-.22-.02h-.16v-.54c.12-.04,.25-.05,.38-.05Z"/><path class="f" d="M22.75,65.11v-2.08h.75v1.46l-.5,.63h-.25Z"/><path class="f" d="M24.2,65.11v-2.08h.75v1.46l-.5,.63h-.25Z"/><path class="f" d="M27.55,66.09v.08h-.74v-.08c0-.13,.02-.31,.06-.55,.04-.23,.09-.43,.16-.6l.49-1.35h-1.84v-.57h2.66v.45l-.53,1.44c-.17,.46-.25,.85-.25,1.18Zm-1.18,1.29h-.69v-3.09h.69v3.09Z"/><path class="f" d="M30.03,62.97c.42,0,.74,.14,.98,.43,.23,.29,.35,.68,.35,1.19s-.12,.91-.35,1.2c-.24,.29-.56,.43-.97,.43s-.73-.14-.97-.43c-.24-.29-.36-.68-.36-1.2,0-.2,.04-.39,.11-.58,.08-.19,.16-.33,.26-.42v-.02l-.32,.02v-.56c.38-.05,.8-.07,1.27-.07Zm-.57,1.62c0,.69,.19,1.03,.57,1.03s.57-.35,.57-1.04-.19-1.04-.57-1.04h-.28c-.19,.27-.29,.62-.29,1.05Z"/><path class="f" d="M33.04,65.14h-1.31v-.61h1.31v.61Z"/><path class="f" d="M35.81,63.02v.54c-.07,.03-.14,.06-.21,.12-.08,.06-.14,.13-.17,.21-.03,.08-.05,.19-.05,.32v1.96h-.74v-1.97c0-.09,.01-.17,.04-.24,.03-.07,.06-.13,.09-.17,.07-.08,.14-.14,.2-.16h.04v-.03h-1.71v-.57h2.52Z"/><path class="f" d="M36.28,65.11v-2.08h.75v1.46l-.5,.63h-.25Z"/><path class="f" d="M37.59,64.09c0-.17,.03-.32,.08-.45,.05-.13,.12-.24,.21-.32,.09-.08,.19-.15,.31-.2,.21-.1,.45-.14,.72-.14,.13,0,.26,.01,.37,.04,.12,.02,.23,.07,.35,.15,.12,.07,.22,.17,.31,.28,.08,.12,.16,.27,.21,.47,.05,.2,.08,.41,.08,.63s-.01,.41-.04,.57c-.02,.16-.06,.29-.1,.4-.04,.11-.1,.21-.16,.29-.07,.08-.13,.15-.21,.21-.07,.05-.16,.09-.25,.13-.16,.06-.35,.09-.56,.09s-.42,0-.61-.02c-.19-.01-.33-.02-.41-.03l-.13-.02v-.55c.37,.03,.75,.04,1.14,.04,.14,0,.26-.04,.35-.12,.07-.06,.12-.17,.16-.32,.03-.1,.04-.21,.05-.32,0-.11,0-.21,0-.29s0-.15,0-.21c0-.06,0-.12-.01-.2,0-.08-.02-.14-.03-.2-.01-.05-.04-.11-.06-.16-.03-.06-.06-.1-.1-.14-.09-.08-.21-.12-.35-.12-.1,0-.19,.02-.27,.05-.08,.03-.13,.06-.17,.1-.04,.04-.07,.08-.09,.14-.03,.07-.04,.15-.04,.22s.02,.14,.05,.21c.03,.06,.07,.12,.12,.15,.09,.07,.17,.11,.25,.12l.09,.02-.12,.56-.13-.02c-.23-.03-.4-.07-.51-.12-.33-.15-.5-.45-.5-.9Z"/><path class="f" d="M42.01,62.97c.42,0,.74,.14,.98,.43,.23,.29,.35,.68,.35,1.19s-.12,.91-.35,1.2c-.24,.29-.56,.43-.97,.43s-.73-.14-.97-.43c-.24-.29-.36-.68-.36-1.2,0-.2,.04-.39,.12-.58,.08-.19,.16-.33,.26-.42v-.02l-.32,.02v-.56c.38-.05,.8-.07,1.27-.07Zm-.57,1.62c0,.69,.19,1.03,.57,1.03s.57-.35,.57-1.04-.19-1.04-.57-1.04h-.28c-.19,.27-.29,.62-.29,1.05Z"/></g></g><g><path class="f" d="M12.36,13.67c-.47,.47-.69,.71-1.12,1.22l-.33-.28c.12-.14,.18-.21,.3-.35h0s.04-.11,0-.15c-.04-.04-.11-.03-.15,.01-.12,.14-.19,.21-.31,.35l-.35-.3s0-.01,0-.02c.2-.24,.3-.36,.51-.59,.04-.04,.04-.11,0-.15-.04-.04-.11-.03-.15,.01-.21,.23-.31,.35-.51,.6-.08,.1-.07,.24,.02,.31,.37,.31,.56,.46,.93,.76,.04,.04,.11,.03,.14-.01,.45-.54,.68-.79,1.18-1.29,.04-.04,.04-.1,0-.14-.04-.04-.1-.04-.14,0Z"/><path class="f" d="M15.05,10.65s-.05,.01-.07,.02c-.02,0-.04,0-.06,.02-.15,.04-.27,.06-.34-.02-.03-.04-.04-.09-.04-.13,.01-.07,.08-.16,.17-.22,.12-.08,.21-.1,.34-.06,.06,.02,.12-.02,.14-.07,.02-.05,0-.11-.06-.13-.19-.05-.34-.03-.52,.09-.07,.05-.23,.17-.27,.36-.02,.1,0,.2,.07,.29,.16,.2,.41,.13,.55,.09,.02,0,.04,0,.05-.01,.03,0,.06-.01,.09-.02,.17-.05,.3-.07,.38,.06,.02,.03,.03,.08,.01,.14-.02,.08-.07,.15-.15,.19-.2,.12-.35,.04-.38,.02-.05-.03-.11-.01-.14,.04-.03,.05-.01,.11,.03,.14,.05,.03,.29,.15,.59-.02l.02-.02c.11-.07,.19-.18,.22-.3,.03-.11,.02-.21-.04-.29-.17-.27-.45-.19-.61-.15Z"/><path class="f" d="M16,10.06s-.05,.01-.07,.02c-.02,0-.04,0-.06,.01-.15,.03-.27,.05-.34-.04-.03-.04-.04-.09-.03-.13,.02-.07,.09-.15,.19-.21,.13-.07,.22-.08,.34-.04,.05,.02,.12,0,.14-.06,.02-.05,0-.11-.06-.13-.18-.06-.34-.05-.52,.06-.07,.04-.24,.16-.29,.34-.03,.1,0,.2,.06,.29,.14,.21,.41,.15,.55,.12,.02,0,.04,0,.05-.01,.03,0,.06-.01,.09-.02,.17-.04,.3-.05,.38,.08,.02,.03,.02,.09,0,.14-.02,.08-.08,.14-.16,.18-.2,.11-.35,.02-.38,0-.05-.03-.11-.02-.14,.03-.03,.05-.02,.11,.03,.14,.04,.03,.28,.17,.59,0h.03c.12-.08,.2-.19,.24-.31,.03-.1,.03-.21-.02-.3-.15-.27-.44-.22-.6-.18Z"/><path class="f" d="M13.47,10.94c-.37,.28-.29,.67-.25,.85,0,.02,0,.04,.01,.06,.01,.09,.05,.19,.09,.29,.1,.28,.17,.49,.04,.6-.14,.12-.21,.19-.35,.31l-.31-.34c.1-.09,.14-.13,.24-.21h0c.09-.07,.17-.15,.26-.14,.02,0,.09,.01,.14,.04-.02-.07-.05-.15-.08-.24h-.04s-.09,0-.14,0c0-.11-.02-.22-.12-.32-.19-.19-.51-.07-.62,.03-.13,.11-.42,.38-.6,.55-.04,.04-.06,.06-.11,.1h0s-.06,.08-.06,.13c0,.05,.02,.1,.05,.13l.05,.04s.1,.03,.15,0c.04-.04,.04-.11,0-.15l-.03-.03,.09-.08c.18-.17,.47-.43,.59-.55,.05-.05,.24-.12,.34-.03,.14,.14,.03,.3,0,.34-.1,.09-.15,.13-.25,.22l-.18-.19s-.1-.04-.15,0h0s-.05,.11-.01,.15c.26,.28,.39,.42,.64,.69,.03,.03,.08,.05,.12,.06,.05,0,.09-.02,.13-.05h0c.14-.13,.22-.2,.36-.33,.24-.21,.12-.55,.02-.82-.03-.1-.06-.19-.08-.26,0-.02,0-.04-.01-.07-.04-.16-.09-.44,.17-.64,.16-.12,.54-.25,.81,.12,.23,.31,.08,.6-.11,.76-.23,.19-.47,.1-.5,.09-.02,0-.04-.02-.04-.02-.07-.05-.16-.1-.22-.15,.01,.05,.03,.1,.05,.15,.02,.05,.04,.11,.05,.16h.01s.03,.02,.06,.03h.03c.12,.06,.35,.11,.59-.04h0s.07-.05,.11-.08c.27-.22,.44-.63,.15-1.04-.33-.47-.84-.36-1.1-.16Z"/><path class="f" d="M12,12.6h0s-.05,.11,0,.15c.24,.25,.35,.37,.59,.61-.54-.13-.81-.19-1.37-.29h-.02c-.08,0-.15,.04-.18,.12-.03,.07-.02,.15,.04,.2,.29,.27,.43,.4,.72,.67,.04,.04,.11,.04,.14,0h0s.04-.11,0-.14l-.65-.62c.55,.1,.83,.16,1.36,.29h.02c.05,0,.1-.01,.14-.05,.01-.01,.03-.03,.04-.05,.03-.07,.02-.15-.03-.2-.26-.27-.39-.41-.64-.68-.04-.04-.1-.04-.15,0Z"/><path class="f" d="M13.94,11.15s-.04,.04-.04,.06c.02,.08,.02,.18,.02,.28-.12-.01-.17-.02-.29-.03-.03,0-.05,.02-.06,.05,0,.03,.02,.05,.04,.05,.12,.01,.18,.02,.3,.03,0,.11-.02,.19-.02,.2,0,.03,.02,.05,.04,.06,.01,0,.03,0,.04-.01,.01,0,.02-.02,.02-.03,0,0,.01-.09,.02-.2,.12,.01,.17,.02,.29,.04,.01,0,.03,0,.04,0,.01,0,.02-.02,.02-.03,0-.03-.01-.05-.04-.06-.12-.02-.18-.02-.3-.04,0-.11,0-.23-.02-.32,0-.03-.03-.04-.06-.03Z"/></g></g></g><g><path class="f" d="M222.98,69.98c.21-.16,.49-.24,.83-.24s.62,.08,.83,.23,.31,.37,.31,.63c0,.19-.05,.35-.15,.49s-.26,.27-.49,.38c.26,.14,.45,.29,.57,.44,.12,.16,.18,.33,.18,.52,0,.29-.11,.53-.34,.71-.23,.18-.54,.27-.92,.27s-.69-.08-.91-.25c-.22-.17-.33-.4-.33-.71,0-.21,.05-.39,.17-.54,.11-.16,.28-.3,.52-.41-.2-.13-.35-.26-.44-.41-.09-.15-.14-.31-.14-.49,0-.26,.11-.46,.32-.62Zm.27,2.43c0,.14,.05,.25,.15,.33,.1,.08,.23,.12,.41,.12s.31-.04,.41-.12c.1-.08,.14-.19,.14-.32,0-.11-.05-.21-.14-.31-.09-.1-.24-.2-.45-.3-.35,.16-.52,.36-.52,.61Zm.87-2.01c-.08-.07-.19-.1-.31-.1s-.23,.03-.31,.1c-.08,.07-.12,.15-.12,.25s.03,.2,.09,.28c.07,.08,.18,.16,.34,.23,.16-.07,.27-.15,.33-.23,.06-.08,.1-.17,.1-.28s-.04-.2-.12-.26Z"/><path class="f" d="M225.84,69.98c.21-.16,.49-.24,.83-.24s.62,.08,.83,.23c.21,.16,.31,.37,.31,.63,0,.19-.05,.35-.15,.49s-.26,.27-.49,.38c.26,.14,.45,.29,.57,.44,.12,.16,.18,.33,.18,.52,0,.29-.11,.53-.34,.71-.23,.18-.54,.27-.92,.27s-.69-.08-.91-.25c-.22-.17-.33-.4-.33-.71,0-.21,.05-.39,.17-.54,.11-.16,.28-.3,.52-.41-.2-.13-.35-.26-.44-.41-.09-.15-.14-.31-.14-.49,0-.26,.11-.46,.32-.62Zm.27,2.43c0,.14,.05,.25,.15,.33s.23,.12,.41,.12,.31-.04,.41-.12c.1-.08,.14-.19,.14-.32,0-.11-.05-.21-.14-.31-.09-.1-.24-.2-.45-.3-.35,.16-.52,.36-.52,.61Zm.87-2.01c-.08-.07-.18-.1-.31-.1s-.23,.03-.31,.1c-.08,.07-.12,.15-.12,.25s.03,.2,.09,.28c.07,.08,.18,.16,.34,.23,.16-.07,.27-.15,.33-.23,.07-.08,.1-.17,.1-.28s-.04-.2-.12-.26Z"/><path class="f" d="M231.54,73.36h-.82l-.26-.85h-1.3l-.26,.85h-.82l1.26-3.58h.92l1.26,3.58Zm-1.25-1.48l-.41-1.31c-.03-.11-.05-.19-.06-.24-.05,.21-.21,.72-.46,1.55h.93Z"/><path class="f" d="M234.3,72.33h-1.31v-.61h1.31v.61Z"/><path class="f" d="M236.91,72.12c-.31,0-.56-.1-.73-.3-.18-.2-.27-.49-.27-.85s.11-.66,.33-.88c.22-.22,.51-.33,.89-.33h.01c.39,0,.71,.14,.94,.42,.23,.28,.35,.65,.35,1.12v.03c0,.7-.15,1.23-.44,1.57-.3,.35-.75,.52-1.35,.52-.21,0-.37-.01-.48-.03v-.61c.14,.03,.28,.05,.43,.05,.25,0,.46-.04,.62-.11,.17-.07,.29-.19,.38-.35,.09-.16,.13-.38,.15-.65h-.03c-.1,.15-.21,.26-.33,.32-.12,.06-.28,.09-.46,.09Zm.61-1.57c-.1-.13-.23-.2-.39-.2s-.28,.05-.37,.16c-.09,.11-.13,.26-.13,.45s.04,.33,.12,.43c.08,.1,.2,.15,.36,.15s.29-.05,.4-.15c.11-.1,.16-.21,.16-.35,0-.19-.05-.36-.15-.49Z"/><path class="f" d="M240.98,70.43h-1.27l-.07,.7,.09-.02c.1-.02,.23-.03,.37-.03,.35,0,.62,.1,.82,.29,.2,.19,.31,.46,.31,.8,0,.4-.12,.71-.37,.92-.25,.21-.6,.32-1.05,.32-.4,0-.72-.06-.96-.19v-.65c.13,.07,.29,.13,.46,.17,.17,.04,.33,.06,.48,.06,.46,0,.69-.19,.69-.57s-.24-.54-.71-.54c-.08,0-.17,0-.28,.03-.11,.02-.19,.04-.26,.05l-.3-.16,.13-1.82h1.93v.64Z"/><path class="f" d="M244.9,73.36h-.82l-.26-.85h-1.3l-.26,.85h-.82l1.26-3.58h.92l1.26,3.58Zm-1.25-1.48l-.41-1.31c-.03-.11-.05-.19-.06-.24-.05,.21-.21,.72-.46,1.55h.93Z"/></g><g><path class="f" d="M180.05,70.43v-.63h2.56v.47l-1.35,3.09h-.79l1.34-2.93h-1.76Z"/><path class="f" d="M184.25,69.74c.32,0,.59,.09,.8,.27,.21,.18,.31,.41,.31,.69h0c0,.18-.03,.33-.08,.47-.06,.14-.14,.29-.26,.44-.12,.15-.33,.37-.65,.66l-.46,.43v.03h1.56v.63h-2.5v-.52l.9-.91c.27-.27,.44-.46,.52-.56,.08-.11,.14-.2,.18-.29,.04-.09,.05-.18,.05-.28,0-.14-.04-.25-.12-.32-.08-.07-.18-.11-.32-.11-.25,0-.52,.12-.81,.37l-.41-.49c.18-.15,.32-.26,.44-.32,.24-.13,.52-.19,.84-.19h.02Z"/><path class="f" d="M189.07,73.36h-.82l-.26-.85h-1.3l-.26,.85h-.82l1.26-3.58h.93l1.26,3.58Zm-1.25-1.48l-.41-1.31c-.03-.11-.05-.19-.06-.24-.05,.21-.21,.72-.46,1.54h.93Z"/><path class="f" d="M191.83,72.33h-1.31v-.61h1.31v.61Z"/><path class="f" d="M193.88,69.98c.21-.16,.49-.24,.83-.24s.62,.08,.83,.23c.21,.16,.31,.37,.31,.63,0,.19-.05,.35-.15,.49s-.26,.27-.49,.38c.26,.14,.45,.29,.57,.44,.12,.16,.18,.33,.18,.52,0,.29-.11,.53-.34,.71-.23,.18-.54,.27-.92,.27s-.69-.08-.91-.25c-.22-.17-.33-.4-.33-.71,0-.21,.05-.39,.17-.55,.11-.16,.28-.29,.52-.41-.2-.12-.35-.26-.44-.41-.09-.15-.14-.31-.14-.49,0-.25,.11-.46,.32-.62Zm.27,2.43c0,.14,.05,.25,.15,.33s.23,.12,.41,.12,.31-.04,.41-.12c.1-.08,.14-.19,.14-.32,0-.11-.05-.21-.14-.31-.09-.1-.24-.2-.45-.3-.35,.16-.52,.36-.52,.61Zm.87-2.02c-.08-.07-.18-.1-.31-.1s-.23,.03-.31,.1c-.08,.07-.12,.15-.12,.25s.03,.2,.09,.28c.07,.08,.18,.15,.34,.23,.16-.07,.27-.15,.33-.23,.07-.08,.1-.17,.1-.28s-.04-.2-.12-.26Z"/><path class="f" d="M198.48,72.04h.43v.59h-.43v.74h-.74v-.74h-1.52v-.53l1.57-2.3h.7v2.24Zm-.74,0v-.61c0-.08,0-.22,.01-.42,0-.2,.01-.32,.02-.36h-.02c-.07,.15-.14,.28-.22,.39l-.65,.99h.86Z"/><path class="f" d="M202.44,73.36h-.82l-.26-.85h-1.3l-.26,.85h-.82l1.26-3.58h.93l1.26,3.58Zm-1.25-1.48l-.41-1.31c-.03-.11-.05-.19-.06-.24-.05,.21-.21,.72-.46,1.54h.93Z"/></g><g><path class="f" d="M131.27,69.98c.21-.16,.49-.24,.83-.24s.62,.08,.83,.23,.31,.37,.31,.63c0,.19-.05,.35-.15,.49s-.26,.27-.49,.38c.26,.14,.45,.29,.57,.44,.12,.16,.18,.33,.18,.52,0,.29-.11,.53-.34,.71-.23,.18-.54,.27-.92,.27s-.69-.08-.91-.25c-.22-.17-.33-.4-.33-.71,0-.21,.05-.39,.17-.54,.11-.16,.28-.3,.52-.41-.2-.13-.35-.26-.44-.41-.09-.15-.14-.31-.14-.49,0-.26,.11-.46,.32-.62Zm.27,2.43c0,.14,.05,.25,.15,.33,.1,.08,.23,.12,.41,.12s.31-.04,.41-.12c.1-.08,.14-.19,.14-.32,0-.11-.05-.21-.14-.31-.09-.1-.24-.2-.45-.3-.35,.16-.52,.36-.52,.61Zm.87-2.01c-.08-.07-.19-.1-.31-.1s-.23,.03-.31,.1c-.08,.07-.12,.15-.12,.25s.03,.2,.09,.28c.07,.08,.18,.16,.34,.23,.16-.07,.27-.15,.33-.23,.06-.08,.1-.17,.1-.28s-.04-.2-.12-.26Z"/><path class="f" d="M133.7,71.56c0-.62,.1-1.07,.3-1.37,.2-.3,.51-.45,.93-.45s.73,.16,.94,.47c.21,.31,.32,.78,.32,1.39s-.1,1.07-.31,1.37c-.2,.3-.51,.45-.93,.45s-.73-.16-.94-.46c-.21-.31-.31-.77-.31-1.39Zm1.62-.92c-.08-.19-.21-.29-.38-.29s-.3,.1-.38,.29c-.08,.19-.11,.51-.11,.95s.04,.75,.11,.94c.08,.19,.2,.28,.38,.28s.3-.1,.38-.29c.08-.19,.12-.51,.12-.94s-.04-.75-.12-.94Z"/><path class="f" d="M139.82,73.36h-.82l-.26-.85h-1.3l-.26,.85h-.82l1.26-3.58h.92l1.26,3.58Zm-1.25-1.48l-.41-1.31c-.03-.11-.05-.19-.06-.24-.05,.21-.21,.72-.46,1.55h.93Z"/><path class="f" d="M142.58,72.33h-1.31v-.61h1.31v.61Z"/><path class="f" d="M143.33,69.98c.21-.16,.49-.24,.83-.24s.62,.08,.83,.23,.31,.37,.31,.63c0,.19-.05,.35-.15,.49s-.26,.27-.49,.38c.26,.14,.45,.29,.57,.44,.12,.16,.18,.33,.18,.52,0,.29-.11,.53-.34,.71-.23,.18-.54,.27-.92,.27s-.69-.08-.91-.25c-.22-.17-.33-.4-.33-.71,0-.21,.05-.39,.17-.54,.11-.16,.28-.3,.52-.41-.2-.13-.35-.26-.44-.41-.09-.15-.14-.31-.14-.49,0-.26,.11-.46,.32-.62Zm.27,2.43c0,.14,.05,.25,.15,.33,.1,.08,.23,.12,.41,.12s.31-.04,.41-.12c.1-.08,.14-.19,.14-.32,0-.11-.05-.21-.14-.31-.09-.1-.24-.2-.45-.3-.35,.16-.52,.36-.52,.61Zm.87-2.01c-.08-.07-.19-.1-.31-.1s-.23,.03-.31,.1c-.08,.07-.12,.15-.12,.25s.03,.2,.09,.28c.07,.08,.18,.16,.34,.23,.16-.07,.27-.15,.33-.23,.06-.08,.1-.17,.1-.28s-.04-.2-.12-.26Z"/><path class="f" d="M146.19,69.98c.21-.16,.49-.24,.83-.24s.62,.08,.83,.23c.21,.16,.31,.37,.31,.63,0,.19-.05,.35-.15,.49s-.26,.27-.49,.38c.26,.14,.45,.29,.57,.44,.12,.16,.18,.33,.18,.52,0,.29-.11,.53-.34,.71-.23,.18-.54,.27-.92,.27s-.69-.08-.91-.25c-.22-.17-.33-.4-.33-.71,0-.21,.05-.39,.17-.54,.11-.16,.28-.3,.52-.41-.2-.13-.35-.26-.44-.41-.09-.15-.14-.31-.14-.49,0-.26,.11-.46,.32-.62Zm.27,2.43c0,.14,.05,.25,.15,.33s.23,.12,.41,.12,.31-.04,.41-.12c.1-.08,.14-.19,.14-.32,0-.11-.05-.21-.14-.31-.09-.1-.24-.2-.45-.3-.35,.16-.52,.36-.52,.61Zm.87-2.01c-.08-.07-.18-.1-.31-.1s-.23,.03-.31,.1c-.08,.07-.12,.15-.12,.25s.03,.2,.09,.28c.07,.08,.18,.16,.34,.23,.16-.07,.27-.15,.33-.23,.07-.08,.1-.17,.1-.28s-.04-.2-.12-.26Z"/><path class="f" d="M151.89,73.36h-.82l-.26-.85h-1.3l-.26,.85h-.82l1.26-3.58h.92l1.26,3.58Zm-1.25-1.48l-.41-1.31c-.03-.11-.05-.19-.06-.24-.05,.21-.21,.72-.46,1.55h.93Z"/></g><g><path class="f" d="M77.46,69.98c.21-.16,.49-.24,.83-.24s.62,.08,.83,.23c.21,.16,.31,.37,.31,.63,0,.19-.05,.35-.15,.49s-.26,.27-.49,.38c.26,.14,.45,.29,.57,.44,.12,.16,.18,.33,.18,.52,0,.29-.11,.53-.34,.71-.23,.18-.54,.27-.92,.27s-.69-.08-.91-.25c-.22-.17-.33-.4-.33-.71,0-.21,.05-.39,.17-.55,.11-.16,.28-.29,.52-.41-.2-.12-.35-.26-.44-.41-.09-.15-.14-.31-.14-.49,0-.25,.11-.46,.32-.62Zm.27,2.43c0,.14,.05,.25,.15,.33s.23,.12,.41,.12,.31-.04,.41-.12c.1-.08,.14-.19,.14-.32,0-.11-.05-.21-.14-.31-.09-.1-.24-.2-.45-.3-.35,.16-.52,.36-.52,.61Zm.87-2.02c-.08-.07-.18-.1-.31-.1s-.23,.03-.31,.1c-.08,.07-.12,.15-.12,.25s.03,.2,.09,.28c.07,.08,.18,.15,.34,.23,.16-.07,.27-.15,.33-.23,.07-.08,.1-.17,.1-.28s-.04-.2-.12-.26Z"/><path class="f" d="M82.05,72.04h.43v.59h-.43v.74h-.74v-.74h-1.52v-.53l1.57-2.3h.7v2.24Zm-.74,0v-.61c0-.08,0-.22,.01-.42,0-.2,.01-.32,.02-.36h-.02c-.07,.15-.14,.28-.22,.39l-.65,.99h.86Z"/><path class="f" d="M86.01,73.36h-.82l-.26-.85h-1.3l-.26,.85h-.82l1.26-3.58h.93l1.26,3.58Zm-1.25-1.48l-.41-1.31c-.03-.11-.05-.19-.06-.24-.05,.21-.21,.72-.46,1.54h.93Z"/><path class="f" d="M87.47,72.33h-1.31v-.61h1.31v.61Z"/><path class="f" d="M89.52,69.98c.21-.16,.49-.24,.83-.24s.62,.08,.83,.23c.21,.16,.31,.37,.31,.63,0,.19-.05,.35-.15,.49s-.26,.27-.49,.38c.26,.14,.45,.29,.57,.44,.12,.16,.18,.33,.18,.52,0,.29-.11,.53-.34,.71-.23,.18-.54,.27-.92,.27s-.69-.08-.91-.25c-.22-.17-.33-.4-.33-.71,0-.21,.05-.39,.17-.55,.11-.16,.28-.29,.52-.41-.2-.12-.35-.26-.44-.41-.09-.15-.14-.31-.14-.49,0-.25,.11-.46,.32-.62Zm.27,2.43c0,.14,.05,.25,.15,.33s.23,.12,.41,.12,.31-.04,.41-.12c.1-.08,.14-.19,.14-.32,0-.11-.05-.21-.14-.31-.09-.1-.24-.2-.45-.3-.35,.16-.52,.36-.52,.61Zm.87-2.02c-.08-.07-.18-.1-.31-.1s-.23,.03-.31,.1c-.08,.07-.12,.15-.12,.25s.03,.2,.09,.28c.07,.08,.18,.15,.34,.23,.16-.07,.27-.15,.33-.23,.07-.08,.1-.17,.1-.28s-.04-.2-.12-.26Z"/><path class="f" d="M92.38,69.98c.21-.16,.49-.24,.83-.24s.62,.08,.83,.23c.21,.16,.31,.37,.31,.63,0,.19-.05,.35-.15,.49s-.26,.27-.49,.38c.26,.14,.45,.29,.57,.44,.12,.16,.18,.33,.18,.52,0,.29-.11,.53-.34,.71-.23,.18-.54,.27-.92,.27s-.69-.08-.91-.25c-.22-.17-.33-.4-.33-.71,0-.21,.05-.39,.17-.55,.11-.16,.28-.29,.52-.41-.2-.12-.35-.26-.44-.41-.09-.15-.14-.31-.14-.49,0-.25,.11-.46,.32-.62Zm.27,2.43c0,.14,.05,.25,.15,.33,.1,.08,.23,.12,.41,.12s.31-.04,.41-.12c.1-.08,.14-.19,.14-.32,0-.11-.05-.21-.14-.31-.09-.1-.24-.2-.45-.3-.35,.16-.52,.36-.52,.61Zm.87-2.02c-.08-.07-.19-.1-.31-.1s-.23,.03-.31,.1c-.08,.07-.12,.15-.12,.25s.03,.2,.09,.28c.07,.08,.18,.15,.34,.23,.16-.07,.27-.15,.33-.23,.06-.08,.1-.17,.1-.28s-.04-.2-.12-.26Z"/><path class="f" d="M98.08,73.36h-.82l-.26-.85h-1.3l-.26,.85h-.82l1.26-3.58h.93l1.26,3.58Zm-1.25-1.48l-.41-1.31c-.03-.11-.05-.19-.06-.24-.05,.21-.21,.72-.46,1.54h.93Z"/></g><g><path class="f" d="M17.74,69.98c.21-.16,.49-.24,.83-.24s.62,.08,.83,.23c.21,.16,.31,.37,.31,.63,0,.19-.05,.35-.15,.49s-.26,.27-.49,.38c.26,.14,.45,.29,.57,.44,.12,.16,.18,.33,.18,.52,0,.29-.11,.53-.34,.71-.23,.18-.54,.27-.92,.27s-.69-.08-.91-.25c-.22-.17-.33-.4-.33-.71,0-.21,.05-.39,.17-.55,.11-.16,.28-.29,.52-.41-.2-.12-.35-.26-.44-.41-.09-.15-.14-.31-.14-.49,0-.25,.11-.46,.32-.62Zm.27,2.43c0,.14,.05,.25,.15,.33,.1,.08,.23,.12,.41,.12s.31-.04,.41-.12c.1-.08,.14-.19,.14-.32,0-.11-.05-.21-.14-.31-.09-.1-.24-.2-.45-.3-.35,.16-.52,.36-.52,.61Zm.87-2.02c-.08-.07-.19-.1-.31-.1s-.23,.03-.31,.1c-.08,.07-.12,.15-.12,.25s.03,.2,.09,.28c.07,.08,.18,.15,.34,.23,.16-.07,.27-.15,.33-.23,.06-.08,.1-.17,.1-.28s-.04-.2-.12-.26Z"/><path class="f" d="M21.35,69.74c.37,0,.66,.07,.88,.22,.21,.15,.32,.36,.32,.63,0,.22-.07,.41-.2,.57-.13,.16-.32,.26-.57,.32h0c.29,.05,.51,.14,.65,.28,.15,.14,.22,.33,.22,.56,0,.34-.12,.61-.37,.81-.25,.19-.61,.28-1.07,.28-.39,0-.73-.06-1.03-.19v-.64c.31,.16,.63,.24,.95,.24,.25,0,.43-.04,.55-.13,.12-.08,.18-.22,.18-.39s-.07-.3-.2-.37c-.14-.07-.35-.11-.66-.11h-.27v-.58h.28c.28,0,.49-.04,.61-.11,.13-.07,.19-.2,.19-.37,0-.27-.17-.41-.51-.41-.24,0-.5,.09-.76,.26l-.35-.52c.33-.23,.71-.35,1.17-.35Z"/><path class="f" d="M26.29,73.36h-.82l-.26-.85h-1.3l-.26,.85h-.82l1.26-3.58h.92l1.26,3.58Zm-1.25-1.48l-.41-1.31c-.03-.11-.05-.19-.06-.24-.05,.21-.21,.72-.46,1.54h.93Z"/><path class="f" d="M29.05,72.33h-1.31v-.61h1.31v.61Z"/><path class="f" d="M31.1,69.98c.21-.16,.49-.24,.83-.24s.62,.08,.83,.23c.21,.16,.31,.37,.31,.63,0,.19-.05,.35-.15,.49s-.26,.27-.49,.38c.26,.14,.45,.29,.57,.44,.12,.16,.18,.33,.18,.52,0,.29-.11,.53-.34,.71-.23,.18-.54,.27-.92,.27s-.69-.08-.91-.25c-.22-.17-.33-.4-.33-.71,0-.21,.05-.39,.17-.55,.11-.16,.28-.29,.52-.41-.2-.12-.35-.26-.44-.41-.09-.15-.14-.31-.14-.49,0-.25,.11-.46,.32-.62Zm.27,2.43c0,.14,.05,.25,.15,.33,.1,.08,.23,.12,.41,.12s.31-.04,.41-.12c.1-.08,.14-.19,.14-.32,0-.11-.05-.21-.14-.31-.09-.1-.24-.2-.45-.3-.35,.16-.52,.36-.52,.61Zm.87-2.02c-.08-.07-.19-.1-.31-.1s-.23,.03-.31,.1c-.08,.07-.12,.15-.12,.25s.03,.2,.09,.28c.07,.08,.18,.15,.34,.23,.16-.07,.27-.15,.33-.23,.06-.08,.1-.17,.1-.28s-.04-.2-.12-.26Z"/><path class="f" d="M33.96,69.98c.21-.16,.49-.24,.83-.24s.62,.08,.83,.23c.21,.16,.31,.37,.31,.63,0,.19-.05,.35-.15,.49s-.26,.27-.49,.38c.26,.14,.45,.29,.57,.44,.12,.16,.18,.33,.18,.52,0,.29-.11,.53-.34,.71-.23,.18-.54,.27-.92,.27s-.69-.08-.91-.25c-.22-.17-.33-.4-.33-.71,0-.21,.05-.39,.17-.55,.11-.16,.28-.29,.52-.41-.2-.12-.35-.26-.44-.41-.09-.15-.14-.31-.14-.49,0-.25,.11-.46,.32-.62Zm.27,2.43c0,.14,.05,.25,.15,.33s.23,.12,.41,.12,.31-.04,.41-.12c.1-.08,.14-.19,.14-.32,0-.11-.05-.21-.14-.31-.09-.1-.24-.2-.45-.3-.35,.16-.52,.36-.52,.61Zm.87-2.02c-.08-.07-.18-.1-.31-.1s-.23,.03-.31,.1c-.08,.07-.12,.15-.12,.25s.03,.2,.09,.28c.07,.08,.18,.15,.34,.23,.16-.07,.27-.15,.33-.23,.07-.08,.1-.17,.1-.28s-.04-.2-.12-.26Z"/><path class="f" d="M39.66,73.36h-.82l-.26-.85h-1.3l-.26,.85h-.82l1.26-3.58h.92l1.26,3.58Zm-1.25-1.48l-.41-1.31c-.03-.11-.05-.19-.06-.24-.05,.21-.21,.72-.46,1.54h.93Z"/></g></g></g></svg>