<?xml version="1.0" encoding="UTF-8"?><svg xmlns="http://www.w3.org/2000/svg" viewBox="0 0 255.41 72.69"><defs><style>.e{opacity:.5;}.f{fill:#F6834A;}.g{fill:none;stroke:#F6834A;stroke-miterlimit:10;}</style></defs><g id="a"/><g id="b"><g id="c"><g id="d"><g><g><g><g class="e"><path class="f" d="M15.71,33.63c-4.27,0-7.73,3.46-7.73,7.73s3.46,7.73,7.73,7.73,7.73-3.46,7.73-7.73-3.46-7.73-7.73-7.73Zm0,11.08c-1.85,0-3.36-1.5-3.36-3.36s1.5-3.36,3.36-3.36,3.36,1.5,3.36,3.36-1.5,3.36-3.36,3.36Z"/></g><path class="f" d="M15.71,26.65c8.11,0,14.71,6.6,14.71,14.71s-6.6,14.71-14.71,14.71S1,49.47,1,41.36s6.6-14.71,14.71-14.71m0-1c-8.68,0-15.71,7.03-15.71,15.71s7.03,15.71,15.71,15.71,15.71-7.03,15.71-15.71-7.03-15.71-15.71-15.71h0Z"/><path class="f" d="M15.71,34.63c3.71,0,6.73,3.02,6.73,6.73s-3.02,6.73-6.73,6.73-6.73-3.02-6.73-6.73,3.02-6.73,6.73-6.73m0-1c-4.27,0-7.73,3.46-7.73,7.73s3.46,7.73,7.73,7.73,7.73-3.46,7.73-7.73-3.46-7.73-7.73-7.73h0Z"/><path class="f" d="M15.71,38.01c1.85,0,3.36,1.5,3.36,3.36s-1.5,3.36-3.36,3.36-3.36-1.5-3.36-3.36,1.5-3.36,3.36-3.36m0-1c-2.4,0-4.36,1.95-4.36,4.36s1.95,4.36,4.36,4.36,4.36-1.95,4.36-4.36-1.95-4.36-4.36-4.36h0Z"/></g><g><path class="f" d="M2.78,65.38H1.39l-.23,.67H.43l1.25-3.5h.82l1.25,3.5h-.74l-.23-.67Zm-.19-.56l-.5-1.46-.5,1.46h1.01Z"/><path class="f" d="M6.65,63.61c-.08-.15-.19-.26-.33-.33-.14-.08-.3-.12-.49-.12-.21,0-.39,.05-.55,.14-.16,.09-.28,.23-.38,.4-.09,.17-.13,.37-.13,.6s.05,.44,.14,.61c.09,.17,.22,.31,.38,.4,.16,.09,.35,.14,.57,.14,.27,0,.49-.07,.66-.21s.28-.34,.33-.59h-1.2v-.54h1.89v.61c-.05,.24-.15,.47-.3,.68-.15,.21-.35,.37-.59,.5s-.51,.19-.81,.19c-.34,0-.64-.08-.91-.23-.27-.15-.48-.36-.64-.63-.16-.27-.23-.58-.23-.92s.08-.65,.23-.92c.15-.27,.37-.48,.64-.64,.27-.15,.57-.23,.91-.23,.39,0,.73,.1,1.02,.29,.29,.19,.49,.46,.6,.81h-.81Z"/><path class="f" d="M10.49,63.61c-.08-.15-.19-.26-.33-.33-.14-.08-.3-.12-.49-.12-.21,0-.39,.05-.55,.14-.16,.09-.28,.23-.38,.4-.09,.17-.13,.37-.13,.6s.05,.44,.14,.61c.09,.17,.22,.31,.38,.4,.16,.09,.35,.14,.57,.14,.27,0,.49-.07,.66-.21s.28-.34,.33-.59h-1.2v-.54h1.89v.61c-.05,.24-.15,.47-.3,.68-.15,.21-.35,.37-.59,.5s-.51,.19-.81,.19c-.34,0-.64-.08-.91-.23-.27-.15-.48-.36-.64-.63-.16-.27-.23-.58-.23-.92s.08-.65,.23-.92c.15-.27,.37-.48,.64-.64,.27-.15,.57-.23,.91-.23,.39,0,.73,.1,1.02,.29,.29,.19,.49,.46,.6,.81h-.81Z"/><path class="f" d="M13.7,66.05l-.77-1.36h-.33v1.36h-.7v-3.49h1.31c.27,0,.5,.05,.69,.14,.19,.1,.33,.22,.43,.39,.1,.16,.14,.34,.14,.54,0,.23-.07,.44-.2,.62s-.33,.31-.59,.38l.83,1.42h-.81Zm-1.1-1.88h.58c.19,0,.33-.05,.43-.14,.09-.09,.14-.22,.14-.38s-.05-.28-.14-.37c-.09-.09-.24-.13-.43-.13h-.58v1.03Z"/><path class="f" d="M15.81,63.12v.88h1.18v.55h-1.18v.93h1.33v.57h-2.02v-3.5h2.02v.57h-1.33Z"/><path class="f" d="M18.32,65.96c-.2-.08-.35-.2-.46-.36-.11-.16-.17-.34-.18-.55h.75c.01,.14,.06,.26,.15,.34,.09,.08,.22,.12,.38,.12s.29-.04,.38-.12c.09-.08,.14-.18,.14-.31,0-.1-.03-.19-.1-.26-.06-.07-.14-.12-.24-.16-.1-.04-.23-.08-.39-.13-.23-.07-.41-.13-.55-.2-.14-.06-.26-.16-.37-.29-.1-.13-.15-.31-.15-.53,0-.21,.05-.39,.15-.54s.25-.27,.44-.35,.4-.12,.64-.12c.36,0,.65,.09,.88,.26,.23,.17,.35,.42,.37,.73h-.77c0-.12-.06-.22-.15-.3-.09-.08-.22-.12-.38-.12-.14,0-.25,.04-.33,.1-.08,.07-.12,.17-.12,.31,0,.09,.03,.17,.09,.23s.14,.11,.23,.15c.09,.04,.22,.08,.39,.13,.23,.07,.41,.13,.55,.2,.14,.07,.27,.17,.37,.3,.1,.13,.16,.31,.16,.53,0,.19-.05,.36-.15,.52-.1,.16-.24,.29-.43,.38-.19,.09-.41,.14-.67,.14-.24,0-.46-.04-.66-.12Z"/><path class="f" d="M21.36,65.96c-.2-.08-.35-.2-.46-.36-.11-.16-.17-.34-.18-.55h.75c.01,.14,.06,.26,.15,.34,.09,.08,.22,.12,.38,.12s.29-.04,.38-.12c.09-.08,.14-.18,.14-.31,0-.1-.03-.19-.1-.26-.06-.07-.14-.12-.24-.16-.1-.04-.23-.08-.39-.13-.23-.07-.41-.13-.55-.2-.14-.06-.26-.16-.37-.29-.1-.13-.15-.31-.15-.53,0-.21,.05-.39,.15-.54s.25-.27,.44-.35,.4-.12,.64-.12c.36,0,.65,.09,.88,.26,.23,.17,.35,.42,.37,.73h-.77c0-.12-.06-.22-.15-.3-.09-.08-.22-.12-.38-.12-.14,0-.25,.04-.33,.1-.08,.07-.12,.17-.12,.31,0,.09,.03,.17,.09,.23s.14,.11,.23,.15c.09,.04,.22,.08,.39,.13,.23,.07,.41,.13,.55,.2,.14,.07,.27,.17,.37,.3,.1,.13,.16,.31,.16,.53,0,.19-.05,.36-.15,.52-.1,.16-.24,.29-.43,.38-.19,.09-.41,.14-.67,.14-.24,0-.46-.04-.66-.12Z"/><path class="f" d="M24.56,62.56v3.49h-.7v-3.49h.7Z"/><path class="f" d="M28.38,62.56l-1.28,3.49h-.85l-1.28-3.49h.75l.96,2.78,.96-2.78h.75Z"/><path class="f" d="M29.5,63.12v.88h1.18v.55h-1.18v.93h1.33v.57h-2.02v-3.5h2.02v.57h-1.33Z"/></g><g><path class="f" d="M3.47,69.88c0-.18,.05-.34,.14-.49,.09-.15,.23-.27,.42-.35,.18-.09,.41-.13,.68-.13s.49,.04,.68,.13c.18,.09,.32,.21,.41,.35,.09,.15,.14,.31,.14,.49s-.04,.34-.13,.48c-.09,.14-.21,.25-.36,.32,.18,.08,.33,.2,.43,.35,.1,.15,.15,.33,.15,.54,0,.23-.06,.42-.17,.59-.11,.17-.27,.3-.47,.39-.2,.09-.42,.14-.67,.14s-.47-.04-.67-.14c-.2-.09-.35-.22-.47-.39-.11-.17-.17-.37-.17-.59,0-.21,.05-.39,.15-.55,.1-.15,.25-.27,.43-.35-.33-.17-.5-.44-.5-.8Zm.77,1.25c-.12,.1-.18,.23-.18,.42,0,.17,.06,.3,.17,.41,.11,.1,.27,.16,.47,.16s.35-.05,.46-.16c.11-.11,.17-.24,.17-.4,0-.18-.06-.31-.18-.41-.12-.1-.27-.15-.46-.15s-.34,.05-.46,.15Zm.86-1.54c-.1-.09-.23-.13-.4-.13s-.3,.04-.4,.13c-.1,.09-.15,.22-.15,.39,0,.15,.05,.27,.15,.36s.23,.14,.39,.14,.29-.05,.4-.14,.15-.21,.15-.36c0-.16-.05-.29-.15-.38Z"/><path class="f" d="M6.68,69.88c0-.18,.05-.34,.14-.49,.09-.15,.23-.27,.42-.35,.18-.09,.41-.13,.68-.13s.49,.04,.68,.13c.18,.09,.32,.21,.41,.35,.09,.15,.14,.31,.14,.49s-.04,.34-.13,.48c-.09,.14-.21,.25-.36,.32,.18,.08,.33,.2,.43,.35,.1,.15,.15,.33,.15,.54,0,.23-.06,.42-.17,.59-.11,.17-.27,.3-.47,.39-.2,.09-.42,.14-.67,.14s-.47-.04-.67-.14c-.2-.09-.35-.22-.47-.39-.11-.17-.17-.37-.17-.59,0-.21,.05-.39,.15-.55,.1-.15,.25-.27,.43-.35-.33-.17-.5-.44-.5-.8Zm.77,1.25c-.12,.1-.18,.23-.18,.42,0,.17,.06,.3,.17,.41,.11,.1,.27,.16,.47,.16s.35-.05,.46-.16c.11-.11,.17-.24,.17-.4,0-.18-.06-.31-.18-.41-.12-.1-.27-.15-.46-.15s-.34,.05-.46,.15Zm.86-1.54c-.1-.09-.23-.13-.4-.13s-.3,.04-.4,.13c-.1,.09-.15,.22-.15,.39,0,.15,.05,.27,.15,.36s.23,.14,.39,.14,.29-.05,.4-.14,.15-.21,.15-.36c0-.16-.05-.29-.15-.38Z"/><path class="f" d="M12.01,71.95h-1.39l-.23,.67h-.74l1.25-3.5h.82l1.25,3.5h-.74l-.23-.67Zm-.19-.56l-.5-1.46-.5,1.46h1.01Z"/><path class="f" d="M16.77,70.53v.59h-2.12v-.59h2.12Z"/><path class="f" d="M19.65,71.92c.1,.08,.22,.12,.38,.12,.21,0,.36-.09,.45-.26,.09-.17,.14-.46,.14-.87-.08,.11-.18,.19-.32,.25-.14,.06-.29,.09-.45,.09-.21,0-.41-.04-.58-.13-.17-.09-.31-.22-.41-.4-.1-.18-.15-.39-.15-.64,0-.37,.11-.66,.33-.88,.22-.22,.52-.33,.9-.33,.47,0,.81,.15,1,.46,.19,.3,.29,.76,.29,1.37,0,.43-.04,.79-.11,1.06-.07,.28-.2,.49-.38,.63s-.43,.21-.74,.21c-.25,0-.46-.05-.63-.14-.17-.09-.31-.22-.4-.38-.09-.15-.14-.33-.16-.51h.65c.03,.15,.09,.26,.18,.34Zm.76-1.4c.1-.11,.15-.25,.15-.43,0-.2-.05-.35-.16-.46-.1-.11-.25-.16-.43-.16s-.32,.06-.43,.17c-.1,.11-.16,.26-.16,.44s.05,.32,.15,.43c.1,.11,.25,.17,.46,.17,.17,0,.31-.05,.41-.16Z"/><path class="f" d="M24.24,69.57h-1.62v.85c.07-.09,.17-.16,.3-.21s.27-.08,.42-.08c.27,0,.48,.06,.65,.17s.29,.27,.37,.45,.12,.38,.12,.58c0,.38-.11,.69-.33,.92s-.53,.35-.93,.35c-.38,0-.68-.1-.91-.29-.23-.19-.35-.44-.38-.74h.68c.03,.13,.1,.24,.2,.32s.24,.12,.4,.12c.2,0,.34-.06,.44-.19,.1-.12,.15-.29,.15-.49s-.05-.36-.15-.47-.25-.16-.45-.16c-.14,0-.26,.03-.35,.1-.09,.07-.16,.16-.2,.28h-.67v-2.14h2.26v.61Z"/><path class="f" d="M27.23,71.95h-1.39l-.23,.67h-.74l1.25-3.5h.82l1.25,3.5h-.74l-.23-.67Zm-.19-.56l-.5-1.46-.5,1.46h1.01Z"/></g></g><g><g><g class="e"><path class="f" d="M59.69,26.88c-5.53,0-10.01,4.48-10.01,10.01s4.48,10.01,10.01,10.01,10.01-4.48,10.01-10.01-4.48-10.01-10.01-10.01Zm0,14.75c-2.62,0-4.74-2.12-4.74-4.74s2.12-4.74,4.74-4.74,4.74,2.12,4.74,4.74-2.12,4.74-4.74,4.74Z"/></g><path class="f" d="M59.69,17.99c10.42,0,18.9,8.48,18.9,18.9s-8.48,18.9-18.9,18.9-18.9-8.48-18.9-18.9,8.48-18.9,18.9-18.9m0-1c-10.99,0-19.9,8.91-19.9,19.9s8.91,19.9,19.9,19.9,19.9-8.91,19.9-19.9-8.91-19.9-19.9-19.9h0Z"/><path class="f" d="M59.69,27.88c4.97,0,9.01,4.04,9.01,9.01s-4.04,9.01-9.01,9.01-9.01-4.04-9.01-9.01,4.04-9.01,9.01-9.01m0-1c-5.53,0-10.01,4.48-10.01,10.01s4.48,10.01,10.01,10.01,10.01-4.48,10.01-10.01-4.48-10.01-10.01-10.01h0Z"/><path class="f" d="M59.69,32.16c2.62,0,4.74,2.12,4.74,4.74s-2.12,4.74-4.74,4.74-4.74-2.12-4.74-4.74,2.12-4.74,4.74-4.74m0-1c-3.16,0-5.74,2.57-5.74,5.74s2.57,5.74,5.74,5.74,5.74-2.57,5.74-5.74-2.57-5.74-5.74-5.74h0Z"/></g><g><path class="f" d="M52.68,62.56v3.49h-.7v-1.48h-1.5v1.48h-.7v-3.49h.7v1.44h1.5v-1.44h.7Z"/><path class="f" d="M54.09,65.85c-.27-.15-.49-.37-.65-.64-.16-.27-.24-.58-.24-.92s.08-.65,.24-.92c.16-.27,.38-.48,.65-.64s.57-.23,.9-.23,.63,.08,.9,.23c.27,.15,.49,.37,.65,.64,.16,.27,.24,.58,.24,.92s-.08,.65-.24,.92c-.16,.27-.37,.48-.65,.64-.27,.15-.57,.23-.9,.23s-.63-.08-.9-.23Zm1.46-.54c.16-.1,.29-.23,.38-.41,.09-.18,.13-.38,.13-.61s-.04-.44-.13-.61c-.09-.17-.21-.31-.38-.4s-.35-.14-.56-.14-.4,.05-.56,.14c-.16,.09-.29,.23-.38,.4-.09,.18-.13,.38-.13,.61s.04,.44,.13,.61c.09,.18,.22,.31,.38,.41,.16,.09,.35,.14,.56,.14s.4-.05,.56-.14Z"/><path class="f" d="M57.35,63.37c.15-.27,.37-.48,.63-.64,.27-.15,.57-.23,.9-.23,.39,0,.73,.1,1.03,.3,.29,.2,.5,.48,.61,.83h-.81c-.08-.17-.19-.29-.34-.38-.15-.08-.31-.12-.5-.12-.2,0-.38,.05-.54,.14-.16,.1-.28,.23-.37,.4s-.13,.38-.13,.61,.04,.43,.13,.61c.09,.18,.21,.31,.37,.41,.16,.09,.34,.14,.54,.14,.19,0,.36-.04,.5-.13s.26-.21,.34-.38h.81c-.12,.36-.32,.63-.61,.83-.29,.2-.63,.3-1.03,.3-.33,0-.63-.08-.9-.23-.27-.15-.48-.36-.63-.63-.16-.27-.23-.58-.23-.92s.08-.65,.23-.92Z"/><path class="f" d="M63.1,66.05l-1.27-1.56v1.56h-.7v-3.49h.7v1.57l1.27-1.57h.85l-1.44,1.73,1.48,1.76h-.89Z"/><path class="f" d="M65.15,63.12v.88h1.18v.55h-1.18v.93h1.33v.57h-2.02v-3.5h2.02v.57h-1.33Z"/><path class="f" d="M69.88,62.56l-1.18,2.28v1.21h-.7v-1.21l-1.19-2.28h.79l.75,1.6,.74-1.6h.78Z"/></g><g><path class="f" d="M49.98,69.5l-1.33,3.12h-.71l1.34-3.04h-1.71v-.6h2.41v.52Z"/><path class="f" d="M50.62,71.82c.32-.27,.58-.49,.77-.67s.35-.36,.48-.56c.13-.19,.19-.38,.19-.57,0-.17-.04-.3-.12-.4s-.2-.15-.37-.15-.29,.06-.38,.17-.14,.26-.14,.46h-.68c.01-.4,.13-.7,.36-.91s.51-.31,.86-.31c.38,0,.67,.1,.88,.3,.2,.2,.31,.47,.31,.8,0,.26-.07,.51-.21,.75-.14,.24-.3,.44-.48,.62-.18,.18-.42,.39-.7,.63h1.47v.58h-2.47v-.52l.26-.22Z"/><path class="f" d="M55.49,71.95h-1.39l-.23,.67h-.74l1.25-3.5h.82l1.25,3.5h-.74l-.23-.67Zm-.19-.56l-.5-1.46-.5,1.46h1.01Z"/><path class="f" d="M60.25,70.53v.59h-2.12v-.59h2.12Z"/><path class="f" d="M62.25,69.88c0-.18,.05-.34,.14-.49,.09-.15,.23-.27,.42-.35,.18-.09,.41-.13,.68-.13s.49,.04,.68,.13c.18,.09,.32,.21,.41,.35,.09,.15,.14,.31,.14,.49s-.04,.34-.13,.48c-.09,.14-.21,.25-.36,.32,.18,.08,.33,.2,.43,.35,.1,.15,.15,.33,.15,.54,0,.23-.06,.42-.17,.59-.11,.17-.27,.3-.47,.39-.2,.09-.42,.14-.67,.14s-.47-.04-.67-.14c-.2-.09-.35-.22-.47-.39-.11-.17-.17-.37-.17-.59,0-.21,.05-.39,.15-.55,.1-.15,.25-.27,.43-.35-.33-.17-.5-.44-.5-.8Zm.77,1.25c-.12,.1-.18,.23-.18,.42,0,.17,.06,.3,.17,.41,.11,.1,.27,.16,.47,.16s.35-.05,.46-.16c.11-.11,.17-.24,.17-.4,0-.18-.06-.31-.18-.41-.12-.1-.27-.15-.46-.15s-.34,.05-.46,.15Zm.86-1.54c-.1-.09-.23-.13-.4-.13s-.3,.04-.4,.13c-.1,.09-.15,.22-.15,.39,0,.15,.05,.27,.15,.36s.23,.14,.39,.14,.29-.05,.4-.14,.15-.21,.15-.36c0-.16-.05-.29-.15-.38Z"/><path class="f" d="M65.33,71.9v-.55l1.64-2.34h.81v2.28h.44v.61h-.44v.71h-.7v-.71h-1.75Zm1.79-2.14l-1.02,1.53h1.02v-1.53Z"/><path class="f" d="M70.88,71.95h-1.39l-.23,.67h-.74l1.25-3.5h.82l1.25,3.5h-.74l-.23-.67Zm-.19-.56l-.5-1.46-.5,1.46h1.01Z"/></g></g><g><g><path class="f" d="M111.1,11.45c12.21,0,22.14,9.93,22.14,22.14s-9.93,22.14-22.14,22.14-22.14-9.93-22.14-22.14,9.93-22.14,22.14-22.14m0-1c-12.78,0-23.14,10.36-23.14,23.14s10.36,23.14,23.14,23.14,23.14-10.36,23.14-23.14-10.36-23.14-23.14-23.14h0Z"/><g><path class="f" d="M111.05,20.58c7.18,0,13.02,5.84,13.02,13.02s-5.84,13.02-13.02,13.02-13.02-5.84-13.02-13.02,5.84-13.02,13.02-13.02m0-1c-7.74,0-14.02,6.28-14.02,14.02s6.28,14.02,14.02,14.02,14.02-6.28,14.02-14.02-6.28-14.02-14.02-14.02h0Z"/><g class="e"><path class="f" d="M111.05,19.58c-7.74,0-14.02,6.28-14.02,14.02s6.28,14.02,14.02,14.02,14.02-6.28,14.02-14.02-6.28-14.02-14.02-14.02Zm10.73,9.29c.14,.34-.72,1.03-1.92,1.54-1.21,.51-2.3,.65-2.44,.31-.14-.34,.72-1.03,1.92-1.54s2.3-.65,2.44-.31Zm-4.74-2.49c.93-.93,1.89-1.46,2.15-1.2s-.28,1.23-1.2,2.15c-.93,.93-1.89,1.46-2.15,1.2-.26-.26,.28-1.22,1.2-2.15Zm-1.21,7.21c0,2.64-2.14,4.78-4.78,4.78s-4.78-2.14-4.78-4.78,2.14-4.78,4.78-4.78,4.78,2.14,4.78,4.78Zm-1.95-8.93c.51-1.21,1.2-2.06,1.54-1.92,.34,.14,.2,1.24-.31,2.44s-1.2,2.06-1.54,1.92c-.34-.14-.2-1.24,.31-2.44Zm-3.07-2.77c.37,0,.67,1.06,.67,2.37s-.3,2.37-.67,2.37-.67-1.06-.67-2.37,.3-2.37,.67-2.37Zm-4.56,1.01c.34-.14,1.03,.72,1.54,1.92s.65,2.3,.31,2.44c-.34,.14-1.03-.72-1.54-1.92-.51-1.21-.65-2.3-.31-2.44Zm-3.69,2.59c.26-.26,1.22,.28,2.15,1.2s1.46,1.89,1.2,2.15-1.22-.28-2.15-1.2-1.46-1.89-1.2-2.15Zm-2.44,3.77c.14-.34,1.24-.2,2.44,.31,1.21,.51,2.06,1.2,1.92,1.54-.14,.34-1.24,.2-2.44-.31-1.21-.51-2.06-1.2-1.92-1.54Zm-.85,4.61c0-.37,1.06-.67,2.37-.67s2.37,.3,2.37,.67-1.06,.67-2.37,.67-2.37-.3-2.37-.67Zm1.01,4.56c-.14-.34,.72-1.03,1.92-1.54,1.21-.51,2.3-.65,2.44-.31s-.72,1.03-1.92,1.54c-1.21,.51-2.3,.65-2.44,.31Zm4.74,2.49c-.93,.93-1.89,1.46-2.15,1.2s.28-1.23,1.2-2.15,1.89-1.46,2.15-1.2-.28,1.22-1.2,2.15Zm3.16,1.72c-.51,1.21-1.2,2.06-1.54,1.92-.34-.14-.2-1.24,.31-2.44s1.2-2.06,1.54-1.92c.34,.14,.2,1.24-.31,2.44Zm3.07,2.77c-.37,0-.67-1.06-.67-2.37s.3-2.37,.67-2.37,.67,1.06,.67,2.37-.3,2.37-.67,2.37Zm4.56-1.01c-.34,.14-1.03-.72-1.54-1.92-.51-1.21-.65-2.3-.3-2.44,.34-.14,1.03,.72,1.54,1.92,.51,1.21,.65,2.3,.31,2.44Zm3.69-2.59c-.26,.26-1.23-.28-2.15-1.2-.93-.93-1.46-1.89-1.2-2.15s1.23,.28,2.15,1.2c.93,.93,1.46,1.89,1.2,2.15Zm2.44-3.77c-.14,.34-1.24,.2-2.44-.31s-2.06-1.2-1.92-1.54c.14-.34,1.24-.2,2.44,.31s2.06,1.2,1.92,1.54Zm-1.52-3.94c-1.31,0-2.37-.3-2.37-.67s1.06-.67,2.37-.67,2.37,.3,2.37,.67-1.06,.67-2.37,.67Z"/></g><path class="f" d="M111.05,28.82c2.64,0,4.78,2.14,4.78,4.78s-2.14,4.78-4.78,4.78-4.78-2.14-4.78-4.78,2.14-4.78,4.78-4.78m0-1c-3.19,0-5.78,2.59-5.78,5.78s2.59,5.78,5.78,5.78,5.78-2.59,5.78-5.78-2.59-5.78-5.78-5.78h0Z"/><g><path class="f" d="M110.81,21.9c.37,0,.67,1.06,.67,2.37s-.3,2.37-.67,2.37-.67-1.06-.67-2.37,.3-2.37,.67-2.37m0-.5c-1.09,0-1.17,2.2-1.17,2.87s.08,2.87,1.17,2.87,1.17-2.2,1.17-2.87-.08-2.87-1.17-2.87h0Z"/><path class="f" d="M101.65,33.2c1.31,0,2.37,.3,2.37,.67s-1.06,.67-2.37,.67-2.37-.3-2.37-.67,1.06-.67,2.37-.67m0-.5c-.67,0-2.87,.08-2.87,1.17s2.2,1.17,2.87,1.17,2.87-.08,2.87-1.17-2.2-1.17-2.87-1.17h0Z"/><path class="f" d="M120.42,32.76c1.31,0,2.37,.3,2.37,.67s-1.06,.67-2.37,.67-2.37-.3-2.37-.67,1.06-.67,2.37-.67m0-.5c-.67,0-2.87,.08-2.87,1.17s2.2,1.17,2.87,1.17,2.87-.08,2.87-1.17-2.2-1.17-2.87-1.17h0Z"/><path class="f" d="M111.26,40.67c.37,0,.67,1.06,.67,2.37s-.3,2.37-.67,2.37-.67-1.06-.67-2.37,.3-2.37,.67-2.37m0-.5c-1.09,0-1.17,2.2-1.17,2.87s.08,2.87,1.17,2.87,1.17-2.2,1.17-2.87-.08-2.87-1.17-2.87h0Z"/><path class="f" d="M114.05,40.01c.36,0,.99,.82,1.46,1.94,.51,1.21,.65,2.3,.31,2.44-.03,.01-.05,.02-.08,.02-.36,0-.99-.82-1.46-1.94-.51-1.21-.65-2.3-.31-2.44,.03-.01,.05-.02,.08-.02m0-.5c-.1,0-.19,.02-.28,.06-.4,.17-.56,.62-.47,1.35,.06,.51,.24,1.13,.51,1.75,.22,.53,1.02,2.24,1.92,2.24,.1,0,.19-.02,.28-.06,1-.42,.22-2.48-.04-3.1-.22-.53-1.02-2.24-1.92-2.24h0Z"/><path class="f" d="M121.26,28.68c.27,0,.46,.06,.51,.19,.14,.34-.72,1.03-1.92,1.54-.76,.32-1.47,.49-1.93,.49-.27,0-.46-.06-.51-.19-.14-.34,.72-1.03,1.92-1.54,.76-.32,1.47-.49,1.93-.49m0-.5c-.55,0-1.33,.19-2.13,.53-.62,.26-2.61,1.2-2.19,2.2,.1,.23,.34,.49,.97,.49,.55,0,1.33-.19,2.13-.53,.62-.26,2.61-1.2,2.19-2.2-.1-.23-.34-.49-.97-.49h0Z"/><path class="f" d="M104.14,36.4c.27,0,.46,.06,.51,.19,.14,.34-.72,1.03-1.92,1.54-.76,.32-1.47,.49-1.93,.49-.27,0-.46-.06-.51-.19-.14-.34,.72-1.03,1.92-1.54,.76-.32,1.47-.49,1.93-.49m0-.5c-.55,0-1.33,.19-2.13,.53-.62,.26-1.19,.59-1.59,.9-.57,.46-.77,.89-.6,1.29,.1,.22,.34,.49,.97,.49,.55,0,1.33-.19,2.13-.53,.62-.26,2.61-1.2,2.19-2.2-.1-.23-.34-.49-.97-.49h0Z"/><path class="f" d="M106.33,22.89c.36,0,.99,.82,1.46,1.94,.51,1.21,.65,2.3,.31,2.44-.03,.01-.05,.02-.08,.02-.36,0-.99-.82-1.46-1.94-.51-1.21-.65-2.3-.31-2.44,.03-.01,.05-.02,.08-.02m0-.5c-.1,0-.19,.02-.28,.06-1,.42-.22,2.48,.04,3.1,.22,.53,1.02,2.24,1.92,2.24,.1,0,.19-.02,.28-.06,1-.42,.22-2.48-.04-3.1-.22-.53-1.02-2.24-1.92-2.24h0Z"/><path class="f" d="M118.09,36c.46,0,1.18,.17,1.93,.5,1.21,.51,2.06,1.2,1.92,1.54-.05,.13-.24,.19-.51,.19-.46,0-1.18-.17-1.93-.5-1.21-.51-2.06-1.2-1.92-1.54,.05-.13,.24-.19,.51-.19m0-.5c-.63,0-.88,.27-.97,.49-.17,.4,.03,.84,.6,1.29,.4,.32,.96,.64,1.58,.91,.8,.34,1.58,.54,2.13,.54,.63,0,.88-.27,.97-.49,.17-.4-.03-.84-.6-1.29-.4-.32-.96-.64-1.58-.91-.8-.34-1.58-.54-2.13-.54h0Z"/><path class="f" d="M115.34,22.73s.06,0,.08,.02c.34,.14,.2,1.24-.31,2.44-.47,1.12-1.1,1.94-1.46,1.94-.03,0-.06,0-.08-.02-.34-.14-.2-1.24,.31-2.44,.47-1.12,1.1-1.94,1.46-1.94m0-.5c-.9,0-1.7,1.71-1.92,2.24-.26,.62-.45,1.25-.51,1.75-.09,.72,.07,1.18,.47,1.35,.09,.04,.18,.06,.28,.06,.9,0,1.7-1.71,1.92-2.24,.26-.62,.45-1.25,.51-1.75,.09-.72-.07-1.18-.47-1.35-.09-.04-.18-.06-.28-.06h0Z"/><path class="f" d="M108.41,40.18s.06,0,.08,.02c.34,.14,.2,1.24-.31,2.44-.47,1.12-1.1,1.94-1.46,1.94-.03,0-.06,0-.08-.02-.34-.14-.2-1.24,.31-2.44,.47-1.12,1.1-1.94,1.46-1.94m0-.5c-.9,0-1.7,1.71-1.92,2.24-.26,.62-.45,1.25-.51,1.75-.09,.72,.07,1.18,.47,1.35,.09,.04,.18,.06,.28,.06,.9,0,1.7-1.71,1.92-2.24,.26-.62,.45-1.25,.51-1.75,.09-.72-.07-1.18-.47-1.35-.09-.04-.18-.06-.28-.06h0Z"/><path class="f" d="M119,25.12c.08,0,.15,.02,.19,.07,.26,.26-.28,1.23-1.2,2.15-.77,.77-1.56,1.27-1.96,1.27-.08,0-.15-.02-.19-.07-.26-.26,.28-1.23,1.2-2.15,.77-.77,1.56-1.27,1.96-1.27m0-.5c-.66,0-1.63,.73-2.31,1.41-.48,.48-1.97,2.09-1.2,2.86,.1,.1,.27,.21,.55,.21,.66,0,1.63-.73,2.31-1.41,.48-.48,1.97-2.09,1.2-2.86-.1-.1-.27-.21-.55-.21h0Z"/><path class="f" d="M102.76,25.43c.4,0,1.19,.5,1.96,1.27,.93,.93,1.46,1.89,1.2,2.15-.04,.04-.11,.07-.19,.07-.4,0-1.19-.5-1.96-1.27-.93-.93-1.46-1.89-1.2-2.15,.04-.04,.11-.07,.19-.07m0-.5c-.28,0-.45,.12-.55,.21-.31,.31-.28,.79,.07,1.42,.25,.45,.65,.95,1.13,1.43,.68,.68,1.65,1.41,2.31,1.41,.28,0,.45-.12,.55-.21,.31-.31,.28-.79-.07-1.42-.25-.45-.65-.95-1.13-1.43-.68-.68-1.65-1.41-2.31-1.41h0Z"/><path class="f" d="M116.34,38.39c.4,0,1.19,.5,1.96,1.27,.93,.93,1.46,1.89,1.2,2.15-.04,.04-.11,.07-.19,.07-.4,0-1.19-.5-1.96-1.27-.93-.93-1.46-1.89-1.2-2.15,.04-.04,.11-.07,.19-.07m0-.5c-.28,0-.45,.12-.55,.21-.77,.77,.73,2.38,1.2,2.86,.68,.68,1.65,1.41,2.31,1.41,.28,0,.45-.12,.55-.21,.77-.77-.73-2.38-1.2-2.86-.68-.68-1.65-1.41-2.31-1.41h0Z"/><path class="f" d="M106.04,38.7c.08,0,.15,.02,.19,.07,.26,.26-.28,1.23-1.2,2.15-.77,.77-1.56,1.27-1.96,1.27-.08,0-.15-.02-.19-.07-.26-.26,.28-1.23,1.2-2.15,.77-.77,1.56-1.27,1.96-1.27m0-.5c-.66,0-1.63,.73-2.31,1.41-.48,.48-1.97,2.09-1.2,2.86,.1,.1,.27,.21,.55,.21,.66,0,1.63-.73,2.31-1.41,.48-.48,1.97-2.09,1.2-2.86-.1-.1-.27-.21-.55-.21h0Z"/><path class="f" d="M100.64,29.07c.46,0,1.18,.17,1.93,.5,1.21,.51,2.06,1.2,1.92,1.54-.05,.13-.24,.19-.51,.19-.46,0-1.18-.17-1.93-.5-1.21-.51-2.06-1.2-1.92-1.54,.05-.13,.24-.19,.51-.19m0-.5c-.63,0-.88,.27-.97,.49-.42,1,1.56,1.94,2.18,2.2,.8,.34,1.58,.54,2.13,.54,.63,0,.88-.27,.97-.49,.17-.4-.03-.84-.6-1.29-.4-.32-.96-.64-1.58-.91-.8-.34-1.58-.54-2.13-.54h0Z"/></g></g></g><g><path class="f" d="M103.91,62.56v.57h-1.46v.9h1.12v.55h-1.12v1.48h-.7v-3.49h2.15Z"/><path class="f" d="M105.11,62.56v3.49h-.7v-3.49h.7Z"/><path class="f" d="M108.17,62.56v.57h-.93v2.92h-.7v-2.92h-.93v-.57h2.56Z"/><path class="f" d="M111.67,66.05h-.7l-1.58-2.4v2.4h-.7v-3.5h.7l1.58,2.4v-2.4h.7v3.5Z"/><path class="f" d="M113.06,63.12v.88h1.18v.55h-1.18v.93h1.33v.57h-2.02v-3.5h2.02v.57h-1.33Z"/><path class="f" d="M115.56,65.96c-.2-.08-.35-.2-.46-.36-.11-.16-.17-.34-.18-.55h.75c.01,.14,.06,.26,.15,.34,.09,.08,.22,.12,.38,.12s.29-.04,.38-.12c.09-.08,.14-.18,.14-.31,0-.1-.03-.19-.1-.26-.06-.07-.14-.12-.24-.16-.1-.04-.23-.08-.39-.13-.23-.07-.41-.13-.55-.2-.14-.06-.26-.16-.37-.29-.1-.13-.15-.31-.15-.53,0-.21,.05-.39,.15-.54s.25-.27,.44-.35,.4-.12,.64-.12c.36,0,.65,.09,.88,.26,.23,.17,.35,.42,.37,.73h-.77c0-.12-.06-.22-.15-.3-.09-.08-.22-.12-.38-.12-.14,0-.25,.04-.33,.1-.08,.07-.12,.17-.12,.31,0,.09,.03,.17,.09,.23s.14,.11,.23,.15c.09,.04,.22,.08,.39,.13,.23,.07,.41,.13,.55,.2,.14,.07,.27,.17,.37,.3,.1,.13,.16,.31,.16,.53,0,.19-.05,.36-.15,.52-.1,.16-.24,.29-.43,.38-.19,.09-.41,.14-.67,.14-.24,0-.46-.04-.66-.12Z"/><path class="f" d="M118.61,65.96c-.2-.08-.35-.2-.46-.36-.11-.16-.17-.34-.18-.55h.75c.01,.14,.06,.26,.15,.34,.09,.08,.22,.12,.38,.12s.29-.04,.38-.12c.09-.08,.14-.18,.14-.31,0-.1-.03-.19-.1-.26-.06-.07-.14-.12-.24-.16-.1-.04-.23-.08-.39-.13-.23-.07-.41-.13-.55-.2-.14-.06-.26-.16-.37-.29-.1-.13-.15-.31-.15-.53,0-.21,.05-.39,.15-.54s.25-.27,.44-.35,.4-.12,.64-.12c.36,0,.65,.09,.88,.26,.23,.17,.35,.42,.37,.73h-.77c0-.12-.06-.22-.15-.3-.09-.08-.22-.12-.38-.12-.14,0-.25,.04-.33,.1-.08,.07-.12,.17-.12,.31,0,.09,.03,.17,.09,.23s.14,.11,.23,.15c.09,.04,.22,.08,.39,.13,.23,.07,.41,.13,.55,.2,.14,.07,.27,.17,.37,.3,.1,.13,.16,.31,.16,.53,0,.19-.05,.36-.15,.52-.1,.16-.24,.29-.43,.38-.19,.09-.41,.14-.67,.14-.24,0-.46-.04-.66-.12Z"/></g><g><path class="f" d="M98.8,69.88c0-.18,.05-.34,.14-.49,.09-.15,.23-.27,.42-.35,.18-.09,.41-.13,.68-.13s.49,.04,.68,.13c.18,.09,.32,.21,.41,.35,.09,.15,.14,.31,.14,.49s-.04,.34-.13,.48c-.09,.14-.21,.25-.36,.32,.18,.08,.33,.2,.43,.35,.1,.15,.15,.33,.15,.54,0,.23-.06,.42-.17,.59-.11,.17-.27,.3-.47,.39-.2,.09-.42,.14-.67,.14s-.47-.04-.67-.14c-.2-.09-.35-.22-.47-.39-.11-.17-.17-.37-.17-.59,0-.21,.05-.39,.15-.55,.1-.15,.25-.27,.43-.35-.33-.17-.5-.44-.5-.8Zm.77,1.25c-.12,.1-.18,.23-.18,.42,0,.17,.06,.3,.17,.41,.11,.1,.27,.16,.47,.16s.35-.05,.46-.16c.11-.11,.17-.24,.17-.4,0-.18-.06-.31-.18-.41-.12-.1-.27-.15-.46-.15s-.34,.05-.46,.15Zm.86-1.54c-.1-.09-.23-.13-.4-.13s-.3,.04-.4,.13c-.1,.09-.15,.22-.15,.39,0,.15,.05,.27,.15,.36s.23,.14,.39,.14,.29-.05,.4-.14,.15-.21,.15-.36c0-.16-.05-.29-.15-.38Z"/><path class="f" d="M102.21,69.39c.21-.33,.55-.49,1.04-.49s.83,.16,1.04,.49c.21,.33,.31,.78,.31,1.35s-.1,1.04-.31,1.37c-.21,.33-.55,.5-1.04,.5s-.83-.17-1.04-.5c-.21-.33-.31-.79-.31-1.37s.1-1.03,.31-1.35Zm1.65,.73c-.03-.17-.1-.31-.19-.41-.1-.11-.24-.16-.42-.16s-.33,.05-.42,.16c-.09,.11-.16,.24-.19,.41-.03,.17-.05,.38-.05,.62s.02,.47,.04,.64,.09,.31,.19,.42,.24,.16,.43,.16,.33-.05,.42-.16,.16-.24,.19-.42,.04-.38,.04-.64-.02-.45-.05-.62Z"/><path class="f" d="M107.35,71.95h-1.39l-.23,.67h-.74l1.25-3.5h.82l1.25,3.5h-.74l-.23-.67Zm-.19-.56l-.5-1.46-.5,1.46h1.01Z"/><path class="f" d="M112.11,70.53v.59h-2.12v-.59h2.12Z"/><path class="f" d="M114.12,69.88c0-.18,.05-.34,.14-.49,.09-.15,.23-.27,.42-.35,.18-.09,.41-.13,.68-.13s.49,.04,.68,.13c.18,.09,.32,.21,.41,.35,.09,.15,.14,.31,.14,.49s-.04,.34-.13,.48c-.09,.14-.21,.25-.36,.32,.18,.08,.33,.2,.43,.35,.1,.15,.15,.33,.15,.54,0,.23-.06,.42-.17,.59-.11,.17-.27,.3-.47,.39-.2,.09-.42,.14-.67,.14s-.47-.04-.67-.14c-.2-.09-.35-.22-.47-.39-.11-.17-.17-.37-.17-.59,0-.21,.05-.39,.15-.55,.1-.15,.25-.27,.43-.35-.33-.17-.5-.44-.5-.8Zm.77,1.25c-.12,.1-.18,.23-.18,.42,0,.17,.06,.3,.17,.41,.11,.1,.27,.16,.47,.16s.35-.05,.46-.16c.11-.11,.17-.24,.17-.4,0-.18-.06-.31-.18-.41-.12-.1-.27-.15-.46-.15s-.34,.05-.46,.15Zm.86-1.54c-.1-.09-.23-.13-.4-.13s-.3,.04-.4,.13c-.1,.09-.15,.22-.15,.39,0,.15,.05,.27,.15,.36s.23,.14,.39,.14,.29-.05,.4-.14,.15-.21,.15-.36c0-.16-.05-.29-.15-.38Z"/><path class="f" d="M117.33,69.88c0-.18,.05-.34,.14-.49,.09-.15,.23-.27,.42-.35,.18-.09,.41-.13,.68-.13s.49,.04,.68,.13c.18,.09,.32,.21,.41,.35,.09,.15,.14,.31,.14,.49s-.04,.34-.13,.48c-.09,.14-.21,.25-.36,.32,.18,.08,.33,.2,.43,.35,.1,.15,.15,.33,.15,.54,0,.23-.06,.42-.17,.59-.11,.17-.27,.3-.47,.39-.2,.09-.42,.14-.67,.14s-.47-.04-.67-.14c-.2-.09-.35-.22-.47-.39-.11-.17-.17-.37-.17-.59,0-.21,.05-.39,.15-.55,.1-.15,.25-.27,.43-.35-.33-.17-.5-.44-.5-.8Zm.77,1.25c-.12,.1-.18,.23-.18,.42,0,.17,.06,.3,.17,.41,.11,.1,.27,.16,.47,.16s.35-.05,.46-.16c.11-.11,.17-.24,.17-.4,0-.18-.06-.31-.18-.41-.12-.1-.27-.15-.46-.15s-.34,.05-.46,.15Zm.86-1.54c-.1-.09-.23-.13-.4-.13s-.3,.04-.4,.13c-.1,.09-.15,.22-.15,.39,0,.15,.05,.27,.15,.36s.23,.14,.39,.14,.29-.05,.4-.14,.15-.21,.15-.36c0-.16-.05-.29-.15-.38Z"/><path class="f" d="M122.66,71.95h-1.39l-.23,.67h-.74l1.25-3.5h.82l1.25,3.5h-.74l-.23-.67Zm-.19-.56l-.5-1.46-.5,1.46h1.01Z"/></g></g><g><g><g class="e"><path class="f" d="M166.43,18.75c-7.86,0-14.23,6.37-14.23,14.23s6.37,14.23,14.23,14.23,14.23-6.37,14.23-14.23-6.37-14.23-14.23-14.23Zm0,18.69c-2.46,0-4.46-2-4.46-4.46s2-4.46,4.46-4.46,4.46,2,4.46,4.46-2,4.46-4.46,4.46Z"/></g><path class="f" d="M166.43,10.17c12.58,0,22.81,10.23,22.81,22.81s-10.23,22.81-22.81,22.81-22.81-10.23-22.81-22.81,10.23-22.81,22.81-22.81m0-1c-13.15,0-23.81,10.66-23.81,23.81s10.66,23.81,23.81,23.81,23.81-10.66,23.81-23.81-10.66-23.81-23.81-23.81h0Z"/><path class="f" d="M166.43,19.75c7.3,0,13.23,5.94,13.23,13.23s-5.94,13.23-13.23,13.23-13.23-5.94-13.23-13.23,5.94-13.23,13.23-13.23m0-1c-7.86,0-14.23,6.37-14.23,14.23s6.37,14.23,14.23,14.23,14.23-6.37,14.23-14.23-6.37-14.23-14.23-14.23h0Z"/><path class="f" d="M166.43,28.52c2.46,0,4.46,2,4.46,4.46s-2,4.46-4.46,4.46-4.46-2-4.46-4.46,2-4.46,4.46-4.46m0-1c-3.01,0-5.46,2.45-5.46,5.46s2.45,5.46,5.46,5.46,5.46-2.45,5.46-5.46-2.45-5.46-5.46-5.46h0Z"/></g><g><path class="f" d="M156.31,62.56v.57h-1.46v.9h1.12v.55h-1.12v1.48h-.7v-3.49h2.15Z"/><path class="f" d="M158.6,66.05l-.77-1.36h-.33v1.36h-.7v-3.49h1.31c.27,0,.5,.05,.69,.14,.19,.1,.33,.22,.43,.39,.1,.16,.14,.34,.14,.54,0,.23-.07,.44-.2,.62s-.33,.31-.59,.38l.83,1.42h-.81Zm-1.1-1.88h.58c.19,0,.33-.05,.43-.14,.09-.09,.14-.22,.14-.38s-.05-.28-.14-.37c-.09-.09-.24-.13-.43-.13h-.58v1.03Z"/><path class="f" d="M160.71,63.12v.88h1.18v.55h-1.18v.93h1.33v.57h-2.02v-3.5h2.02v.57h-1.33Z"/><path class="f" d="M163.37,63.12v.88h1.18v.55h-1.18v.93h1.33v.57h-2.02v-3.5h2.02v.57h-1.33Z"/><path class="f" d="M165.88,65.96c-.2-.08-.35-.2-.46-.36-.11-.16-.17-.34-.18-.55h.75c.01,.14,.06,.26,.15,.34,.09,.08,.22,.12,.38,.12s.29-.04,.38-.12c.09-.08,.14-.18,.14-.31,0-.1-.03-.19-.1-.26-.06-.07-.14-.12-.24-.16-.1-.04-.23-.08-.39-.13-.23-.07-.41-.13-.55-.2-.14-.06-.26-.16-.37-.29-.1-.13-.15-.31-.15-.53,0-.21,.05-.39,.15-.54s.25-.27,.44-.35,.4-.12,.64-.12c.36,0,.65,.09,.88,.26,.23,.17,.35,.42,.37,.73h-.77c0-.12-.06-.22-.15-.3-.09-.08-.22-.12-.38-.12-.14,0-.25,.04-.33,.1-.08,.07-.12,.17-.12,.31,0,.09,.03,.17,.09,.23s.14,.11,.23,.15c.09,.04,.22,.08,.39,.13,.23,.07,.41,.13,.55,.2,.14,.07,.27,.17,.37,.3,.1,.13,.16,.31,.16,.53,0,.19-.05,.36-.15,.52-.1,.16-.24,.29-.43,.38-.19,.09-.41,.14-.67,.14-.24,0-.46-.04-.66-.12Z"/><path class="f" d="M170.75,62.56v.57h-.93v2.92h-.7v-2.92h-.93v-.57h2.56Z"/><path class="f" d="M174.03,62.56l-1.18,2.28v1.21h-.7v-1.21l-1.19-2.28h.79l.75,1.6,.74-1.6h.78Z"/><path class="f" d="M175.14,65.49h1.15v.56h-1.85v-3.49h.7v2.94Z"/><path class="f" d="M177.43,63.12v.88h1.18v.55h-1.18v.93h1.33v.57h-2.02v-3.5h2.02v.57h-1.33Z"/></g><g><path class="f" d="M154.1,69.88c0-.18,.05-.34,.14-.49,.09-.15,.23-.27,.42-.35,.18-.09,.41-.13,.68-.13s.49,.04,.68,.13c.18,.09,.32,.21,.41,.35,.09,.15,.14,.31,.14,.49s-.04,.34-.13,.48c-.09,.14-.21,.25-.36,.32,.18,.08,.33,.2,.43,.35,.1,.15,.15,.33,.15,.54,0,.23-.06,.42-.17,.59-.11,.17-.27,.3-.47,.39-.2,.09-.42,.14-.67,.14s-.47-.04-.67-.14c-.2-.09-.35-.22-.47-.39-.11-.17-.17-.37-.17-.59,0-.21,.05-.39,.15-.55,.1-.15,.25-.27,.43-.35-.33-.17-.5-.44-.5-.8Zm.77,1.25c-.12,.1-.18,.23-.18,.42,0,.17,.06,.3,.17,.41,.11,.1,.27,.16,.47,.16s.35-.05,.46-.16c.11-.11,.17-.24,.17-.4,0-.18-.06-.31-.18-.41-.12-.1-.27-.15-.46-.15s-.34,.05-.46,.15Zm.86-1.54c-.1-.09-.23-.13-.4-.13s-.3,.04-.4,.13c-.1,.09-.15,.22-.15,.39,0,.15,.05,.27,.15,.36s.23,.14,.39,.14,.29-.05,.4-.14,.15-.21,.15-.36c0-.16-.05-.29-.15-.38Z"/><path class="f" d="M157.18,71.9v-.55l1.64-2.34h.81v2.28h.44v.61h-.44v.71h-.7v-.71h-1.75Zm1.79-2.14l-1.02,1.53h1.02v-1.53Z"/><path class="f" d="M162.73,71.95h-1.39l-.23,.67h-.74l1.25-3.5h.82l1.25,3.5h-.74l-.23-.67Zm-.19-.56l-.5-1.46-.5,1.46h1.01Z"/><path class="f" d="M167.49,70.53v.59h-2.12v-.59h2.12Z"/><path class="f" d="M169.5,69.88c0-.18,.05-.34,.14-.49,.09-.15,.23-.27,.42-.35,.18-.09,.41-.13,.68-.13s.49,.04,.68,.13c.18,.09,.32,.21,.41,.35,.09,.15,.14,.31,.14,.49s-.04,.34-.13,.48c-.09,.14-.21,.25-.36,.32,.18,.08,.33,.2,.43,.35,.1,.15,.15,.33,.15,.54,0,.23-.06,.42-.17,.59-.11,.17-.27,.3-.47,.39-.2,.09-.42,.14-.67,.14s-.47-.04-.67-.14c-.2-.09-.35-.22-.47-.39-.11-.17-.17-.37-.17-.59,0-.21,.05-.39,.15-.55,.1-.15,.25-.27,.43-.35-.33-.17-.5-.44-.5-.8Zm.77,1.25c-.12,.1-.18,.23-.18,.42,0,.17,.06,.3,.17,.41,.11,.1,.27,.16,.47,.16s.35-.05,.46-.16c.11-.11,.17-.24,.17-.4,0-.18-.06-.31-.18-.41-.12-.1-.27-.15-.46-.15s-.34,.05-.46,.15Zm.86-1.54c-.1-.09-.23-.13-.4-.13s-.3,.04-.4,.13c-.1,.09-.15,.22-.15,.39,0,.15,.05,.27,.15,.36s.23,.14,.39,.14,.29-.05,.4-.14,.15-.21,.15-.36c0-.16-.05-.29-.15-.38Z"/><path class="f" d="M172.71,69.88c0-.18,.05-.34,.14-.49,.09-.15,.23-.27,.42-.35,.18-.09,.41-.13,.68-.13s.49,.04,.68,.13c.18,.09,.32,.21,.41,.35,.09,.15,.14,.31,.14,.49s-.04,.34-.13,.48c-.09,.14-.21,.25-.36,.32,.18,.08,.33,.2,.43,.35,.1,.15,.15,.33,.15,.54,0,.23-.06,.42-.17,.59-.11,.17-.27,.3-.47,.39-.2,.09-.42,.14-.67,.14s-.47-.04-.67-.14c-.2-.09-.35-.22-.47-.39-.11-.17-.17-.37-.17-.59,0-.21,.05-.39,.15-.55,.1-.15,.25-.27,.43-.35-.33-.17-.5-.44-.5-.8Zm.77,1.25c-.12,.1-.18,.23-.18,.42,0,.17,.06,.3,.17,.41,.11,.1,.27,.16,.47,.16s.35-.05,.46-.16c.11-.11,.17-.24,.17-.4,0-.18-.06-.31-.18-.41-.12-.1-.27-.15-.46-.15s-.34,.05-.46,.15Zm.86-1.54c-.1-.09-.23-.13-.4-.13s-.3,.04-.4,.13c-.1,.09-.15,.22-.15,.39,0,.15,.05,.27,.15,.36s.23,.14,.39,.14,.29-.05,.4-.14,.15-.21,.15-.36c0-.16-.05-.29-.15-.38Z"/><path class="f" d="M178.04,71.95h-1.39l-.23,.67h-.74l1.25-3.5h.82l1.25,3.5h-.74l-.23-.67Zm-.19-.56l-.5-1.46-.5,1.46h1.01Z"/></g></g><g><g><g class="e"><path class="f" d="M227.01,11.14c-9.53,0-17.26,7.73-17.26,17.26s7.73,17.26,17.26,17.26,17.26-7.73,17.26-17.26-7.73-17.26-17.26-17.26Zm-1.49,3.15h2.82c.55,0,1,.45,1,1l-.5,4.24c0,.55-.45,1-1,1h-1.74c-.55,0-1-.45-1-1l-.58-4.24c0-.55,.45-1,1-1Zm-5.66,20.02l-3.37,2.63c-.48,.28-1.09,.11-1.37-.36l-1.41-2.43c-.28-.48-.11-1.09,.36-1.37l3.92-1.7c.48-.28,1.09-.11,1.37,.36l.87,1.5c.28,.48,.11,1.09-.36,1.37Zm7.16-.31c-3.1,0-5.61-2.51-5.61-5.61s2.51-5.61,5.61-5.61,5.61,2.51,5.61,5.61-2.51,5.61-5.61,5.61Zm11.4,3.23c-.3,.46-.92,.6-1.38,.3l-3.3-2.71c-.46-.3-.6-.92-.3-1.38l.94-1.46c.3-.46,.92-.6,1.38-.3l3.88,1.8c.46,.3,.6,.92,.3,1.38l-1.52,2.37Z"/></g><path class="f" d="M227.01,1c15.11,0,27.4,12.29,27.4,27.4s-12.29,27.4-27.4,27.4-27.4-12.29-27.4-27.4S211.9,1,227.01,1m0-1c-15.68,0-28.4,12.71-28.4,28.4s12.71,28.4,28.4,28.4,28.4-12.71,28.4-28.4S242.7,0,227.01,0h0Z"/><path class="f" d="M227.01,12.14c8.96,0,16.26,7.29,16.26,16.26s-7.29,16.26-16.26,16.26-16.26-7.29-16.26-16.26,7.29-16.26,16.26-16.26m0-1c-9.53,0-17.26,7.73-17.26,17.26s7.73,17.26,17.26,17.26,17.26-7.73,17.26-17.26-7.73-17.26-17.26-17.26h0Z"/><path class="f" d="M227.01,22.79c3.1,0,5.61,2.51,5.61,5.61s-2.51,5.61-5.61,5.61-5.61-2.51-5.61-5.61,2.51-5.61,5.61-5.61m0-1c-3.64,0-6.61,2.96-6.61,6.61s2.96,6.61,6.61,6.61,6.61-2.96,6.61-6.61-2.96-6.61-6.61-6.61h0Z"/><g><path class="g" d="M228.34,14.29h-2.82c-.55,0-1,.45-1,1l.58,4.24c0,.55,.45,1,1,1h1.74c.55,0,1-.45,1-1l.5-4.24c0-.55-.45-1-1-1Z"/><path class="g" d="M213.7,34.14l1.41,2.43c.28,.48,.89,.64,1.37,.36l3.37-2.63c.48-.28,.64-.89,.36-1.37l-.87-1.5c-.28-.48-.89-.64-1.37-.36l-3.92,1.7c-.48,.28-.64,.89-.36,1.37Z"/><path class="g" d="M238.41,37.24l1.52-2.37c.3-.46,.16-1.08-.3-1.38l-3.88-1.8c-.46-.3-1.08-.16-1.38,.3l-.94,1.46c-.3,.46-.16,1.08,.3,1.38l3.3,2.71c.46,.3,1.08,.16,1.38-.3Z"/></g></g><g><path class="f" d="M209.54,65.96c-.2-.08-.35-.2-.46-.36-.11-.16-.17-.34-.18-.55h.75c.01,.14,.06,.26,.15,.34,.09,.08,.22,.12,.38,.12s.29-.04,.38-.12c.09-.08,.14-.18,.14-.31,0-.1-.03-.19-.1-.26-.06-.07-.14-.12-.24-.16-.1-.04-.23-.08-.39-.13-.23-.07-.41-.13-.55-.2-.14-.06-.26-.16-.37-.29-.1-.13-.15-.31-.15-.53,0-.21,.05-.39,.15-.54s.25-.27,.44-.35,.4-.12,.64-.12c.36,0,.65,.09,.88,.26,.23,.17,.35,.42,.37,.73h-.77c0-.12-.06-.22-.15-.3-.09-.08-.22-.12-.38-.12-.14,0-.25,.04-.33,.1-.08,.07-.12,.17-.12,.31,0,.09,.03,.17,.09,.23s.14,.11,.23,.15c.09,.04,.22,.08,.39,.13,.23,.07,.41,.13,.55,.2,.14,.07,.27,.17,.37,.3,.1,.13,.16,.31,.16,.53,0,.19-.05,.36-.15,.52-.1,.16-.24,.29-.43,.38-.19,.09-.41,.14-.67,.14-.24,0-.46-.04-.66-.12Z"/><path class="f" d="M214.45,64.16c-.09,.16-.23,.29-.42,.39-.19,.1-.43,.15-.71,.15h-.58v1.34h-.7v-3.49h1.28c.27,0,.5,.05,.69,.14s.33,.22,.43,.39c.09,.16,.14,.35,.14,.55,0,.19-.04,.36-.13,.53Zm-.73-.15c.09-.09,.14-.21,.14-.37,0-.34-.19-.51-.57-.51h-.56v1.02h.56c.19,0,.34-.04,.43-.13Z"/><path class="f" d="M215.78,63.12v.88h1.18v.55h-1.18v.93h1.33v.57h-2.02v-3.5h2.02v.57h-1.33Z"/><path class="f" d="M218.44,63.12v.88h1.18v.55h-1.18v.93h1.33v.57h-2.02v-3.5h2.02v.57h-1.33Z"/><path class="f" d="M222.59,62.77c.28,.14,.49,.35,.65,.61,.15,.27,.23,.57,.23,.92s-.08,.66-.23,.92c-.15,.26-.37,.46-.65,.61-.28,.14-.6,.21-.97,.21h-1.22v-3.49h1.22c.37,0,.69,.07,.97,.22Zm-.14,2.38c.2-.2,.3-.48,.3-.85s-.1-.65-.3-.85c-.2-.21-.48-.31-.85-.31h-.5v2.3h.5c.37,0,.65-.1,.85-.3Z"/><path class="f" d="M224.53,65.96c-.2-.08-.35-.2-.46-.36-.11-.16-.17-.34-.18-.55h.75c.01,.14,.06,.26,.15,.34,.09,.08,.22,.12,.38,.12s.29-.04,.38-.12c.09-.08,.14-.18,.14-.31,0-.1-.03-.19-.1-.26-.06-.07-.14-.12-.24-.16-.1-.04-.23-.08-.39-.13-.23-.07-.41-.13-.55-.2-.14-.06-.26-.16-.37-.29-.1-.13-.15-.31-.15-.53,0-.21,.05-.39,.15-.54s.25-.27,.44-.35,.4-.12,.64-.12c.36,0,.65,.09,.88,.26,.23,.17,.35,.42,.37,.73h-.77c0-.12-.06-.22-.15-.3-.09-.08-.22-.12-.38-.12-.14,0-.25,.04-.33,.1-.08,.07-.12,.17-.12,.31,0,.09,.03,.17,.09,.23s.14,.11,.23,.15c.09,.04,.22,.08,.39,.13,.23,.07,.41,.13,.55,.2,.14,.07,.27,.17,.37,.3,.1,.13,.16,.31,.16,.53,0,.19-.05,.36-.15,.52-.1,.16-.24,.29-.43,.38-.19,.09-.41,.14-.67,.14-.24,0-.46-.04-.66-.12Z"/><path class="f" d="M229,66.05l-1.27-1.56v1.56h-.7v-3.49h.7v1.57l1.27-1.57h.85l-1.44,1.73,1.48,1.76h-.89Z"/><path class="f" d="M232.49,65.38h-1.39l-.23,.67h-.74l1.25-3.5h.82l1.25,3.5h-.74l-.23-.67Zm-.19-.56l-.5-1.46-.5,1.46h1.01Z"/><path class="f" d="M236.3,62.56v.57h-.93v2.92h-.7v-2.92h-.93v-.57h2.56Z"/><path class="f" d="M237.51,62.56v3.49h-.7v-3.49h.7Z"/><path class="f" d="M241.19,66.05h-.7l-1.58-2.4v2.4h-.7v-3.5h.7l1.58,2.4v-2.4h.7v3.5Z"/><path class="f" d="M244.31,63.61c-.08-.15-.19-.26-.33-.33-.14-.08-.3-.12-.49-.12-.21,0-.39,.05-.55,.14-.16,.09-.28,.23-.38,.4-.09,.17-.13,.37-.13,.6s.05,.44,.14,.61c.09,.17,.22,.31,.38,.4,.16,.09,.35,.14,.57,.14,.27,0,.49-.07,.66-.21s.28-.34,.33-.59h-1.2v-.54h1.89v.61c-.05,.24-.15,.47-.3,.68-.15,.21-.35,.37-.59,.5s-.51,.19-.81,.19c-.34,0-.64-.08-.91-.23-.27-.15-.48-.36-.64-.63-.16-.27-.23-.58-.23-.92s.08-.65,.23-.92c.15-.27,.37-.48,.64-.64,.27-.15,.57-.23,.91-.23,.39,0,.73,.1,1.02,.29,.29,.19,.49,.46,.6,.81h-.81Z"/></g><g><path class="f" d="M214.84,69.88c0-.18,.05-.34,.14-.49,.09-.15,.23-.27,.42-.35,.18-.09,.41-.13,.68-.13s.49,.04,.68,.13c.18,.09,.32,.21,.41,.35,.09,.15,.14,.31,.14,.49s-.04,.34-.13,.48c-.09,.14-.21,.25-.36,.32,.18,.08,.33,.2,.43,.35,.1,.15,.15,.33,.15,.54,0,.23-.06,.42-.17,.59-.11,.17-.27,.3-.47,.39-.2,.09-.42,.14-.67,.14s-.47-.04-.67-.14c-.2-.09-.35-.22-.47-.39-.11-.17-.17-.37-.17-.59,0-.21,.05-.39,.15-.55,.1-.15,.25-.27,.43-.35-.33-.17-.5-.44-.5-.8Zm.77,1.25c-.12,.1-.18,.23-.18,.42,0,.17,.06,.3,.17,.41,.11,.1,.27,.16,.47,.16s.35-.05,.46-.16c.11-.11,.17-.24,.17-.4,0-.18-.06-.31-.18-.41-.12-.1-.27-.15-.46-.15s-.34,.05-.46,.15Zm.86-1.54c-.1-.09-.23-.13-.4-.13s-.3,.04-.4,.13c-.1,.09-.15,.22-.15,.39,0,.15,.05,.27,.15,.36s.23,.14,.39,.14,.29-.05,.4-.14,.15-.21,.15-.36c0-.16-.05-.29-.15-.38Z"/><path class="f" d="M218.31,69.15c.22-.18,.51-.27,.86-.27,.24,0,.45,.04,.62,.13,.17,.08,.3,.2,.39,.35s.13,.31,.13,.49c0,.21-.05,.39-.16,.53s-.24,.24-.39,.29v.02c.19,.06,.34,.17,.45,.32s.16,.35,.16,.59c0,.2-.05,.38-.14,.53s-.23,.28-.4,.37-.39,.13-.64,.13c-.38,0-.68-.09-.92-.28-.24-.19-.36-.47-.38-.84h.68c0,.16,.06,.29,.17,.39,.11,.1,.25,.15,.43,.15,.17,0,.3-.05,.39-.14,.09-.09,.14-.22,.14-.37,0-.2-.06-.34-.19-.43-.13-.09-.32-.13-.59-.13h-.15v-.58h.15c.47,0,.71-.16,.71-.48,0-.14-.04-.25-.13-.33s-.21-.12-.37-.12-.28,.04-.36,.13-.13,.19-.15,.32h-.69c.02-.33,.13-.59,.35-.77Z"/><path class="f" d="M223.16,71.95h-1.39l-.23,.67h-.74l1.25-3.5h.82l1.25,3.5h-.74l-.23-.67Zm-.19-.56l-.5-1.46-.5,1.46h1.01Z"/><path class="f" d="M227.92,70.53v.59h-2.12v-.59h2.12Z"/><path class="f" d="M229.92,69.88c0-.18,.05-.34,.14-.49,.09-.15,.23-.27,.42-.35,.18-.09,.41-.13,.68-.13s.49,.04,.68,.13c.18,.09,.32,.21,.41,.35,.09,.15,.14,.31,.14,.49s-.04,.34-.13,.48c-.09,.14-.21,.25-.36,.32,.18,.08,.33,.2,.43,.35,.1,.15,.15,.33,.15,.54,0,.23-.06,.42-.17,.59-.11,.17-.27,.3-.47,.39-.2,.09-.42,.14-.67,.14s-.47-.04-.67-.14c-.2-.09-.35-.22-.47-.39-.11-.17-.17-.37-.17-.59,0-.21,.05-.39,.15-.55,.1-.15,.25-.27,.43-.35-.33-.17-.5-.44-.5-.8Zm.77,1.25c-.12,.1-.18,.23-.18,.42,0,.17,.06,.3,.17,.41,.11,.1,.27,.16,.47,.16s.35-.05,.46-.16c.11-.11,.17-.24,.17-.4,0-.18-.06-.31-.18-.41-.12-.1-.27-.15-.46-.15s-.34,.05-.46,.15Zm.86-1.54c-.1-.09-.23-.13-.4-.13s-.3,.04-.4,.13c-.1,.09-.15,.22-.15,.39,0,.15,.05,.27,.15,.36s.23,.14,.39,.14,.29-.05,.4-.14,.15-.21,.15-.36c0-.16-.05-.29-.15-.38Z"/><path class="f" d="M233.14,69.88c0-.18,.05-.34,.14-.49,.09-.15,.23-.27,.42-.35,.18-.09,.41-.13,.68-.13s.49,.04,.68,.13c.18,.09,.32,.21,.41,.35,.09,.15,.14,.31,.14,.49s-.04,.34-.13,.48c-.09,.14-.21,.25-.36,.32,.18,.08,.33,.2,.43,.35,.1,.15,.15,.33,.15,.54,0,.23-.06,.42-.17,.59-.11,.17-.27,.3-.47,.39-.2,.09-.42,.14-.67,.14s-.47-.04-.67-.14c-.2-.09-.35-.22-.47-.39-.11-.17-.17-.37-.17-.59,0-.21,.05-.39,.15-.55,.1-.15,.25-.27,.43-.35-.33-.17-.5-.44-.5-.8Zm.77,1.25c-.12,.1-.18,.23-.18,.42,0,.17,.06,.3,.17,.41,.11,.1,.27,.16,.47,.16s.35-.05,.46-.16c.11-.11,.17-.24,.17-.4,0-.18-.06-.31-.18-.41-.12-.1-.27-.15-.46-.15s-.34,.05-.46,.15Zm.86-1.54c-.1-.09-.23-.13-.4-.13s-.3,.04-.4,.13c-.1,.09-.15,.22-.15,.39,0,.15,.05,.27,.15,.36s.23,.14,.39,.14,.29-.05,.4-.14,.15-.21,.15-.36c0-.16-.05-.29-.15-.38Z"/><path class="f" d="M238.46,71.95h-1.39l-.23,.67h-.74l1.25-3.5h.82l1.25,3.5h-.74l-.23-.67Zm-.19-.56l-.5-1.46-.5,1.46h1.01Z"/></g></g></g><g><path class="f" d="M211.35,13.33c-.47,.47-.69,.71-1.12,1.22l-.33-.28c.12-.14,.18-.21,.3-.35h0s.04-.11,0-.15c-.04-.04-.11-.03-.15,.01-.12,.14-.19,.21-.31,.35l-.35-.3s0-.01,0-.02c.2-.24,.3-.36,.51-.59,.04-.04,.04-.11,0-.15-.04-.04-.11-.03-.15,.01-.21,.23-.31,.35-.51,.6-.08,.1-.07,.24,.02,.31,.37,.31,.56,.46,.93,.76,.04,.04,.11,.03,.14-.01,.45-.54,.68-.79,1.18-1.29,.04-.04,.04-.1,0-.14-.04-.04-.1-.04-.14,0Z"/><path class="f" d="M214.03,10.31s-.05,.01-.07,.02c-.02,0-.04,0-.06,.02-.15,.04-.27,.06-.34-.02-.03-.04-.04-.09-.04-.13,.01-.07,.08-.16,.17-.22,.12-.08,.21-.1,.34-.06,.06,.02,.12-.02,.14-.07,.02-.05,0-.11-.06-.13-.19-.05-.34-.03-.52,.09-.07,.05-.23,.17-.27,.36-.02,.1,0,.2,.07,.29,.16,.2,.41,.13,.55,.09,.02,0,.04,0,.05-.01,.03,0,.06-.01,.09-.02,.17-.05,.3-.07,.38,.06,.02,.03,.03,.08,.01,.14-.02,.08-.07,.15-.15,.19-.2,.12-.35,.04-.38,.02-.05-.03-.11-.01-.14,.04-.03,.05-.01,.11,.03,.14,.05,.03,.29,.15,.59-.02l.02-.02c.11-.07,.19-.18,.22-.3,.03-.11,.01-.21-.04-.29-.17-.27-.45-.19-.61-.15Z"/><path class="f" d="M214.98,9.72s-.05,.01-.07,.02c-.02,0-.04,0-.06,.01-.15,.03-.27,.05-.34-.04-.03-.04-.04-.09-.03-.13,.02-.07,.09-.15,.19-.21,.13-.07,.22-.08,.34-.04,.05,.02,.12,0,.14-.06,.02-.05,0-.11-.06-.13-.18-.06-.34-.05-.52,.06-.07,.04-.24,.16-.29,.34-.03,.1,0,.2,.06,.29,.14,.21,.41,.15,.55,.12,.02,0,.04,0,.05-.01,.03,0,.06-.01,.09-.02,.17-.04,.3-.05,.38,.08,.02,.03,.02,.09,0,.14-.02,.08-.08,.14-.16,.18-.2,.11-.35,.02-.38,0-.05-.03-.11-.02-.14,.03-.03,.05-.02,.11,.03,.14,.04,.03,.28,.17,.59,0h.03c.12-.08,.2-.19,.24-.31,.03-.1,.03-.21-.02-.3-.15-.27-.44-.22-.6-.18Z"/><path class="f" d="M212.45,10.6c-.37,.28-.29,.67-.25,.85,0,.02,0,.04,.01,.06,.01,.09,.05,.19,.09,.29,.1,.28,.17,.49,.04,.6-.14,.12-.21,.19-.35,.31l-.31-.34c.1-.09,.14-.13,.24-.21h0c.09-.07,.17-.15,.26-.14,.02,0,.09,.01,.14,.04-.02-.07-.05-.15-.08-.24h-.04s-.09,0-.14,0c0-.11-.02-.22-.12-.32-.19-.19-.51-.07-.62,.03-.13,.11-.42,.38-.6,.55-.04,.04-.06,.06-.11,.1h0s-.06,.08-.06,.13c0,.05,.02,.1,.05,.13l.05,.05s.1,.03,.15,0c.04-.04,.04-.11,0-.15l-.03-.03,.09-.08c.18-.17,.47-.43,.59-.55,.05-.05,.24-.12,.34-.03,.14,.14,.03,.3,0,.34-.1,.09-.15,.13-.25,.22l-.18-.19s-.1-.04-.15,0h0s-.05,.11-.01,.15c.26,.28,.39,.42,.64,.69,.03,.03,.08,.05,.12,.06,.05,0,.09-.02,.13-.05h0c.14-.13,.22-.2,.36-.33,.24-.21,.12-.55,.02-.82-.03-.1-.06-.19-.08-.26,0-.02,0-.04-.01-.07-.04-.16-.09-.44,.17-.64,.16-.12,.54-.25,.81,.12,.23,.31,.08,.6-.11,.76-.23,.19-.47,.1-.5,.09-.02,0-.04-.02-.04-.02-.07-.05-.16-.1-.22-.15,.01,.05,.03,.1,.05,.15,.02,.05,.04,.11,.05,.16h.01s.03,.02,.06,.03h.03c.12,.06,.35,.11,.59-.04h0s.07-.05,.11-.08c.27-.22,.44-.63,.15-1.04-.33-.47-.84-.36-1.1-.16Z"/><path class="f" d="M210.98,12.26h0s-.05,.11,0,.15c.24,.25,.35,.37,.59,.61-.54-.13-.81-.19-1.37-.29h-.02c-.08,0-.15,.04-.18,.12-.03,.07-.02,.15,.04,.2,.29,.27,.43,.4,.72,.67,.04,.04,.11,.04,.14,0h0s.04-.11,0-.14c-.26-.25-.39-.37-.65-.62,.55,.1,.83,.16,1.36,.29h.02c.05,0,.1-.01,.14-.05,.01-.01,.03-.03,.04-.05,.03-.07,.02-.15-.03-.2-.26-.27-.39-.41-.64-.68-.04-.04-.1-.04-.15,0Z"/><path class="f" d="M212.92,10.81s-.04,.04-.04,.06c.02,.08,.02,.18,.02,.28-.12-.01-.17-.02-.29-.03-.03,0-.05,.02-.06,.05,0,.03,.02,.05,.04,.05,.12,.01,.18,.02,.3,.03,0,.11-.02,.19-.02,.2,0,.03,.02,.05,.04,.06,.01,0,.03,0,.04-.01,.01,0,.02-.02,.02-.03,0,0,.01-.09,.02-.2,.12,.01,.17,.02,.29,.04,.01,0,.03,0,.04,0,.01,0,.02-.02,.02-.03,0-.03-.01-.05-.04-.06-.12-.02-.18-.02-.3-.04,0-.11,0-.23-.02-.32,0-.03-.03-.04-.06-.03Z"/></g><g><path class="f" d="M99.84,20.43c-.5,.44-.74,.68-1.19,1.18l-.32-.29c.13-.14,.19-.21,.32-.34h0s.04-.11,0-.15c-.04-.04-.11-.04-.15,0-.13,.14-.2,.21-.33,.35l-.34-.31s0-.01,0-.02c.21-.24,.32-.36,.55-.59,.04-.04,.05-.11,0-.15-.04-.04-.11-.04-.15,0-.23,.23-.34,.35-.55,.59-.09,.1-.08,.24,0,.32,.36,.32,.54,.47,.91,.79,.04,.04,.11,.03,.14-.01,.47-.53,.71-.78,1.24-1.24,.04-.04,.05-.1,.01-.14-.04-.04-.1-.05-.14,0Z"/><path class="f" d="M102.83,17.65s-.05,0-.08,.01c-.02,0-.04,0-.07,0-.15,.02-.28,.03-.34-.06-.03-.05-.03-.09-.02-.14,.02-.07,.1-.15,.2-.2,.13-.07,.23-.07,.35-.02,.05,.02,.12,0,.15-.05,.03-.05,0-.11-.05-.14-.18-.08-.34-.07-.54,.03-.08,.04-.26,.15-.32,.33-.03,.1-.02,.2,.04,.3,.13,.22,.4,.17,.55,.15,.02,0,.04,0,.06,0,.03,0,.06,0,.09-.01,.18-.03,.31-.03,.38,.11,.02,.04,.01,.09,0,.14-.03,.07-.09,.14-.18,.17-.21,.09-.35,0-.38-.02-.04-.03-.11-.03-.15,.02-.04,.05-.03,.11,.02,.14,.04,.03,.27,.18,.59,.05h.03c.12-.07,.21-.17,.26-.29,.04-.1,.04-.21,0-.3-.13-.29-.43-.25-.59-.22Z"/><path class="f" d="M103.87,17.19s-.05,0-.08,0c-.02,0-.04,0-.07,0-.15,0-.28,.01-.33-.09-.02-.05-.03-.09,0-.14,.03-.07,.11-.14,.22-.18,.14-.06,.23-.06,.35,0,.05,.03,.12,0,.15-.04,.03-.05,.02-.11-.04-.14-.17-.09-.34-.09-.54-.01-.08,.03-.27,.13-.35,.31-.04,.1-.04,.2,.01,.3,.12,.22,.39,.2,.53,.19,.02,0,.04,0,.06,0,.03,0,.06,0,.09,0,.18-.01,.31-.01,.37,.14,.01,.04,0,.09-.02,.14-.04,.07-.1,.13-.19,.16-.22,.08-.35-.03-.38-.05-.04-.04-.11-.03-.15,0-.04,.04-.04,.11,0,.14,.04,.04,.26,.2,.59,.09h.03c.12-.06,.23-.15,.28-.26,.05-.1,.06-.21,.03-.3-.11-.29-.41-.28-.57-.26Z"/><path class="f" d="M101.19,17.78c-.41,.25-.37,.65-.34,.83,0,.02,0,.04,0,.06,0,.09,.03,.19,.06,.3,.07,.29,.12,.5-.02,.6-.15,.11-.23,.17-.37,.29l-.28-.36c.1-.08,.15-.12,.26-.19h0c.09-.07,.19-.14,.28-.12,.02,0,.09,.02,.14,.05-.01-.07-.03-.16-.06-.25h-.04s-.09-.02-.14,0c.02-.11,0-.22-.09-.33-.18-.21-.51-.11-.63-.02-.14,.11-.46,.35-.66,.52-.05,.04-.07,.06-.12,.1h0s-.07,.08-.07,.13c0,.05,0,.1,.04,.13l.04,.05s.1,.04,.15,0c.05-.04,.05-.11,.02-.15l-.03-.03s.06-.05,.09-.08c.2-.16,.51-.41,.65-.51,.06-.04,.25-.11,.34,0,.13,.15,0,.31-.03,.34-.11,.08-.16,.12-.27,.2l-.16-.21s-.1-.05-.15-.01h0s-.06,.1-.02,.15l.59,.74s.07,.06,.12,.06c.05,0,.09,0,.13-.04h0c.15-.12,.23-.18,.39-.3,.26-.19,.17-.54,.1-.82-.02-.1-.05-.19-.05-.27,0-.02,0-.04,0-.07-.02-.17-.05-.45,.24-.62,.18-.11,.57-.2,.8,.2,.19,.34,.01,.61-.2,.74-.25,.16-.48,.06-.51,.04-.02-.01-.03-.02-.04-.03-.07-.05-.15-.11-.21-.17,0,.05,.02,.1,.03,.16,.01,.05,.03,.11,.04,.17h0s.03,.02,.05,.04h.03c.12,.07,.34,.14,.6,.02h0s.08-.04,.12-.06c.29-.19,.51-.58,.27-1.02-.27-.5-.81-.44-1.09-.27Z"/><path class="f" d="M99.54,19.34h0s-.06,.11-.02,.15l.55,.65c-.53-.17-.8-.24-1.36-.37h-.02c-.08,0-.15,.04-.19,.11-.04,.07-.03,.15,.02,.21l.69,.71s.1,.04,.14,0h0s.04-.1,0-.14l-.61-.65c.55,.12,.83,.19,1.35,.36h.02c.05,.01,.1,0,.14-.04,.02-.01,.03-.03,.04-.05,.04-.07,.03-.15-.02-.21l-.59-.73s-.1-.05-.15,0Z"/><path class="f" d="M101.65,18.03s-.05,.03-.05,.06c.01,.08,0,.19-.01,.29-.12-.02-.17-.04-.29-.06-.03,0-.06,.01-.06,.04,0,.03,0,.05,.04,.06,.12,.02,.18,.03,.3,.06-.02,.11-.04,.19-.04,.19,0,.03,0,.05,.04,.06,.01,0,.03,0,.04,0,.01,0,.02-.02,.02-.03,0,0,.02-.09,.04-.19,.12,.02,.17,.04,.29,.06,.01,0,.03,0,.04,0,.01,0,.02-.02,.02-.03,0-.03,0-.05-.04-.06-.12-.03-.18-.04-.3-.07,.02-.11,.03-.23,.02-.33,0-.03-.03-.05-.06-.04Z"/></g><g><path class="f" d="M49.25,27.56c-.45,.49-.67,.75-1.06,1.3l-.35-.25c.11-.15,.17-.23,.28-.38h0s.03-.11-.01-.15c-.04-.03-.11-.02-.15,.02-.12,.15-.18,.23-.29,.38l-.38-.27s0-.01,0-.02c.19-.26,.28-.39,.48-.64,.04-.05,.03-.12,0-.15-.04-.03-.11-.02-.15,.03-.2,.26-.3,.39-.49,.65-.08,.11-.06,.25,.04,.32,.39,.27,.59,.41,.98,.69,.05,.03,.11,.02,.14-.03,.41-.57,.63-.85,1.11-1.36,.04-.04,.04-.11,0-.14-.04-.04-.11-.04-.14,0Z"/><path class="f" d="M51.99,24.52s-.05,.01-.08,.02c-.02,0-.04,0-.06,.01-.15,.03-.28,.06-.34-.03-.03-.04-.04-.09-.03-.13,.02-.07,.09-.16,.19-.21,.13-.08,.22-.09,.35-.05,.06,.02,.12-.01,.14-.07,.02-.05,0-.11-.06-.13-.19-.06-.35-.04-.54,.07-.07,.04-.25,.17-.3,.36-.03,.1,0,.2,.06,.29,.15,.2,.42,.14,.56,.11,.02,0,.04,0,.05-.01,.03,0,.06-.01,.09-.02,.18-.04,.31-.06,.38,.08,.02,.03,.02,.09,0,.14-.02,.08-.08,.14-.16,.19-.21,.11-.35,.03-.38,0-.05-.03-.11-.02-.14,.03-.03,.05-.02,.11,.03,.14,.05,.03,.28,.16,.59,0h.03c.11-.08,.2-.19,.24-.31,.03-.1,.03-.21-.02-.3-.15-.27-.45-.21-.61-.17Z"/><path class="f" d="M53,23.97s-.05,0-.08,.01c-.02,0-.04,0-.07,0-.15,.02-.28,.03-.34-.06-.03-.05-.03-.09-.02-.14,.02-.07,.1-.15,.21-.2,.14-.07,.23-.07,.35-.02,.05,.02,.12,0,.15-.05,.03-.05,0-.11-.05-.14-.18-.08-.35-.07-.54,.03-.08,.04-.26,.15-.32,.33-.03,.1-.02,.2,.04,.3,.13,.21,.4,.17,.55,.15,.02,0,.04,0,.06,0,.03,0,.06,0,.09-.01,.18-.03,.31-.03,.38,.11,.02,.04,.01,.09,0,.14-.03,.07-.09,.14-.18,.17-.21,.09-.35,0-.38-.02-.04-.03-.11-.02-.15,.02-.04,.05-.03,.11,.02,.14,.04,.03,.27,.18,.59,.04h.03c.12-.07,.21-.17,.26-.29,.04-.1,.04-.21,0-.3-.13-.29-.43-.24-.59-.22Z"/><path class="f" d="M50.36,24.79c-.39,.29-.31,.68-.27,.86,0,.02,0,.04,.01,.06,.01,.09,.05,.19,.08,.29,.1,.28,.17,.49,.04,.6-.14,.13-.21,.19-.35,.32l-.32-.33c.1-.09,.14-.13,.24-.22h0c.09-.08,.18-.15,.26-.15,.02,0,.09,0,.14,.04-.02-.07-.05-.15-.08-.24h-.04s-.1,0-.14,0c0-.11-.02-.22-.12-.32-.19-.19-.52-.06-.63,.04-.13,.12-.43,.4-.61,.59-.04,.04-.06,.07-.11,.11h0s-.06,.09-.06,.14c0,.05,.02,.1,.05,.13l.05,.04s.11,.03,.15-.01c.04-.05,.04-.11,0-.15l-.03-.03s.05-.05,.09-.09c.18-.18,.47-.46,.6-.58,.05-.05,.24-.13,.34-.04,.14,.13,.03,.31,0,.35-.1,.09-.15,.14-.25,.23l-.18-.19s-.11-.04-.15,0h0s-.05,.11,0,.15c.26,.27,.4,.41,.66,.68,.03,.03,.08,.05,.13,.05,.05,0,.09-.02,.13-.05h0c.14-.14,.21-.2,.36-.33,.24-.21,.12-.55,.03-.83-.03-.1-.06-.19-.07-.26,0-.02,0-.04-.01-.07-.03-.16-.09-.45,.18-.65,.17-.12,.56-.25,.82,.13,.22,.32,.06,.61-.13,.76-.23,.18-.47,.1-.51,.09-.02,0-.04-.02-.04-.02-.07-.05-.16-.1-.23-.15,.01,.05,.03,.1,.05,.15,.02,.05,.04,.11,.05,.16h.01s.03,.02,.06,.03h.03c.12,.06,.35,.11,.6-.04h0s.07-.05,.11-.07c.27-.22,.46-.62,.18-1.04-.32-.48-.84-.37-1.11-.17Z"/><path class="f" d="M48.86,26.5h0s-.05,.11,0,.15c.24,.24,.36,.36,.61,.59-.54-.11-.82-.16-1.39-.23,0,0-.01,0-.02,0-.08,0-.15,.06-.18,.13-.03,.08-.01,.16,.04,.2l.76,.63s.11,.03,.14-.02h0s.03-.11,0-.14l-.68-.58c.56,.06,.84,.11,1.39,.22h.02c.05,0,.1-.02,.13-.05,.01-.01,.03-.03,.04-.05,.03-.07,.02-.15-.03-.2l-.66-.67s-.11-.04-.15,0Z"/><path class="f" d="M50.84,25s-.05,.04-.04,.06c.02,.08,.02,.19,.01,.29-.12-.01-.18-.02-.29-.03-.03,0-.06,.02-.06,.05,0,.03,.01,.05,.04,.06,.12,.01,.18,.02,.3,.03-.01,.11-.02,.19-.02,.2,0,.03,.01,.05,.04,.06,.01,0,.03,0,.04-.01,.01,0,.02-.02,.02-.03,0,0,.01-.09,.03-.2,.12,.01,.18,.02,.29,.04,.01,0,.03,0,.04,0,.01,0,.02-.02,.02-.03,0-.03-.01-.05-.04-.06-.12-.02-.18-.03-.3-.04,0-.11,0-.23-.01-.33,0-.03-.03-.04-.06-.03Z"/></g><g><path class="f" d="M154.59,19.43c-.5,.44-.74,.67-1.19,1.16l-.32-.3c.13-.14,.19-.2,.32-.33h0s.04-.11,0-.15c-.04-.04-.1-.04-.15,0-.13,.13-.2,.2-.33,.34l-.34-.32s0-.01,0-.02c.21-.23,.32-.34,.54-.57,.04-.04,.05-.11,0-.15-.04-.04-.11-.04-.15,0-.22,.22-.33,.34-.55,.57-.09,.09-.09,.24,0,.31,.35,.32,.53,.49,.89,.81,.04,.04,.11,.03,.14,0,.48-.51,.73-.76,1.25-1.22,.04-.04,.05-.1,0-.14-.04-.04-.1-.05-.14,0Z"/><path class="f" d="M157.49,16.6s-.05,.01-.08,.01c-.02,0-.04,0-.06,.01-.15,.03-.28,.04-.34-.05-.03-.04-.04-.09-.02-.13,.02-.07,.09-.15,.19-.2,.13-.07,.22-.08,.34-.04,.05,.02,.12,0,.14-.06,.02-.05,0-.11-.05-.13-.18-.07-.34-.05-.53,.05-.07,.04-.25,.16-.3,.34-.03,.1,0,.2,.05,.29,.14,.21,.4,.16,.55,.13,.02,0,.04,0,.05,0,.03,0,.06,0,.09-.02,.18-.04,.3-.05,.38,.09,.02,.03,.02,.09,0,.14-.03,.08-.09,.14-.17,.18-.21,.1-.35,.01-.38,0-.05-.03-.11-.02-.14,.03-.03,.05-.02,.11,.02,.14,.04,.03,.28,.17,.59,.02h.03c.12-.08,.21-.18,.25-.3,.04-.1,.03-.21-.01-.3-.15-.28-.44-.22-.6-.19Z"/><path class="f" d="M158.49,16.08s-.05,0-.08,0c-.02,0-.04,0-.06,0-.15,.02-.28,.03-.33-.07-.03-.05-.03-.09-.02-.14,.02-.07,.1-.14,.2-.19,.13-.06,.22-.07,.34-.02,.05,.02,.12,0,.14-.05,.03-.05,0-.11-.05-.14-.18-.08-.34-.07-.53,.02-.08,.04-.26,.14-.32,.32-.03,.1-.02,.2,.03,.3,.13,.22,.4,.18,.54,.16,.02,0,.04,0,.05,0,.03,0,.06,0,.09-.01,.18-.02,.31-.03,.37,.11,.02,.04,.01,.09,0,.14-.03,.07-.1,.14-.18,.17-.21,.09-.35,0-.38-.03-.04-.03-.11-.03-.15,.02-.04,.04-.03,.11,.01,.14,.04,.03,.27,.19,.59,.06h.03c.12-.07,.22-.17,.26-.28,.04-.1,.04-.21,0-.3-.13-.29-.42-.25-.58-.23Z"/><path class="f" d="M155.88,16.77c-.39,.26-.34,.65-.31,.84,0,.02,0,.04,0,.06,0,.09,.04,.19,.07,.3,.08,.29,.13,.5,0,.6-.15,.11-.22,.17-.37,.29l-.29-.36c.1-.08,.15-.12,.25-.2h0c.09-.07,.18-.14,.27-.12,.02,0,.09,.02,.14,.05-.01-.07-.04-.15-.06-.24h-.04s-.09-.01-.14,0c.02-.1,0-.22-.1-.33-.18-.2-.5-.11-.63-.01-.14,.11-.44,.35-.64,.52-.05,.04-.07,.06-.11,.1h0s-.06,.08-.07,.13c0,.05,0,.1,.04,.13l.04,.05s.1,.04,.15,0c.04-.04,.05-.11,.01-.15l-.03-.03,.09-.08c.19-.16,.5-.41,.63-.51,.06-.04,.25-.11,.34,0,.13,.14,0,.31-.02,.34-.11,.08-.16,.12-.27,.2l-.16-.2s-.1-.05-.15-.01h0s-.06,.1-.02,.15l.6,.73s.07,.06,.12,.06c.05,0,.09,0,.13-.04h0c.15-.12,.23-.18,.38-.3,.26-.19,.16-.54,.08-.82-.03-.1-.05-.19-.06-.26,0-.02,0-.04,0-.07-.02-.17-.06-.45,.21-.63,.17-.11,.56-.21,.8,.18,.2,.33,.04,.61-.16,.75-.24,.17-.47,.07-.51,.05-.02-.01-.04-.02-.04-.02-.07-.05-.15-.11-.21-.16,.01,.05,.02,.1,.04,.16,.01,.05,.03,.11,.04,.17h0s.03,.02,.05,.04h.03c.12,.07,.34,.13,.6,0h0s.08-.04,.11-.07c.28-.2,.48-.6,.23-1.02-.29-.49-.82-.42-1.09-.24Z"/><path class="f" d="M154.29,18.34h0s-.05,.1-.02,.15l.55,.65c-.53-.17-.8-.24-1.35-.37h-.02c-.08,0-.15,.04-.19,.11-.04,.07-.03,.15,.02,.21,.27,.28,.41,.43,.68,.71,.04,.04,.1,.04,.14,0h0s.04-.1,0-.14l-.61-.65c.55,.13,.82,.2,1.35,.37h.02c.05,.01,.1,0,.14-.04,.02-.01,.03-.03,.04-.05,.04-.07,.03-.15-.02-.2l-.6-.72s-.1-.05-.15,0Z"/><path class="f" d="M156.34,17.01s-.05,.03-.04,.06c.01,.08,0,.19,0,.28-.11-.02-.17-.03-.29-.05-.03,0-.06,.01-.06,.04,0,.03,.01,.05,.04,.06,.12,.02,.18,.03,.3,.05-.02,.11-.03,.19-.03,.19,0,.03,.01,.05,.04,.06,.01,0,.03,0,.04,0,.01,0,.02-.02,.02-.03,0,0,.02-.09,.04-.19,.12,.02,.17,.03,.29,.06,.01,0,.03,0,.04,0,.01,0,.02-.02,.02-.03,0-.03-.01-.05-.04-.06-.12-.02-.18-.04-.3-.06,.01-.11,.02-.23,0-.33,0-.03-.03-.04-.06-.04Z"/></g><g><path class="f" d="M8.12,33.89c-.49,.46-.72,.71-1.14,1.25l-.34-.27c.12-.15,.18-.22,.31-.37h0s.04-.11,0-.15c-.04-.04-.11-.03-.15,.02-.13,.15-.19,.22-.31,.38l-.36-.29s0-.01,0-.02c.2-.26,.31-.39,.53-.63,.04-.05,.04-.12,0-.15-.04-.04-.11-.03-.15,.02-.22,.25-.33,.38-.53,.64-.08,.11-.07,.25,.02,.32,.38,.29,.57,.44,.96,.73,.04,.03,.11,.02,.14-.02,.43-.56,.67-.82,1.18-1.31,.04-.04,.04-.1,0-.14-.04-.04-.1-.04-.14,0Z"/><path class="f" d="M11.15,31.08s-.06,0-.08,0c-.02,0-.04,0-.07,0-.15,.02-.29,.03-.34-.07-.03-.05-.03-.09-.01-.14,.03-.07,.11-.15,.22-.19,.14-.06,.23-.07,.36-.01,.05,.02,.12,0,.15-.05,.03-.05,.01-.11-.04-.14-.18-.08-.35-.08-.55,.02-.08,.04-.27,.14-.34,.33-.04,.1-.03,.2,.03,.3,.13,.22,.4,.18,.55,.16,.02,0,.04,0,.06,0,.03,0,.06,0,.09-.01,.18-.02,.32-.02,.38,.12,.02,.04,.01,.09-.01,.14-.03,.07-.1,.13-.19,.17-.22,.09-.36-.01-.38-.03-.04-.04-.11-.03-.15,.02-.04,.04-.03,.11,.01,.14,.04,.03,.27,.19,.59,.06h.03c.12-.07,.22-.16,.27-.28,.05-.1,.05-.21,.02-.3-.12-.29-.42-.26-.59-.24Z"/><path class="f" d="M12.24,30.66s-.06,0-.08,0c-.02,0-.04,0-.07,0-.16,0-.29,0-.33-.1-.02-.05-.02-.09,0-.14,.03-.07,.12-.13,.23-.17,.15-.05,.24-.05,.36,.02,.05,.03,.12,.01,.16-.04,.04-.05,.02-.11-.03-.14-.17-.1-.34-.11-.55-.04-.08,.03-.29,.12-.37,.29-.05,.1-.05,.2,0,.3,.11,.23,.38,.22,.53,.21,.02,0,.04,0,.06,0,.03,0,.06,0,.09,0,.18,0,.32,0,.36,.15,.01,.04,0,.09-.02,.14-.04,.07-.11,.13-.2,.15-.23,.07-.35-.04-.38-.07-.04-.04-.11-.04-.15,0-.04,.04-.04,.11,0,.14,.04,.04,.25,.21,.59,.11h.03c.13-.05,.24-.14,.3-.25,.06-.1,.07-.2,.05-.29-.09-.3-.4-.3-.57-.29Z"/><path class="f" d="M9.48,31.19c-.42,.25-.38,.66-.36,.84,0,.02,0,.04,0,.06,0,.09,.03,.19,.06,.3,.07,.29,.12,.5-.02,.6-.15,.11-.23,.17-.37,.29l-.29-.36c.1-.08,.15-.12,.26-.2h0c.09-.07,.19-.14,.28-.13,.02,0,.09,.02,.14,.05-.01-.07-.03-.16-.06-.25h-.04s-.1-.01-.14,0c.02-.11,0-.22-.1-.33-.18-.2-.51-.1-.64,0-.14,.11-.46,.37-.66,.55-.05,.04-.07,.06-.12,.1h0s-.07,.09-.07,.14c0,.05,.01,.1,.04,.13l.05,.05s.11,.04,.15,0c.05-.04,.05-.11,.01-.15l-.03-.03s.06-.05,.09-.08c.2-.17,.51-.43,.65-.54,.06-.05,.26-.12,.35-.01,.13,.14,0,.31-.03,.35-.11,.08-.17,.13-.27,.21l-.17-.2s-.1-.05-.15,0h0s-.06,.11-.02,.15l.61,.72s.07,.06,.12,.06c.05,0,.09-.01,.13-.04h0c.15-.13,.23-.19,.39-.31,.26-.19,.17-.54,.1-.83-.02-.1-.05-.19-.05-.27,0-.02,0-.04,0-.07-.02-.17-.04-.45,.25-.63,.18-.11,.59-.2,.81,.21,.18,.34,0,.61-.21,.74-.25,.16-.48,.06-.51,.04-.02-.01-.04-.02-.04-.03-.07-.05-.15-.11-.21-.17,0,.05,.02,.1,.03,.16,.01,.05,.03,.11,.04,.17h0s.03,.02,.05,.04h.03c.12,.07,.34,.14,.6,.02h0s.08-.04,.12-.06c.3-.19,.52-.58,.3-1.02-.26-.51-.81-.45-1.1-.28Z"/><path class="f" d="M7.8,32.8h0s-.05,.11-.02,.15c.23,.25,.34,.38,.57,.64-.54-.15-.81-.21-1.38-.31,0,0-.01,0-.02,0-.08,0-.15,.05-.19,.13-.04,.08-.02,.16,.03,.21,.29,.27,.43,.4,.72,.67,.04,.04,.11,.03,.15,0h0s.04-.11,0-.15c-.26-.25-.39-.37-.64-.62,.56,.09,.84,.15,1.37,.3h.02c.05,0,.1,0,.14-.04,.02-.01,.03-.03,.04-.05,.04-.07,.03-.15-.02-.21l-.61-.71s-.1-.04-.15,0Z"/><path class="f" d="M9.95,31.45s-.05,.03-.05,.06c0,.08,0,.19-.02,.29-.12-.02-.17-.04-.29-.06-.03,0-.06,.01-.07,.04,0,.03,0,.05,.04,.06,.12,.02,.18,.03,.3,.06-.02,.11-.04,.19-.04,.19,0,.03,0,.05,.04,.06,.01,0,.03,0,.04,0,.01,0,.02-.02,.02-.03,0,0,.02-.09,.05-.19,.12,.03,.17,.04,.29,.07,.01,0,.03,0,.04,0,.01,0,.02-.02,.02-.03,0-.03,0-.05-.03-.06-.12-.03-.18-.04-.3-.07,.02-.11,.03-.23,.02-.33,0-.03-.03-.05-.06-.04Z"/></g></g></g></g></svg>