<?xml version="1.0" encoding="UTF-8"?><svg xmlns="http://www.w3.org/2000/svg" viewBox="0 0 214.29 57.52"><defs><style>.d{opacity:.5;}.e{fill:#335799;}</style></defs><g id="a"/><g id="b"><g id="c"><g><g><g><path class="e" d="M106.85,1.31c12.21,0,22.14,9.93,22.14,22.14s-9.93,22.14-22.14,22.14-22.14-9.93-22.14-22.14S94.64,1.31,106.85,1.31m0-1c-12.78,0-23.14,10.36-23.14,23.14s10.36,23.14,23.14,23.14,23.14-10.36,23.14-23.14S119.64,.31,106.85,.31h0Z"/><g><path class="e" d="M106.85,10.44c7.18,0,13.02,5.84,13.02,13.02s-5.84,13.02-13.02,13.02-13.02-5.84-13.02-13.02,5.84-13.02,13.02-13.02m0-1c-7.74,0-14.02,6.28-14.02,14.02s6.28,14.02,14.02,14.02,14.02-6.28,14.02-14.02-6.28-14.02-14.02-14.02h0Z"/><g class="d"><path class="e" d="M106.85,9.44c-7.74,0-14.02,6.28-14.02,14.02s6.28,14.02,14.02,14.02,14.02-6.28,14.02-14.02-6.28-14.02-14.02-14.02Zm10.73,9.29c.14,.34-.72,1.03-1.92,1.54-1.21,.51-2.3,.65-2.44,.31-.14-.34,.72-1.03,1.92-1.54s2.3-.65,2.44-.31Zm-4.74-2.49c.93-.93,1.89-1.46,2.15-1.2s-.28,1.23-1.2,2.15c-.93,.93-1.89,1.46-2.15,1.2-.26-.26,.28-1.22,1.2-2.15Zm-1.21,7.21c0,2.64-2.14,4.78-4.78,4.78s-4.78-2.14-4.78-4.78,2.14-4.78,4.78-4.78,4.78,2.14,4.78,4.78Zm-1.95-8.93c.51-1.21,1.2-2.06,1.54-1.92,.34,.14,.2,1.24-.31,2.44s-1.2,2.06-1.54,1.92c-.34-.14-.2-1.24,.31-2.44Zm-3.07-2.77c.37,0,.67,1.06,.67,2.37s-.3,2.37-.67,2.37-.67-1.06-.67-2.37,.3-2.37,.67-2.37Zm-4.56,1.01c.34-.14,1.03,.72,1.54,1.92s.65,2.3,.31,2.44c-.34,.14-1.03-.72-1.54-1.92-.51-1.21-.65-2.3-.31-2.44Zm-3.69,2.59c.26-.26,1.22,.28,2.15,1.2s1.46,1.89,1.2,2.15-1.22-.28-2.15-1.2-1.46-1.89-1.2-2.15Zm-2.44,3.77c.14-.34,1.24-.2,2.44,.31,1.21,.51,2.06,1.2,1.92,1.54-.14,.34-1.24,.2-2.44-.31-1.21-.51-2.06-1.2-1.92-1.54Zm-.85,4.61c0-.37,1.06-.67,2.37-.67s2.37,.3,2.37,.67-1.06,.67-2.37,.67-2.37-.3-2.37-.67Zm1.01,4.56c-.14-.34,.72-1.03,1.92-1.54,1.21-.51,2.3-.65,2.44-.31s-.72,1.03-1.92,1.54c-1.21,.51-2.3,.65-2.44,.31Zm4.74,2.49c-.93,.93-1.89,1.46-2.15,1.2s.28-1.23,1.2-2.15,1.89-1.46,2.15-1.2-.28,1.22-1.2,2.15Zm3.16,1.72c-.51,1.21-1.2,2.06-1.54,1.92-.34-.14-.2-1.24,.31-2.44s1.2-2.06,1.54-1.92c.34,.14,.2,1.24-.31,2.44Zm3.07,2.77c-.37,0-.67-1.06-.67-2.37s.3-2.37,.67-2.37,.67,1.06,.67,2.37-.3,2.37-.67,2.37Zm4.56-1.01c-.34,.14-1.03-.72-1.54-1.92-.51-1.21-.65-2.3-.3-2.44,.34-.14,1.03,.72,1.54,1.92,.51,1.21,.65,2.3,.31,2.44Zm3.69-2.59c-.26,.26-1.23-.28-2.15-1.2-.93-.93-1.46-1.89-1.2-2.15s1.23,.28,2.15,1.2c.93,.93,1.46,1.89,1.2,2.15Zm2.44-3.77c-.14,.34-1.24,.2-2.44-.31s-2.06-1.2-1.92-1.54c.14-.34,1.24-.2,2.44,.31s2.06,1.2,1.92,1.54Zm-1.52-3.94c-1.31,0-2.37-.3-2.37-.67s1.06-.67,2.37-.67,2.37,.3,2.37,.67-1.06,.67-2.37,.67Z"/></g><path class="e" d="M106.85,18.68c2.64,0,4.78,2.14,4.78,4.78s-2.14,4.78-4.78,4.78-4.78-2.14-4.78-4.78,2.14-4.78,4.78-4.78m0-1c-3.19,0-5.78,2.59-5.78,5.78s2.59,5.78,5.78,5.78,5.78-2.59,5.78-5.78-2.59-5.78-5.78-5.78h0Z"/><g><path class="e" d="M106.62,11.76c.37,0,.67,1.06,.67,2.37s-.3,2.37-.67,2.37-.67-1.06-.67-2.37,.3-2.37,.67-2.37m0-.5c-1.09,0-1.17,2.2-1.17,2.87s.08,2.87,1.17,2.87,1.17-2.2,1.17-2.87-.08-2.87-1.17-2.87h0Z"/><path class="e" d="M97.45,23.06c1.31,0,2.37,.3,2.37,.67s-1.06,.67-2.37,.67-2.37-.3-2.37-.67,1.06-.67,2.37-.67m0-.5c-.67,0-2.87,.08-2.87,1.17s2.2,1.17,2.87,1.17,2.87-.08,2.87-1.17-2.2-1.17-2.87-1.17h0Z"/><path class="e" d="M116.23,22.62c1.31,0,2.37,.3,2.37,.67s-1.06,.67-2.37,.67-2.37-.3-2.37-.67,1.06-.67,2.37-.67m0-.5c-.67,0-2.87,.08-2.87,1.17s2.2,1.17,2.87,1.17,2.87-.08,2.87-1.17-2.2-1.17-2.87-1.17h0Z"/><path class="e" d="M107.06,30.53c.37,0,.67,1.06,.67,2.37s-.3,2.37-.67,2.37-.67-1.06-.67-2.37,.3-2.37,.67-2.37m0-.5c-1.09,0-1.17,2.2-1.17,2.87s.08,2.87,1.17,2.87,1.17-2.2,1.17-2.87-.08-2.87-1.17-2.87h0Z"/><path class="e" d="M109.85,29.88c.36,0,.99,.82,1.46,1.94,.51,1.21,.65,2.3,.31,2.44-.03,.01-.05,.02-.08,.02-.36,0-.99-.82-1.46-1.94-.51-1.21-.65-2.3-.31-2.44,.03-.01,.05-.02,.08-.02m0-.5c-.1,0-.19,.02-.28,.06-1,.42-.22,2.48,.04,3.1,.22,.53,1.02,2.24,1.92,2.24,.1,0,.19-.02,.28-.06,1-.42,.22-2.48-.04-3.1-.22-.53-1.02-2.24-1.92-2.24h0Z"/><path class="e" d="M117.07,18.54c.27,0,.46,.06,.51,.19,.14,.34-.72,1.03-1.92,1.54-.76,.32-1.47,.49-1.93,.49-.27,0-.46-.06-.51-.19-.14-.34,.72-1.03,1.92-1.54,.76-.32,1.47-.49,1.93-.49m0-.5c-.55,0-1.33,.19-2.13,.53-.62,.26-1.19,.59-1.59,.9-.57,.46-.77,.89-.6,1.29,.1,.22,.34,.49,.97,.49,.55,0,1.33-.19,2.13-.53,.62-.26,2.61-1.2,2.19-2.2-.1-.23-.34-.49-.97-.49h0Z"/><path class="e" d="M99.95,26.26c.27,0,.46,.06,.51,.19,.14,.34-.72,1.03-1.92,1.54-.76,.32-1.47,.49-1.93,.49-.27,0-.46-.06-.51-.19-.14-.34,.72-1.03,1.92-1.54,.76-.32,1.47-.49,1.93-.49m0-.5c-.55,0-1.33,.19-2.13,.53-.62,.26-2.61,1.2-2.19,2.2,.1,.23,.34,.49,.97,.49,.55,0,1.33-.19,2.13-.53,.62-.26,1.19-.59,1.59-.9,.57-.46,.77-.89,.6-1.29-.1-.22-.34-.49-.97-.49h0Z"/><path class="e" d="M102.14,12.76c.36,0,.99,.82,1.46,1.94,.51,1.21,.65,2.3,.31,2.44-.03,.01-.05,.02-.08,.02-.36,0-.99-.82-1.46-1.94-.51-1.21-.65-2.3-.31-2.44,.03-.01,.05-.02,.08-.02m0-.5c-.1,0-.19,.02-.28,.06-1,.42-.22,2.48,.04,3.1,.22,.53,1.02,2.24,1.92,2.24,.1,0,.19-.02,.28-.06,1-.42,.22-2.48-.04-3.1-.22-.53-1.02-2.24-1.92-2.24h0Z"/><path class="e" d="M113.89,25.87c.46,0,1.18,.17,1.93,.5,1.21,.51,2.06,1.2,1.92,1.54-.05,.13-.24,.19-.51,.19-.46,0-1.18-.17-1.93-.5-1.21-.51-2.06-1.2-1.92-1.54,.05-.13,.24-.19,.51-.19m0-.5c-.63,0-.88,.27-.97,.49-.42,1,1.56,1.94,2.18,2.2,.8,.34,1.58,.54,2.13,.54,.63,0,.88-.27,.97-.49,.17-.4-.03-.84-.6-1.29-.4-.32-.96-.64-1.58-.91-.8-.34-1.58-.54-2.13-.54h0Z"/><path class="e" d="M111.15,12.59s.06,0,.08,.02c.34,.14,.2,1.24-.31,2.44-.47,1.12-1.1,1.94-1.46,1.94-.03,0-.06,0-.08-.02-.34-.14-.2-1.24,.31-2.44,.47-1.12,1.1-1.94,1.46-1.94m0-.5c-.9,0-1.7,1.71-1.92,2.24-.26,.62-1.04,2.68-.04,3.1,.09,.04,.18,.06,.28,.06,.9,0,1.7-1.71,1.92-2.24,.26-.62,.45-1.25,.51-1.75,.09-.72-.07-1.18-.47-1.35-.09-.04-.18-.06-.28-.06h0Z"/><path class="e" d="M104.22,30.04s.06,0,.08,.02c.34,.14,.2,1.24-.31,2.44-.47,1.12-1.1,1.94-1.46,1.94-.03,0-.06,0-.08-.02-.34-.14-.2-1.24,.31-2.44,.47-1.12,1.1-1.94,1.46-1.94m0-.5c-.9,0-1.7,1.71-1.92,2.24-.26,.62-.45,1.25-.51,1.75-.09,.72,.07,1.18,.47,1.35,.09,.04,.18,.06,.28,.06,.9,0,1.7-1.71,1.92-2.24,.26-.62,1.04-2.68,.04-3.1-.09-.04-.18-.06-.28-.06h0Z"/><path class="e" d="M114.8,14.98c.08,0,.15,.02,.19,.07,.26,.26-.28,1.23-1.2,2.15-.77,.77-1.56,1.27-1.96,1.27-.08,0-.15-.02-.19-.07-.26-.26,.28-1.23,1.2-2.15,.77-.77,1.56-1.27,1.96-1.27m0-.5c-.66,0-1.63,.73-2.31,1.41-.48,.48-1.97,2.09-1.2,2.86,.1,.1,.27,.21,.55,.21,.66,0,1.63-.73,2.31-1.41,.48-.48,1.97-2.09,1.2-2.86-.1-.1-.27-.21-.55-.21h0Z"/><path class="e" d="M98.56,15.29c.4,0,1.19,.5,1.96,1.27,.93,.93,1.46,1.89,1.2,2.15-.04,.04-.11,.07-.19,.07-.4,0-1.19-.5-1.96-1.27-.93-.93-1.46-1.89-1.2-2.15,.04-.04,.11-.07,.19-.07m0-.5c-.28,0-.45,.12-.55,.21-.77,.77,.73,2.38,1.2,2.86,.68,.68,1.65,1.41,2.31,1.41,.28,0,.45-.12,.55-.21,.77-.77-.73-2.38-1.2-2.86-.68-.68-1.65-1.41-2.31-1.41h0Z"/><path class="e" d="M112.15,28.25c.4,0,1.19,.5,1.96,1.27,.93,.93,1.46,1.89,1.2,2.15-.04,.04-.11,.07-.19,.07-.4,0-1.19-.5-1.96-1.27-.93-.93-1.46-1.89-1.2-2.15,.04-.04,.11-.07,.19-.07m0-.5c-.28,0-.45,.12-.55,.21-.77,.77,.73,2.38,1.2,2.86,.68,.68,1.65,1.41,2.31,1.41,.28,0,.45-.12,.55-.21,.77-.77-.73-2.38-1.2-2.86-.68-.68-1.65-1.41-2.31-1.41h0Z"/><path class="e" d="M101.84,28.57c.08,0,.15,.02,.19,.07,.26,.26-.28,1.23-1.2,2.15-.77,.77-1.56,1.27-1.96,1.27-.08,0-.15-.02-.19-.07-.26-.26,.28-1.23,1.2-2.15,.77-.77,1.56-1.27,1.96-1.27m0-.5c-.66,0-1.63,.73-2.31,1.41-.48,.48-1.97,2.09-1.2,2.86,.1,.1,.27,.21,.55,.21,.66,0,1.63-.73,2.31-1.41,.48-.48,1.97-2.09,1.2-2.86-.1-.1-.27-.21-.55-.21h0Z"/><path class="e" d="M96.44,18.94c.46,0,1.18,.17,1.93,.5,1.21,.51,2.06,1.2,1.92,1.54-.05,.13-.24,.19-.51,.19-.46,0-1.18-.17-1.93-.5-1.21-.51-2.06-1.2-1.92-1.54,.05-.13,.24-.19,.51-.19m0-.5c-.63,0-.88,.27-.97,.49-.17,.4,.03,.84,.6,1.29,.4,.32,.96,.64,1.58,.91,.8,.34,1.58,.54,2.13,.54,.63,0,.88-.27,.97-.49,.42-1-1.56-1.94-2.18-2.2-.8-.34-1.58-.54-2.13-.54h0Z"/></g></g></g><g><path class="e" d="M90.55,57.08c-.2-.08-.35-.2-.46-.36-.11-.16-.17-.34-.18-.55h.75c.01,.14,.06,.26,.15,.34,.09,.08,.22,.12,.38,.12s.29-.04,.38-.12c.09-.08,.14-.18,.14-.31,0-.1-.03-.19-.1-.26-.06-.07-.14-.12-.24-.16-.1-.04-.23-.08-.39-.13-.23-.07-.41-.13-.55-.2-.14-.06-.26-.16-.37-.29-.1-.13-.15-.31-.15-.53,0-.21,.05-.39,.15-.54s.25-.27,.44-.35c.19-.08,.4-.12,.64-.12,.36,0,.65,.09,.88,.26,.23,.17,.35,.42,.37,.73h-.77c0-.12-.06-.22-.15-.3-.09-.08-.22-.12-.38-.12-.14,0-.25,.04-.33,.1-.08,.07-.12,.17-.12,.31,0,.09,.03,.17,.09,.23s.14,.11,.23,.15c.09,.04,.22,.08,.39,.13,.23,.07,.41,.13,.55,.2,.14,.07,.27,.17,.37,.3,.1,.13,.16,.31,.16,.53,0,.19-.05,.36-.15,.52s-.24,.29-.43,.38c-.19,.09-.41,.14-.67,.14-.24,0-.46-.04-.66-.12Z"/><path class="e" d="M95.46,55.28c-.09,.16-.23,.29-.42,.39-.19,.1-.43,.15-.71,.15h-.58v1.34h-.7v-3.49h1.28c.27,0,.5,.05,.69,.14,.19,.09,.33,.22,.43,.39,.09,.16,.14,.35,.14,.55,0,.19-.04,.36-.13,.53Zm-.73-.15c.09-.09,.14-.21,.14-.37,0-.34-.19-.51-.57-.51h-.56v1.01h.56c.19,0,.34-.04,.43-.13Z"/><path class="e" d="M96.81,56.97c-.27-.15-.49-.37-.65-.64-.16-.27-.24-.58-.24-.92s.08-.65,.24-.92,.38-.48,.65-.64,.57-.23,.9-.23,.63,.08,.9,.23c.27,.15,.49,.37,.65,.64,.16,.27,.24,.58,.24,.92s-.08,.65-.24,.92c-.16,.27-.37,.48-.65,.64-.27,.15-.57,.23-.9,.23s-.63-.08-.9-.23Zm1.46-.54c.16-.1,.29-.23,.38-.41,.09-.18,.13-.38,.13-.61s-.04-.44-.13-.61c-.09-.17-.21-.31-.38-.4-.16-.09-.35-.14-.56-.14s-.4,.05-.56,.14c-.16,.09-.29,.23-.38,.4-.09,.18-.13,.38-.13,.61s.04,.44,.13,.61c.09,.18,.22,.31,.38,.41,.16,.09,.35,.14,.56,.14s.4-.05,.56-.14Z"/><path class="e" d="M101.98,57.17l-1.27-1.56v1.56h-.7v-3.49h.7v1.57l1.27-1.57h.85l-1.44,1.73,1.48,1.76h-.89Z"/><path class="e" d="M104.03,54.24v.88h1.18v.55h-1.18v.92h1.33v.57h-2.02v-3.5h2.02v.57h-1.33Z"/><path class="e" d="M108.18,53.89c.28,.14,.49,.35,.65,.61,.15,.27,.23,.57,.23,.92s-.08,.66-.23,.92c-.15,.26-.37,.46-.65,.61-.28,.14-.6,.21-.97,.21h-1.22v-3.49h1.22c.37,0,.69,.07,.97,.21Zm-.14,2.38c.2-.2,.3-.48,.3-.84s-.1-.65-.3-.85c-.2-.21-.48-.31-.85-.31h-.5v2.3h.5c.37,0,.65-.1,.85-.3Z"/><path class="e" d="M110.83,54.5c.15-.27,.37-.48,.63-.63,.27-.15,.57-.23,.9-.23,.39,0,.73,.1,1.03,.3,.29,.2,.5,.48,.61,.83h-.81c-.08-.17-.19-.29-.34-.38s-.31-.12-.5-.12c-.2,0-.38,.05-.54,.14s-.28,.23-.37,.4c-.09,.17-.13,.38-.13,.61s.04,.43,.13,.61,.21,.31,.37,.41c.16,.09,.34,.14,.54,.14,.19,0,.36-.04,.5-.13s.26-.21,.34-.38h.81c-.12,.36-.32,.63-.61,.83-.29,.2-.63,.3-1.03,.3-.33,0-.63-.08-.9-.23-.27-.15-.48-.36-.63-.63-.16-.27-.23-.58-.23-.92s.08-.65,.23-.92Z"/><path class="e" d="M115.32,56.97c-.27-.15-.49-.37-.65-.64-.16-.27-.24-.58-.24-.92s.08-.65,.24-.92,.38-.48,.65-.64,.57-.23,.9-.23,.63,.08,.9,.23c.27,.15,.49,.37,.65,.64,.16,.27,.24,.58,.24,.92s-.08,.65-.24,.92c-.16,.27-.37,.48-.65,.64-.27,.15-.57,.23-.9,.23s-.63-.08-.9-.23Zm1.46-.54c.16-.1,.29-.23,.38-.41,.09-.18,.13-.38,.13-.61s-.04-.44-.13-.61c-.09-.17-.21-.31-.38-.4-.16-.09-.35-.14-.56-.14s-.4,.05-.56,.14c-.16,.09-.29,.23-.38,.4-.09,.18-.13,.38-.13,.61s.04,.44,.13,.61c.09,.18,.22,.31,.38,.41,.16,.09,.35,.14,.56,.14s.4-.05,.56-.14Z"/><path class="e" d="M120.33,57.17l-.77-1.36h-.33v1.36h-.7v-3.49h1.31c.27,0,.5,.05,.69,.14,.19,.09,.33,.22,.43,.38,.1,.16,.14,.34,.14,.54,0,.23-.07,.44-.2,.62-.13,.19-.33,.31-.59,.38l.83,1.42h-.81Zm-1.1-1.88h.58c.19,0,.33-.05,.43-.14,.09-.09,.14-.22,.14-.38s-.05-.28-.14-.37c-.09-.09-.24-.13-.43-.13h-.58v1.03Z"/><path class="e" d="M122.43,54.24v.88h1.18v.55h-1.18v.92h1.33v.57h-2.02v-3.5h2.02v.57h-1.33Z"/></g></g><g><g><g class="d"><path class="e" d="M23.48,9.59c-7.75,0-14.03,6.28-14.03,14.03s6.28,14.03,14.03,14.03,14.03-6.28,14.03-14.03-6.28-14.03-14.03-14.03Zm0,18.43c-2.43,0-4.4-1.97-4.4-4.4s1.97-4.4,4.4-4.4,4.4,1.97,4.4,4.4-1.97,4.4-4.4,4.4Z"/></g><path class="e" d="M23.48,1.15c12.39,0,22.48,10.08,22.48,22.48s-10.08,22.48-22.48,22.48S1,36.02,1,23.62,11.08,1.15,23.48,1.15m0-1C10.51,.15,0,10.66,0,23.62s10.51,23.48,23.48,23.48,23.48-10.51,23.48-23.48S36.45,.15,23.48,.15h0Z"/><path class="e" d="M23.48,10.59c7.19,0,13.03,5.85,13.03,13.03s-5.85,13.03-13.03,13.03-13.03-5.85-13.03-13.03,5.85-13.03,13.03-13.03m0-1c-7.75,0-14.03,6.28-14.03,14.03s6.28,14.03,14.03,14.03,14.03-6.28,14.03-14.03-6.28-14.03-14.03-14.03h0Z"/><path class="e" d="M23.48,19.23c2.43,0,4.4,1.97,4.4,4.4s-1.97,4.4-4.4,4.4-4.4-1.97-4.4-4.4,1.97-4.4,4.4-4.4m0-1c-2.98,0-5.4,2.42-5.4,5.4s2.42,5.4,5.4,5.4,5.4-2.42,5.4-5.4-2.42-5.4-5.4-5.4h0Z"/></g><g><path class="e" d="M9.84,57.25c-.2-.08-.35-.2-.46-.36-.11-.16-.17-.34-.18-.55h.75c.01,.14,.06,.26,.15,.34,.09,.08,.22,.12,.38,.12s.29-.04,.38-.12c.09-.08,.14-.18,.14-.31,0-.1-.03-.19-.1-.26-.06-.07-.14-.12-.24-.16-.1-.04-.23-.08-.39-.13-.23-.07-.41-.13-.55-.2-.14-.06-.26-.16-.37-.29-.1-.13-.15-.31-.15-.53,0-.21,.05-.39,.15-.54s.25-.27,.44-.35c.19-.08,.4-.12,.64-.12,.36,0,.65,.09,.88,.26,.23,.17,.35,.42,.37,.73h-.77c0-.12-.06-.22-.15-.3-.09-.08-.22-.12-.38-.12-.14,0-.25,.04-.33,.1-.08,.07-.12,.17-.12,.31,0,.09,.03,.17,.09,.23s.14,.11,.23,.15c.09,.04,.22,.08,.39,.13,.23,.07,.41,.13,.55,.2,.14,.07,.27,.17,.37,.3,.1,.13,.16,.31,.16,.53,0,.19-.05,.36-.15,.52s-.24,.29-.43,.38c-.19,.09-.41,.14-.67,.14-.24,0-.46-.04-.66-.12Z"/><path class="e" d="M13.06,57.14c-.27-.15-.49-.37-.65-.64-.16-.27-.24-.58-.24-.92s.08-.65,.24-.92,.38-.48,.65-.64,.57-.23,.9-.23,.63,.08,.9,.23c.27,.15,.49,.37,.65,.64,.16,.27,.24,.58,.24,.92s-.08,.65-.24,.92c-.16,.27-.37,.48-.65,.64-.27,.15-.57,.23-.9,.23s-.63-.08-.9-.23Zm1.46-.54c.16-.1,.29-.23,.38-.41,.09-.18,.13-.38,.13-.61s-.04-.44-.13-.61c-.09-.17-.21-.31-.38-.4-.16-.09-.35-.14-.56-.14s-.4,.05-.56,.14c-.16,.09-.29,.23-.38,.4-.09,.18-.13,.38-.13,.61s.04,.44,.13,.61c.09,.18,.22,.31,.38,.41,.16,.09,.35,.14,.56,.14s.4-.05,.56-.14Z"/><path class="e" d="M16.96,56.78h1.15v.56h-1.85v-3.49h.7v2.93Z"/><path class="e" d="M19.26,53.85v3.49h-.7v-3.49h.7Z"/><path class="e" d="M22.14,54.06c.28,.14,.49,.35,.65,.61,.15,.27,.23,.57,.23,.92s-.08,.66-.23,.92c-.15,.26-.37,.46-.65,.61-.28,.14-.6,.21-.97,.21h-1.22v-3.49h1.22c.37,0,.69,.07,.97,.21Zm-.14,2.38c.2-.2,.3-.48,.3-.84s-.1-.65-.3-.85c-.2-.21-.48-.31-.85-.31h-.5v2.3h.5c.37,0,.65-.1,.85-.3Z"/><path class="e" d="M24.79,54.66c.15-.27,.37-.48,.63-.63,.27-.15,.57-.23,.9-.23,.39,0,.73,.1,1.03,.3,.29,.2,.5,.48,.61,.83h-.81c-.08-.17-.19-.29-.34-.38s-.31-.12-.5-.12c-.2,0-.38,.05-.54,.14s-.28,.23-.37,.4c-.09,.17-.13,.38-.13,.61s.04,.43,.13,.61,.21,.31,.37,.41c.16,.09,.34,.14,.54,.14,.19,0,.36-.04,.5-.13s.26-.21,.34-.38h.81c-.12,.36-.32,.63-.61,.83-.29,.2-.63,.3-1.03,.3-.33,0-.63-.08-.9-.23-.27-.15-.48-.36-.63-.63-.16-.27-.23-.58-.23-.92s.08-.65,.23-.92Z"/><path class="e" d="M29.28,57.14c-.27-.15-.49-.37-.65-.64-.16-.27-.24-.58-.24-.92s.08-.65,.24-.92,.38-.48,.65-.64,.57-.23,.9-.23,.63,.08,.9,.23c.27,.15,.49,.37,.65,.64,.16,.27,.24,.58,.24,.92s-.08,.65-.24,.92c-.16,.27-.37,.48-.65,.64-.27,.15-.57,.23-.9,.23s-.63-.08-.9-.23Zm1.46-.54c.16-.1,.29-.23,.38-.41,.09-.18,.13-.38,.13-.61s-.04-.44-.13-.61c-.09-.17-.21-.31-.38-.4-.16-.09-.35-.14-.56-.14s-.4,.05-.56,.14c-.16,.09-.29,.23-.38,.4-.09,.18-.13,.38-.13,.61s.04,.44,.13,.61c.09,.18,.22,.31,.38,.41,.16,.09,.35,.14,.56,.14s.4-.05,.56-.14Z"/><path class="e" d="M34.29,57.34l-.77-1.36h-.33v1.36h-.7v-3.49h1.31c.27,0,.5,.05,.69,.14,.19,.09,.33,.22,.43,.38,.1,.16,.14,.34,.14,.54,0,.23-.07,.44-.2,.62-.13,.19-.33,.31-.59,.38l.83,1.42h-.81Zm-1.1-1.88h.58c.19,0,.33-.05,.43-.14,.09-.09,.14-.22,.14-.38s-.05-.28-.14-.37c-.09-.09-.24-.13-.43-.13h-.58v1.03Z"/><path class="e" d="M36.39,54.41v.88h1.18v.55h-1.18v.92h1.33v.57h-2.02v-3.5h2.02v.57h-1.33Z"/></g></g><g><g><g class="d"><path class="e" d="M190.52,9.33c-7.98,0-14.44,6.47-14.44,14.44s6.47,14.44,14.44,14.44,14.44-6.47,14.44-14.44-6.47-14.44-14.44-14.44Zm-1.25,2.63h2.36c.46,0,.84,.38,.84,.84l-.42,3.55c0,.46-.38,.84-.84,.84h-1.45c-.46,0-.84-.38-.84-.84l-.48-3.55c0-.46,.38-.84,.84-.84Zm-4.74,16.76l-2.82,2.2c-.4,.23-.91,.09-1.14-.3l-1.18-2.04c-.23-.4-.09-.91,.3-1.14l3.28-1.42c.4-.23,.91-.09,1.14,.3l.73,1.26c.23,.4,.09,.91-.3,1.14Zm5.99-.26c-2.59,0-4.69-2.1-4.69-4.69s2.1-4.69,4.69-4.69,4.69,2.1,4.69,4.69-2.1,4.69-4.69,4.69Zm9.54,2.71c-.25,.39-.77,.5-1.16,.25l-2.76-2.27c-.39-.25-.5-.77-.25-1.16l.78-1.22c.25-.39,.77-.5,1.16-.25l3.25,1.51c.39,.25,.5,.77,.25,1.16l-1.27,1.98Z"/></g><path class="e" d="M190.52,1c12.56,0,22.77,10.21,22.77,22.77s-10.21,22.77-22.77,22.77-22.77-10.21-22.77-22.77S177.97,1,190.52,1m0-1c-13.13,0-23.77,10.64-23.77,23.77s10.64,23.77,23.77,23.77,23.77-10.64,23.77-23.77S203.65,0,190.52,0h0Z"/><path class="e" d="M190.52,10.33c7.41,0,13.44,6.03,13.44,13.44s-6.03,13.44-13.44,13.44-13.44-6.03-13.44-13.44,6.03-13.44,13.44-13.44m0-1c-7.98,0-14.44,6.47-14.44,14.44s6.47,14.44,14.44,14.44,14.44-6.47,14.44-14.44-6.47-14.44-14.44-14.44h0Z"/><path class="e" d="M190.52,20.08c2.04,0,3.69,1.66,3.69,3.69s-1.66,3.69-3.69,3.69-3.69-1.66-3.69-3.69,1.66-3.69,3.69-3.69m0-1c-2.59,0-4.69,2.1-4.69,4.69s2.1,4.69,4.69,4.69,4.69-2.1,4.69-4.69-2.1-4.69-4.69-4.69h0Z"/><g><path class="e" d="M191.44,12.96l-.38,3.22h-1.15l-.44-3.22h1.97m.19-1h-2.36c-.46,0-.84,.38-.84,.84l.48,3.55c0,.46,.38,.84,.84,.84h1.45c.46,0,.84-.38,.84-.84l.42-3.55c0-.46-.38-.84-.84-.84h0Z"/><path class="e" d="M183.32,26.95l.58,1-2.56,2-.99-1.71,2.98-1.29m.06-1.05c-.14,0-.29,.04-.42,.11l-3.28,1.42c-.4,.23-.53,.75-.3,1.14l1.18,2.04c.15,.27,.44,.42,.73,.42,.14,0,.29-.04,.42-.11l2.82-2.2c.4-.23,.53-.75,.3-1.14l-.73-1.26c-.15-.27-.44-.42-.73-.42h0Z"/><path class="e" d="M197.44,27.44l2.95,1.37-1.07,1.66-2.51-2.06,.62-.97m-.05-1.05c-.28,0-.55,.14-.71,.38l-.78,1.22c-.25,.39-.13,.91,.25,1.16l2.76,2.27c.14,.09,.3,.13,.45,.13,.28,0,.55-.14,.71-.38l1.27-1.98c.25-.39,.13-.91-.25-1.16l-3.25-1.51c-.14-.09-.3-.13-.45-.13h0Z"/></g></g><g><path class="e" d="M175.78,53.99v3.49h-.7v-1.49h-1.5v1.49h-.7v-3.49h.7v1.43h1.5v-1.43h.7Z"/><path class="e" d="M177.19,57.29c-.27-.15-.49-.37-.65-.64-.16-.27-.24-.58-.24-.92s.08-.65,.24-.92,.38-.48,.65-.64,.57-.23,.9-.23,.63,.08,.9,.23c.27,.15,.49,.37,.65,.64,.16,.27,.24,.58,.24,.92s-.08,.65-.24,.92c-.16,.27-.37,.48-.65,.64-.27,.15-.57,.23-.9,.23s-.63-.08-.9-.23Zm1.46-.54c.16-.1,.29-.23,.38-.41,.09-.18,.13-.38,.13-.61s-.04-.44-.13-.61c-.09-.17-.21-.31-.38-.4-.16-.09-.35-.14-.56-.14s-.4,.05-.56,.14c-.16,.09-.29,.23-.38,.4-.09,.18-.13,.38-.13,.61s.04,.44,.13,.61c.09,.18,.22,.31,.38,.41,.16,.09,.35,.14,.56,.14s.4-.05,.56-.14Z"/><path class="e" d="M181.09,56.93h1.15v.56h-1.85v-3.49h.7v2.93Z"/><path class="e" d="M183.39,56.93h1.15v.56h-1.85v-3.49h.7v2.93Z"/><path class="e" d="M185.7,57.29c-.27-.15-.49-.37-.65-.64-.16-.27-.24-.58-.24-.92s.08-.65,.24-.92,.38-.48,.65-.64,.57-.23,.9-.23,.63,.08,.9,.23c.27,.15,.49,.37,.65,.64,.16,.27,.24,.58,.24,.92s-.08,.65-.24,.92c-.16,.27-.37,.48-.65,.64-.27,.15-.57,.23-.9,.23s-.63-.08-.9-.23Zm1.46-.54c.16-.1,.29-.23,.38-.41,.09-.18,.13-.38,.13-.61s-.04-.44-.13-.61c-.09-.17-.21-.31-.38-.4-.16-.09-.35-.14-.56-.14s-.4,.05-.56,.14c-.16,.09-.29,.23-.38,.4-.09,.18-.13,.38-.13,.61s.04,.44,.13,.61c.09,.18,.22,.31,.38,.41,.16,.09,.35,.14,.56,.14s.4-.05,.56-.14Z"/><path class="e" d="M193.57,53.99l-.97,3.49h-.83l-.65-2.49-.69,2.49h-.82l-.94-3.49h.75l.62,2.71,.71-2.71h.78l.67,2.7,.62-2.7h.75Z"/><path class="e" d="M195.28,54.81c.15-.27,.37-.48,.63-.63,.27-.15,.57-.23,.9-.23,.39,0,.73,.1,1.03,.3,.29,.2,.5,.48,.61,.83h-.81c-.08-.17-.19-.29-.34-.38s-.31-.12-.5-.12c-.2,0-.38,.05-.54,.14s-.28,.23-.37,.4c-.09,.17-.13,.38-.13,.61s.04,.43,.13,.61,.21,.31,.37,.41c.16,.09,.34,.14,.54,.14,.19,0,.36-.04,.5-.13s.26-.21,.34-.38h.81c-.12,.36-.32,.63-.61,.83-.29,.2-.63,.3-1.03,.3-.33,0-.63-.08-.9-.23-.27-.15-.48-.36-.63-.63-.16-.27-.23-.58-.23-.92s.08-.65,.23-.92Z"/><path class="e" d="M199.78,57.29c-.27-.15-.49-.37-.65-.64-.16-.27-.24-.58-.24-.92s.08-.65,.24-.92,.38-.48,.65-.64,.57-.23,.9-.23,.63,.08,.9,.23c.27,.15,.49,.37,.65,.64,.16,.27,.24,.58,.24,.92s-.08,.65-.24,.92c-.16,.27-.37,.48-.65,.64-.27,.15-.57,.23-.9,.23s-.63-.08-.9-.23Zm1.46-.54c.16-.1,.29-.23,.38-.41,.09-.18,.13-.38,.13-.61s-.04-.44-.13-.61c-.09-.17-.21-.31-.38-.4-.16-.09-.35-.14-.56-.14s-.4,.05-.56,.14c-.16,.09-.29,.23-.38,.4-.09,.18-.13,.38-.13,.61s.04,.44,.13,.61c.09,.18,.22,.31,.38,.41,.16,.09,.35,.14,.56,.14s.4-.05,.56-.14Z"/><path class="e" d="M204.78,57.48l-.77-1.36h-.33v1.36h-.7v-3.49h1.31c.27,0,.5,.05,.69,.14,.19,.09,.33,.22,.43,.38,.1,.16,.14,.34,.14,.54,0,.23-.07,.44-.2,.62-.13,.19-.33,.31-.59,.38l.83,1.42h-.81Zm-1.1-1.88h.58c.19,0,.33-.05,.43-.14,.09-.09,.14-.22,.14-.38s-.05-.28-.14-.37c-.09-.09-.24-.13-.43-.13h-.58v1.03Z"/><path class="e" d="M206.89,54.56v.88h1.18v.55h-1.18v.92h1.33v.57h-2.02v-3.5h2.02v.57h-1.33Z"/></g></g><g><path class="e" d="M95.54,10.38c-.5,.44-.74,.67-1.19,1.16l-.32-.3c.13-.14,.19-.2,.32-.33h0s.04-.11,0-.15c-.04-.04-.1-.04-.15,0-.13,.13-.2,.2-.33,.34l-.34-.32s0-.01,0-.02c.21-.23,.32-.34,.54-.57,.04-.04,.05-.11,0-.15-.04-.04-.11-.04-.15,0-.22,.22-.33,.34-.55,.57-.09,.09-.09,.24,0,.31,.35,.32,.53,.49,.89,.81,.04,.04,.11,.03,.14,0,.48-.51,.73-.76,1.25-1.22,.04-.04,.05-.1,0-.14-.04-.04-.1-.05-.14,0Z"/><path class="e" d="M98.43,7.55s-.05,.01-.08,.01c-.02,0-.04,0-.06,.01-.15,.03-.28,.04-.34-.05-.03-.04-.04-.09-.02-.13,.02-.07,.09-.15,.19-.2,.13-.07,.22-.08,.34-.04,.05,.02,.12,0,.14-.06,.02-.05,0-.11-.05-.13-.18-.07-.34-.05-.53,.05-.07,.04-.25,.16-.3,.34-.03,.1,0,.2,.05,.29,.14,.21,.4,.16,.55,.13,.02,0,.04,0,.05,0,.03,0,.06,0,.09-.02,.18-.04,.3-.05,.38,.09,.02,.03,.02,.09,0,.14-.03,.08-.09,.14-.17,.18-.21,.1-.35,.01-.38,0-.05-.03-.11-.02-.14,.03-.03,.05-.02,.11,.02,.14,.04,.03,.28,.17,.59,.02h.03c.12-.08,.21-.18,.25-.3,.04-.1,.03-.21-.01-.3-.15-.28-.44-.22-.6-.19Z"/><path class="e" d="M99.43,7.03s-.05,0-.08,0c-.02,0-.04,0-.06,0-.15,.02-.28,.03-.33-.07-.03-.05-.03-.09-.02-.14,.02-.07,.1-.14,.2-.19,.13-.06,.22-.07,.34-.02,.05,.02,.12,0,.14-.05,.03-.05,0-.11-.05-.14-.18-.08-.34-.07-.53,.02-.08,.04-.26,.14-.32,.32-.03,.1-.02,.2,.03,.3,.13,.22,.4,.18,.54,.16,.02,0,.04,0,.05,0,.03,0,.06,0,.09-.01,.18-.02,.31-.03,.37,.11,.02,.04,.01,.09,0,.14-.03,.07-.1,.14-.18,.17-.21,.09-.35,0-.38-.03-.04-.03-.11-.03-.15,.02-.04,.04-.03,.11,.01,.14,.04,.03,.27,.19,.59,.06h.03c.12-.07,.22-.17,.26-.28,.04-.1,.04-.21,0-.3-.13-.29-.42-.25-.58-.23Z"/><path class="e" d="M96.82,7.73c-.39,.26-.34,.65-.31,.84,0,.02,0,.04,0,.06,0,.09,.04,.19,.07,.3,.08,.29,.13,.5,0,.6-.15,.11-.22,.17-.37,.29l-.29-.36c.1-.08,.15-.12,.25-.2h0c.09-.07,.18-.14,.27-.12,.02,0,.09,.02,.14,.05-.01-.07-.04-.15-.06-.24h-.04s-.09-.01-.14,0c.01-.11,0-.22-.1-.33-.18-.2-.5-.11-.63-.01-.14,.11-.44,.35-.64,.52-.05,.04-.07,.06-.11,.1h0s-.06,.08-.07,.13c0,.05,0,.1,.04,.13l.04,.05s.1,.04,.15,0c.04-.04,.05-.11,.01-.15l-.03-.03,.09-.08c.19-.16,.5-.41,.63-.51,.06-.04,.25-.11,.34,0,.13,.14,0,.31-.02,.34-.11,.08-.16,.12-.27,.2l-.16-.2s-.1-.05-.15-.01h0s-.06,.1-.02,.15l.6,.73s.07,.06,.12,.06c.05,0,.09,0,.13-.04h0c.15-.12,.23-.18,.38-.3,.26-.19,.16-.54,.08-.82-.03-.1-.05-.19-.06-.26,0-.02,0-.04,0-.07-.02-.17-.06-.45,.21-.63,.17-.11,.56-.21,.8,.18,.2,.33,.04,.61-.16,.75-.24,.17-.47,.07-.51,.05-.02-.01-.04-.02-.04-.02-.07-.05-.15-.11-.21-.16,.01,.05,.02,.1,.04,.16,.01,.05,.03,.11,.04,.17h0s.03,.02,.05,.04h.03c.12,.07,.34,.13,.6,0h0s.08-.04,.11-.07c.28-.2,.48-.6,.23-1.02-.29-.49-.82-.42-1.09-.24Z"/><path class="e" d="M95.24,9.29h0s-.05,.1-.02,.15l.55,.65c-.53-.17-.8-.24-1.35-.37h-.02c-.08,0-.15,.04-.19,.11-.04,.07-.03,.15,.02,.21,.27,.28,.41,.43,.68,.71,.04,.04,.1,.04,.14,0h0s.04-.1,0-.14l-.61-.65c.55,.13,.82,.2,1.35,.37h.02c.05,.01,.1,0,.14-.04,.02-.01,.03-.03,.04-.05,.04-.07,.03-.15-.02-.2l-.6-.72s-.1-.05-.15,0Z"/><path class="e" d="M97.29,7.97s-.05,.03-.04,.06c.01,.08,0,.19,0,.28-.11-.02-.17-.03-.29-.05-.03,0-.06,.01-.06,.04,0,.03,.01,.05,.04,.06,.12,.02,.18,.03,.3,.05-.02,.11-.03,.19-.03,.19,0,.03,.01,.05,.04,.06,.01,0,.03,0,.04,0,.01,0,.02-.02,.02-.03,0,0,.02-.09,.04-.19,.12,.02,.17,.03,.29,.06,.01,0,.03,0,.04,0,.01,0,.02-.02,.02-.03,0-.03-.01-.05-.04-.06-.12-.02-.18-.04-.3-.06,.01-.11,.02-.23,0-.33,0-.03-.03-.04-.06-.04Z"/></g><g><path class="e" d="M12.09,10.86c-.5,.44-.74,.67-1.19,1.16l-.32-.3c.13-.14,.19-.2,.32-.33h0s.04-.11,0-.15c-.04-.04-.1-.04-.15,0-.13,.13-.2,.2-.33,.34l-.34-.32s0-.01,0-.02c.21-.23,.32-.34,.54-.57,.04-.04,.05-.11,0-.15-.04-.04-.11-.04-.15,0-.22,.22-.33,.34-.55,.57-.09,.09-.09,.24,0,.31,.35,.32,.53,.49,.89,.81,.04,.04,.11,.03,.14,0,.48-.51,.73-.76,1.25-1.22,.04-.04,.05-.1,0-.14-.04-.04-.1-.05-.14,0Z"/><path class="e" d="M14.98,8.03s-.05,.01-.08,.01c-.02,0-.04,0-.06,.01-.15,.03-.28,.04-.34-.05-.03-.04-.04-.09-.02-.13,.02-.07,.09-.15,.19-.2,.13-.07,.22-.08,.34-.04,.05,.02,.12,0,.14-.06,.02-.05,0-.11-.05-.13-.18-.07-.34-.05-.53,.05-.07,.04-.25,.16-.3,.34-.03,.1,0,.2,.05,.29,.14,.21,.4,.16,.55,.13,.02,0,.04,0,.05,0,.03,0,.06,0,.09-.02,.18-.04,.3-.05,.38,.09,.02,.03,.02,.09,0,.14-.03,.08-.09,.14-.17,.18-.21,.1-.35,.01-.38,0-.05-.03-.11-.02-.14,.03-.03,.05-.02,.11,.02,.14,.04,.03,.28,.17,.59,.02h.03c.12-.08,.21-.18,.25-.3,.04-.1,.03-.21-.01-.3-.15-.28-.44-.22-.6-.19Z"/><path class="e" d="M15.99,7.52s-.05,0-.08,0c-.02,0-.04,0-.06,0-.15,.02-.28,.03-.33-.07-.03-.05-.03-.09-.02-.14,.02-.07,.1-.14,.2-.19,.13-.06,.22-.07,.34-.02,.05,.02,.12,0,.14-.05,.03-.05,0-.11-.05-.14-.18-.08-.34-.07-.53,.02-.08,.04-.26,.14-.32,.32-.03,.1-.02,.2,.03,.3,.13,.22,.4,.18,.54,.16,.02,0,.04,0,.05,0,.03,0,.06,0,.09-.01,.18-.02,.31-.03,.37,.11,.02,.04,.01,.09,0,.14-.03,.07-.1,.14-.18,.17-.21,.09-.35,0-.38-.03-.04-.03-.11-.03-.15,.02-.04,.04-.03,.11,.01,.14,.04,.03,.27,.19,.59,.06h.03c.12-.07,.22-.17,.26-.28,.04-.1,.04-.21,0-.3-.13-.29-.42-.25-.58-.23Z"/><path class="e" d="M13.38,8.21c-.39,.26-.34,.65-.31,.84,0,.02,0,.04,0,.06,0,.09,.04,.19,.07,.3,.08,.29,.13,.5,0,.6-.15,.11-.22,.17-.37,.29l-.29-.36c.1-.08,.15-.12,.25-.2h0c.09-.07,.18-.14,.27-.12,.02,0,.09,.02,.14,.05-.01-.07-.04-.15-.06-.24h-.04s-.09-.01-.14,0c.02-.11,0-.22-.1-.33-.18-.2-.5-.11-.63-.01-.14,.11-.44,.35-.64,.52-.05,.04-.07,.06-.11,.1h0s-.06,.08-.07,.13c0,.05,0,.1,.04,.13l.04,.05s.1,.04,.15,0c.04-.04,.05-.11,.01-.15l-.03-.03,.09-.08c.19-.16,.5-.41,.63-.51,.06-.04,.25-.11,.34,0,.13,.14,0,.31-.02,.34-.11,.08-.16,.12-.27,.2l-.16-.2s-.1-.05-.15-.01h0s-.06,.1-.02,.15l.6,.73s.07,.06,.12,.06c.05,0,.09,0,.13-.04h0c.15-.12,.23-.18,.38-.3,.26-.19,.16-.54,.08-.82-.03-.1-.05-.19-.06-.26,0-.02,0-.04,0-.07-.02-.17-.06-.45,.21-.63,.17-.11,.56-.21,.8,.18,.2,.33,.04,.61-.16,.75-.24,.17-.47,.07-.51,.05-.02-.01-.04-.02-.04-.02-.07-.05-.15-.11-.21-.16,.01,.05,.02,.1,.04,.16,.01,.05,.03,.11,.04,.17h0s.03,.02,.05,.04h.03c.12,.07,.34,.13,.6,0h0s.08-.04,.11-.07c.28-.2,.48-.6,.23-1.02-.29-.49-.82-.42-1.09-.24Z"/><path class="e" d="M11.79,9.78h0s-.05,.1-.02,.15c.22,.26,.33,.39,.55,.65-.53-.17-.8-.24-1.35-.37h-.02c-.08,0-.15,.04-.19,.11-.04,.07-.03,.15,.02,.21,.27,.28,.41,.43,.68,.71,.04,.04,.1,.04,.14,0h0s.04-.1,0-.14l-.61-.65c.55,.13,.82,.2,1.35,.37h.02c.05,.01,.1,0,.14-.04,.02-.01,.03-.03,.04-.05,.04-.07,.03-.15-.02-.2l-.6-.72s-.1-.05-.15,0Z"/><path class="e" d="M13.84,8.45s-.05,.03-.04,.06c.01,.08,0,.19,0,.28-.11-.02-.17-.03-.29-.05-.03,0-.06,.01-.06,.04,0,.03,.01,.05,.04,.06,.12,.02,.18,.03,.3,.05-.02,.11-.03,.19-.03,.19,0,.03,.01,.05,.04,.06,.01,0,.03,0,.04,0,.01,0,.02-.02,.02-.03,0,0,.02-.09,.04-.19,.12,.02,.17,.03,.29,.06,.01,0,.03,0,.04,0,.01,0,.02-.02,.02-.03,0-.03-.01-.05-.04-.06-.12-.02-.18-.04-.3-.06,.01-.11,.02-.23,0-.33,0-.03-.03-.04-.06-.04Z"/></g><g><path class="e" d="M179.22,10.37c-.5,.44-.74,.67-1.19,1.16l-.32-.3c.13-.14,.19-.2,.32-.33h0s.04-.11,0-.15c-.04-.04-.1-.04-.15,0-.13,.13-.2,.2-.33,.34l-.34-.32s0-.01,0-.02c.21-.23,.32-.34,.54-.57,.04-.04,.05-.11,0-.15-.04-.04-.11-.04-.15,0-.22,.22-.33,.34-.55,.57-.09,.09-.09,.24,0,.31,.35,.32,.53,.49,.89,.81,.04,.04,.11,.03,.14,0,.48-.51,.73-.76,1.25-1.22,.04-.04,.05-.1,0-.14-.04-.04-.1-.05-.14,0Z"/><path class="e" d="M182.11,7.53s-.05,.01-.08,.01c-.02,0-.04,0-.06,.01-.15,.03-.28,.04-.34-.05-.03-.04-.04-.09-.02-.13,.02-.07,.09-.15,.19-.2,.13-.07,.22-.08,.34-.04,.05,.02,.12,0,.14-.06s0-.11-.05-.13c-.18-.07-.34-.05-.53,.05-.07,.04-.25,.16-.3,.34-.03,.1,0,.2,.05,.29,.14,.21,.4,.16,.55,.13,.02,0,.04,0,.05,0,.03,0,.06,0,.09-.02,.18-.04,.3-.05,.38,.09,.02,.03,.02,.09,0,.14-.03,.08-.09,.14-.17,.18-.21,.1-.35,.01-.38,0-.05-.03-.11-.02-.14,.03-.03,.05-.02,.11,.02,.14,.04,.03,.28,.17,.59,.02h.03c.12-.08,.21-.18,.25-.3,.04-.1,.03-.21-.01-.3-.15-.28-.44-.22-.6-.19Z"/><path class="e" d="M183.12,7.02s-.05,0-.08,0c-.02,0-.04,0-.06,0-.15,.02-.28,.03-.33-.07-.03-.05-.03-.09-.02-.14,.02-.07,.1-.14,.2-.19,.13-.06,.22-.07,.34-.02,.05,.02,.12,0,.14-.05,.03-.05,0-.11-.05-.14-.18-.08-.34-.07-.53,.02-.08,.04-.26,.14-.32,.32-.03,.1-.02,.2,.03,.3,.13,.22,.4,.18,.54,.16,.02,0,.04,0,.05,0,.03,0,.06,0,.09-.01,.18-.02,.31-.03,.37,.11,.02,.04,.01,.09,0,.14-.03,.07-.1,.14-.18,.17-.21,.09-.35,0-.38-.03-.04-.03-.11-.03-.15,.02-.04,.04-.03,.11,.01,.14,.04,.03,.27,.19,.59,.06h.03c.12-.07,.22-.17,.26-.28,.04-.1,.04-.21,0-.3-.13-.29-.42-.25-.58-.23Z"/><path class="e" d="M180.51,7.71c-.39,.26-.34,.65-.31,.84,0,.02,0,.04,0,.06,0,.09,.04,.19,.07,.3,.08,.29,.13,.5,0,.6-.15,.11-.22,.17-.37,.29l-.29-.36c.1-.08,.15-.12,.25-.2h0c.09-.07,.18-.14,.27-.12,.02,0,.09,.02,.14,.05-.01-.07-.04-.15-.06-.24h-.04s-.09-.01-.14,0c.02-.11,0-.22-.1-.33-.18-.2-.5-.11-.63-.01-.14,.11-.44,.35-.64,.52-.05,.04-.07,.06-.11,.1h0s-.06,.08-.07,.13c0,.05,0,.1,.04,.13l.04,.05s.1,.04,.15,0c.04-.04,.05-.11,.01-.15l-.03-.03,.09-.08c.19-.16,.5-.41,.63-.51,.06-.04,.25-.11,.34,0,.13,.14,0,.31-.02,.34-.11,.08-.16,.12-.27,.2l-.16-.2s-.1-.05-.15-.01h0s-.06,.1-.02,.15l.6,.73s.07,.06,.12,.06c.05,0,.09,0,.13-.04h0c.15-.12,.23-.18,.38-.3,.26-.19,.16-.54,.08-.82-.03-.1-.05-.19-.06-.26,0-.02,0-.04,0-.07-.02-.17-.06-.45,.21-.63,.17-.11,.56-.21,.8,.18,.2,.33,.04,.61-.16,.75-.24,.17-.47,.07-.51,.05-.02-.01-.04-.02-.04-.02-.07-.05-.15-.11-.21-.16,.01,.05,.02,.1,.04,.16,.01,.05,.03,.11,.04,.17h0s.03,.02,.05,.04h.03c.12,.07,.34,.13,.6,0h0s.08-.04,.11-.07c.28-.2,.48-.6,.23-1.02-.29-.49-.82-.42-1.09-.24Z"/><path class="e" d="M178.92,9.28h0s-.05,.1-.02,.15l.55,.65c-.53-.17-.8-.24-1.35-.37h-.02c-.08,0-.15,.04-.19,.11-.04,.07-.03,.15,.02,.21,.27,.28,.41,.43,.68,.71,.04,.04,.1,.04,.14,0h0s.04-.1,0-.14l-.61-.65c.55,.13,.82,.2,1.35,.37h.02c.05,.01,.1,0,.14-.04,.02-.01,.03-.03,.04-.05,.04-.07,.03-.15-.02-.2l-.6-.72s-.1-.05-.15,0Z"/><path class="e" d="M180.97,7.95s-.05,.03-.04,.06c.01,.08,0,.19,0,.28-.11-.02-.17-.03-.29-.05-.03,0-.06,.01-.06,.04,0,.03,.01,.05,.04,.06,.12,.02,.18,.03,.3,.05-.02,.11-.03,.19-.03,.19,0,.03,.01,.05,.04,.06,.01,0,.03,0,.04,0,.01,0,.02-.02,.02-.03,0,0,.02-.09,.04-.19,.12,.02,.17,.03,.29,.06,.01,0,.03,0,.04,0,.01,0,.02-.02,.02-.03,0-.03-.01-.05-.04-.06-.12-.02-.18-.04-.3-.06,.01-.11,.02-.23,0-.33,0-.03-.03-.04-.06-.04Z"/></g></g></g></g></svg>