<?xml version="1.0" encoding="UTF-8"?><svg xmlns="http://www.w3.org/2000/svg" viewBox="0 0 184.61 59.43"><defs><style>.d{opacity:.5;}.e{fill:#065AAA;}</style></defs><g id="a"/><g id="b"><g id="c"><g><g><g><g><path class="e" d="M92.6,1.31c12.21,0,22.14,9.93,22.14,22.14s-9.93,22.14-22.14,22.14-22.14-9.93-22.14-22.14S80.39,1.31,92.6,1.31m0-1c-12.78,0-23.14,10.36-23.14,23.14s10.36,23.14,23.14,23.14,23.14-10.36,23.14-23.14S105.38,.31,92.6,.31h0Z"/><g><path class="e" d="M92.6,10.44c7.18,0,13.02,5.84,13.02,13.02s-5.84,13.02-13.02,13.02-13.02-5.84-13.02-13.02,5.84-13.02,13.02-13.02m0-1c-7.74,0-14.02,6.28-14.02,14.02s6.28,14.02,14.02,14.02,14.02-6.28,14.02-14.02-6.28-14.02-14.02-14.02h0Z"/><g class="d"><path class="e" d="M92.6,9.44c-7.74,0-14.02,6.28-14.02,14.02s6.28,14.02,14.02,14.02,14.02-6.28,14.02-14.02-6.28-14.02-14.02-14.02Zm10.73,9.29c.14,.34-.72,1.03-1.92,1.54-1.21,.51-2.3,.65-2.44,.31-.14-.34,.72-1.03,1.92-1.54s2.3-.65,2.44-.31Zm-4.74-2.49c.93-.93,1.89-1.46,2.15-1.2s-.28,1.23-1.2,2.15c-.93,.93-1.89,1.46-2.15,1.2-.26-.26,.28-1.22,1.2-2.15Zm-1.21,7.21c0,2.64-2.14,4.78-4.78,4.78s-4.78-2.14-4.78-4.78,2.14-4.78,4.78-4.78,4.78,2.14,4.78,4.78Zm-1.95-8.93c.51-1.21,1.2-2.06,1.54-1.92,.34,.14,.2,1.24-.31,2.44s-1.2,2.06-1.54,1.92c-.34-.14-.2-1.24,.31-2.44Zm-3.07-2.77c.37,0,.67,1.06,.67,2.37s-.3,2.37-.67,2.37-.67-1.06-.67-2.37,.3-2.37,.67-2.37Zm-4.56,1.01c.34-.14,1.03,.72,1.54,1.92s.65,2.3,.31,2.44c-.34,.14-1.03-.72-1.54-1.92-.51-1.21-.65-2.3-.31-2.44Zm-3.69,2.59c.26-.26,1.22,.28,2.15,1.2s1.46,1.89,1.2,2.15-1.22-.28-2.15-1.2-1.46-1.89-1.2-2.15Zm-2.44,3.77c.14-.34,1.24-.2,2.44,.31,1.21,.51,2.06,1.2,1.92,1.54-.14,.34-1.24,.2-2.44-.31-1.21-.51-2.06-1.2-1.92-1.54Zm-.85,4.61c0-.37,1.06-.67,2.37-.67s2.37,.3,2.37,.67-1.06,.67-2.37,.67-2.37-.3-2.37-.67Zm1.01,4.56c-.14-.34,.72-1.03,1.92-1.54,1.21-.51,2.3-.65,2.44-.31s-.72,1.03-1.92,1.54c-1.21,.51-2.3,.65-2.44,.31Zm4.74,2.49c-.93,.93-1.89,1.46-2.15,1.2s.28-1.23,1.2-2.15,1.89-1.46,2.15-1.2-.28,1.22-1.2,2.15Zm3.16,1.72c-.51,1.21-1.2,2.06-1.54,1.92-.34-.14-.2-1.24,.31-2.44s1.2-2.06,1.54-1.92c.34,.14,.2,1.24-.31,2.44Zm3.07,2.77c-.37,0-.67-1.06-.67-2.37s.3-2.37,.67-2.37,.67,1.06,.67,2.37-.3,2.37-.67,2.37Zm4.56-1.01c-.34,.14-1.03-.72-1.54-1.92-.51-1.21-.65-2.3-.3-2.44,.34-.14,1.03,.72,1.54,1.92,.51,1.21,.65,2.3,.31,2.44Zm3.69-2.59c-.26,.26-1.23-.28-2.15-1.2-.93-.93-1.46-1.89-1.2-2.15s1.23,.28,2.15,1.2c.93,.93,1.46,1.89,1.2,2.15Zm2.44-3.77c-.14,.34-1.24,.2-2.44-.31s-2.06-1.2-1.92-1.54c.14-.34,1.24-.2,2.44,.31s2.06,1.2,1.92,1.54Zm-1.52-3.94c-1.31,0-2.37-.3-2.37-.67s1.06-.67,2.37-.67,2.37,.3,2.37,.67-1.06,.67-2.37,.67Z"/></g><path class="e" d="M92.6,19.68c2.08,0,3.78,1.69,3.78,3.78s-1.69,3.78-3.78,3.78-3.78-1.69-3.78-3.78,1.69-3.78,3.78-3.78m0-1c-2.64,0-4.78,2.14-4.78,4.78s2.14,4.78,4.78,4.78,4.78-2.14,4.78-4.78-2.14-4.78-4.78-4.78h0Z"/><g><path class="e" d="M92.36,11.76c.37,0,.67,1.06,.67,2.37s-.3,2.37-.67,2.37-.67-1.06-.67-2.37,.3-2.37,.67-2.37m0-.5c-1.09,0-1.17,2.2-1.17,2.87s.08,2.87,1.17,2.87,1.17-2.2,1.17-2.87-.08-2.87-1.17-2.87h0Z"/><path class="e" d="M83.2,23.06c1.31,0,2.37,.3,2.37,.67s-1.06,.67-2.37,.67-2.37-.3-2.37-.67,1.06-.67,2.37-.67m0-.5c-.67,0-2.87,.08-2.87,1.17s2.2,1.17,2.87,1.17,2.87-.08,2.87-1.17-2.2-1.17-2.87-1.17h0Z"/><path class="e" d="M101.97,22.62c1.31,0,2.37,.3,2.37,.67s-1.06,.67-2.37,.67-2.37-.3-2.37-.67,1.06-.67,2.37-.67m0-.5c-.67,0-2.87,.08-2.87,1.17s2.2,1.17,2.87,1.17,2.87-.08,2.87-1.17-2.2-1.17-2.87-1.17h0Z"/><path class="e" d="M92.8,30.53c.37,0,.67,1.06,.67,2.37s-.3,2.37-.67,2.37-.67-1.06-.67-2.37,.3-2.37,.67-2.37m0-.5c-1.09,0-1.17,2.2-1.17,2.87s.08,2.87,1.17,2.87,1.17-2.2,1.17-2.87-.08-2.87-1.17-2.87h0Z"/><path class="e" d="M95.6,29.88c.36,0,.99,.82,1.46,1.94,.51,1.21,.65,2.3,.31,2.44-.03,.01-.05,.02-.08,.02-.36,0-.99-.82-1.46-1.94-.51-1.21-.65-2.3-.31-2.44,.03-.01,.05-.02,.08-.02m0-.5c-.1,0-.19,.02-.28,.06-.4,.17-.56,.62-.47,1.35,.06,.51,.24,1.13,.51,1.75,.22,.53,1.02,2.24,1.92,2.24,.1,0,.19-.02,.28-.06,1-.42,.22-2.48-.04-3.1-.22-.53-1.02-2.24-1.92-2.24h0Z"/><path class="e" d="M102.81,18.54c.27,0,.46,.06,.51,.19,.14,.34-.72,1.03-1.92,1.54-.76,.32-1.47,.49-1.93,.49-.27,0-.46-.06-.51-.19-.14-.34,.72-1.03,1.92-1.54,.76-.32,1.47-.49,1.93-.49m0-.5c-.55,0-1.33,.19-2.13,.53-.62,.26-2.61,1.2-2.19,2.2,.1,.23,.34,.49,.97,.49,.55,0,1.33-.19,2.13-.53,.62-.26,1.19-.59,1.59-.9,.57-.46,.77-.89,.6-1.29-.1-.23-.34-.49-.97-.49h0Z"/><path class="e" d="M85.69,26.26c.27,0,.46,.06,.51,.19,.14,.34-.72,1.03-1.92,1.54-.76,.32-1.47,.49-1.93,.49-.27,0-.46-.06-.51-.19-.14-.34,.72-1.03,1.92-1.54,.76-.32,1.47-.49,1.93-.49m0-.5c-.55,0-1.33,.19-2.13,.53-.62,.26-2.61,1.2-2.19,2.2,.1,.23,.34,.49,.97,.49,.55,0,1.33-.19,2.13-.53,.62-.26,2.61-1.2,2.19-2.2-.1-.23-.34-.49-.97-.49h0Z"/><path class="e" d="M87.88,12.76c.36,0,.99,.82,1.46,1.94,.51,1.21,.65,2.3,.31,2.44-.03,.01-.05,.02-.08,.02-.36,0-.99-.82-1.46-1.94-.51-1.21-.65-2.3-.31-2.44,.03-.01,.05-.02,.08-.02m0-.5c-.1,0-.19,.02-.28,.06-.4,.17-.56,.62-.47,1.35,.06,.51,.24,1.13,.51,1.75,.22,.53,1.02,2.24,1.92,2.24,.1,0,.19-.02,.28-.06,1-.42,.22-2.48-.04-3.1-.22-.53-1.02-2.24-1.92-2.24h0Z"/><path class="e" d="M99.64,25.87c.46,0,1.18,.17,1.93,.5,1.21,.51,2.06,1.2,1.92,1.54-.05,.13-.24,.19-.51,.19-.46,0-1.18-.17-1.93-.5-1.21-.51-2.06-1.2-1.92-1.54,.05-.13,.24-.19,.51-.19m0-.5c-.63,0-.88,.27-.97,.49-.17,.4,.03,.84,.6,1.29,.4,.32,.96,.64,1.58,.91,.8,.34,1.58,.54,2.13,.54,.63,0,.88-.27,.97-.49,.17-.4-.03-.84-.6-1.29-.4-.32-.96-.64-1.58-.91-.8-.34-1.58-.54-2.13-.54h0Z"/><path class="e" d="M96.89,12.59s.06,0,.08,.02c.34,.14,.2,1.24-.31,2.44-.47,1.12-1.1,1.94-1.46,1.94-.03,0-.06,0-.08-.02-.34-.14-.2-1.24,.31-2.44,.47-1.12,1.1-1.94,1.46-1.94m0-.5c-.9,0-1.7,1.71-1.92,2.24-.26,.62-1.04,2.68-.04,3.1,.09,.04,.18,.06,.28,.06,.9,0,1.7-1.71,1.92-2.24,.26-.62,.45-1.25,.51-1.75,.09-.72-.07-1.18-.47-1.35-.09-.04-.18-.06-.28-.06h0Z"/><path class="e" d="M89.96,30.04s.06,0,.08,.02c.34,.14,.2,1.24-.31,2.44-.47,1.12-1.1,1.94-1.46,1.94-.03,0-.06,0-.08-.02-.34-.14-.2-1.24,.31-2.44,.47-1.12,1.1-1.94,1.46-1.94m0-.5c-.9,0-1.7,1.71-1.92,2.24-.26,.62-.45,1.25-.51,1.75-.09,.72,.07,1.18,.47,1.35,.09,.04,.18,.06,.28,.06,.9,0,1.7-1.71,1.92-2.24,.26-.62,.45-1.25,.51-1.75,.09-.72-.07-1.18-.47-1.35-.09-.04-.18-.06-.28-.06h0Z"/><path class="e" d="M100.55,14.98c.08,0,.15,.02,.19,.07,.26,.26-.28,1.23-1.2,2.15-.77,.77-1.56,1.27-1.96,1.27-.08,0-.15-.02-.19-.07-.26-.26,.28-1.23,1.2-2.15,.77-.77,1.56-1.27,1.96-1.27m0-.5c-.66,0-1.63,.73-2.31,1.41-.48,.48-.88,.99-1.13,1.43-.36,.64-.38,1.12-.07,1.42,.1,.1,.27,.21,.55,.21,.66,0,1.63-.73,2.31-1.41,.48-.48,1.97-2.09,1.2-2.86-.1-.1-.27-.21-.55-.21h0Z"/><path class="e" d="M84.3,15.29c.4,0,1.19,.5,1.96,1.27,.93,.93,1.46,1.89,1.2,2.15-.04,.04-.11,.07-.19,.07-.4,0-1.19-.5-1.96-1.27-.93-.93-1.46-1.89-1.2-2.15,.04-.04,.11-.07,.19-.07m0-.5c-.28,0-.45,.12-.55,.21-.77,.77,.73,2.38,1.2,2.86,.68,.68,1.65,1.41,2.31,1.41,.28,0,.45-.12,.55-.21,.77-.77-.73-2.38-1.2-2.86-.68-.68-1.65-1.41-2.31-1.41h0Z"/><path class="e" d="M97.89,28.25c.4,0,1.19,.5,1.96,1.27,.93,.93,1.46,1.89,1.2,2.15-.04,.04-.11,.07-.19,.07-.4,0-1.19-.5-1.96-1.27-.93-.93-1.46-1.89-1.2-2.15,.04-.04,.11-.07,.19-.07m0-.5c-.28,0-.45,.12-.55,.21-.77,.77,.73,2.38,1.2,2.86,.68,.68,1.65,1.41,2.31,1.41,.28,0,.45-.12,.55-.21,.77-.77-.73-2.38-1.2-2.86-.68-.68-1.65-1.41-2.31-1.41h0Z"/><path class="e" d="M87.58,28.57c.08,0,.15,.02,.19,.07,.26,.26-.28,1.23-1.2,2.15-.77,.77-1.56,1.27-1.96,1.27-.08,0-.15-.02-.19-.07-.26-.26,.28-1.23,1.2-2.15,.77-.77,1.56-1.27,1.96-1.27m0-.5c-.66,0-1.63,.73-2.31,1.41-.48,.48-.88,.99-1.13,1.43-.36,.64-.38,1.12-.07,1.42,.1,.1,.27,.21,.55,.21,.66,0,1.63-.73,2.31-1.41,.48-.48,1.97-2.09,1.2-2.86-.1-.1-.27-.21-.55-.21h0Z"/><path class="e" d="M82.18,18.94c.46,0,1.18,.17,1.93,.5,1.21,.51,2.06,1.2,1.92,1.54-.05,.13-.24,.19-.51,.19-.46,0-1.18-.17-1.93-.5-1.21-.51-2.06-1.2-1.92-1.54,.05-.13,.24-.19,.51-.19m0-.5c-.63,0-.88,.27-.97,.49-.17,.4,.03,.84,.6,1.29,.4,.32,.96,.64,1.58,.91,.8,.34,1.58,.54,2.13,.54,.63,0,.88-.27,.97-.49,.17-.4-.03-.84-.6-1.29-.4-.32-.96-.64-1.58-.91-.8-.34-1.58-.54-2.13-.54h0Z"/></g></g></g><g><path class="e" d="M75.71,57.98c-.13,.04-.28,.06-.45,.06s-.31-.03-.44-.08v-.68c.13,.04,.23,.05,.31,.05s.14-.01,.18-.04,.08-.07,.11-.11c.04-.09,.06-.19,.06-.32v-1.96l-.42,.04v-.68c.6-.08,1.2-.13,1.79-.13,.44,0,.77,.06,.99,.17,.11,.06,.2,.12,.27,.19s.13,.16,.17,.27,.07,.22,.08,.33,.02,.25,.02,.4v2.47h-.9v-2.47c0-.45-.25-.68-.74-.68-.11,0-.23,0-.36,0v2.02c0,.45-.11,.77-.34,.96-.08,.07-.19,.12-.33,.16Z"/><path class="e" d="M78.95,54.21c.37-.04,.69-.06,.97-.06s.51,.01,.67,.04,.3,.07,.41,.13,.2,.12,.27,.19,.13,.16,.17,.27,.07,.22,.08,.33,.02,.25,.02,.4v2.47h-.9v-2.47c0-.45-.25-.68-.74-.68-.25,0-.57,.02-.95,.06v-.69Z"/><path class="e" d="M84.33,57.98h-1.71l-.32-3.78h.86l.16,1.89s.05,0,.09,0c.15,0,.27-.04,.34-.12s.12-.22,.14-.41l.11-1.36h.85l-.11,1.35c-.06,.77-.46,1.15-1.2,1.15-.04,0-.1,0-.17,0l.05,.6h.96c.33,0,.58-.13,.75-.38s.28-.6,.32-1.05l.14-1.67h.86l-.14,1.64c-.03,.36-.08,.64-.15,.86-.27,.85-.87,1.28-1.82,1.28Z"/><path class="e" d="M88.06,57.98h-.89v-3.78h.89v3.78Z"/><path class="e" d="M89,57.98v-3.71c.14-.03,.36-.06,.65-.09s.56-.04,.8-.04,.45,.01,.61,.04,.3,.07,.41,.13,.2,.12,.27,.19,.13,.16,.17,.27,.07,.22,.08,.33,.02,.25,.02,.4v2.47h-.9v-2.47c0-.45-.25-.68-.74-.68-.13,0-.3,0-.48,.02v3.13h-.9Z"/><path class="e" d="M93,55.32c0-.35-.07-.72-.21-1.12h.86c.03,.08,.06,.17,.09,.27l.08,.31h.06s.02-.04,.04-.07,.06-.08,.12-.15,.13-.14,.21-.19,.19-.11,.32-.15,.29-.07,.46-.07,.32,.03,.46,.1,.25,.15,.34,.25,.15,.23,.21,.38c.1,.26,.14,.58,.14,.96v2.14h-1.62v-.68h.7v-1.35c0-.35-.03-.59-.1-.74-.03-.06-.07-.12-.11-.18-.09-.12-.23-.18-.43-.18-.09,0-.18,.02-.26,.06s-.16,.09-.21,.15c-.12,.12-.2,.23-.24,.33l-.03,.06-.22,2.52h-.87l.22-2.4c0-.09,.01-.18,.01-.27Z"/><path class="e" d="M99.29,54.19c.29-.03,.56-.04,.8-.04s.45,.01,.61,.04,.3,.07,.41,.13,.2,.12,.27,.19,.13,.16,.17,.27,.07,.22,.08,.33,.02,.25,.02,.4v2.47h-.9v-2.47c0-.45-.25-.68-.74-.68-.18,0-.38,0-.61,.03s-.42,.04-.56,.06l-.21,.03v-.68c.14-.03,.36-.06,.65-.09Zm.24,3.8h-.9v-2.41h.9v2.41Z"/><path class="e" d="M103.47,54.15c.63,0,1.05,.12,1.26,.37,.11,.13,.18,.27,.21,.43,.04,.17,.05,.36,.05,.57v1.79h.43v.68h-3.02v-.68h1.7v-1.79c0-.45-.25-.68-.74-.68-.25,0-.52,.02-.81,.05l-.14,.02v-.71c.29-.04,.64-.05,1.07-.05Z"/><path class="e" d="M106,56.71v-2.5h.89v1.75l-.59,.76h-.3Z"/><path class="e" d="M108.41,54.2h1.99v.58l-.51,1.8-.32,1.4h-.87l.32-1.4,.48-1.69h-1.98v-1.46h.89v.78Z"/></g></g><g><path class="e" d="M81.07,10.38c-.5,.44-.74,.67-1.19,1.16l-.32-.3c.13-.14,.19-.2,.32-.33h0s.04-.11,0-.15c-.04-.04-.1-.04-.15,0-.13,.13-.2,.2-.33,.34l-.34-.32s0-.01,0-.02c.21-.23,.32-.34,.54-.57,.04-.04,.05-.11,0-.15-.04-.04-.11-.04-.15,0-.22,.22-.33,.34-.55,.57-.09,.09-.09,.24,0,.31,.35,.32,.53,.49,.89,.81,.04,.04,.11,.03,.14,0,.48-.51,.73-.76,1.25-1.22,.04-.04,.05-.1,0-.14-.04-.04-.1-.05-.14,0Z"/><path class="e" d="M83.96,7.55s-.05,.01-.08,.01c-.02,0-.04,0-.06,.01-.15,.03-.28,.04-.34-.05-.03-.04-.04-.09-.02-.13,.02-.07,.09-.15,.19-.2,.13-.07,.22-.08,.34-.04,.05,.02,.12,0,.14-.06,.02-.05,0-.11-.05-.13-.18-.07-.34-.05-.53,.05-.07,.04-.25,.16-.3,.34-.03,.1,0,.2,.05,.29,.14,.21,.4,.16,.55,.13,.02,0,.04,0,.05,0,.03,0,.06,0,.09-.02,.18-.04,.3-.05,.38,.09,.02,.03,.02,.09,0,.14-.03,.08-.09,.14-.17,.18-.21,.1-.35,.01-.38,0-.05-.03-.11-.02-.14,.03-.03,.05-.02,.11,.02,.14,.04,.03,.28,.17,.59,.02h.03c.12-.08,.21-.18,.25-.3,.04-.1,.03-.21-.01-.3-.15-.28-.44-.22-.6-.19Z"/><path class="e" d="M84.96,7.03s-.05,0-.08,0c-.02,0-.04,0-.06,0-.15,.02-.28,.03-.33-.07-.03-.05-.03-.09-.02-.14,.02-.07,.1-.14,.2-.19,.13-.06,.22-.07,.34-.02,.05,.02,.12,0,.14-.05,.03-.05,0-.11-.05-.14-.18-.08-.34-.07-.53,.02-.08,.04-.26,.14-.32,.32-.03,.1-.02,.2,.03,.3,.13,.22,.4,.18,.54,.16,.02,0,.04,0,.05,0,.03,0,.06,0,.09-.01,.18-.02,.31-.03,.37,.11,.02,.04,.01,.09,0,.14-.03,.07-.1,.14-.18,.17-.21,.09-.35,0-.38-.03-.04-.03-.11-.03-.15,.02-.04,.04-.03,.11,.01,.14,.04,.03,.27,.19,.59,.06h.03c.12-.07,.22-.17,.26-.28,.04-.1,.04-.21,0-.3-.13-.29-.42-.25-.58-.23Z"/><path class="e" d="M82.35,7.73c-.39,.26-.34,.65-.31,.84,0,.02,0,.04,0,.06,0,.09,.04,.19,.07,.3,.08,.29,.13,.5,0,.6-.15,.11-.22,.17-.37,.29l-.29-.36c.1-.08,.15-.12,.25-.2h0c.09-.07,.18-.14,.27-.12,.02,0,.09,.02,.14,.05-.01-.07-.04-.15-.06-.24h-.04s-.09-.01-.14,0c.02-.1,0-.22-.1-.33-.18-.2-.5-.11-.63-.01-.14,.11-.44,.35-.64,.52-.05,.04-.07,.06-.11,.1h0s-.06,.08-.07,.13c0,.05,0,.1,.04,.13l.04,.05s.1,.04,.15,0c.04-.04,.05-.11,.01-.15l-.03-.03,.09-.08c.19-.16,.5-.41,.63-.51,.06-.04,.25-.11,.34,0,.13,.14,0,.31-.02,.34-.11,.08-.16,.12-.27,.2l-.16-.2s-.1-.05-.15-.01h0s-.06,.1-.02,.15l.6,.73s.07,.06,.12,.06c.05,0,.09,0,.13-.04h0c.15-.12,.23-.18,.38-.3,.26-.19,.16-.54,.08-.82-.03-.1-.05-.19-.06-.26,0-.02,0-.04,0-.07-.02-.17-.06-.45,.21-.63,.17-.11,.56-.21,.8,.18,.2,.33,.04,.61-.16,.75-.24,.17-.47,.07-.51,.05-.02-.01-.04-.02-.04-.02-.07-.05-.15-.11-.21-.16,.01,.05,.02,.1,.04,.16,.01,.05,.03,.11,.04,.17h0s.03,.02,.05,.04h.03c.12,.07,.34,.13,.6,0h0s.08-.04,.11-.07c.28-.2,.48-.6,.23-1.02-.29-.49-.82-.42-1.09-.24Z"/><path class="e" d="M80.77,9.29h0s-.05,.1-.02,.15l.55,.65c-.53-.17-.8-.24-1.35-.37h-.02c-.08,0-.15,.04-.19,.11-.04,.07-.03,.15,.02,.21,.27,.28,.41,.43,.68,.71,.04,.04,.1,.04,.14,0h0s.04-.1,0-.14l-.61-.65c.55,.13,.82,.2,1.35,.37h.02c.05,.01,.1,0,.14-.04,.02-.01,.03-.03,.04-.05,.04-.07,.03-.15-.02-.2l-.6-.72s-.1-.05-.15,0Z"/><path class="e" d="M82.82,7.97s-.05,.03-.04,.06c.01,.08,0,.19,0,.28-.11-.02-.17-.03-.29-.05-.03,0-.06,.01-.06,.04,0,.03,.01,.05,.04,.06,.12,.02,.18,.03,.3,.05-.02,.11-.03,.19-.03,.19,0,.03,.01,.05,.04,.06,.01,0,.03,0,.04,0,.01,0,.02-.02,.02-.03,0,0,.02-.09,.04-.19,.12,.02,.17,.03,.29,.06,.01,0,.03,0,.04,0,.01,0,.02-.02,.02-.03,0-.03-.01-.05-.04-.06-.12-.02-.18-.04-.3-.06,.01-.11,.02-.23,0-.33,0-.03-.03-.04-.06-.04Z"/></g></g><g><g><g><g class="d"><path class="e" d="M161.13,9.59c-7.75,0-14.03,6.28-14.03,14.03s6.28,14.03,14.03,14.03,14.03-6.28,14.03-14.03-6.28-14.03-14.03-14.03Zm0,18.43c-2.43,0-4.4-1.97-4.4-4.4s1.97-4.4,4.4-4.4,4.4,1.97,4.4,4.4-1.97,4.4-4.4,4.4Z"/></g><path class="e" d="M161.13,1.15c12.39,0,22.48,10.08,22.48,22.48s-10.08,22.48-22.48,22.48-22.48-10.08-22.48-22.48S148.74,1.15,161.13,1.15m0-1c-12.97,0-23.48,10.51-23.48,23.48s10.51,23.48,23.48,23.48,23.48-10.51,23.48-23.48S174.1,.15,161.13,.15h0Z"/><path class="e" d="M161.13,10.59c7.19,0,13.03,5.85,13.03,13.03s-5.85,13.03-13.03,13.03-13.03-5.85-13.03-13.03,5.85-13.03,13.03-13.03m0-1c-7.75,0-14.03,6.28-14.03,14.03s6.28,14.03,14.03,14.03,14.03-6.28,14.03-14.03-6.28-14.03-14.03-14.03h0Z"/><path class="e" d="M161.13,19.23c2.43,0,4.4,1.97,4.4,4.4s-1.97,4.4-4.4,4.4-4.4-1.97-4.4-4.4,1.97-4.4,4.4-4.4m0-1c-2.98,0-5.4,2.42-5.4,5.4s2.42,5.4,5.4,5.4,5.4-2.42,5.4-5.4-2.42-5.4-5.4-5.4h0Z"/></g><g><path class="e" d="M146.54,54.19c.29-.03,.56-.04,.8-.04s.45,.01,.61,.04,.3,.07,.41,.13,.2,.12,.27,.19,.13,.16,.17,.27,.07,.22,.08,.33,.02,.25,.02,.4v2.47h-.9v-2.47c0-.45-.25-.68-.74-.68-.18,0-.38,0-.61,.03s-.42,.04-.56,.06l-.21,.03v-.68c.14-.03,.36-.06,.65-.09Zm.24,3.8h-.9v-2.41h.9v2.41Z"/><path class="e" d="M152.07,57.88v.1h-.89v-.1c0-.16,.03-.38,.08-.65s.11-.52,.19-.73l.59-1.62h-2.21v-.68h3.19v.54l-.64,1.73c-.2,.55-.3,1.02-.3,1.42Zm-1.42,1.54h-.83v-3.71h.83v3.71Z"/><path class="e" d="M156.64,57.98h-3.23v-.68h1.46l.67,.04h0l-.82-1.04-1.33-2.1h1l1.05,1.7c.14-.2,.23-.49,.26-.87l.07-.83h.88l-.06,.7c-.03,.33-.08,.58-.14,.74-.03,.08-.07,.18-.12,.28-.09,.21-.24,.4-.45,.57l.75,.96v.52Z"/><path class="e" d="M158.29,57.98h-.89v-3.78h.89v3.78Z"/><path class="e" d="M159.28,55.32c0-.35-.07-.72-.21-1.12h.86c.03,.08,.06,.17,.09,.27l.08,.31h.06s.02-.04,.04-.07,.06-.08,.12-.15,.13-.14,.21-.19,.19-.11,.32-.15,.29-.07,.46-.07,.32,.03,.46,.1,.25,.15,.34,.25,.15,.23,.21,.38c.1,.26,.14,.58,.14,.96v2.14h-1.62v-.68h.7v-1.35c0-.35-.03-.59-.1-.74-.03-.06-.07-.12-.11-.18-.09-.12-.23-.18-.43-.18-.09,0-.18,.02-.26,.06s-.16,.09-.21,.15c-.12,.12-.2,.23-.24,.33l-.03,.06-.22,2.52h-.87l.22-2.4c0-.09,.01-.18,.01-.27Z"/><path class="e" d="M165.58,54.19c.29-.03,.56-.04,.8-.04s.45,.01,.61,.04,.3,.07,.41,.13,.2,.12,.27,.19,.13,.16,.17,.27,.07,.22,.08,.33,.02,.25,.02,.4v2.47h-.9v-2.47c0-.45-.25-.68-.74-.68-.18,0-.38,0-.61,.03s-.42,.04-.56,.06l-.21,.03v-.68c.14-.03,.36-.06,.65-.09Zm.24,3.8h-.9v-2.41h.9v2.41Z"/><path class="e" d="M169.76,54.15c.63,0,1.05,.12,1.26,.37,.11,.13,.18,.27,.21,.43,.04,.17,.05,.36,.05,.57v1.79h.43v.68h-3.02v-.68h1.7v-1.79c0-.45-.25-.68-.74-.68-.25,0-.52,.02-.81,.05l-.14,.02v-.71c.29-.04,.64-.05,1.07-.05Z"/><path class="e" d="M172.29,56.71v-2.5h.89v1.75l-.59,.76h-.3Z"/><path class="e" d="M174.69,54.2h1.99v.58l-.51,1.8-.32,1.4h-.87l.32-1.4,.48-1.69h-1.98v-1.46h.89v.78Z"/></g></g><g><path class="e" d="M149.75,10.86c-.5,.44-.74,.67-1.19,1.16l-.32-.3c.13-.14,.19-.2,.32-.33h0s.04-.11,0-.15c-.04-.04-.1-.04-.15,0-.13,.13-.2,.2-.33,.34l-.34-.32s0-.01,0-.02c.21-.23,.32-.34,.54-.57,.04-.04,.05-.11,0-.15-.04-.04-.11-.04-.15,0-.22,.22-.33,.34-.55,.57-.09,.09-.09,.24,0,.31,.35,.32,.53,.49,.89,.81,.04,.04,.11,.03,.14,0,.48-.51,.73-.76,1.25-1.22,.04-.04,.05-.1,0-.14-.04-.04-.1-.05-.14,0Z"/><path class="e" d="M152.64,8.03s-.05,.01-.08,.01c-.02,0-.04,0-.06,.01-.15,.03-.28,.04-.34-.05-.03-.04-.04-.09-.02-.13,.02-.07,.09-.15,.19-.2,.13-.07,.22-.08,.34-.04,.05,.02,.12,0,.14-.06,.02-.05,0-.11-.05-.13-.18-.07-.34-.05-.53,.05-.07,.04-.25,.16-.3,.34-.03,.1,0,.2,.05,.29,.14,.21,.4,.16,.55,.13,.02,0,.04,0,.05,0,.03,0,.06,0,.09-.02,.18-.04,.3-.05,.38,.09,.02,.03,.02,.09,0,.14-.03,.08-.09,.14-.17,.18-.21,.1-.35,.01-.38,0-.05-.03-.11-.02-.14,.03-.03,.05-.02,.11,.02,.14,.04,.03,.28,.17,.59,.02h.03c.12-.08,.21-.18,.25-.3,.04-.1,.03-.21-.01-.3-.15-.28-.44-.22-.6-.19Z"/><path class="e" d="M153.64,7.52s-.05,0-.08,0c-.02,0-.04,0-.06,0-.15,.02-.28,.03-.33-.07-.03-.05-.03-.09-.02-.14,.02-.07,.1-.14,.2-.19,.13-.06,.22-.07,.34-.02,.05,.02,.12,0,.14-.05,.03-.05,0-.11-.05-.14-.18-.08-.34-.07-.53,.02-.08,.04-.26,.14-.32,.32-.03,.1-.02,.2,.03,.3,.13,.22,.4,.18,.54,.16,.02,0,.04,0,.05,0,.03,0,.06,0,.09-.01,.18-.02,.31-.03,.37,.11,.02,.04,.01,.09,0,.14-.03,.07-.1,.14-.18,.17-.21,.09-.35,0-.38-.03-.04-.03-.11-.03-.15,.02-.04,.04-.03,.11,.01,.14,.04,.03,.27,.19,.59,.06h.03c.12-.07,.22-.17,.26-.28,.04-.1,.04-.21,0-.3-.13-.29-.42-.25-.58-.23Z"/><path class="e" d="M151.03,8.21c-.39,.26-.34,.65-.31,.84,0,.02,0,.04,0,.06,0,.09,.04,.19,.07,.3,.08,.29,.13,.5,0,.6-.15,.11-.22,.17-.37,.29l-.29-.36c.1-.08,.15-.12,.25-.2h0c.09-.07,.18-.14,.27-.12,.02,0,.09,.02,.14,.05-.01-.07-.04-.15-.06-.24h-.04s-.09-.01-.14,0c.02-.1,0-.22-.1-.33-.18-.2-.5-.11-.63-.01-.14,.11-.44,.35-.64,.52-.05,.04-.07,.06-.11,.1h0s-.06,.08-.07,.13c0,.05,0,.1,.04,.13l.04,.05s.1,.04,.15,0c.04-.04,.05-.11,.01-.15l-.03-.03,.09-.08c.19-.16,.5-.41,.63-.51,.06-.04,.25-.11,.34,0,.13,.14,0,.31-.02,.34-.11,.08-.16,.12-.27,.2l-.16-.2s-.1-.05-.15-.01h0s-.06,.1-.02,.15l.6,.73s.07,.06,.12,.06c.05,0,.09,0,.13-.04h0c.15-.12,.23-.18,.38-.3,.26-.19,.16-.54,.08-.82-.03-.1-.05-.19-.06-.26,0-.02,0-.04,0-.07-.02-.17-.06-.45,.21-.63,.17-.11,.56-.21,.8,.18,.2,.33,.04,.61-.16,.75-.24,.17-.47,.07-.51,.05-.02-.01-.04-.02-.04-.02-.07-.05-.15-.11-.21-.16,.01,.05,.02,.1,.04,.16,.01,.05,.03,.11,.04,.17h0s.03,.02,.05,.04h.03c.12,.07,.34,.13,.6,0h0s.08-.04,.11-.07c.28-.2,.48-.6,.23-1.02-.29-.49-.82-.42-1.09-.24Z"/><path class="e" d="M149.45,9.78h0s-.05,.1-.02,.15l.55,.65c-.53-.17-.8-.24-1.35-.37h-.02c-.08,0-.15,.04-.19,.11-.04,.07-.03,.15,.02,.21,.27,.28,.41,.43,.68,.71,.04,.04,.1,.04,.14,0h0s.04-.1,0-.14l-.61-.65c.55,.13,.82,.2,1.35,.37h.02c.05,.01,.1,0,.14-.04,.02-.01,.03-.03,.04-.05,.04-.07,.03-.15-.02-.2l-.6-.72s-.1-.05-.15,0Z"/><path class="e" d="M151.5,8.45s-.05,.03-.04,.06c.01,.08,0,.19,0,.28-.11-.02-.17-.03-.29-.05-.03,0-.06,.01-.06,.04,0,.03,.01,.05,.04,.06,.12,.02,.18,.03,.3,.05-.02,.11-.03,.19-.03,.19,0,.03,.01,.05,.04,.06,.01,0,.03,0,.04,0,.01,0,.02-.02,.02-.03,0,0,.02-.09,.04-.19,.12,.02,.17,.03,.29,.06,.01,0,.03,0,.04,0,.01,0,.02-.02,.02-.03,0-.03-.01-.05-.04-.06-.12-.02-.18-.04-.3-.06,.01-.11,.02-.23,0-.33,0-.03-.03-.04-.06-.04Z"/></g></g><g><g><g><path class="e" d="M9.79,54.19c.29-.03,.56-.04,.8-.04s.45,.01,.61,.04,.3,.07,.41,.13,.2,.12,.27,.19,.13,.16,.17,.27,.07,.22,.08,.33,.02,.25,.02,.4v2.47h-.9v-2.47c0-.45-.25-.68-.74-.68-.18,0-.38,0-.61,.03s-.42,.04-.56,.06l-.21,.03v-.68c.14-.03,.36-.06,.65-.09Zm.24,3.8h-.9v-2.41h.9v2.41Z"/><path class="e" d="M13.71,54.2h1.99v.58l-.51,1.8-.32,1.4h-.87l.32-1.4,.48-1.69h-1.98v-1.46h.89v.78Z"/><path class="e" d="M17.24,57.98h-.89v-3.78h.89v3.78Z"/><path class="e" d="M18.8,54.2h1.99v.58l-.51,1.8-.32,1.4h-.87l.32-1.4,.48-1.69h-1.98v-1.46h.89v.78Z"/><path class="e" d="M21.44,57.98v-3.71c.14-.03,.36-.06,.65-.09s.56-.04,.8-.04,.45,.01,.61,.04,.3,.07,.41,.13,.2,.12,.27,.19,.13,.16,.17,.27,.07,.22,.08,.33,.02,.25,.02,.4v2.47h-.9v-2.47c0-.45-.25-.68-.74-.68-.13,0-.3,0-.48,.02v3.13h-.9Z"/><path class="e" d="M27.59,54.19c.29-.03,.56-.04,.8-.04s.45,.01,.61,.04,.3,.07,.41,.13,.2,.12,.27,.19,.13,.16,.17,.27,.07,.22,.08,.33,.02,.25,.02,.4v2.47h-.9v-2.47c0-.45-.25-.68-.74-.68-.18,0-.38,0-.61,.03s-.42,.04-.56,.06l-.21,.03v-.68c.14-.03,.36-.06,.65-.09Zm.24,3.8h-.9v-2.41h.9v2.41Z"/><path class="e" d="M31.78,54.15c.63,0,1.05,.12,1.26,.37,.11,.13,.18,.27,.21,.43,.04,.17,.05,.36,.05,.57v1.79h.43v.68h-3.02v-.68h1.7v-1.79c0-.45-.25-.68-.74-.68-.25,0-.52,.02-.81,.05l-.14,.02v-.71c.29-.04,.64-.05,1.07-.05Z"/><path class="e" d="M34.3,56.71v-2.5h.89v1.75l-.59,.76h-.3Z"/><path class="e" d="M36.71,54.2h1.99v.58l-.51,1.8-.32,1.4h-.87l.32-1.4,.48-1.69h-1.98v-1.46h.89v.78Z"/></g><g><g class="d"><path class="e" d="M23.77,9.33c-7.98,0-14.44,6.47-14.44,14.44s6.47,14.44,14.44,14.44,14.44-6.47,14.44-14.44-6.47-14.44-14.44-14.44Zm-1.25,2.63h2.36c.46,0,.84,.38,.84,.84l-.42,3.55c0,.46-.38,.84-.84,.84h-1.45c-.46,0-.84-.38-.84-.84l-.48-3.55c0-.46,.38-.84,.84-.84Zm-4.74,16.76l-2.82,2.2c-.4,.23-.91,.09-1.14-.3l-1.18-2.04c-.23-.4-.09-.91,.3-1.14l3.28-1.42c.4-.23,.91-.09,1.14,.3l.73,1.26c.23,.4,.09,.91-.3,1.14Zm5.99-.26c-2.59,0-4.69-2.1-4.69-4.69s2.1-4.69,4.69-4.69,4.69,2.1,4.69,4.69-2.1,4.69-4.69,4.69Zm9.54,2.71c-.25,.39-.77,.5-1.16,.25l-2.76-2.27c-.39-.25-.5-.77-.25-1.16l.78-1.22c.25-.39,.77-.5,1.16-.25l3.25,1.51c.39,.25,.5,.77,.25,1.16l-1.27,1.98Z"/></g><path class="e" d="M23.77,1c12.56,0,22.77,10.21,22.77,22.77s-10.21,22.77-22.77,22.77S1,36.33,1,23.77,11.21,1,23.77,1m0-1C10.64,0,0,10.64,0,23.77s10.64,23.77,23.77,23.77,23.77-10.64,23.77-23.77S36.9,0,23.77,0h0Z"/><path class="e" d="M23.77,10.33c7.41,0,13.44,6.03,13.44,13.44s-6.03,13.44-13.44,13.44-13.44-6.03-13.44-13.44,6.03-13.44,13.44-13.44m0-1c-7.98,0-14.44,6.47-14.44,14.44s6.47,14.44,14.44,14.44,14.44-6.47,14.44-14.44-6.47-14.44-14.44-14.44h0Z"/><path class="e" d="M23.77,20.08c2.04,0,3.69,1.66,3.69,3.69s-1.66,3.69-3.69,3.69-3.69-1.66-3.69-3.69,1.66-3.69,3.69-3.69m0-1c-2.59,0-4.69,2.1-4.69,4.69s2.1,4.69,4.69,4.69,4.69-2.1,4.69-4.69-2.1-4.69-4.69-4.69h0Z"/><g><path class="e" d="M24.69,12.96l-.38,3.22h-1.15l-.44-3.22h1.97m.19-1h-2.36c-.46,0-.84,.38-.84,.84l.48,3.55c0,.46,.38,.84,.84,.84h1.45c.46,0,.84-.38,.84-.84l.42-3.55c0-.46-.38-.84-.84-.84h0Z"/><path class="e" d="M16.57,26.95l.58,1-2.56,2-.99-1.71,2.98-1.29m.06-1.05c-.14,0-.29,.04-.42,.11l-3.28,1.42c-.4,.23-.53,.75-.3,1.14l1.18,2.04c.15,.27,.44,.42,.73,.42,.14,0,.29-.04,.42-.11l2.82-2.2c.4-.23,.53-.75,.3-1.14l-.73-1.26c-.15-.27-.44-.42-.73-.42h0Z"/><path class="e" d="M30.69,27.44l2.95,1.37-1.07,1.66-2.51-2.06,.62-.97m-.05-1.05c-.28,0-.55,.14-.71,.38l-.78,1.22c-.25,.39-.13,.91,.25,1.16l2.76,2.27c.14,.09,.3,.13,.45,.13,.28,0,.55-.14,.71-.38l1.27-1.98c.25-.39,.13-.91-.25-1.16l-3.25-1.51c-.14-.09-.3-.13-.45-.13h0Z"/></g></g></g><g><path class="e" d="M11.9,10.37c-.5,.44-.74,.67-1.19,1.16l-.32-.3c.13-.14,.19-.2,.32-.33h0s.04-.11,0-.15c-.04-.04-.1-.04-.15,0-.13,.13-.2,.2-.33,.34l-.34-.32s0-.01,0-.02c.21-.23,.32-.34,.54-.57,.04-.04,.05-.11,0-.15-.04-.04-.11-.04-.15,0-.22,.22-.33,.34-.55,.57-.09,.09-.09,.24,0,.31,.35,.32,.53,.49,.89,.81,.04,.04,.11,.03,.14,0,.48-.51,.73-.76,1.25-1.22,.04-.04,.05-.1,0-.14-.04-.04-.1-.05-.14,0Z"/><path class="e" d="M14.79,7.53s-.05,.01-.08,.01c-.02,0-.04,0-.06,.01-.15,.03-.28,.04-.34-.05-.03-.04-.04-.09-.02-.13,.02-.07,.09-.15,.19-.2,.13-.07,.22-.08,.34-.04,.05,.02,.12,0,.14-.06,.02-.05,0-.11-.05-.13-.18-.07-.34-.05-.53,.05-.07,.04-.25,.16-.3,.34-.03,.1,0,.2,.05,.29,.14,.21,.4,.16,.55,.13,.02,0,.04,0,.05,0,.03,0,.06,0,.09-.02,.18-.04,.3-.05,.38,.09,.02,.03,.02,.09,0,.14-.03,.08-.09,.14-.17,.18-.21,.1-.35,.01-.38,0-.05-.03-.11-.02-.14,.03-.03,.05-.02,.11,.02,.14,.04,.03,.28,.17,.59,.02h.03c.12-.08,.21-.18,.25-.3,.04-.1,.03-.21-.01-.3-.15-.28-.44-.22-.6-.19Z"/><path class="e" d="M15.79,7.02s-.05,0-.08,0c-.02,0-.04,0-.06,0-.15,.02-.28,.03-.33-.07-.03-.05-.03-.09-.02-.14,.02-.07,.1-.14,.2-.19,.13-.06,.22-.07,.34-.02,.05,.02,.12,0,.14-.05,.03-.05,0-.11-.05-.14-.18-.08-.34-.07-.53,.02-.08,.04-.26,.14-.32,.32-.03,.1-.02,.2,.03,.3,.13,.22,.4,.18,.54,.16,.02,0,.04,0,.05,0,.03,0,.06,0,.09-.01,.18-.02,.31-.03,.37,.11,.02,.04,.01,.09,0,.14-.03,.07-.1,.14-.18,.17-.21,.09-.35,0-.38-.03-.04-.03-.11-.03-.15,.02-.04,.04-.03,.11,.01,.14,.04,.03,.27,.19,.59,.06h.03c.12-.07,.22-.17,.26-.28,.04-.1,.04-.21,0-.3-.13-.29-.42-.25-.58-.23Z"/><path class="e" d="M13.18,7.71c-.39,.26-.34,.65-.31,.84,0,.02,0,.04,0,.06,0,.09,.04,.19,.07,.3,.08,.29,.13,.5,0,.6-.15,.11-.22,.17-.37,.29l-.29-.36c.1-.08,.15-.12,.25-.2h0c.09-.07,.18-.14,.27-.12,.02,0,.09,.02,.14,.05-.01-.07-.04-.15-.06-.24h-.04s-.09-.01-.14,0c.02-.1,0-.22-.1-.33-.18-.2-.5-.11-.63-.01-.14,.11-.44,.35-.64,.52-.05,.04-.07,.06-.11,.1h0s-.06,.08-.07,.13c0,.05,0,.1,.04,.13l.04,.05s.1,.04,.15,0c.04-.04,.05-.11,.01-.15l-.03-.03,.09-.08c.19-.16,.5-.41,.63-.51,.06-.04,.25-.11,.34,0,.13,.14,0,.31-.02,.34-.11,.08-.16,.12-.27,.2l-.16-.2s-.1-.05-.15-.01h0s-.06,.1-.02,.15l.6,.73s.07,.06,.12,.06c.05,0,.09,0,.13-.04h0c.15-.12,.23-.18,.38-.3,.26-.19,.16-.54,.08-.82-.03-.1-.05-.19-.06-.26,0-.02,0-.04,0-.07-.02-.17-.06-.45,.21-.63,.17-.11,.56-.21,.8,.18,.2,.33,.04,.61-.16,.75-.24,.17-.47,.07-.51,.05-.02-.01-.04-.02-.04-.02-.07-.05-.15-.11-.21-.16,.01,.05,.02,.1,.04,.16,.01,.05,.03,.11,.04,.17h0s.03,.02,.05,.04h.03c.12,.07,.34,.13,.6,0h0s.08-.04,.11-.07c.28-.2,.48-.6,.23-1.02-.29-.49-.82-.42-1.09-.24Z"/><path class="e" d="M11.6,9.28h0s-.05,.1-.02,.15l.55,.65c-.53-.17-.8-.24-1.35-.37h-.02c-.08,0-.15,.04-.19,.11-.04,.07-.03,.15,.02,.21,.27,.28,.41,.43,.68,.71,.04,.04,.1,.04,.14,0h0s.04-.1,0-.14c-.24-.26-.37-.39-.61-.65,.55,.13,.82,.2,1.35,.37h.02c.05,.01,.1,0,.14-.04,.02-.01,.03-.03,.04-.05,.04-.07,.03-.15-.02-.2l-.6-.72s-.1-.05-.15,0Z"/><path class="e" d="M13.64,7.95s-.05,.03-.04,.06c.01,.08,0,.19,0,.28-.11-.02-.17-.03-.29-.05-.03,0-.06,.01-.06,.04,0,.03,.01,.05,.04,.06,.12,.02,.18,.03,.3,.05-.02,.11-.03,.19-.03,.19,0,.03,.01,.05,.04,.06,.01,0,.03,0,.04,0,.01,0,.02-.02,.02-.03,0,0,.02-.09,.04-.19,.12,.02,.17,.03,.29,.06,.01,0,.03,0,.04,0,.01,0,.02-.02,.02-.03,0-.03-.01-.05-.04-.06-.12-.02-.18-.04-.3-.06,.01-.11,.02-.23,0-.33,0-.03-.03-.04-.06-.04Z"/></g></g></g></g></g></svg>