<?xml version="1.0" encoding="UTF-8"?><svg xmlns="http://www.w3.org/2000/svg" viewBox="0 0 29.82 29.82"><defs><style>.d{fill:#fcbe0c;}</style></defs><g id="a"/><g id="b"><g id="c"><g><circle class="d" cx="14.91" cy="14.91" r="6.59"/><rect class="d" x="13.94" y="0" width="1.93" height="5.63" rx=".97" ry=".97"/><rect class="d" x="13.94" y="24.2" width="1.93" height="5.63" rx=".97" ry=".97" transform="translate(29.82 54.02) rotate(-180)"/><rect class="d" x="26.04" y="12.1" width="1.93" height="5.63" rx=".97" ry=".97" transform="translate(41.92 -12.1) rotate(90)"/><rect class="d" x="1.85" y="12.1" width="1.93" height="5.63" rx=".97" ry=".97" transform="translate(-12.1 17.72) rotate(-90)"/><rect class="d" x="22.5" y="3.54" width="1.93" height="5.63" rx=".97" ry=".97" transform="translate(11.37 -14.73) rotate(45)"/><rect class="d" x="5.39" y="20.65" width="1.93" height="5.63" rx=".97" ry=".97" transform="translate(-5.74 44.55) rotate(-135)"/><rect class="d" x="22.5" y="20.65" width="1.93" height="5.63" rx=".97" ry=".97" transform="translate(56.65 23.47) rotate(135)"/><rect class="d" x="5.39" y="3.54" width="1.93" height="5.63" rx=".97" ry=".97" transform="translate(-2.63 6.36) rotate(-45)"/></g></g></g></svg>