<?xml version="1.0" encoding="UTF-8"?><svg xmlns="http://www.w3.org/2000/svg" viewBox="0 0 889.42 184.04"><defs><style>.d,.e{opacity:.85;}.f{opacity:.8;}.f,.g,.h,.e{fill:#F6834A;}.i{fill:none;stroke:#F6834A;stroke-miterlimit:10;stroke-width:3px;}.h{opacity:.75;}</style></defs><g id="a"/><g id="b"><g id="c"><g><g><path class="e" d="M777.51,15.81H111.31c-6.6,0-31.44,.88-36.12,5.53-15.51,15.36-19.78,34.32-19.78,34.32,0,6.6,5.4,12,12,12h4.57c-.01,.17-.03,.33-.04,.5,1.87-.32,3.79-.5,5.76-.5,16.77,0,30.68,12.21,33.35,28.23h.47c.07,6.54,5.44,11.87,11.99,11.87h124.37c4.23,0,7.96-2.22,10.1-5.55h1.06c.1-1.15,.25-2.29,.44-3.42,.14-.53,.25-1.08,.32-1.63,3.88-18.17,20.02-31.81,39.35-31.81,1.83,0,3.62,.14,5.39,.37h31.05v-.37h217.67v.37h31.05c1.76-.24,3.56-.37,5.39-.37,19.33,0,35.47,13.63,39.35,31.81,.07,.56,.18,1.1,.32,1.63,.19,1.12,.34,2.26,.44,3.42h1.06c2.14,3.33,5.87,5.55,10.1,5.55h124.37c6.56,0,11.92-5.33,11.99-11.87h.47c2.66-16.02,16.58-28.23,33.35-28.23,1.96,0,3.89,.18,5.76,.5,0-.17-.03-.33-.04-.5h4.57c6.6,0,12-5.4,12-12,0,0-4.28-18.97-19.78-34.32-4.69-4.64-29.53-5.53-36.12-5.53Z"/><path class="g" d="M817.56,1.5H68.66C46.81,18.79,31.6,46.92,28.56,79.4v14.31c0,24.75,20.25,45,45,45H344.02c18.15-22.78,55.73-38.44,99.15-38.44s81,15.65,99.15,38.44h269.9c24.75,0,45-20.25,45-45v-18.15c-3.83-30.85-18.68-57.46-39.66-74.06ZM73.45,117.57c-10.93,0-19.78-8.86-19.78-19.78s8.86-19.78,19.78-19.78,19.78,8.86,19.78,19.78-8.86,19.78-19.78,19.78Zm220,0c-10.93,0-19.78-8.86-19.78-19.78s8.86-19.78,19.78-19.78,19.78,8.86,19.78,19.78-8.86,19.78-19.78,19.78Zm296,0c-10.93,0-19.78-8.86-19.78-19.78s8.86-19.78,19.78-19.78,19.78,8.86,19.78,19.78-8.86,19.78-19.78,19.78Zm224,0c-10.93,0-19.78-8.86-19.78-19.78s8.86-19.78,19.78-19.78,19.78,8.86,19.78,19.78-8.86,19.78-19.78,19.78Zm7.78-50.09h-4.57c.01,.17,.03,.33,.04,.5-1.87-.32-3.79-.5-5.76-.5-16.77,0-30.68,12.21-33.35,28.23h-.47c-.07,6.54-5.44,11.87-11.99,11.87h-124.37c-4.23,0-7.96-2.22-10.1-5.55h-1.06c-.1-1.15-.25-2.29-.44-3.42-.14-.53-.25-1.08-.32-1.63-3.88-18.17-20.02-31.81-39.35-31.81-1.83,0-3.62,.14-5.39,.37h-31.05v-.37h-217.67v.37h-31.05c-1.76-.24-3.56-.37-5.39-.37-19.33,0-35.47,13.63-39.35,31.81-.07,.56-.18,1.1-.32,1.63-.19,1.12-.34,2.26-.44,3.42h-1.06c-2.14,3.33-5.87,5.55-10.1,5.55H123.32c-6.56,0-11.92-5.33-11.99-11.87h-.47c-2.66-16.02-16.58-28.23-33.35-28.23-1.96,0-3.89,.18-5.76,.5,0-.17,.03-.33,.04-.5h-4.57c-6.6,0-12-5.4-12-12,0,0,4.28-18.97,19.78-34.32,4.69-4.64,29.53-5.53,36.12-5.53H777.33c6.6,0,31.44,.88,36.12,5.53,15.51,15.36,19.78,34.32,19.78,34.32,0,6.6-5.4,12-12,12Z"/></g><path class="h" d="M835.43,20.01c11.39,15.3,19.18,34.43,21.8,55.55v18.15c0,24.75-20.25,45-45,45h-82.87c14.24,26.95,42.53,45.33,75.13,45.33,46.91,0,84.93-38.03,84.93-84.93,0-35.99-22.39-66.72-53.99-79.09Z"/><path class="f" d="M250.61,138.71c10.74,13.16,27.09,21.57,45.4,21.57s34.66-8.41,45.4-21.57h-90.81Z"/><path class="f" d="M545.96,138.71c10.74,13.16,27.09,21.57,45.4,21.57s34.66-8.41,45.4-21.57h-90.81Z"/><path class="h" d="M73.56,138.71c-24.75,0-45-20.25-45-45v-14.31c2.03-21.74,9.52-41.52,20.8-57.41C20.23,35.44,0,64.9,0,99.11c0,46.91,38.03,84.93,84.93,84.93,32.6,0,60.9-18.38,75.13-45.33H73.56Z"/><g class="d"><circle class="g" cx="73.45" cy="97.78" r="19.78"/><circle class="g" cx="293.45" cy="97.78" r="19.78"/><circle class="g" cx="589.45" cy="97.78" r="19.78"/><circle class="g" cx="813.45" cy="97.78" r="19.78"/></g><path class="f" d="M73.56,138.71c-24.75,0-45-20.25-45-45v-11.73c-1.85,5.24-2.87,10.88-2.87,16.75,0,27.78,22.52,50.29,50.29,50.29,11.48,0,22.05-3.85,30.51-10.32h-32.93Z"/><path class="f" d="M856.94,73.49c.1,.69,.2,1.38,.28,2.07v18.15c0,24.75-20.25,45-45,45h-29.28c8.46,6.47,19.04,10.32,30.51,10.32,27.78,0,50.29-22.52,50.29-50.29,0-9.2-2.48-17.82-6.8-25.24Z"/><path class="i" d="M817.56,1.5H68.66C46.81,18.79,31.6,46.92,28.56,79.4v14.31c0,24.75,20.25,45,45,45H344.02c18.15-22.78,55.73-38.44,99.15-38.44s81,15.65,99.15,38.44h269.9c24.75,0,45-20.25,45-45v-18.15c-3.83-30.85-18.68-57.46-39.66-74.06Z"/></g><g><path class="g" d="M270.37,41.7c-.77,1.38-1.94,2.49-3.53,3.34-1.59,.85-3.55,1.27-5.9,1.27h-4.35v10.33h-7.01V27.86h11.36c2.3,0,4.24,.4,5.82,1.19,1.58,.79,2.77,1.89,3.57,3.28,.79,1.39,1.19,2.99,1.19,4.8,0,1.67-.38,3.19-1.15,4.57Zm-6.97-1.91c.66-.63,.98-1.52,.98-2.67s-.33-2.04-.98-2.67c-.66-.63-1.65-.94-2.99-.94h-3.81v7.22h3.81c1.34,0,2.34-.31,2.99-.94Z"/><path class="g" d="M282.18,26.3v30.34h-7.01V26.3h7.01Z"/><path class="g" d="M287.2,38.97c.89-1.78,2.1-3.14,3.63-4.1,1.53-.96,3.24-1.43,5.12-1.43,1.61,0,3.03,.33,4.24,.98,1.22,.66,2.15,1.52,2.81,2.58v-3.24h7.01v22.88h-7.01v-3.24c-.68,1.07-1.63,1.93-2.85,2.58-1.22,.66-2.63,.98-4.24,.98-1.86,0-3.55-.49-5.08-1.46-1.53-.97-2.74-2.35-3.63-4.14-.89-1.79-1.33-3.86-1.33-6.21s.44-4.41,1.33-6.19Zm14.35,2.09c-.97-1.01-2.15-1.52-3.55-1.52s-2.58,.5-3.55,1.5c-.97,1-1.46,2.37-1.46,4.12s.48,3.14,1.46,4.16c.97,1.02,2.15,1.54,3.55,1.54s2.58-.5,3.55-1.52c.97-1.01,1.46-2.39,1.46-4.14s-.49-3.13-1.46-4.14Z"/><path class="g" d="M319.08,55.95c-1.56-.68-2.79-1.62-3.69-2.81-.9-1.19-1.41-2.52-1.52-4h6.93c.08,.79,.45,1.43,1.11,1.93,.66,.49,1.46,.74,2.42,.74,.87,0,1.55-.17,2.03-.51,.48-.34,.72-.79,.72-1.33,0-.66-.34-1.14-1.03-1.46-.68-.31-1.79-.66-3.32-1.04-1.64-.38-3.01-.79-4.1-1.21s-2.04-1.09-2.83-2.01c-.79-.92-1.19-2.15-1.19-3.71,0-1.31,.36-2.51,1.09-3.59,.72-1.08,1.79-1.93,3.2-2.56,1.41-.63,3.08-.94,5.02-.94,2.87,0,5.13,.71,6.79,2.13,1.65,1.42,2.6,3.31,2.85,5.66h-6.48c-.11-.79-.46-1.42-1.05-1.89s-1.36-.7-2.32-.7c-.82,0-1.45,.16-1.89,.47-.44,.31-.66,.75-.66,1.29,0,.66,.35,1.15,1.05,1.48,.7,.33,1.78,.66,3.26,.98,1.69,.44,3.08,.87,4.14,1.29s2,1.11,2.81,2.05,1.22,2.21,1.25,3.79c0,1.34-.38,2.54-1.13,3.59-.75,1.05-1.83,1.88-3.24,2.48-1.41,.6-3.04,.9-4.9,.9-2,0-3.77-.34-5.33-1.03Z"/><path class="g" d="M350.73,50.7v5.95h-3.57c-2.54,0-4.52-.62-5.95-1.87s-2.13-3.27-2.13-6.09v-9.1h-2.79v-5.82h2.79v-5.58h7.01v5.58h4.59v5.82h-4.59v9.18c0,.68,.16,1.18,.49,1.48,.33,.3,.87,.45,1.64,.45h2.5Z"/><path class="g" d="M355.14,30.3c-.78-.72-1.17-1.62-1.17-2.69s.39-2,1.17-2.73c.78-.72,1.78-1.09,3.01-1.09s2.19,.36,2.97,1.09c.78,.72,1.17,1.63,1.17,2.73s-.39,1.96-1.17,2.69c-.78,.72-1.77,1.09-2.97,1.09s-2.23-.36-3.01-1.09Zm6.5,3.46v22.88h-7.01v-22.88h7.01Z"/><path class="g" d="M366.78,38.97c.97-1.78,2.32-3.14,4.06-4.1,1.74-.96,3.72-1.43,5.97-1.43,2.87,0,5.27,.75,7.2,2.25,1.93,1.5,3.19,3.62,3.79,6.36h-7.46c-.63-1.75-1.84-2.62-3.65-2.62-1.29,0-2.31,.5-3.07,1.5-.77,1-1.15,2.43-1.15,4.28s.38,3.29,1.15,4.29c.76,1,1.79,1.5,3.07,1.5,1.8,0,3.02-.87,3.65-2.62h7.46c-.6,2.68-1.87,4.78-3.81,6.31-1.94,1.53-4.33,2.3-7.18,2.3-2.24,0-4.23-.48-5.97-1.44-1.74-.96-3.09-2.32-4.06-4.1-.97-1.78-1.46-3.85-1.46-6.23s.48-4.45,1.46-6.23Z"/><path class="g" d="M418.14,51.56h-10.74l-1.72,5.08h-7.34l10.41-28.78h8.12l10.41,28.78h-7.42l-1.72-5.08Zm-1.8-5.41l-3.57-10.54-3.53,10.54h7.09Z"/><path class="g" d="M450.79,36.12c1.6,1.74,2.4,4.12,2.4,7.15v13.37h-6.97v-12.42c0-1.53-.4-2.72-1.19-3.57-.79-.85-1.86-1.27-3.2-1.27s-2.41,.42-3.2,1.27c-.79,.85-1.19,2.04-1.19,3.57v12.42h-7.01v-22.88h7.01v3.03c.71-1.01,1.67-1.81,2.87-2.4,1.2-.59,2.56-.88,4.06-.88,2.68,0,4.82,.87,6.42,2.6Z"/><path class="g" d="M470.82,50.7v5.95h-3.57c-2.54,0-4.52-.62-5.95-1.87s-2.13-3.27-2.13-6.09v-9.1h-2.79v-5.82h2.79v-5.58h7.01v5.58h4.59v5.82h-4.59v9.18c0,.68,.16,1.18,.49,1.48,.33,.3,.87,.45,1.64,.45h2.5Z"/><path class="g" d="M475.23,30.3c-.78-.72-1.17-1.62-1.17-2.69s.39-2,1.17-2.73c.78-.72,1.78-1.09,3.01-1.09s2.19,.36,2.97,1.09c.78,.72,1.17,1.63,1.17,2.73s-.39,1.96-1.17,2.69c-.78,.72-1.77,1.09-2.97,1.09s-2.23-.36-3.01-1.09Zm6.5,3.46v22.88h-7.01v-22.88h7.01Z"/><path class="g" d="M510.18,56.64l-5.99-10.87h-1.68v10.87h-7.01V27.86h11.77c2.27,0,4.2,.4,5.8,1.19,1.6,.79,2.79,1.88,3.59,3.26,.79,1.38,1.19,2.92,1.19,4.61,0,1.91-.54,3.62-1.62,5.12-1.08,1.5-2.67,2.57-4.78,3.2l6.64,11.4h-7.91Zm-7.67-15.83h4.35c1.28,0,2.25-.31,2.89-.94,.64-.63,.96-1.52,.96-2.67s-.32-1.95-.96-2.58c-.64-.63-1.61-.94-2.89-.94h-4.35v7.13Z"/><path class="g" d="M526.6,55.54c-1.79-.96-3.2-2.32-4.22-4.1-1.02-1.78-1.54-3.85-1.54-6.23s.52-4.42,1.56-6.21c1.04-1.79,2.46-3.16,4.26-4.12,1.8-.96,3.83-1.43,6.07-1.43s4.26,.48,6.07,1.43c1.8,.96,3.23,2.33,4.26,4.12,1.04,1.79,1.56,3.86,1.56,6.21s-.53,4.42-1.58,6.21c-1.05,1.79-2.49,3.16-4.31,4.12-1.82,.96-3.85,1.44-6.09,1.44s-4.26-.48-6.05-1.44Zm9.47-6.11c.94-.98,1.41-2.39,1.41-4.22s-.46-3.24-1.37-4.22c-.92-.98-2.04-1.48-3.38-1.48s-2.5,.49-3.4,1.46c-.9,.97-1.35,2.38-1.35,4.24s.44,3.24,1.33,4.22c.89,.98,2,1.48,3.34,1.48s2.48-.49,3.42-1.48Z"/><path class="g" d="M548.41,38.97c.97-1.78,2.32-3.14,4.06-4.1,1.74-.96,3.72-1.43,5.97-1.43,2.87,0,5.27,.75,7.2,2.25,1.93,1.5,3.19,3.62,3.79,6.36h-7.46c-.63-1.75-1.84-2.62-3.65-2.62-1.29,0-2.31,.5-3.07,1.5-.77,1-1.15,2.43-1.15,4.28s.38,3.29,1.15,4.29c.76,1,1.79,1.5,3.07,1.5,1.8,0,3.02-.87,3.65-2.62h7.46c-.6,2.68-1.87,4.78-3.81,6.31-1.94,1.53-4.33,2.3-7.18,2.3-2.24,0-4.23-.48-5.97-1.44-1.74-.96-3.09-2.32-4.06-4.1-.97-1.78-1.46-3.85-1.46-6.23s.48-4.45,1.46-6.23Z"/><path class="g" d="M587.14,56.64l-6.97-9.59v9.59h-7.01V26.3h7.01v16.77l6.93-9.31h8.65l-9.51,11.48,9.59,11.4h-8.69Z"/><path class="g" d="M619.94,46.88h-15.87c.11,1.42,.57,2.51,1.37,3.26,.81,.75,1.8,1.13,2.97,1.13,1.75,0,2.97-.74,3.65-2.21h7.46c-.38,1.5-1.07,2.86-2.07,4.06-1,1.2-2.25,2.15-3.75,2.83-1.5,.68-3.18,1.03-5.04,1.03-2.24,0-4.24-.48-5.99-1.44-1.75-.96-3.12-2.32-4.1-4.1-.98-1.78-1.48-3.85-1.48-6.23s.48-4.45,1.46-6.23c.97-1.78,2.33-3.14,4.08-4.1,1.75-.96,3.76-1.43,6.03-1.43s4.18,.46,5.9,1.39c1.72,.93,3.07,2.25,4.04,3.98s1.46,3.73,1.46,6.03c0,.66-.04,1.34-.12,2.05Zm-7.05-3.9c0-1.2-.41-2.16-1.23-2.87-.82-.71-1.85-1.07-3.08-1.07s-2.17,.34-2.97,1.02c-.81,.68-1.31,1.65-1.5,2.91h8.77Z"/><path class="g" d="M633.84,34.61c1.23-.72,2.6-1.09,4.1-1.09v7.42h-1.93c-1.75,0-3.06,.38-3.94,1.13-.88,.75-1.31,2.07-1.31,3.96v10.62h-7.01v-22.88h7.01v3.81c.82-1.26,1.84-2.25,3.07-2.97Z"/></g></g></g></svg>