<?xml version="1.0" encoding="UTF-8"?><svg xmlns="http://www.w3.org/2000/svg" viewBox="0 0 221.42 94.92"><defs><style>.d{fill:#1c3054;}</style></defs><g id="a"/><g id="b"><g id="c"><g><path class="d" d="M19.09,30.98c6.6,0,12,5.4,12,12v38.93c0,6.6-5.4,12-12,12h-6.09c-6.6,0-12-5.4-12-12V42.98c0-6.6,5.4-12,12-12h6.09m0-1h-6.09c-7.17,0-13,5.83-13,13v38.93c0,7.17,5.83,13,13,13h6.09c7.17,0,13-5.83,13-13V42.98c0-7.17-5.83-13-13-13h0Z"/><path class="d" d="M82.67,16.91c6.6,0,12,5.4,12,12v53.01c0,6.6-5.4,12-12,12h-1.15c-6.6,0-12-5.4-12-12V28.91c0-6.6,5.4-12,12-12h1.15m0-1h-1.15c-7.17,0-13,5.83-13,13v53.01c0,7.17,5.83,13,13,13h1.15c7.17,0,13-5.83,13-13V28.91c0-7.17-5.83-13-13-13h0Z"/><path class="d" d="M144.77,8.89c6.08,0,11.41,7.94,14.43,19.88v45.27c-3.02,11.94-8.35,19.88-14.43,19.88s-11.03-7.38-14.1-18.6V27.49c3.07-11.23,8.24-18.6,14.1-18.6m0-1c-6.21,0-11.71,7.05-15.07,19.34l-.04,.13v48.09l.04,.13c3.36,12.29,8.85,19.34,15.07,19.34s12.14-7.71,15.4-20.63l.03-.12V28.64l-.03-.12c-3.27-12.92-9.03-20.63-15.4-20.63h0Z"/><path class="d" d="M205.92,1c4.33,0,8.26,4.99,11.14,13.08,1.38,3.88,2.52,8.46,3.36,13.56v39.64c-.83,5.1-1.97,9.69-3.36,13.56-2.88,8.09-6.81,13.08-11.14,13.08s-8.26-4.99-11.14-13.08c-1.38-3.88-2.52-8.46-3.36-13.56V27.64c.83-5.1,1.97-9.69,3.36-13.56,2.88-8.09,6.81-13.08,11.14-13.08m0-1c-4.63,0-8.93,4.88-12.09,13.74-1.42,3.98-2.56,8.61-3.4,13.74v39.96c.84,5.13,1.98,9.75,3.4,13.74,3.16,8.86,7.45,13.74,12.09,13.74s8.93-4.88,12.09-13.74c1.42-3.98,2.56-8.61,3.4-13.74V27.48c-.84-5.13-1.98-9.75-3.4-13.74-3.16-8.86-7.45-13.74-12.09-13.74h0Z"/></g></g></g></svg>