<?xml version="1.0" encoding="UTF-8"?><svg xmlns="http://www.w3.org/2000/svg" viewBox="0 0 220.08 92.92"><defs><style>.d{fill:#ffbf00;}</style></defs><g id="a"/><g id="b"><g id="c"><g><path class="d" d="M208.08,30.98c6.07,0,11,4.93,11,11v38.93c0,6.07-4.93,11-11,11h-6.09c-6.07,0-11-4.93-11-11V41.98c0-6.07,4.93-11,11-11h6.09m0-1h-6.09c-6.6,0-12,5.4-12,12v38.93c0,6.6,5.4,12,12,12h6.09c6.6,0,12-5.4,12-12V41.98c0-6.6-5.4-12-12-12h0Z"/><path class="d" d="M142.22,16.91c6.07,0,11,4.93,11,11v53.01c0,6.07-4.93,11-11,11h-1.15c-6.07,0-11-4.93-11-11V27.91c0-6.07,4.93-11,11-11h1.15m0-1h-1.15c-6.6,0-12,5.4-12,12v53.01c0,6.6,5.4,12,12,12h1.15c6.6,0,12-5.4,12-12V27.91c0-6.6-5.4-12-12-12h0Z"/><path class="d" d="M78.87,8.89c5.3,0,10.45,7.28,13.43,19v45.02c-2.99,11.72-8.13,19-13.43,19s-10.04-6.63-13.1-17.74V26.63c3.06-11.11,7.95-17.74,13.1-17.74m0-1c-5.86,0-11.03,7.38-14.1,18.6v47.82c3.07,11.23,8.24,18.6,14.1,18.6s11.41-7.94,14.43-19.88V27.77c-3.02-11.94-8.35-19.88-14.43-19.88h0Z"/><path class="d" d="M14.5,1c3.67,0,7.39,4.53,10.2,12.42,1.37,3.85,2.48,8.33,3.3,13.31v39.47c-.82,4.98-1.93,9.46-3.3,13.31-2.81,7.89-6.53,12.42-10.2,12.42s-7.39-4.53-10.2-12.42c-1.37-3.85-2.48-8.33-3.3-13.31V26.72c.82-4.98,1.93-9.46,3.3-13.31C7.11,5.53,10.83,1,14.5,1m0-1C10.17,0,6.24,4.99,3.36,13.08c-1.38,3.88-2.52,8.46-3.36,13.56v39.63c.83,5.1,1.97,9.69,3.36,13.56,2.88,8.09,6.81,13.08,11.14,13.08s8.26-4.99,11.14-13.08c1.38-3.88,2.52-8.46,3.36-13.56V26.64c-.83-5.1-1.97-9.69-3.36-13.56C22.76,4.99,18.83,0,14.5,0h0Z"/></g></g></g></svg>